<?xml version="1.0" encoding="UTF-8" standalone="no"?>
<svg
   xmlns:dc="http://purl.org/dc/elements/1.1/"
   xmlns:cc="http://creativecommons.org/ns#"
   xmlns:rdf="http://www.w3.org/1999/02/22-rdf-syntax-ns#"
   xmlns:svg="http://www.w3.org/2000/svg"
   xmlns="http://www.w3.org/2000/svg"
   xml:space="preserve"
   style="enable-background:new 0 0 18 18;"
   viewBox="0 0 18 18"
   y="0px"
   x="0px"
   id="Layer_1"
   version="1.1"><metadata
   id="metadata4015"><rdf:RDF><cc:Work
       rdf:about=""><dc:format>image/svg+xml</dc:format><dc:type
         rdf:resource="http://purl.org/dc/dcmitype/StillImage" /><dc:title></dc:title></cc:Work></rdf:RDF></metadata><defs
   id="defs4013" />
<style
   id="style3992"
   type="text/css">
	.st0{fill:none;stroke:#263238;stroke-linecap:round;}
</style>
<g
   id="g3996">
	<path
   id="path3994"
   d="M17.5,16.5c0,0.5-0.5,1-1,1h-6c-0.6,0-1-0.5-1-1v-9c0-0.6,0.4-1,1-1h6c0.5,0,1,0.4,1,1V16.5z"
   class="st0" />
</g>
<g
   id="g4000">
	<path
   id="path3998"
   d="M7.5,15.5h-6c-0.6,0-1-0.4-1-1v-11c0-0.5,0.4-1,1-1H5"
   class="st0" />
</g>
<g
   id="g4004">
	<path
   id="path4002"
   d="M11,2.5h3.5c0.6,0,1,0.5,1,1s0,1,0,1"
   class="st0" />
</g>
<g
   id="g4008">
	<path
   id="path4006"
   d="M11.1,2.6c0.2,0.5,0,0.9-0.6,0.9h-5c-0.6,0-0.8-0.4-0.6-0.9L5,2.4c0.2-0.5,0.9-0.9,1.4-0.9h3   c0.6,0,1.2,0.4,1.4,0.9L11.1,2.6z"
   class="st0" />
</g>
</svg>