<?xml version="1.0" encoding="UTF-8" standalone="no"?>
<svg
   xmlns:dc="http://purl.org/dc/elements/1.1/"
   xmlns:cc="http://creativecommons.org/ns#"
   xmlns:rdf="http://www.w3.org/1999/02/22-rdf-syntax-ns#"
   xmlns:svg="http://www.w3.org/2000/svg"
   xmlns="http://www.w3.org/2000/svg"
   xml:space="preserve"
   style="enable-background:new 0 0 18 18;"
   viewBox="0 0 18 18"
   y="0px"
   x="0px"
   id="Layer_1"
   version="1.1"><metadata
   id="metadata4147"><rdf:RDF><cc:Work
       rdf:about=""><dc:format>image/svg+xml</dc:format><dc:type
         rdf:resource="http://purl.org/dc/dcmitype/StillImage" /><dc:title></dc:title></cc:Work></rdf:RDF></metadata><defs
   id="defs4145" />
<style
   id="style4134"
   type="text/css">
	.st0{fill:none;stroke:#263238;stroke-linecap:round;}
</style>
<g
   id="g4138">
	<path
   id="path4136"
   d="M4.5,7.5h-2c-1,0-1,0-1,1v6c0,1,0,1,1,1h8c1,0,1,0,1-1v-2"
   class="st0" />
</g>
<path
   id="path4140"
   d="M15.5,2.5h-8c-1,0-1,0-1,1v4v2c0,1,0,1,1,1h1h6h1c1,0,1,0,1-1v-2v-4C16.5,2.5,16.5,2.5,15.5,2.5z"
   class="st0" />
</svg>