<?xml version="1.0" encoding="UTF-8" standalone="no"?>
<svg
   xmlns:dc="http://purl.org/dc/elements/1.1/"
   xmlns:cc="http://creativecommons.org/ns#"
   xmlns:rdf="http://www.w3.org/1999/02/22-rdf-syntax-ns#"
   xmlns:svg="http://www.w3.org/2000/svg"
   xmlns="http://www.w3.org/2000/svg"
   xml:space="preserve"
   enable-background="new 0 0 18 18"
   viewBox="0 0 18 18"
   y="0px"
   x="0px"
   id="Layer_1"
   version="1.1"><metadata
   id="metadata29"><rdf:RDF><cc:Work
       rdf:about=""><dc:format>image/svg+xml</dc:format><dc:type
         rdf:resource="http://purl.org/dc/dcmitype/StillImage" /><dc:title></dc:title></cc:Work></rdf:RDF></metadata><defs
   id="defs27" />
<g
   id="g22">
	<path
   id="path2"
   d="M4.5,15.5   c-1.7,0-3-1.3-3-3s1.3-3,3-3"
   stroke-miterlimit="10"
   stroke-linejoin="round"
   stroke-linecap="round"
   stroke="#263238"
   fill="none" />
	<path
   id="path4"
   d="M13.5,9.5   c1.7,0,3,0.8,3,2.5s-1.3,3.5-3,3.5"
   stroke-miterlimit="10"
   stroke-linejoin="round"
   stroke-linecap="round"
   stroke="#263238"
   fill="none" />
	
		<line
   id="line6"
   y2="9.5"
   x2="13.5"
   y1="9.5"
   x1="4.5"
   stroke-miterlimit="10"
   stroke-linejoin="round"
   stroke-linecap="round"
   stroke="#263238"
   fill="none" />
	
		<line
   id="line8"
   y2="15.5"
   x2="13.5"
   y1="15.5"
   x1="4.5"
   stroke-miterlimit="10"
   stroke-linejoin="round"
   stroke-linecap="round"
   stroke="#263238"
   fill="none" />
	
		<circle
   id="circle10"
   r="1.5"
   cy="12.5"
   cx="5"
   stroke-miterlimit="10"
   stroke-linejoin="round"
   stroke-linecap="round"
   stroke="#297FFF"
   fill="none" />
	<path
   id="path12"
   d="M4.5,7.5   c-1.7,0-3-1.3-3-3s1.3-3,3-3"
   stroke-miterlimit="10"
   stroke-linejoin="round"
   stroke-linecap="round"
   stroke="#263238"
   fill="none" />
	<path
   id="path14"
   d="M13.5,1.5   c1.7,0,3,1.3,3,3s-1.3,3-3,3"
   stroke-miterlimit="10"
   stroke-linejoin="round"
   stroke-linecap="round"
   stroke="#263238"
   fill="none" />
	
		<line
   id="line16"
   y2="1.5"
   x2="13.5"
   y1="1.5"
   x1="4.5"
   stroke-miterlimit="10"
   stroke-linejoin="round"
   stroke-linecap="round"
   stroke="#263238"
   fill="none" />
	
		<line
   id="line18"
   y2="7.5"
   x2="13.5"
   y1="7.5"
   x1="4.5"
   stroke-miterlimit="10"
   stroke-linejoin="round"
   stroke-linecap="round"
   stroke="#263238"
   fill="none" />
	
		<circle
   id="circle20"
   r="1.5"
   cy="4.5"
   cx="13"
   stroke-miterlimit="10"
   stroke-linejoin="round"
   stroke-linecap="round"
   stroke="#297FFF"
   fill="none" />
</g>
</svg>