<?xml version="1.0" encoding="UTF-8" standalone="no"?>
<svg
   xmlns:dc="http://purl.org/dc/elements/1.1/"
   xmlns:cc="http://creativecommons.org/ns#"
   xmlns:rdf="http://www.w3.org/1999/02/22-rdf-syntax-ns#"
   xmlns:svg="http://www.w3.org/2000/svg"
   xmlns="http://www.w3.org/2000/svg"
   xml:space="preserve"
   style="enable-background:new 0 0 18 18;"
   viewBox="0 0 18 18"
   y="0px"
   x="0px"
   id="Layer_1"
   version="1.1"><metadata
   id="metadata3965"><rdf:RDF><cc:Work
       rdf:about=""><dc:format>image/svg+xml</dc:format><dc:type
         rdf:resource="http://purl.org/dc/dcmitype/StillImage" /><dc:title></dc:title></cc:Work></rdf:RDF></metadata><defs
   id="defs3963" />
<style
   id="style3950"
   type="text/css">
	.st0{fill:none;stroke:#FAFAFA;stroke-linecap:round;stroke-linejoin:round;stroke-miterlimit:10;}
</style>
<path
   id="path3952"
   d="M13.5,10.5v1"
   class="st0" />
<path
   id="path3954"
   d="M2,16l3.6-3.8c0.4-0.4,1.2-0.7,1.7-0.7h9.1c0.5,0,0.9,0.3,0.5,0.7l-3.6,3.6c-0.4,0.4-1.1,0.7-1.6,0.7H2.5  c-0.5,0-1-0.4-1-1v-10c0-0.5,0.4-1,1-1h1.9c0.5,0,1.3,0.3,1.6,0.7L7.6,7C8,7.4,8.7,7.5,9.2,7.5H10"
   class="st0" />
<polyline
   id="polyline3956"
   points="11.5,3.5 14.5,0.5 17.5,3.5 "
   class="st0" />
<path
   id="path3958"
   d="M10,9.5c2.5,0,4.5-2,4.5-4.5V0.5"
   class="st0" />
</svg>