<svg version="1.1" xmlns="http://www.w3.org/2000/svg" width="800" height="600" shape-rendering="crispEdges">
<rect x="0" y="0" width="800" height="600" style="fill:rgb(240,240,240);"/>
<rect x="24" y="144" width="152" height="34" style="fill:rgb(100,100,100);"/>
<text x="100" y="161" dominant-baseline="central" text-anchor="middle" style="fill:rgb(255,255,255);font-family:Arial;font-size:16px;">Number</text>
<rect x="24" y="178" width="152" height="39" style="fill:rgb(200,200,200);"/>
<rect x="70" y="183" width="106" height="29" style="fill:rgb(225,225,225);"/>
<text x="171" y="197" dominant-baseline="central" text-anchor="end" style="fill:rgb(0,0,0);font-family:Arial;font-size:16px;">Output</text>
<rect x="24" y="217" width="152" height="39" style="fill:rgb(200,200,200);"/>
<text x="100" y="236" dominant-baseline="central" text-anchor="middle" style="fill:rgb(0,0,0);font-family:Arial;font-size:16px;">20.00</text>
<rect x="29" y="222" width="26" height="29" style="fill:rgb(150,175,200);"/>
<text x="42" y="236" dominant-baseline="central" text-anchor="middle" style="fill:rgb(0,0,0);font-family:Arial;font-size:16px;">&lt;</text>
<rect x="29" y="222" width="26" height="29" style="fill:none;stroke-width:1px;stroke:rgb(50,75,100);"/>
<rect x="145" y="222" width="26" height="29" style="fill:rgb(150,175,200);"/>
<text x="158" y="236" dominant-baseline="central" text-anchor="middle" style="fill:rgb(0,0,0);font-family:Arial;font-size:16px;">&gt;</text>
<rect x="145" y="222" width="26" height="29" style="fill:none;stroke-width:1px;stroke:rgb(50,75,100);"/>
<rect x="24" y="144" width="152" height="112" style="fill:none;stroke-width:1px;stroke:rgb(0,0,0);"/>
<rect x="208" y="324" width="184" height="151" style="fill:rgb(0,138,184);"/>
<rect x="213" y="329" width="174" height="34" style="fill:rgb(80,107,116);"/>
<text x="304" y="346" dominant-baseline="central" text-anchor="middle" style="fill:rgb(204,231,240);font-family:Arial;font-size:16px;">Range</text>
<rect x="217" y="333" width="4" height="26" style="fill:rgb(0,231,36);"/>
<rect x="213" y="363" width="174" height="107" style="fill:rgb(160,187,196);"/>
<rect x="213" y="368" width="90" height="29" style="fill:rgb(180,207,216);"/>
<text x="218" y="383" dominant-baseline="central" text-anchor="start" style="fill:rgb(0,27,36);font-family:Arial;font-size:16px;">Start</text>
<rect x="213" y="402" width="90" height="29" style="fill:rgb(180,207,216);"/>
<text x="218" y="417" dominant-baseline="central" text-anchor="start" style="fill:rgb(0,27,36);font-family:Arial;font-size:16px;">Step</text>
<rect x="213" y="436" width="90" height="29" style="fill:rgb(180,207,216);"/>
<text x="218" y="451" dominant-baseline="central" text-anchor="start" style="fill:rgb(0,27,36);font-family:Arial;font-size:16px;">Count</text>
<rect x="313" y="368" width="74" height="29" style="fill:rgb(180,207,216);"/>
<text x="382" y="383" dominant-baseline="central" text-anchor="end" style="fill:rgb(0,27,36);font-family:Arial;font-size:16px;">List</text>
<rect x="213" y="329" width="174" height="141" style="fill:none;stroke-width:1px;stroke:rgb(0,27,36);"/>
<rect x="497" y="44" width="206" height="34" style="fill:rgb(100,100,100);"/>
<text x="600" y="61" dominant-baseline="central" text-anchor="middle" style="fill:rgb(255,255,255);font-family:Arial;font-size:16px;">Viewer</text>
<rect x="497" y="78" width="206" height="39" style="fill:rgb(200,200,200);"/>
<rect x="497" y="83" width="90" height="29" style="fill:rgb(225,225,225);"/>
<text x="502" y="97" dominant-baseline="central" text-anchor="start" style="fill:rgb(0,0,0);font-family:Arial;font-size:16px;">Input</text>
<rect x="597" y="83" width="106" height="29" style="fill:rgb(225,225,225);"/>
<text x="698" y="97" dominant-baseline="central" text-anchor="end" style="fill:rgb(0,0,0);font-family:Arial;font-size:16px;">Output</text>
<rect x="497" y="117" width="206" height="39" style="fill:rgb(255,255,100);"/>
<text x="600" y="136" dominant-baseline="central" text-anchor="middle" style="fill:rgb(0,0,0);font-family:Arial;font-size:16px;">&lt;empty&gt;</text>
<rect x="497" y="44" width="206" height="112" style="fill:none;stroke-width:1px;stroke:rgb(0,0,0);"/>
<rect x="497" y="344" width="206" height="34" style="fill:rgb(100,100,100);"/>
<text x="600" y="361" dominant-baseline="central" text-anchor="middle" style="fill:rgb(255,255,255);font-family:Arial;font-size:16px;">Viewer 2</text>
<rect x="497" y="378" width="206" height="39" style="fill:rgb(200,200,200);"/>
<rect x="497" y="383" width="90" height="29" style="fill:rgb(225,225,225);"/>
<text x="502" y="397" dominant-baseline="central" text-anchor="start" style="fill:rgb(0,0,0);font-family:Arial;font-size:16px;">Input</text>
<rect x="597" y="383" width="106" height="29" style="fill:rgb(225,225,225);"/>
<text x="698" y="397" dominant-baseline="central" text-anchor="end" style="fill:rgb(0,0,0);font-family:Arial;font-size:16px;">Output</text>
<rect x="497" y="417" width="206" height="39" style="fill:rgb(255,255,100);"/>
<text x="600" y="436" dominant-baseline="central" text-anchor="middle" style="fill:rgb(0,0,0);font-family:Arial;font-size:16px;">&lt;empty&gt;</text>
<rect x="497" y="344" width="206" height="112" style="fill:none;stroke-width:1px;stroke:rgb(0,0,0);"/>
</svg>
