<svg version="1.1" xmlns="http://www.w3.org/2000/svg" width="800" height="600" shape-rendering="crispEdges">
<rect x="0" y="0" width="800" height="600" style="fill:rgb(240,240,240);"/>
<path d="M176,198 C345,198 329,98 497,98" style="fill:none;stroke-width:1px;stroke:rgb(0,0,0);"/>
<path d="M176,198 C271,198 119,383 213,383" style="fill:none;stroke-width:1px;stroke:rgb(0,0,0);"/>
<path d="M387,383 C445,383 427,320 484,320" style="fill:none;stroke-width:1px;stroke:rgb(0,0,0);"/>
<path d="M176,198 C342,198 319,320 484,320" style="fill:none;stroke-width:1px;stroke:rgb(0,0,0);"/>
<rect x="24" y="144" width="152" height="34" style="fill:rgb(100,100,100);"/>
<text x="100" y="161" dominant-baseline="central" text-anchor="middle" style="fill:rgb(255,255,255);font-family:Arial;font-size:16px;">Number</text>
<rect x="24" y="178" width="152" height="39" style="fill:rgb(200,200,200);"/>
<rect x="70" y="183" width="106" height="29" style="fill:rgb(225,225,225);"/>
<text x="171" y="197" dominant-baseline="central" text-anchor="end" style="fill:rgb(0,0,0);font-family:Arial;font-size:16px;">Output</text>
<rect x="24" y="217" width="152" height="39" style="fill:rgb(200,200,200);"/>
<text x="100" y="236" dominant-baseline="central" text-anchor="middle" style="fill:rgb(0,0,0);font-family:Arial;font-size:16px;">20.00</text>
<rect x="29" y="222" width="26" height="29" style="fill:rgb(150,175,200);"/>
<text x="42" y="236" dominant-baseline="central" text-anchor="middle" style="fill:rgb(0,0,0);font-family:Arial;font-size:16px;">&lt;</text>
<rect x="29" y="222" width="26" height="29" style="fill:none;stroke-width:1px;stroke:rgb(50,75,100);"/>
<rect x="145" y="222" width="26" height="29" style="fill:rgb(150,175,200);"/>
<text x="158" y="236" dominant-baseline="central" text-anchor="middle" style="fill:rgb(0,0,0);font-family:Arial;font-size:16px;">&gt;</text>
<rect x="145" y="222" width="26" height="29" style="fill:none;stroke-width:1px;stroke:rgb(50,75,100);"/>
<rect x="24" y="144" width="152" height="112" style="fill:none;stroke-width:1px;stroke:rgb(0,0,0);"/>
<rect x="213" y="329" width="174" height="34" style="fill:rgb(100,100,100);"/>
<text x="304" y="346" dominant-baseline="central" text-anchor="middle" style="fill:rgb(255,255,255);font-family:Arial;font-size:16px;">Range</text>
<rect x="217" y="333" width="4" height="26" style="fill:rgb(0,255,0);"/>
<rect x="213" y="363" width="174" height="107" style="fill:rgb(200,200,200);"/>
<rect x="213" y="368" width="90" height="29" style="fill:rgb(225,225,225);"/>
<text x="218" y="383" dominant-baseline="central" text-anchor="start" style="fill:rgb(0,0,0);font-family:Arial;font-size:16px;">Start</text>
<rect x="213" y="402" width="90" height="29" style="fill:rgb(225,225,225);"/>
<text x="218" y="417" dominant-baseline="central" text-anchor="start" style="fill:rgb(0,0,0);font-family:Arial;font-size:16px;">Step</text>
<rect x="213" y="436" width="90" height="29" style="fill:rgb(225,225,225);"/>
<text x="218" y="451" dominant-baseline="central" text-anchor="start" style="fill:rgb(0,0,0);font-family:Arial;font-size:16px;">Count</text>
<rect x="313" y="368" width="74" height="29" style="fill:rgb(225,225,225);"/>
<text x="382" y="383" dominant-baseline="central" text-anchor="end" style="fill:rgb(0,0,0);font-family:Arial;font-size:16px;">List</text>
<rect x="213" y="329" width="174" height="141" style="fill:none;stroke-width:1px;stroke:rgb(0,0,0);"/>
<rect x="497" y="44" width="206" height="34" style="fill:rgb(100,100,100);"/>
<text x="600" y="61" dominant-baseline="central" text-anchor="middle" style="fill:rgb(255,255,255);font-family:Arial;font-size:16px;">Viewer</text>
<rect x="497" y="78" width="206" height="39" style="fill:rgb(200,200,200);"/>
<rect x="497" y="83" width="90" height="29" style="fill:rgb(225,225,225);"/>
<text x="502" y="97" dominant-baseline="central" text-anchor="start" style="fill:rgb(0,0,0);font-family:Arial;font-size:16px;">Input</text>
<rect x="597" y="83" width="106" height="29" style="fill:rgb(225,225,225);"/>
<text x="698" y="97" dominant-baseline="central" text-anchor="end" style="fill:rgb(0,0,0);font-family:Arial;font-size:16px;">Output</text>
<rect x="497" y="117" width="206" height="39" style="fill:rgb(255,255,100);"/>
<text x="600" y="136" dominant-baseline="central" text-anchor="middle" style="fill:rgb(0,0,0);font-family:Arial;font-size:16px;">20.00</text>
<rect x="497" y="44" width="206" height="112" style="fill:none;stroke-width:1px;stroke:rgb(0,0,0);"/>
<rect x="484" y="266" width="232" height="34" style="fill:rgb(100,100,100);"/>
<text x="600" y="283" dominant-baseline="central" text-anchor="middle" style="fill:rgb(255,255,255);font-family:Arial;font-size:16px;">Viewer 2</text>
<rect x="484" y="300" width="232" height="39" style="fill:rgb(200,200,200);"/>
<rect x="484" y="305" width="90" height="29" style="fill:rgb(225,225,225);"/>
<text x="489" y="320" dominant-baseline="central" text-anchor="start" style="fill:rgb(0,0,0);font-family:Arial;font-size:16px;">Input</text>
<rect x="610" y="305" width="106" height="29" style="fill:rgb(225,225,225);"/>
<text x="711" y="320" dominant-baseline="central" text-anchor="end" style="fill:rgb(0,0,0);font-family:Arial;font-size:16px;">Output</text>
<rect x="484" y="339" width="232" height="155" style="fill:rgb(255,255,100);"/>
<text x="600" y="359" dominant-baseline="central" text-anchor="middle" style="fill:rgb(0,0,0);font-family:Arial;font-size:16px;">20.00</text>
<text x="600" y="388" dominant-baseline="central" text-anchor="middle" style="fill:rgb(0,0,0);font-family:Arial;font-size:16px;">21.00</text>
<text x="600" y="417" dominant-baseline="central" text-anchor="middle" style="fill:rgb(0,0,0);font-family:Arial;font-size:16px;">22.00</text>
<text x="600" y="446" dominant-baseline="central" text-anchor="middle" style="fill:rgb(0,0,0);font-family:Arial;font-size:16px;">23.00</text>
<text x="600" y="475" dominant-baseline="central" text-anchor="middle" style="fill:rgb(0,0,0);font-family:Arial;font-size:16px;">24.00</text>
<rect x="484" y="494" width="232" height="39" style="fill:rgb(200,200,200);"/>
<text x="600" y="514" dominant-baseline="central" text-anchor="middle" style="fill:rgb(0,0,0);font-family:Arial;font-size:16px;">1 / 2 (10)</text>
<rect x="489" y="499" width="26" height="29" style="fill:rgb(150,175,200);"/>
<text x="502" y="514" dominant-baseline="central" text-anchor="middle" style="fill:rgb(0,0,0);font-family:Arial;font-size:16px;">&lt;</text>
<rect x="489" y="499" width="26" height="29" style="fill:none;stroke-width:1px;stroke:rgb(50,75,100);"/>
<rect x="685" y="499" width="26" height="29" style="fill:rgb(150,175,200);"/>
<text x="698" y="514" dominant-baseline="central" text-anchor="middle" style="fill:rgb(0,0,0);font-family:Arial;font-size:16px;">&gt;</text>
<rect x="685" y="499" width="26" height="29" style="fill:none;stroke-width:1px;stroke:rgb(50,75,100);"/>
<rect x="484" y="266" width="232" height="267" style="fill:none;stroke-width:1px;stroke:rgb(0,0,0);"/>
</svg>
