<svg version="1.1" xmlns="http://www.w3.org/2000/svg" width="800" height="600" shape-rendering="crispEdges">
<rect x="0" y="0" width="800" height="600" style="fill:rgb(240,240,240);"/>
<path d="M237,213 C286,213 215,307 263,307" style="fill:none;stroke-width:1px;stroke:rgb(0,0,0);"/>
<path d="M352,307 C384,307 376,275 408,275" style="fill:none;stroke-width:1px;stroke:rgb(0,0,0);"/>
<rect x="174" y="185" width="62" height="18" style="fill:rgb(100,100,100);"/>
<text x="205" y="193" dominant-baseline="central" text-anchor="middle" style="fill:rgb(255,255,255);font-family:Arial;font-size:9px;">Integer</text>
<rect x="174" y="202" width="62" height="20" style="fill:rgb(200,200,200);"/>
<rect x="182" y="204" width="54" height="15" style="fill:rgb(225,225,225);"/>
<text x="234" y="212" dominant-baseline="central" text-anchor="end" style="fill:rgb(0,0,0);font-family:Arial;font-size:9px;">Output</text>
<rect x="174" y="222" width="62" height="20" style="fill:rgb(200,200,200);"/>
<rect x="177" y="224" width="14" height="15" style="fill:rgb(150,175,200);"/>
<rect x="177" y="224" width="14" height="15" style="fill:none;stroke-width:1px;stroke:rgb(50,75,100);"/>
<text x="183" y="232" dominant-baseline="central" text-anchor="middle" style="fill:rgb(0,0,0);font-family:Arial;font-size:9px;">&lt;</text>
<rect x="220" y="224" width="14" height="15" style="fill:rgb(150,175,200);"/>
<rect x="220" y="224" width="14" height="15" style="fill:none;stroke-width:1px;stroke:rgb(50,75,100);"/>
<text x="227" y="232" dominant-baseline="central" text-anchor="middle" style="fill:rgb(0,0,0);font-family:Arial;font-size:9px;">&gt;</text>
<text x="205" y="232" dominant-baseline="central" text-anchor="middle" style="fill:rgb(0,0,0);font-family:Arial;font-size:9px;">20</text>
<rect x="174" y="185" width="62" height="57" style="fill:none;stroke-width:1px;stroke:rgb(0,0,0);"/>
<rect x="263" y="279" width="89" height="18" style="fill:rgb(100,100,100);"/>
<text x="309" y="287" dominant-baseline="central" text-anchor="middle" style="fill:rgb(255,255,255);font-family:Arial;font-size:9px;">Range</text>
<rect x="265" y="281" width="3" height="14" style="fill:rgb(0,255,0);"/>
<rect x="263" y="296" width="89" height="55" style="fill:rgb(200,200,200);"/>
<rect x="263" y="299" width="46" height="15" style="fill:rgb(225,225,225);"/>
<text x="265" y="306" dominant-baseline="central" text-anchor="start" style="fill:rgb(0,0,0);font-family:Arial;font-size:9px;">Start</text>
<rect x="263" y="316" width="46" height="15" style="fill:rgb(225,225,225);"/>
<text x="265" y="323" dominant-baseline="central" text-anchor="start" style="fill:rgb(0,0,0);font-family:Arial;font-size:9px;">Step</text>
<rect x="263" y="333" width="46" height="15" style="fill:rgb(225,225,225);"/>
<text x="265" y="340" dominant-baseline="central" text-anchor="start" style="fill:rgb(0,0,0);font-family:Arial;font-size:9px;">Count</text>
<rect x="313" y="299" width="38" height="15" style="fill:rgb(225,225,225);"/>
<text x="348" y="306" dominant-baseline="central" text-anchor="end" style="fill:rgb(0,0,0);font-family:Arial;font-size:9px;">List</text>
<rect x="263" y="279" width="89" height="72" style="fill:none;stroke-width:1px;stroke:rgb(0,0,0);"/>
<rect x="407" y="134" width="105" height="18" style="fill:rgb(100,100,100);"/>
<text x="459" y="142" dominant-baseline="central" text-anchor="middle" style="fill:rgb(255,255,255);font-family:Arial;font-size:9px;">Viewer</text>
<rect x="407" y="151" width="105" height="20" style="fill:rgb(200,200,200);"/>
<rect x="407" y="154" width="46" height="15" style="fill:rgb(225,225,225);"/>
<text x="409" y="161" dominant-baseline="central" text-anchor="start" style="fill:rgb(0,0,0);font-family:Arial;font-size:9px;">Input</text>
<rect x="458" y="154" width="54" height="15" style="fill:rgb(225,225,225);"/>
<text x="509" y="161" dominant-baseline="central" text-anchor="end" style="fill:rgb(0,0,0);font-family:Arial;font-size:9px;">Output</text>
<rect x="407" y="171" width="105" height="20" style="fill:rgb(255,255,100);"/>
<text x="459" y="181" dominant-baseline="central" text-anchor="middle" style="fill:rgb(0,0,0);font-family:Arial;font-size:9px;">&lt;empty&gt;</text>
<rect x="407" y="134" width="105" height="57" style="fill:none;stroke-width:1px;stroke:rgb(0,0,0);"/>
<rect x="407" y="247" width="105" height="18" style="fill:rgb(100,100,100);"/>
<text x="459" y="255" dominant-baseline="central" text-anchor="middle" style="fill:rgb(255,255,255);font-family:Arial;font-size:9px;">Viewer 2</text>
<rect x="407" y="264" width="105" height="20" style="fill:rgb(200,200,200);"/>
<rect x="407" y="267" width="46" height="15" style="fill:rgb(225,225,225);"/>
<text x="409" y="274" dominant-baseline="central" text-anchor="start" style="fill:rgb(0,0,0);font-family:Arial;font-size:9px;">Input</text>
<rect x="458" y="267" width="54" height="15" style="fill:rgb(225,225,225);"/>
<text x="509" y="274" dominant-baseline="central" text-anchor="end" style="fill:rgb(0,0,0);font-family:Arial;font-size:9px;">Output</text>
<rect x="407" y="284" width="105" height="79" style="fill:rgb(255,255,100);"/>
<text x="459" y="294" dominant-baseline="central" text-anchor="middle" style="fill:rgb(0,0,0);font-family:Arial;font-size:9px;">20</text>
<text x="459" y="308" dominant-baseline="central" text-anchor="middle" style="fill:rgb(0,0,0);font-family:Arial;font-size:9px;">21</text>
<text x="459" y="323" dominant-baseline="central" text-anchor="middle" style="fill:rgb(0,0,0);font-family:Arial;font-size:9px;">22</text>
<text x="459" y="338" dominant-baseline="central" text-anchor="middle" style="fill:rgb(0,0,0);font-family:Arial;font-size:9px;">23</text>
<text x="459" y="353" dominant-baseline="central" text-anchor="middle" style="fill:rgb(0,0,0);font-family:Arial;font-size:9px;">24</text>
<rect x="407" y="363" width="105" height="20" style="fill:rgb(200,200,200);"/>
<rect x="409" y="365" width="14" height="15" style="fill:rgb(150,175,200);"/>
<rect x="409" y="365" width="14" height="15" style="fill:none;stroke-width:1px;stroke:rgb(50,75,100);"/>
<text x="416" y="372" dominant-baseline="central" text-anchor="middle" style="fill:rgb(0,0,0);font-family:Arial;font-size:9px;">&lt;</text>
<rect x="496" y="365" width="14" height="15" style="fill:rgb(150,175,200);"/>
<rect x="496" y="365" width="14" height="15" style="fill:none;stroke-width:1px;stroke:rgb(50,75,100);"/>
<text x="502" y="372" dominant-baseline="central" text-anchor="middle" style="fill:rgb(0,0,0);font-family:Arial;font-size:9px;">&gt;</text>
<text x="459" y="372" dominant-baseline="central" text-anchor="middle" style="fill:rgb(0,0,0);font-family:Arial;font-size:9px;">1 / 2</text>
<rect x="407" y="247" width="105" height="136" style="fill:none;stroke-width:1px;stroke:rgb(0,0,0);"/>
</svg>
