<svg version="1.1" xmlns="http://www.w3.org/2000/svg" width="800" height="600" shape-rendering="crispEdges">
<rect x="0" y="0" width="800" height="600" style="fill:rgb(240,240,240);"/>
<path d="M161,198 C258,198 117,383 213,383" style="fill:none;stroke-width:1px;stroke:rgb(0,0,0);"/>
<path d="M387,383 C451,383 434,320 497,320" style="fill:none;stroke-width:1px;stroke:rgb(0,0,0);"/>
<rect x="39" y="144" width="122" height="34" style="fill:rgb(100,100,100);"/>
<text x="100" y="161" dominant-baseline="central" text-anchor="middle" style="fill:rgb(255,255,255);font-family:Arial;font-size:16px;">Integer</text>
<rect x="39" y="178" width="122" height="39" style="fill:rgb(200,200,200);"/>
<rect x="55" y="183" width="106" height="29" style="fill:rgb(225,225,225);"/>
<text x="156" y="197" dominant-baseline="central" text-anchor="end" style="fill:rgb(0,0,0);font-family:Arial;font-size:16px;">Output</text>
<rect x="39" y="217" width="122" height="39" style="fill:rgb(200,200,200);"/>
<text x="100" y="236" dominant-baseline="central" text-anchor="middle" style="fill:rgb(0,0,0);font-family:Arial;font-size:16px;">20</text>
<rect x="44" y="222" width="26" height="29" style="fill:rgb(150,175,200);"/>
<text x="57" y="236" dominant-baseline="central" text-anchor="middle" style="fill:rgb(0,0,0);font-family:Arial;font-size:16px;">&lt;</text>
<rect x="44" y="222" width="26" height="29" style="fill:none;stroke-width:1px;stroke:rgb(50,75,100);"/>
<rect x="130" y="222" width="26" height="29" style="fill:rgb(150,175,200);"/>
<text x="143" y="236" dominant-baseline="central" text-anchor="middle" style="fill:rgb(0,0,0);font-family:Arial;font-size:16px;">&gt;</text>
<rect x="130" y="222" width="26" height="29" style="fill:none;stroke-width:1px;stroke:rgb(50,75,100);"/>
<rect x="39" y="144" width="122" height="112" style="fill:none;stroke-width:1px;stroke:rgb(0,0,0);"/>
<rect x="213" y="329" width="174" height="34" style="fill:rgb(100,100,100);"/>
<text x="304" y="346" dominant-baseline="central" text-anchor="middle" style="fill:rgb(255,255,255);font-family:Arial;font-size:16px;">Range</text>
<rect x="217" y="333" width="4" height="26" style="fill:rgb(0,255,0);"/>
<rect x="213" y="363" width="174" height="107" style="fill:rgb(200,200,200);"/>
<rect x="213" y="368" width="90" height="29" style="fill:rgb(225,225,225);"/>
<text x="218" y="383" dominant-baseline="central" text-anchor="start" style="fill:rgb(0,0,0);font-family:Arial;font-size:16px;">Start</text>
<rect x="213" y="402" width="90" height="29" style="fill:rgb(225,225,225);"/>
<text x="218" y="417" dominant-baseline="central" text-anchor="start" style="fill:rgb(0,0,0);font-family:Arial;font-size:16px;">Step</text>
<rect x="213" y="436" width="90" height="29" style="fill:rgb(225,225,225);"/>
<text x="218" y="451" dominant-baseline="central" text-anchor="start" style="fill:rgb(0,0,0);font-family:Arial;font-size:16px;">Count</text>
<rect x="313" y="368" width="74" height="29" style="fill:rgb(225,225,225);"/>
<text x="382" y="383" dominant-baseline="central" text-anchor="end" style="fill:rgb(0,0,0);font-family:Arial;font-size:16px;">List</text>
<rect x="213" y="329" width="174" height="141" style="fill:none;stroke-width:1px;stroke:rgb(0,0,0);"/>
<rect x="497" y="44" width="206" height="34" style="fill:rgb(100,100,100);"/>
<text x="600" y="61" dominant-baseline="central" text-anchor="middle" style="fill:rgb(255,255,255);font-family:Arial;font-size:16px;">Viewer</text>
<rect x="497" y="78" width="206" height="39" style="fill:rgb(200,200,200);"/>
<rect x="497" y="83" width="90" height="29" style="fill:rgb(225,225,225);"/>
<text x="502" y="97" dominant-baseline="central" text-anchor="start" style="fill:rgb(0,0,0);font-family:Arial;font-size:16px;">Input</text>
<rect x="597" y="83" width="106" height="29" style="fill:rgb(225,225,225);"/>
<text x="698" y="97" dominant-baseline="central" text-anchor="end" style="fill:rgb(0,0,0);font-family:Arial;font-size:16px;">Output</text>
<rect x="497" y="117" width="206" height="39" style="fill:rgb(255,255,100);"/>
<text x="600" y="136" dominant-baseline="central" text-anchor="middle" style="fill:rgb(0,0,0);font-family:Arial;font-size:16px;">&lt;empty&gt;</text>
<rect x="497" y="44" width="206" height="112" style="fill:none;stroke-width:1px;stroke:rgb(0,0,0);"/>
<rect x="497" y="266" width="206" height="34" style="fill:rgb(100,100,100);"/>
<text x="600" y="283" dominant-baseline="central" text-anchor="middle" style="fill:rgb(255,255,255);font-family:Arial;font-size:16px;">Viewer 2</text>
<rect x="497" y="300" width="206" height="39" style="fill:rgb(200,200,200);"/>
<rect x="497" y="305" width="90" height="29" style="fill:rgb(225,225,225);"/>
<text x="502" y="320" dominant-baseline="central" text-anchor="start" style="fill:rgb(0,0,0);font-family:Arial;font-size:16px;">Input</text>
<rect x="597" y="305" width="106" height="29" style="fill:rgb(225,225,225);"/>
<text x="698" y="320" dominant-baseline="central" text-anchor="end" style="fill:rgb(0,0,0);font-family:Arial;font-size:16px;">Output</text>
<rect x="497" y="339" width="206" height="155" style="fill:rgb(255,255,100);"/>
<text x="600" y="359" dominant-baseline="central" text-anchor="middle" style="fill:rgb(0,0,0);font-family:Arial;font-size:16px;">20</text>
<text x="600" y="388" dominant-baseline="central" text-anchor="middle" style="fill:rgb(0,0,0);font-family:Arial;font-size:16px;">21</text>
<text x="600" y="417" dominant-baseline="central" text-anchor="middle" style="fill:rgb(0,0,0);font-family:Arial;font-size:16px;">22</text>
<text x="600" y="446" dominant-baseline="central" text-anchor="middle" style="fill:rgb(0,0,0);font-family:Arial;font-size:16px;">23</text>
<text x="600" y="475" dominant-baseline="central" text-anchor="middle" style="fill:rgb(0,0,0);font-family:Arial;font-size:16px;">24</text>
<rect x="497" y="494" width="206" height="39" style="fill:rgb(200,200,200);"/>
<text x="600" y="514" dominant-baseline="central" text-anchor="middle" style="fill:rgb(0,0,0);font-family:Arial;font-size:16px;">1 / 2</text>
<rect x="502" y="499" width="26" height="29" style="fill:rgb(150,175,200);"/>
<text x="515" y="514" dominant-baseline="central" text-anchor="middle" style="fill:rgb(0,0,0);font-family:Arial;font-size:16px;">&lt;</text>
<rect x="502" y="499" width="26" height="29" style="fill:none;stroke-width:1px;stroke:rgb(50,75,100);"/>
<rect x="672" y="499" width="26" height="29" style="fill:rgb(150,175,200);"/>
<text x="685" y="514" dominant-baseline="central" text-anchor="middle" style="fill:rgb(0,0,0);font-family:Arial;font-size:16px;">&gt;</text>
<rect x="672" y="499" width="26" height="29" style="fill:none;stroke-width:1px;stroke:rgb(50,75,100);"/>
<rect x="497" y="266" width="206" height="267" style="fill:none;stroke-width:1px;stroke:rgb(0,0,0);"/>
</svg>
