<svg version="1.1" xmlns="http://www.w3.org/2000/svg" width="800" height="600" shape-rendering="crispEdges">
<rect x="0" y="0" width="800" height="600" style="fill:rgb(240,240,240);"/>
<path d="M204,68 C234,68 234,366 264,366" style="fill:none;stroke-width:2px;stroke:rgb(0,0,0);"/>
<path d="M544,366 C622,366 622,265 700,265" style="fill:none;stroke-width:2px;stroke:rgb(0,0,0);"/>
<rect x="-42" y="-19" width="245" height="55" style="fill:rgb(100,100,100);"/>
<text x="81" y="8" dominant-baseline="central" text-anchor="middle" style="fill:rgb(255,255,255);font-family:Arial;font-size:26px;">Number</text>
<rect x="-42" y="35" width="245" height="63" style="fill:rgb(200,200,200);"/>
<rect x="32" y="43" width="171" height="47" style="fill:rgb(225,225,225);"/>
<text x="195" y="67" dominant-baseline="central" text-anchor="end" style="fill:rgb(0,0,0);font-family:Arial;font-size:26px;">Output</text>
<rect x="-42" y="98" width="245" height="63" style="fill:rgb(200,200,200);"/>
<text x="81" y="130" dominant-baseline="central" text-anchor="middle" style="fill:rgb(0,0,0);font-family:Arial;font-size:26px;">20.00</text>
<rect x="-34" y="106" width="42" height="47" style="fill:rgb(150,175,200);"/>
<text x="-13" y="130" dominant-baseline="central" text-anchor="middle" style="fill:rgb(0,0,0);font-family:Arial;font-size:26px;">&lt;</text>
<rect x="-34" y="106" width="42" height="47" style="fill:none;stroke-width:2px;stroke:rgb(50,75,100);"/>
<rect x="153" y="106" width="42" height="47" style="fill:rgb(150,175,200);"/>
<text x="174" y="130" dominant-baseline="central" text-anchor="middle" style="fill:rgb(0,0,0);font-family:Arial;font-size:26px;">&gt;</text>
<rect x="153" y="106" width="42" height="47" style="fill:none;stroke-width:2px;stroke:rgb(50,75,100);"/>
<rect x="-42" y="-19" width="245" height="181" style="fill:none;stroke-width:2px;stroke:rgb(0,0,0);"/>
<rect x="263" y="279" width="281" height="55" style="fill:rgb(100,100,100);"/>
<text x="409" y="307" dominant-baseline="central" text-anchor="middle" style="fill:rgb(255,255,255);font-family:Arial;font-size:26px;">Range</text>
<rect x="269" y="286" width="7" height="42" style="fill:rgb(0,255,0);"/>
<rect x="263" y="334" width="281" height="173" style="fill:rgb(200,200,200);"/>
<rect x="263" y="342" width="145" height="47" style="fill:rgb(225,225,225);"/>
<text x="271" y="365" dominant-baseline="central" text-anchor="start" style="fill:rgb(0,0,0);font-family:Arial;font-size:26px;">Start</text>
<rect x="263" y="397" width="145" height="47" style="fill:rgb(225,225,225);"/>
<text x="271" y="420" dominant-baseline="central" text-anchor="start" style="fill:rgb(0,0,0);font-family:Arial;font-size:26px;">Step</text>
<rect x="263" y="452" width="145" height="47" style="fill:rgb(225,225,225);"/>
<text x="271" y="475" dominant-baseline="central" text-anchor="start" style="fill:rgb(0,0,0);font-family:Arial;font-size:26px;">Count</text>
<rect x="424" y="342" width="120" height="47" style="fill:rgb(225,225,225);"/>
<text x="535" y="365" dominant-baseline="central" text-anchor="end" style="fill:rgb(0,0,0);font-family:Arial;font-size:26px;">List</text>
<rect x="263" y="279" width="281" height="228" style="fill:none;stroke-width:2px;stroke:rgb(0,0,0);"/>
<rect x="720" y="-180" width="332" height="55" style="fill:rgb(100,100,100);"/>
<text x="886" y="-153" dominant-baseline="central" text-anchor="middle" style="fill:rgb(255,255,255);font-family:Arial;font-size:26px;">Viewer</text>
<rect x="720" y="-126" width="332" height="63" style="fill:rgb(200,200,200);"/>
<rect x="720" y="-118" width="145" height="47" style="fill:rgb(225,225,225);"/>
<text x="728" y="-94" dominant-baseline="central" text-anchor="start" style="fill:rgb(0,0,0);font-family:Arial;font-size:26px;">Input</text>
<rect x="881" y="-118" width="171" height="47" style="fill:rgb(225,225,225);"/>
<text x="1044" y="-94" dominant-baseline="central" text-anchor="end" style="fill:rgb(0,0,0);font-family:Arial;font-size:26px;">Output</text>
<rect x="720" y="-63" width="332" height="63" style="fill:rgb(255,255,100);"/>
<text x="886" y="-32" dominant-baseline="central" text-anchor="middle" style="fill:rgb(0,0,0);font-family:Arial;font-size:26px;">&lt;empty&gt;</text>
<rect x="720" y="-180" width="332" height="181" style="fill:none;stroke-width:2px;stroke:rgb(0,0,0);"/>
<rect x="699" y="178" width="374" height="55" style="fill:rgb(100,100,100);"/>
<text x="886" y="205" dominant-baseline="central" text-anchor="middle" style="fill:rgb(255,255,255);font-family:Arial;font-size:26px;">Viewer 2</text>
<rect x="699" y="233" width="374" height="63" style="fill:rgb(200,200,200);"/>
<rect x="699" y="241" width="145" height="47" style="fill:rgb(225,225,225);"/>
<text x="707" y="264" dominant-baseline="central" text-anchor="start" style="fill:rgb(0,0,0);font-family:Arial;font-size:26px;">Input</text>
<rect x="902" y="241" width="171" height="47" style="fill:rgb(225,225,225);"/>
<text x="1065" y="264" dominant-baseline="central" text-anchor="end" style="fill:rgb(0,0,0);font-family:Arial;font-size:26px;">Output</text>
<rect x="699" y="295" width="374" height="250" style="fill:rgb(255,255,100);"/>
<text x="886" y="327" dominant-baseline="central" text-anchor="middle" style="fill:rgb(0,0,0);font-family:Arial;font-size:26px;">20.00</text>
<text x="886" y="374" dominant-baseline="central" text-anchor="middle" style="fill:rgb(0,0,0);font-family:Arial;font-size:26px;">21.00</text>
<text x="886" y="420" dominant-baseline="central" text-anchor="middle" style="fill:rgb(0,0,0);font-family:Arial;font-size:26px;">22.00</text>
<text x="886" y="467" dominant-baseline="central" text-anchor="middle" style="fill:rgb(0,0,0);font-family:Arial;font-size:26px;">23.00</text>
<text x="886" y="514" dominant-baseline="central" text-anchor="middle" style="fill:rgb(0,0,0);font-family:Arial;font-size:26px;">24.00</text>
<rect x="699" y="545" width="374" height="63" style="fill:rgb(200,200,200);"/>
<text x="886" y="576" dominant-baseline="central" text-anchor="middle" style="fill:rgb(0,0,0);font-family:Arial;font-size:26px;">1 / 2 (10)</text>
<rect x="707" y="553" width="42" height="47" style="fill:rgb(150,175,200);"/>
<text x="728" y="576" dominant-baseline="central" text-anchor="middle" style="fill:rgb(0,0,0);font-family:Arial;font-size:26px;">&lt;</text>
<rect x="707" y="553" width="42" height="47" style="fill:none;stroke-width:2px;stroke:rgb(50,75,100);"/>
<rect x="1023" y="553" width="42" height="47" style="fill:rgb(150,175,200);"/>
<text x="1044" y="576" dominant-baseline="central" text-anchor="middle" style="fill:rgb(0,0,0);font-family:Arial;font-size:26px;">&gt;</text>
<rect x="1023" y="553" width="42" height="47" style="fill:none;stroke-width:2px;stroke:rgb(50,75,100);"/>
<rect x="699" y="178" width="374" height="431" style="fill:none;stroke-width:2px;stroke:rgb(0,0,0);"/>
</svg>
