<svg version="1.1" xmlns="http://www.w3.org/2000/svg" width="800" height="600" shape-rendering="crispEdges">
<rect x="0" y="0" width="800" height="600" style="fill:rgb(240,240,240);"/>
<path d="M211,148 C308,148 167,333 263,333" style="fill:none;stroke-width:1px;stroke:rgb(0,0,0);"/>
<path d="M437,333 C501,333 484,270 547,270" style="fill:none;stroke-width:1px;stroke:rgb(0,0,0);"/>
<rect x="89" y="94" width="122" height="34" style="fill:rgb(100,100,100);"/>
<text x="150" y="111" dominant-baseline="central" text-anchor="middle" style="fill:rgb(255,255,255);font-family:Arial;font-size:16px;">Integer</text>
<rect x="89" y="128" width="122" height="39" style="fill:rgb(200,200,200);"/>
<rect x="105" y="133" width="106" height="29" style="fill:rgb(225,225,225);"/>
<text x="206" y="147" dominant-baseline="central" text-anchor="end" style="fill:rgb(0,0,0);font-family:Arial;font-size:16px;">Output</text>
<rect x="89" y="167" width="122" height="39" style="fill:rgb(200,200,200);"/>
<text x="150" y="186" dominant-baseline="central" text-anchor="middle" style="fill:rgb(0,0,0);font-family:Arial;font-size:16px;">20</text>
<rect x="94" y="172" width="26" height="29" style="fill:rgb(150,175,200);"/>
<text x="107" y="186" dominant-baseline="central" text-anchor="middle" style="fill:rgb(0,0,0);font-family:Arial;font-size:16px;">&lt;</text>
<rect x="94" y="172" width="26" height="29" style="fill:none;stroke-width:1px;stroke:rgb(50,75,100);"/>
<rect x="180" y="172" width="26" height="29" style="fill:rgb(150,175,200);"/>
<text x="193" y="186" dominant-baseline="central" text-anchor="middle" style="fill:rgb(0,0,0);font-family:Arial;font-size:16px;">&gt;</text>
<rect x="180" y="172" width="26" height="29" style="fill:none;stroke-width:1px;stroke:rgb(50,75,100);"/>
<rect x="89" y="94" width="122" height="112" style="fill:none;stroke-width:1px;stroke:rgb(0,0,0);"/>
<rect x="263" y="279" width="174" height="34" style="fill:rgb(100,100,100);"/>
<text x="354" y="296" dominant-baseline="central" text-anchor="middle" style="fill:rgb(255,255,255);font-family:Arial;font-size:16px;">Range</text>
<rect x="267" y="283" width="4" height="26" style="fill:rgb(0,255,0);"/>
<rect x="263" y="313" width="174" height="107" style="fill:rgb(200,200,200);"/>
<rect x="263" y="318" width="90" height="29" style="fill:rgb(225,225,225);"/>
<text x="268" y="333" dominant-baseline="central" text-anchor="start" style="fill:rgb(0,0,0);font-family:Arial;font-size:16px;">Start</text>
<rect x="263" y="352" width="90" height="29" style="fill:rgb(225,225,225);"/>
<text x="268" y="367" dominant-baseline="central" text-anchor="start" style="fill:rgb(0,0,0);font-family:Arial;font-size:16px;">Step</text>
<rect x="263" y="386" width="90" height="29" style="fill:rgb(225,225,225);"/>
<text x="268" y="401" dominant-baseline="central" text-anchor="start" style="fill:rgb(0,0,0);font-family:Arial;font-size:16px;">Count</text>
<rect x="363" y="318" width="74" height="29" style="fill:rgb(225,225,225);"/>
<text x="432" y="333" dominant-baseline="central" text-anchor="end" style="fill:rgb(0,0,0);font-family:Arial;font-size:16px;">List</text>
<rect x="263" y="279" width="174" height="141" style="fill:none;stroke-width:1px;stroke:rgb(0,0,0);"/>
<rect x="547" y="-6" width="206" height="34" style="fill:rgb(100,100,100);"/>
<text x="650" y="11" dominant-baseline="central" text-anchor="middle" style="fill:rgb(255,255,255);font-family:Arial;font-size:16px;">Viewer</text>
<rect x="547" y="28" width="206" height="39" style="fill:rgb(200,200,200);"/>
<rect x="547" y="33" width="90" height="29" style="fill:rgb(225,225,225);"/>
<text x="552" y="47" dominant-baseline="central" text-anchor="start" style="fill:rgb(0,0,0);font-family:Arial;font-size:16px;">Input</text>
<rect x="647" y="33" width="106" height="29" style="fill:rgb(225,225,225);"/>
<text x="748" y="47" dominant-baseline="central" text-anchor="end" style="fill:rgb(0,0,0);font-family:Arial;font-size:16px;">Output</text>
<rect x="547" y="67" width="206" height="39" style="fill:rgb(255,255,100);"/>
<text x="650" y="86" dominant-baseline="central" text-anchor="middle" style="fill:rgb(0,0,0);font-family:Arial;font-size:16px;">&lt;empty&gt;</text>
<rect x="547" y="-6" width="206" height="112" style="fill:none;stroke-width:1px;stroke:rgb(0,0,0);"/>
<rect x="547" y="216" width="206" height="34" style="fill:rgb(100,100,100);"/>
<text x="650" y="233" dominant-baseline="central" text-anchor="middle" style="fill:rgb(255,255,255);font-family:Arial;font-size:16px;">Viewer 2</text>
<rect x="547" y="250" width="206" height="39" style="fill:rgb(200,200,200);"/>
<rect x="547" y="255" width="90" height="29" style="fill:rgb(225,225,225);"/>
<text x="552" y="270" dominant-baseline="central" text-anchor="start" style="fill:rgb(0,0,0);font-family:Arial;font-size:16px;">Input</text>
<rect x="647" y="255" width="106" height="29" style="fill:rgb(225,225,225);"/>
<text x="748" y="270" dominant-baseline="central" text-anchor="end" style="fill:rgb(0,0,0);font-family:Arial;font-size:16px;">Output</text>
<rect x="547" y="289" width="206" height="155" style="fill:rgb(255,255,100);"/>
<text x="650" y="309" dominant-baseline="central" text-anchor="middle" style="fill:rgb(0,0,0);font-family:Arial;font-size:16px;">20</text>
<text x="650" y="338" dominant-baseline="central" text-anchor="middle" style="fill:rgb(0,0,0);font-family:Arial;font-size:16px;">21</text>
<text x="650" y="367" dominant-baseline="central" text-anchor="middle" style="fill:rgb(0,0,0);font-family:Arial;font-size:16px;">22</text>
<text x="650" y="396" dominant-baseline="central" text-anchor="middle" style="fill:rgb(0,0,0);font-family:Arial;font-size:16px;">23</text>
<text x="650" y="425" dominant-baseline="central" text-anchor="middle" style="fill:rgb(0,0,0);font-family:Arial;font-size:16px;">24</text>
<rect x="547" y="444" width="206" height="39" style="fill:rgb(200,200,200);"/>
<text x="650" y="464" dominant-baseline="central" text-anchor="middle" style="fill:rgb(0,0,0);font-family:Arial;font-size:16px;">1 / 2</text>
<rect x="552" y="449" width="26" height="29" style="fill:rgb(150,175,200);"/>
<text x="565" y="464" dominant-baseline="central" text-anchor="middle" style="fill:rgb(0,0,0);font-family:Arial;font-size:16px;">&lt;</text>
<rect x="552" y="449" width="26" height="29" style="fill:none;stroke-width:1px;stroke:rgb(50,75,100);"/>
<rect x="722" y="449" width="26" height="29" style="fill:rgb(150,175,200);"/>
<text x="735" y="464" dominant-baseline="central" text-anchor="middle" style="fill:rgb(0,0,0);font-family:Arial;font-size:16px;">&gt;</text>
<rect x="722" y="449" width="26" height="29" style="fill:none;stroke-width:1px;stroke:rgb(50,75,100);"/>
<rect x="547" y="216" width="206" height="267" style="fill:none;stroke-width:1px;stroke:rgb(0,0,0);"/>
</svg>
