<svg version="1.1" xmlns="http://www.w3.org/2000/svg" width="800" height="600" shape-rendering="crispEdges">
<rect x="0" y="0" width="800" height="600" style="fill:rgb(240,240,240);"/>
<path d="M245,213 C254,213 254,307 263,307" style="fill:none;stroke-width:1px;stroke:rgb(0,0,0);"/>
<path d="M352,307 C376,307 376,275 401,275" style="fill:none;stroke-width:1px;stroke:rgb(0,0,0);"/>
<rect x="167" y="185" width="78" height="18" style="fill:rgb(100,100,100);"/>
<text x="205" y="193" dominant-baseline="central" text-anchor="middle" style="fill:rgb(255,255,255);font-family:Arial;font-size:9px;">Number</text>
<rect x="167" y="202" width="78" height="20" style="fill:rgb(200,200,200);"/>
<rect x="190" y="204" width="54" height="15" style="fill:rgb(225,225,225);"/>
<text x="241" y="212" dominant-baseline="central" text-anchor="end" style="fill:rgb(0,0,0);font-family:Arial;font-size:9px;">Output</text>
<rect x="167" y="222" width="78" height="20" style="fill:rgb(200,200,200);"/>
<text x="205" y="232" dominant-baseline="central" text-anchor="middle" style="fill:rgb(0,0,0);font-family:Arial;font-size:9px;">20.00</text>
<rect x="169" y="224" width="14" height="15" style="fill:rgb(150,175,200);"/>
<text x="176" y="232" dominant-baseline="central" text-anchor="middle" style="fill:rgb(0,0,0);font-family:Arial;font-size:9px;">&lt;</text>
<rect x="169" y="224" width="14" height="15" style="fill:none;stroke-width:1px;stroke:rgb(50,75,100);"/>
<rect x="228" y="224" width="14" height="15" style="fill:rgb(150,175,200);"/>
<text x="235" y="232" dominant-baseline="central" text-anchor="middle" style="fill:rgb(0,0,0);font-family:Arial;font-size:9px;">&gt;</text>
<rect x="228" y="224" width="14" height="15" style="fill:none;stroke-width:1px;stroke:rgb(50,75,100);"/>
<rect x="167" y="185" width="78" height="57" style="fill:none;stroke-width:1px;stroke:rgb(0,0,0);"/>
<rect x="263" y="279" width="89" height="18" style="fill:rgb(100,100,100);"/>
<text x="307" y="287" dominant-baseline="central" text-anchor="middle" style="fill:rgb(255,255,255);font-family:Arial;font-size:9px;">Range</text>
<rect x="263" y="296" width="89" height="55" style="fill:rgb(200,200,200);"/>
<rect x="263" y="299" width="46" height="15" style="fill:rgb(225,225,225);"/>
<text x="265" y="306" dominant-baseline="central" text-anchor="start" style="fill:rgb(0,0,0);font-family:Arial;font-size:9px;">Start</text>
<rect x="263" y="316" width="46" height="15" style="fill:rgb(225,225,225);"/>
<text x="265" y="323" dominant-baseline="central" text-anchor="start" style="fill:rgb(0,0,0);font-family:Arial;font-size:9px;">Step</text>
<rect x="263" y="333" width="46" height="15" style="fill:rgb(225,225,225);"/>
<text x="265" y="340" dominant-baseline="central" text-anchor="start" style="fill:rgb(0,0,0);font-family:Arial;font-size:9px;">Count</text>
<rect x="313" y="299" width="38" height="15" style="fill:rgb(225,225,225);"/>
<text x="348" y="306" dominant-baseline="central" text-anchor="end" style="fill:rgb(0,0,0);font-family:Arial;font-size:9px;">List</text>
<rect x="263" y="279" width="89" height="72" style="fill:none;stroke-width:1px;stroke:rgb(0,0,0);"/>
<rect x="407" y="134" width="105" height="18" style="fill:rgb(100,100,100);"/>
<text x="459" y="142" dominant-baseline="central" text-anchor="middle" style="fill:rgb(255,255,255);font-family:Arial;font-size:9px;">Viewer</text>
<rect x="407" y="151" width="105" height="20" style="fill:rgb(200,200,200);"/>
<rect x="407" y="154" width="46" height="15" style="fill:rgb(225,225,225);"/>
<text x="409" y="161" dominant-baseline="central" text-anchor="start" style="fill:rgb(0,0,0);font-family:Arial;font-size:9px;">Input</text>
<rect x="458" y="154" width="54" height="15" style="fill:rgb(225,225,225);"/>
<text x="509" y="161" dominant-baseline="central" text-anchor="end" style="fill:rgb(0,0,0);font-family:Arial;font-size:9px;">Output</text>
<rect x="407" y="171" width="105" height="20" style="fill:rgb(255,255,100);"/>
<text x="459" y="181" dominant-baseline="central" text-anchor="middle" style="fill:rgb(0,0,0);font-family:Arial;font-size:9px;">&lt;empty&gt;</text>
<rect x="407" y="134" width="105" height="57" style="fill:none;stroke-width:1px;stroke:rgb(0,0,0);"/>
<rect x="400" y="247" width="118" height="18" style="fill:rgb(100,100,100);"/>
<text x="459" y="255" dominant-baseline="central" text-anchor="middle" style="fill:rgb(255,255,255);font-family:Arial;font-size:9px;">Viewer 2</text>
<rect x="400" y="264" width="118" height="20" style="fill:rgb(200,200,200);"/>
<rect x="400" y="267" width="46" height="15" style="fill:rgb(225,225,225);"/>
<text x="403" y="274" dominant-baseline="central" text-anchor="start" style="fill:rgb(0,0,0);font-family:Arial;font-size:9px;">Input</text>
<rect x="464" y="267" width="54" height="15" style="fill:rgb(225,225,225);"/>
<text x="515" y="274" dominant-baseline="central" text-anchor="end" style="fill:rgb(0,0,0);font-family:Arial;font-size:9px;">Output</text>
<rect x="400" y="284" width="118" height="79" style="fill:rgb(255,255,100);"/>
<text x="459" y="294" dominant-baseline="central" text-anchor="middle" style="fill:rgb(0,0,0);font-family:Arial;font-size:9px;">20.00</text>
<text x="459" y="308" dominant-baseline="central" text-anchor="middle" style="fill:rgb(0,0,0);font-family:Arial;font-size:9px;">21.00</text>
<text x="459" y="323" dominant-baseline="central" text-anchor="middle" style="fill:rgb(0,0,0);font-family:Arial;font-size:9px;">22.00</text>
<text x="459" y="338" dominant-baseline="central" text-anchor="middle" style="fill:rgb(0,0,0);font-family:Arial;font-size:9px;">23.00</text>
<text x="459" y="353" dominant-baseline="central" text-anchor="middle" style="fill:rgb(0,0,0);font-family:Arial;font-size:9px;">24.00</text>
<rect x="400" y="363" width="118" height="20" style="fill:rgb(200,200,200);"/>
<text x="459" y="372" dominant-baseline="central" text-anchor="middle" style="fill:rgb(0,0,0);font-family:Arial;font-size:9px;">1 / 2 (10)</text>
<rect x="403" y="365" width="14" height="15" style="fill:rgb(150,175,200);"/>
<text x="409" y="372" dominant-baseline="central" text-anchor="middle" style="fill:rgb(0,0,0);font-family:Arial;font-size:9px;">&lt;</text>
<rect x="403" y="365" width="14" height="15" style="fill:none;stroke-width:1px;stroke:rgb(50,75,100);"/>
<rect x="502" y="365" width="14" height="15" style="fill:rgb(150,175,200);"/>
<text x="509" y="372" dominant-baseline="central" text-anchor="middle" style="fill:rgb(0,0,0);font-family:Arial;font-size:9px;">&gt;</text>
<rect x="502" y="365" width="14" height="15" style="fill:none;stroke-width:1px;stroke:rgb(50,75,100);"/>
<rect x="400" y="247" width="118" height="136" style="fill:none;stroke-width:1px;stroke:rgb(0,0,0);"/>
</svg>
