<svg version="1.1" xmlns="http://www.w3.org/2000/svg" width="800" height="600" shape-rendering="crispEdges">
<rect x="0" y="0" width="800" height="600" style="fill:rgb(240,240,240);"/>
<path d="M161,198 C258,198 117,383 213,383" style="fill:none;stroke-width:1px;stroke:rgb(0,0,0);"/>
<path d="M161,198 C274,198 101,417 213,417" style="fill:none;stroke-width:1px;stroke:rgb(0,0,0);"/>
<path d="M161,198 C337,198 322,98 497,98" style="fill:none;stroke-width:1px;stroke:rgb(0,0,0);"/>
<path d="M387,383 C445,383 427,320 484,320" style="fill:none;stroke-width:1px;stroke:rgb(0,0,0);"/>
<path d="M186,67 C283,67 142,252 238,252" style="fill:none;stroke-width:1px;stroke:rgb(0,0,0);"/>
<path d="M186,67 C299,67 126,286 238,286" style="fill:none;stroke-width:1px;stroke:rgb(0,0,0);"/>
<rect x="39" y="144" width="122" height="34" style="fill:rgb(100,100,100);"/>
<text x="100" y="161" dominant-baseline="central" text-anchor="middle" style="fill:rgb(255,255,255);font-family:Arial;font-size:16px;">Integer</text>
<rect x="39" y="178" width="122" height="39" style="fill:rgb(200,200,200);"/>
<rect x="55" y="183" width="106" height="29" style="fill:rgb(225,225,225);"/>
<text x="156" y="197" dominant-baseline="central" text-anchor="end" style="fill:rgb(0,0,0);font-family:Arial;font-size:16px;">Output</text>
<rect x="39" y="217" width="122" height="39" style="fill:rgb(200,200,200);"/>
<text x="100" y="236" dominant-baseline="central" text-anchor="middle" style="fill:rgb(0,0,0);font-family:Arial;font-size:16px;">20</text>
<rect x="44" y="222" width="26" height="29" style="fill:rgb(150,175,200);"/>
<text x="57" y="236" dominant-baseline="central" text-anchor="middle" style="fill:rgb(0,0,0);font-family:Arial;font-size:16px;">&lt;</text>
<rect x="44" y="222" width="26" height="29" style="fill:none;stroke-width:1px;stroke:rgb(50,75,100);"/>
<rect x="130" y="222" width="26" height="29" style="fill:rgb(150,175,200);"/>
<text x="143" y="236" dominant-baseline="central" text-anchor="middle" style="fill:rgb(0,0,0);font-family:Arial;font-size:16px;">&gt;</text>
<rect x="130" y="222" width="26" height="29" style="fill:none;stroke-width:1px;stroke:rgb(50,75,100);"/>
<rect x="39" y="144" width="122" height="112" style="fill:none;stroke-width:1px;stroke:rgb(0,0,0);"/>
<rect x="213" y="329" width="174" height="34" style="fill:rgb(100,100,100);"/>
<text x="304" y="346" dominant-baseline="central" text-anchor="middle" style="fill:rgb(255,255,255);font-family:Arial;font-size:16px;">Range</text>
<rect x="217" y="333" width="4" height="26" style="fill:rgb(0,255,0);"/>
<rect x="213" y="363" width="174" height="107" style="fill:rgb(200,200,200);"/>
<rect x="213" y="368" width="90" height="29" style="fill:rgb(225,225,225);"/>
<text x="218" y="383" dominant-baseline="central" text-anchor="start" style="fill:rgb(0,0,0);font-family:Arial;font-size:16px;">Start</text>
<rect x="213" y="402" width="90" height="29" style="fill:rgb(225,225,225);"/>
<text x="218" y="417" dominant-baseline="central" text-anchor="start" style="fill:rgb(0,0,0);font-family:Arial;font-size:16px;">Step</text>
<rect x="213" y="436" width="90" height="29" style="fill:rgb(225,225,225);"/>
<text x="218" y="451" dominant-baseline="central" text-anchor="start" style="fill:rgb(0,0,0);font-family:Arial;font-size:16px;">Count</text>
<rect x="313" y="368" width="74" height="29" style="fill:rgb(225,225,225);"/>
<text x="382" y="383" dominant-baseline="central" text-anchor="end" style="fill:rgb(0,0,0);font-family:Arial;font-size:16px;">List</text>
<rect x="213" y="329" width="174" height="141" style="fill:none;stroke-width:1px;stroke:rgb(0,0,0);"/>
<rect x="497" y="44" width="206" height="34" style="fill:rgb(100,100,100);"/>
<text x="600" y="61" dominant-baseline="central" text-anchor="middle" style="fill:rgb(255,255,255);font-family:Arial;font-size:16px;">Viewer</text>
<rect x="497" y="78" width="206" height="39" style="fill:rgb(200,200,200);"/>
<rect x="497" y="83" width="90" height="29" style="fill:rgb(225,225,225);"/>
<text x="502" y="97" dominant-baseline="central" text-anchor="start" style="fill:rgb(0,0,0);font-family:Arial;font-size:16px;">Input</text>
<rect x="597" y="83" width="106" height="29" style="fill:rgb(225,225,225);"/>
<text x="698" y="97" dominant-baseline="central" text-anchor="end" style="fill:rgb(0,0,0);font-family:Arial;font-size:16px;">Output</text>
<rect x="497" y="117" width="206" height="39" style="fill:rgb(255,255,100);"/>
<text x="600" y="136" dominant-baseline="central" text-anchor="middle" style="fill:rgb(0,0,0);font-family:Arial;font-size:16px;">20</text>
<rect x="497" y="44" width="206" height="112" style="fill:none;stroke-width:1px;stroke:rgb(0,0,0);"/>
<rect x="484" y="266" width="232" height="34" style="fill:rgb(100,100,100);"/>
<text x="600" y="283" dominant-baseline="central" text-anchor="middle" style="fill:rgb(255,255,255);font-family:Arial;font-size:16px;">Viewer 2</text>
<rect x="484" y="300" width="232" height="39" style="fill:rgb(200,200,200);"/>
<rect x="484" y="305" width="90" height="29" style="fill:rgb(225,225,225);"/>
<text x="489" y="320" dominant-baseline="central" text-anchor="start" style="fill:rgb(0,0,0);font-family:Arial;font-size:16px;">Input</text>
<rect x="610" y="305" width="106" height="29" style="fill:rgb(225,225,225);"/>
<text x="711" y="320" dominant-baseline="central" text-anchor="end" style="fill:rgb(0,0,0);font-family:Arial;font-size:16px;">Output</text>
<rect x="484" y="339" width="232" height="155" style="fill:rgb(255,255,100);"/>
<text x="600" y="359" dominant-baseline="central" text-anchor="middle" style="fill:rgb(0,0,0);font-family:Arial;font-size:16px;">20</text>
<text x="600" y="388" dominant-baseline="central" text-anchor="middle" style="fill:rgb(0,0,0);font-family:Arial;font-size:16px;">40</text>
<text x="600" y="417" dominant-baseline="central" text-anchor="middle" style="fill:rgb(0,0,0);font-family:Arial;font-size:16px;">60</text>
<text x="600" y="446" dominant-baseline="central" text-anchor="middle" style="fill:rgb(0,0,0);font-family:Arial;font-size:16px;">80</text>
<text x="600" y="475" dominant-baseline="central" text-anchor="middle" style="fill:rgb(0,0,0);font-family:Arial;font-size:16px;">100</text>
<rect x="484" y="494" width="232" height="39" style="fill:rgb(200,200,200);"/>
<text x="600" y="514" dominant-baseline="central" text-anchor="middle" style="fill:rgb(0,0,0);font-family:Arial;font-size:16px;">1 / 2 (10)</text>
<rect x="489" y="499" width="26" height="29" style="fill:rgb(150,175,200);"/>
<text x="502" y="514" dominant-baseline="central" text-anchor="middle" style="fill:rgb(0,0,0);font-family:Arial;font-size:16px;">&lt;</text>
<rect x="489" y="499" width="26" height="29" style="fill:none;stroke-width:1px;stroke:rgb(50,75,100);"/>
<rect x="685" y="499" width="26" height="29" style="fill:rgb(150,175,200);"/>
<text x="698" y="514" dominant-baseline="central" text-anchor="middle" style="fill:rgb(0,0,0);font-family:Arial;font-size:16px;">&gt;</text>
<rect x="685" y="499" width="26" height="29" style="fill:none;stroke-width:1px;stroke:rgb(50,75,100);"/>
<rect x="484" y="266" width="232" height="267" style="fill:none;stroke-width:1px;stroke:rgb(0,0,0);"/>
<rect x="64" y="13" width="122" height="34" style="fill:rgb(50,177,50);"/>
<text x="125" y="30" dominant-baseline="central" text-anchor="middle" style="fill:rgb(127,255,127);font-family:Arial;font-size:16px;">Integer</text>
<rect x="64" y="47" width="122" height="39" style="fill:rgb(100,227,100);"/>
<rect x="80" y="52" width="106" height="29" style="fill:rgb(112,240,112);"/>
<text x="181" y="66" dominant-baseline="central" text-anchor="end" style="fill:rgb(0,127,0);font-family:Arial;font-size:16px;">Output</text>
<rect x="64" y="86" width="122" height="39" style="fill:rgb(100,227,100);"/>
<text x="125" y="105" dominant-baseline="central" text-anchor="middle" style="fill:rgb(0,127,0);font-family:Arial;font-size:16px;">20</text>
<rect x="69" y="91" width="26" height="29" style="fill:rgb(75,215,100);"/>
<text x="82" y="105" dominant-baseline="central" text-anchor="middle" style="fill:rgb(0,127,0);font-family:Arial;font-size:16px;">&lt;</text>
<rect x="69" y="91" width="26" height="29" style="fill:none;stroke-width:1px;stroke:rgb(25,165,50);"/>
<rect x="155" y="91" width="26" height="29" style="fill:rgb(75,215,100);"/>
<text x="168" y="105" dominant-baseline="central" text-anchor="middle" style="fill:rgb(0,127,0);font-family:Arial;font-size:16px;">&gt;</text>
<rect x="155" y="91" width="26" height="29" style="fill:none;stroke-width:1px;stroke:rgb(25,165,50);"/>
<rect x="64" y="13" width="122" height="112" style="fill:none;stroke-width:1px;stroke:rgb(0,127,0);"/>
<rect x="238" y="198" width="174" height="34" style="fill:rgb(50,177,50);"/>
<text x="329" y="215" dominant-baseline="central" text-anchor="middle" style="fill:rgb(127,255,127);font-family:Arial;font-size:16px;">Range</text>
<rect x="242" y="202" width="4" height="26" style="fill:rgb(0,255,0);"/>
<rect x="238" y="232" width="174" height="107" style="fill:rgb(100,227,100);"/>
<rect x="238" y="237" width="90" height="29" style="fill:rgb(112,240,112);"/>
<text x="243" y="252" dominant-baseline="central" text-anchor="start" style="fill:rgb(0,127,0);font-family:Arial;font-size:16px;">Start</text>
<rect x="238" y="271" width="90" height="29" style="fill:rgb(112,240,112);"/>
<text x="243" y="286" dominant-baseline="central" text-anchor="start" style="fill:rgb(0,127,0);font-family:Arial;font-size:16px;">Step</text>
<rect x="238" y="305" width="90" height="29" style="fill:rgb(112,240,112);"/>
<text x="243" y="320" dominant-baseline="central" text-anchor="start" style="fill:rgb(0,127,0);font-family:Arial;font-size:16px;">Count</text>
<rect x="338" y="237" width="74" height="29" style="fill:rgb(112,240,112);"/>
<text x="407" y="252" dominant-baseline="central" text-anchor="end" style="fill:rgb(0,127,0);font-family:Arial;font-size:16px;">List</text>
<rect x="238" y="198" width="174" height="141" style="fill:none;stroke-width:1px;stroke:rgb(0,127,0);"/>
</svg>
