<svg version="1.1" xmlns="http://www.w3.org/2000/svg" width="800" height="600" shape-rendering="crispEdges">
<rect x="0" y="0" width="800" height="600" style="fill:rgb(240,240,240);"/>
<rect x="24" y="107" width="393" height="394" style="fill:rgb(160,200,240);"/>
<text x="34" y="130" dominant-baseline="central" text-anchor="start" style="fill:rgb(0,0,0);font-family:Arial;font-size:18px;">Group</text>
<path d="M186,208 C287,208 133,403 233,403" style="fill:none;stroke-width:1px;stroke:rgb(0,0,0);"/>
<path d="M186,208 C304,208 116,437 233,437" style="fill:none;stroke-width:1px;stroke:rgb(0,0,0);"/>
<path d="M186,208 C351,208 333,98 497,98" style="fill:none;stroke-width:1px;stroke:rgb(0,0,0);"/>
<path d="M407,403 C464,403 428,320 484,320" style="fill:none;stroke-width:1px;stroke:rgb(0,0,0);"/>
<rect x="34" y="154" width="152" height="34" style="fill:rgb(100,100,100);"/>
<text x="110" y="171" dominant-baseline="central" text-anchor="middle" style="fill:rgb(255,255,255);font-family:Arial;font-size:16px;">Number</text>
<rect x="34" y="188" width="152" height="39" style="fill:rgb(200,200,200);"/>
<rect x="80" y="193" width="106" height="29" style="fill:rgb(225,225,225);"/>
<text x="181" y="207" dominant-baseline="central" text-anchor="end" style="fill:rgb(0,0,0);font-family:Arial;font-size:16px;">Output</text>
<rect x="34" y="227" width="152" height="39" style="fill:rgb(200,200,200);"/>
<text x="110" y="246" dominant-baseline="central" text-anchor="middle" style="fill:rgb(0,0,0);font-family:Arial;font-size:16px;">20.00</text>
<rect x="39" y="232" width="26" height="29" style="fill:rgb(150,175,200);"/>
<text x="52" y="246" dominant-baseline="central" text-anchor="middle" style="fill:rgb(0,0,0);font-family:Arial;font-size:16px;">&lt;</text>
<rect x="39" y="232" width="26" height="29" style="fill:none;stroke-width:1px;stroke:rgb(50,75,100);"/>
<rect x="155" y="232" width="26" height="29" style="fill:rgb(150,175,200);"/>
<text x="168" y="246" dominant-baseline="central" text-anchor="middle" style="fill:rgb(0,0,0);font-family:Arial;font-size:16px;">&gt;</text>
<rect x="155" y="232" width="26" height="29" style="fill:none;stroke-width:1px;stroke:rgb(50,75,100);"/>
<rect x="34" y="154" width="152" height="112" style="fill:none;stroke-width:1px;stroke:rgb(0,0,0);"/>
<rect x="233" y="349" width="174" height="34" style="fill:rgb(100,100,100);"/>
<text x="324" y="366" dominant-baseline="central" text-anchor="middle" style="fill:rgb(255,255,255);font-family:Arial;font-size:16px;">Range</text>
<rect x="237" y="353" width="4" height="26" style="fill:rgb(0,255,0);"/>
<rect x="233" y="383" width="174" height="107" style="fill:rgb(200,200,200);"/>
<rect x="233" y="388" width="90" height="29" style="fill:rgb(225,225,225);"/>
<text x="238" y="403" dominant-baseline="central" text-anchor="start" style="fill:rgb(0,0,0);font-family:Arial;font-size:16px;">Start</text>
<rect x="233" y="422" width="90" height="29" style="fill:rgb(225,225,225);"/>
<text x="238" y="437" dominant-baseline="central" text-anchor="start" style="fill:rgb(0,0,0);font-family:Arial;font-size:16px;">Step</text>
<rect x="233" y="456" width="90" height="29" style="fill:rgb(225,225,225);"/>
<text x="238" y="471" dominant-baseline="central" text-anchor="start" style="fill:rgb(0,0,0);font-family:Arial;font-size:16px;">Count</text>
<rect x="333" y="388" width="74" height="29" style="fill:rgb(225,225,225);"/>
<text x="402" y="403" dominant-baseline="central" text-anchor="end" style="fill:rgb(0,0,0);font-family:Arial;font-size:16px;">List</text>
<rect x="233" y="349" width="174" height="141" style="fill:none;stroke-width:1px;stroke:rgb(0,0,0);"/>
<rect x="497" y="44" width="206" height="34" style="fill:rgb(100,100,100);"/>
<text x="600" y="61" dominant-baseline="central" text-anchor="middle" style="fill:rgb(255,255,255);font-family:Arial;font-size:16px;">Viewer</text>
<rect x="497" y="78" width="206" height="39" style="fill:rgb(200,200,200);"/>
<rect x="497" y="83" width="90" height="29" style="fill:rgb(225,225,225);"/>
<text x="502" y="97" dominant-baseline="central" text-anchor="start" style="fill:rgb(0,0,0);font-family:Arial;font-size:16px;">Input</text>
<rect x="597" y="83" width="106" height="29" style="fill:rgb(225,225,225);"/>
<text x="698" y="97" dominant-baseline="central" text-anchor="end" style="fill:rgb(0,0,0);font-family:Arial;font-size:16px;">Output</text>
<rect x="497" y="117" width="206" height="39" style="fill:rgb(255,255,100);"/>
<text x="600" y="136" dominant-baseline="central" text-anchor="middle" style="fill:rgb(0,0,0);font-family:Arial;font-size:16px;">20.00</text>
<rect x="497" y="44" width="206" height="112" style="fill:none;stroke-width:1px;stroke:rgb(0,0,0);"/>
<rect x="484" y="266" width="232" height="34" style="fill:rgb(100,100,100);"/>
<text x="600" y="283" dominant-baseline="central" text-anchor="middle" style="fill:rgb(255,255,255);font-family:Arial;font-size:16px;">Viewer 2</text>
<rect x="484" y="300" width="232" height="39" style="fill:rgb(200,200,200);"/>
<rect x="484" y="305" width="90" height="29" style="fill:rgb(225,225,225);"/>
<text x="489" y="320" dominant-baseline="central" text-anchor="start" style="fill:rgb(0,0,0);font-family:Arial;font-size:16px;">Input</text>
<rect x="610" y="305" width="106" height="29" style="fill:rgb(225,225,225);"/>
<text x="711" y="320" dominant-baseline="central" text-anchor="end" style="fill:rgb(0,0,0);font-family:Arial;font-size:16px;">Output</text>
<rect x="484" y="339" width="232" height="155" style="fill:rgb(255,255,100);"/>
<text x="600" y="359" dominant-baseline="central" text-anchor="middle" style="fill:rgb(0,0,0);font-family:Arial;font-size:16px;">20.00</text>
<text x="600" y="388" dominant-baseline="central" text-anchor="middle" style="fill:rgb(0,0,0);font-family:Arial;font-size:16px;">40.00</text>
<text x="600" y="417" dominant-baseline="central" text-anchor="middle" style="fill:rgb(0,0,0);font-family:Arial;font-size:16px;">60.00</text>
<text x="600" y="446" dominant-baseline="central" text-anchor="middle" style="fill:rgb(0,0,0);font-family:Arial;font-size:16px;">80.00</text>
<text x="600" y="475" dominant-baseline="central" text-anchor="middle" style="fill:rgb(0,0,0);font-family:Arial;font-size:16px;">100.00</text>
<rect x="484" y="494" width="232" height="39" style="fill:rgb(200,200,200);"/>
<text x="600" y="514" dominant-baseline="central" text-anchor="middle" style="fill:rgb(0,0,0);font-family:Arial;font-size:16px;">1 / 2 (10)</text>
<rect x="489" y="499" width="26" height="29" style="fill:rgb(150,175,200);"/>
<text x="502" y="514" dominant-baseline="central" text-anchor="middle" style="fill:rgb(0,0,0);font-family:Arial;font-size:16px;">&lt;</text>
<rect x="489" y="499" width="26" height="29" style="fill:none;stroke-width:1px;stroke:rgb(50,75,100);"/>
<rect x="685" y="499" width="26" height="29" style="fill:rgb(150,175,200);"/>
<text x="698" y="514" dominant-baseline="central" text-anchor="middle" style="fill:rgb(0,0,0);font-family:Arial;font-size:16px;">&gt;</text>
<rect x="685" y="499" width="26" height="29" style="fill:none;stroke-width:1px;stroke:rgb(50,75,100);"/>
<rect x="484" y="266" width="232" height="267" style="fill:none;stroke-width:1px;stroke:rgb(0,0,0);"/>
</svg>
