<svg version="1.1" xmlns="http://www.w3.org/2000/svg" width="800" height="600" shape-rendering="crispEdges">
<rect x="0" y="0" width="800" height="600" style="fill:rgb(240,240,240);"/>
<path d="M168,98 C228,98 168,200 227,200" style="fill:none;stroke-width:1px;stroke:rgb(0,0,0);"/>
<path d="M168,298 C212,298 184,234 227,234" style="fill:none;stroke-width:1px;stroke:rgb(0,0,0);"/>
<rect x="32" y="44" width="136" height="34" style="fill:rgb(100,100,100);"/>
<text x="100" y="61" dominant-baseline="central" text-anchor="middle" style="fill:rgb(255,255,255);font-family:Arial;font-size:16px;">Number</text>
<rect x="32" y="78" width="136" height="39" style="fill:rgb(200,200,200);"/>
<rect x="62" y="83" width="106" height="29" style="fill:rgb(225,225,225);"/>
<text x="163" y="97" dominant-baseline="central" text-anchor="end" style="fill:rgb(0,0,0);font-family:Arial;font-size:16px;">Output</text>
<rect x="32" y="117" width="136" height="39" style="fill:rgb(200,200,200);"/>
<text x="100" y="136" dominant-baseline="central" text-anchor="middle" style="fill:rgb(0,0,0);font-family:Arial;font-size:16px;">0.00</text>
<rect x="37" y="122" width="26" height="29" style="fill:rgb(150,175,200);"/>
<text x="50" y="136" dominant-baseline="central" text-anchor="middle" style="fill:rgb(0,0,0);font-family:Arial;font-size:16px;">&lt;</text>
<rect x="37" y="122" width="26" height="29" style="fill:none;stroke-width:1px;stroke:rgb(50,75,100);"/>
<rect x="137" y="122" width="26" height="29" style="fill:rgb(150,175,200);"/>
<text x="150" y="136" dominant-baseline="central" text-anchor="middle" style="fill:rgb(0,0,0);font-family:Arial;font-size:16px;">&gt;</text>
<rect x="137" y="122" width="26" height="29" style="fill:none;stroke-width:1px;stroke:rgb(50,75,100);"/>
<rect x="32" y="44" width="136" height="112" style="fill:none;stroke-width:1px;stroke:rgb(0,0,0);"/>
<rect x="32" y="244" width="136" height="34" style="fill:rgb(100,100,100);"/>
<text x="100" y="261" dominant-baseline="central" text-anchor="middle" style="fill:rgb(255,255,255);font-family:Arial;font-size:16px;">Number</text>
<rect x="32" y="278" width="136" height="39" style="fill:rgb(200,200,200);"/>
<rect x="62" y="283" width="106" height="29" style="fill:rgb(225,225,225);"/>
<text x="163" y="297" dominant-baseline="central" text-anchor="end" style="fill:rgb(0,0,0);font-family:Arial;font-size:16px;">Output</text>
<rect x="32" y="317" width="136" height="39" style="fill:rgb(200,200,200);"/>
<text x="100" y="336" dominant-baseline="central" text-anchor="middle" style="fill:rgb(0,0,0);font-family:Arial;font-size:16px;">0.00</text>
<rect x="37" y="322" width="26" height="29" style="fill:rgb(150,175,200);"/>
<text x="50" y="336" dominant-baseline="central" text-anchor="middle" style="fill:rgb(0,0,0);font-family:Arial;font-size:16px;">&lt;</text>
<rect x="37" y="322" width="26" height="29" style="fill:none;stroke-width:1px;stroke:rgb(50,75,100);"/>
<rect x="137" y="322" width="26" height="29" style="fill:rgb(150,175,200);"/>
<text x="150" y="336" dominant-baseline="central" text-anchor="middle" style="fill:rgb(0,0,0);font-family:Arial;font-size:16px;">&gt;</text>
<rect x="137" y="322" width="26" height="29" style="fill:none;stroke-width:1px;stroke:rgb(50,75,100);"/>
<rect x="32" y="244" width="136" height="112" style="fill:none;stroke-width:1px;stroke:rgb(0,0,0);"/>
<rect x="227" y="146" width="146" height="34" style="fill:rgb(100,100,100);"/>
<text x="304" y="163" dominant-baseline="central" text-anchor="middle" style="fill:rgb(255,255,255);font-family:Arial;font-size:16px;">Addition</text>
<rect x="231" y="150" width="4" height="26" style="fill:rgb(0,255,0);"/>
<rect x="227" y="180" width="146" height="73" style="fill:rgb(200,200,200);"/>
<rect x="227" y="185" width="26" height="29" style="fill:rgb(225,225,225);"/>
<text x="232" y="200" dominant-baseline="central" text-anchor="start" style="fill:rgb(0,0,0);font-family:Arial;font-size:16px;">A</text>
<rect x="227" y="219" width="26" height="29" style="fill:rgb(225,225,225);"/>
<text x="232" y="234" dominant-baseline="central" text-anchor="start" style="fill:rgb(0,0,0);font-family:Arial;font-size:16px;">B</text>
<rect x="267" y="185" width="106" height="29" style="fill:rgb(225,225,225);"/>
<text x="368" y="200" dominant-baseline="central" text-anchor="end" style="fill:rgb(0,0,0);font-family:Arial;font-size:16px;">Result</text>
<rect x="227" y="146" width="146" height="107" style="fill:none;stroke-width:1px;stroke:rgb(0,0,0);"/>
<rect x="497" y="144" width="206" height="34" style="fill:rgb(100,100,100);"/>
<text x="600" y="161" dominant-baseline="central" text-anchor="middle" style="fill:rgb(255,255,255);font-family:Arial;font-size:16px;">Viewer</text>
<rect x="497" y="178" width="206" height="39" style="fill:rgb(200,200,200);"/>
<rect x="497" y="183" width="90" height="29" style="fill:rgb(225,225,225);"/>
<text x="502" y="197" dominant-baseline="central" text-anchor="start" style="fill:rgb(0,0,0);font-family:Arial;font-size:16px;">Input</text>
<rect x="597" y="183" width="106" height="29" style="fill:rgb(225,225,225);"/>
<text x="698" y="197" dominant-baseline="central" text-anchor="end" style="fill:rgb(0,0,0);font-family:Arial;font-size:16px;">Output</text>
<rect x="497" y="217" width="206" height="39" style="fill:rgb(255,255,100);"/>
<text x="600" y="236" dominant-baseline="central" text-anchor="middle" style="fill:rgb(0,0,0);font-family:Arial;font-size:16px;">&lt;empty&gt;</text>
<rect x="497" y="144" width="206" height="112" style="fill:none;stroke-width:1px;stroke:rgb(0,0,0);"/>
</svg>
