<svg version="1.1" xmlns="http://www.w3.org/2000/svg" width="800" height="600" shape-rendering="crispEdges">
<rect x="0" y="0" width="800" height="600" style="fill:rgb(240,240,240);"/>
<path d="M161,98 C230,98 159,217 227,217" style="fill:none;stroke-width:1px;stroke:rgb(0,0,0);"/>
<path d="M373,217 C447,217 424,298 497,298" style="fill:none;stroke-width:1px;stroke:rgb(0,0,0);"/>
<rect x="39" y="44" width="122" height="34" style="fill:rgb(100,100,100);"/>
<text x="100" y="61" dominant-baseline="central" text-anchor="middle" style="fill:rgb(255,255,255);font-family:Arial;font-size:16px;">Integer</text>
<rect x="39" y="78" width="122" height="39" style="fill:rgb(200,200,200);"/>
<rect x="55" y="83" width="106" height="29" style="fill:rgb(225,225,225);"/>
<text x="156" y="97" dominant-baseline="central" text-anchor="end" style="fill:rgb(0,0,0);font-family:Arial;font-size:16px;">Output</text>
<rect x="39" y="117" width="122" height="39" style="fill:rgb(200,200,200);"/>
<text x="100" y="136" dominant-baseline="central" text-anchor="middle" style="fill:rgb(0,0,0);font-family:Arial;font-size:16px;">0</text>
<rect x="44" y="122" width="26" height="29" style="fill:rgb(150,175,200);"/>
<text x="57" y="136" dominant-baseline="central" text-anchor="middle" style="fill:rgb(0,0,0);font-family:Arial;font-size:16px;">&lt;</text>
<rect x="44" y="122" width="26" height="29" style="fill:none;stroke-width:1px;stroke:rgb(50,75,100);"/>
<rect x="130" y="122" width="26" height="29" style="fill:rgb(150,175,200);"/>
<text x="143" y="136" dominant-baseline="central" text-anchor="middle" style="fill:rgb(0,0,0);font-family:Arial;font-size:16px;">&gt;</text>
<rect x="130" y="122" width="26" height="29" style="fill:none;stroke-width:1px;stroke:rgb(50,75,100);"/>
<rect x="39" y="44" width="122" height="112" style="fill:none;stroke-width:1px;stroke:rgb(0,0,0);"/>
<rect x="227" y="163" width="146" height="34" style="fill:rgb(100,100,100);"/>
<text x="304" y="180" dominant-baseline="central" text-anchor="middle" style="fill:rgb(255,255,255);font-family:Arial;font-size:16px;">Increase</text>
<rect x="231" y="167" width="4" height="26" style="fill:rgb(0,255,0);"/>
<rect x="227" y="197" width="146" height="39" style="fill:rgb(200,200,200);"/>
<rect x="227" y="202" width="42" height="29" style="fill:rgb(225,225,225);"/>
<text x="232" y="217" dominant-baseline="central" text-anchor="start" style="fill:rgb(0,0,0);font-family:Arial;font-size:16px;">In</text>
<rect x="315" y="202" width="58" height="29" style="fill:rgb(225,225,225);"/>
<text x="368" y="217" dominant-baseline="central" text-anchor="end" style="fill:rgb(0,0,0);font-family:Arial;font-size:16px;">Out</text>
<rect x="227" y="163" width="146" height="73" style="fill:none;stroke-width:1px;stroke:rgb(0,0,0);"/>
<rect x="497" y="244" width="206" height="34" style="fill:rgb(100,100,100);"/>
<text x="600" y="261" dominant-baseline="central" text-anchor="middle" style="fill:rgb(255,255,255);font-family:Arial;font-size:16px;">Viewer</text>
<rect x="497" y="278" width="206" height="39" style="fill:rgb(200,200,200);"/>
<rect x="497" y="283" width="90" height="29" style="fill:rgb(225,225,225);"/>
<text x="502" y="297" dominant-baseline="central" text-anchor="start" style="fill:rgb(0,0,0);font-family:Arial;font-size:16px;">Input</text>
<rect x="597" y="283" width="106" height="29" style="fill:rgb(225,225,225);"/>
<text x="698" y="297" dominant-baseline="central" text-anchor="end" style="fill:rgb(0,0,0);font-family:Arial;font-size:16px;">Output</text>
<rect x="497" y="317" width="206" height="39" style="fill:rgb(255,255,100);"/>
<text x="600" y="336" dominant-baseline="central" text-anchor="middle" style="fill:rgb(0,0,0);font-family:Arial;font-size:16px;">1</text>
<rect x="497" y="244" width="206" height="112" style="fill:none;stroke-width:1px;stroke:rgb(0,0,0);"/>
</svg>
