<svg version="1.1" xmlns="http://www.w3.org/2000/svg" width="800" height="600" shape-rendering="crispEdges">
<rect x="0" y="0" width="800" height="600" style="fill:rgb(240,240,240);"/>
<path d="M179,196 C200,196 200,408 221,408" style="fill:none;stroke-width:2px;stroke:rgb(0,0,0);"/>
<path d="M179,196 C200,196 200,447 221,447" style="fill:none;stroke-width:2px;stroke:rgb(0,0,0);"/>
<path d="M179,196 C362,196 362,82 545,82" style="fill:none;stroke-width:2px;stroke:rgb(0,0,0);"/>
<path d="M420,408 C475,408 475,336 531,336" style="fill:none;stroke-width:2px;stroke:rgb(0,0,0);"/>
<rect x="5" y="134" width="174" height="39" style="fill:rgb(100,100,100);"/>
<text x="91" y="154" dominant-baseline="central" text-anchor="middle" style="fill:rgb(255,255,255);font-family:Arial;font-size:19px;">Number</text>
<rect x="5" y="173" width="174" height="45" style="fill:rgb(200,200,200);"/>
<rect x="57" y="179" width="122" height="34" style="fill:rgb(225,225,225);"/>
<text x="172" y="195" dominant-baseline="central" text-anchor="end" style="fill:rgb(0,0,0);font-family:Arial;font-size:19px;">Output</text>
<rect x="5" y="218" width="174" height="45" style="fill:rgb(200,200,200);"/>
<text x="91" y="240" dominant-baseline="central" text-anchor="middle" style="fill:rgb(0,0,0);font-family:Arial;font-size:19px;">20.00</text>
<rect x="10" y="223" width="30" height="34" style="fill:rgb(150,175,200);"/>
<text x="25" y="240" dominant-baseline="central" text-anchor="middle" style="fill:rgb(0,0,0);font-family:Arial;font-size:19px;">&lt;</text>
<rect x="10" y="223" width="30" height="34" style="fill:none;stroke-width:2px;stroke:rgb(50,75,100);"/>
<rect x="143" y="223" width="30" height="34" style="fill:rgb(150,175,200);"/>
<text x="157" y="240" dominant-baseline="central" text-anchor="middle" style="fill:rgb(0,0,0);font-family:Arial;font-size:19px;">&gt;</text>
<rect x="143" y="223" width="30" height="34" style="fill:none;stroke-width:2px;stroke:rgb(50,75,100);"/>
<rect x="5" y="134" width="174" height="128" style="fill:none;stroke-width:2px;stroke:rgb(0,0,0);"/>
<rect x="220" y="346" width="199" height="39" style="fill:rgb(100,100,100);"/>
<text x="324" y="365" dominant-baseline="central" text-anchor="middle" style="fill:rgb(255,255,255);font-family:Arial;font-size:19px;">Range</text>
<rect x="225" y="351" width="5" height="30" style="fill:rgb(0,255,0);"/>
<rect x="220" y="385" width="199" height="123" style="fill:rgb(200,200,200);"/>
<rect x="220" y="391" width="103" height="34" style="fill:rgb(225,225,225);"/>
<text x="226" y="407" dominant-baseline="central" text-anchor="start" style="fill:rgb(0,0,0);font-family:Arial;font-size:19px;">Start</text>
<rect x="220" y="429" width="103" height="34" style="fill:rgb(225,225,225);"/>
<text x="226" y="446" dominant-baseline="central" text-anchor="start" style="fill:rgb(0,0,0);font-family:Arial;font-size:19px;">Step</text>
<rect x="220" y="468" width="103" height="34" style="fill:rgb(225,225,225);"/>
<text x="226" y="485" dominant-baseline="central" text-anchor="start" style="fill:rgb(0,0,0);font-family:Arial;font-size:19px;">Count</text>
<rect x="334" y="391" width="85" height="34" style="fill:rgb(225,225,225);"/>
<text x="413" y="407" dominant-baseline="central" text-anchor="end" style="fill:rgb(0,0,0);font-family:Arial;font-size:19px;">List</text>
<rect x="220" y="346" width="199" height="161" style="fill:none;stroke-width:2px;stroke:rgb(0,0,0);"/>
<rect x="544" y="20" width="236" height="39" style="fill:rgb(100,100,100);"/>
<text x="662" y="39" dominant-baseline="central" text-anchor="middle" style="fill:rgb(255,255,255);font-family:Arial;font-size:19px;">Viewer</text>
<rect x="544" y="59" width="236" height="45" style="fill:rgb(200,200,200);"/>
<rect x="544" y="65" width="103" height="34" style="fill:rgb(225,225,225);"/>
<text x="550" y="81" dominant-baseline="central" text-anchor="start" style="fill:rgb(0,0,0);font-family:Arial;font-size:19px;">Input</text>
<rect x="659" y="65" width="122" height="34" style="fill:rgb(225,225,225);"/>
<text x="774" y="81" dominant-baseline="central" text-anchor="end" style="fill:rgb(0,0,0);font-family:Arial;font-size:19px;">Output</text>
<rect x="544" y="103" width="236" height="45" style="fill:rgb(255,255,100);"/>
<text x="662" y="126" dominant-baseline="central" text-anchor="middle" style="fill:rgb(0,0,0);font-family:Arial;font-size:19px;">20.00</text>
<rect x="544" y="20" width="236" height="128" style="fill:none;stroke-width:2px;stroke:rgb(0,0,0);"/>
<rect x="530" y="274" width="265" height="39" style="fill:rgb(100,100,100);"/>
<text x="662" y="294" dominant-baseline="central" text-anchor="middle" style="fill:rgb(255,255,255);font-family:Arial;font-size:19px;">Viewer 2</text>
<rect x="530" y="313" width="265" height="45" style="fill:rgb(200,200,200);"/>
<rect x="530" y="319" width="103" height="34" style="fill:rgb(225,225,225);"/>
<text x="535" y="335" dominant-baseline="central" text-anchor="start" style="fill:rgb(0,0,0);font-family:Arial;font-size:19px;">Input</text>
<rect x="673" y="319" width="122" height="34" style="fill:rgb(225,225,225);"/>
<text x="789" y="335" dominant-baseline="central" text-anchor="end" style="fill:rgb(0,0,0);font-family:Arial;font-size:19px;">Output</text>
<rect x="530" y="357" width="265" height="177" style="fill:rgb(255,255,100);"/>
<text x="662" y="380" dominant-baseline="central" text-anchor="middle" style="fill:rgb(0,0,0);font-family:Arial;font-size:19px;">20.00</text>
<text x="662" y="413" dominant-baseline="central" text-anchor="middle" style="fill:rgb(0,0,0);font-family:Arial;font-size:19px;">40.00</text>
<text x="662" y="446" dominant-baseline="central" text-anchor="middle" style="fill:rgb(0,0,0);font-family:Arial;font-size:19px;">60.00</text>
<text x="662" y="479" dominant-baseline="central" text-anchor="middle" style="fill:rgb(0,0,0);font-family:Arial;font-size:19px;">80.00</text>
<text x="662" y="512" dominant-baseline="central" text-anchor="middle" style="fill:rgb(0,0,0);font-family:Arial;font-size:19px;">100.00</text>
<rect x="530" y="534" width="265" height="45" style="fill:rgb(200,200,200);"/>
<text x="662" y="557" dominant-baseline="central" text-anchor="middle" style="fill:rgb(0,0,0);font-family:Arial;font-size:19px;">1 / 2 (10)</text>
<rect x="535" y="540" width="30" height="34" style="fill:rgb(150,175,200);"/>
<text x="550" y="557" dominant-baseline="central" text-anchor="middle" style="fill:rgb(0,0,0);font-family:Arial;font-size:19px;">&lt;</text>
<rect x="535" y="540" width="30" height="34" style="fill:none;stroke-width:2px;stroke:rgb(50,75,100);"/>
<rect x="759" y="540" width="30" height="34" style="fill:rgb(150,175,200);"/>
<text x="774" y="557" dominant-baseline="central" text-anchor="middle" style="fill:rgb(0,0,0);font-family:Arial;font-size:19px;">&gt;</text>
<rect x="759" y="540" width="30" height="34" style="fill:none;stroke-width:2px;stroke:rgb(50,75,100);"/>
<rect x="530" y="274" width="265" height="305" style="fill:none;stroke-width:2px;stroke:rgb(0,0,0);"/>
</svg>
