<svg version="1.1" xmlns="http://www.w3.org/2000/svg" width="800" height="600" shape-rendering="crispEdges">
<rect x="0" y="0" width="800" height="600" style="fill:rgb(240,240,240);"/>
<path d="M182,198 C288,198 117,407 224,407" style="fill:none;stroke-width:2px;stroke:rgb(0,0,0);"/>
<path d="M182,198 C307,198 98,445 224,445" style="fill:none;stroke-width:2px;stroke:rgb(0,0,0);"/>
<path d="M182,198 C371,198 354,85 544,85" style="fill:none;stroke-width:2px;stroke:rgb(0,0,0);"/>
<path d="M420,407 C485,407 464,336 529,336" style="fill:none;stroke-width:2px;stroke:rgb(0,0,0);"/>
<rect x="10" y="136" width="172" height="39" style="fill:rgb(100,100,100);"/>
<text x="95" y="156" dominant-baseline="central" text-anchor="middle" style="fill:rgb(255,255,255);font-family:Arial;font-size:19px;">Number</text>
<rect x="10" y="175" width="172" height="44" style="fill:rgb(200,200,200);"/>
<rect x="61" y="180" width="120" height="33" style="fill:rgb(225,225,225);"/>
<text x="175" y="197" dominant-baseline="central" text-anchor="end" style="fill:rgb(0,0,0);font-family:Arial;font-size:19px;">Output</text>
<rect x="10" y="219" width="172" height="44" style="fill:rgb(200,200,200);"/>
<text x="95" y="241" dominant-baseline="central" text-anchor="middle" style="fill:rgb(0,0,0);font-family:Arial;font-size:19px;">20.00</text>
<rect x="15" y="224" width="30" height="33" style="fill:rgb(150,175,200);"/>
<text x="30" y="241" dominant-baseline="central" text-anchor="middle" style="fill:rgb(0,0,0);font-family:Arial;font-size:19px;">&lt;</text>
<rect x="15" y="224" width="30" height="33" style="fill:none;stroke-width:2px;stroke:rgb(50,75,100);"/>
<rect x="146" y="224" width="30" height="33" style="fill:rgb(150,175,200);"/>
<text x="161" y="241" dominant-baseline="central" text-anchor="middle" style="fill:rgb(0,0,0);font-family:Arial;font-size:19px;">&gt;</text>
<rect x="146" y="224" width="30" height="33" style="fill:none;stroke-width:2px;stroke:rgb(50,75,100);"/>
<rect x="10" y="136" width="172" height="127" style="fill:none;stroke-width:2px;stroke:rgb(0,0,0);"/>
<rect x="223" y="345" width="197" height="39" style="fill:rgb(100,100,100);"/>
<text x="325" y="365" dominant-baseline="central" text-anchor="middle" style="fill:rgb(255,255,255);font-family:Arial;font-size:19px;">Range</text>
<rect x="227" y="350" width="5" height="30" style="fill:rgb(0,255,0);"/>
<rect x="223" y="384" width="197" height="121" style="fill:rgb(200,200,200);"/>
<rect x="223" y="389" width="102" height="33" style="fill:rgb(225,225,225);"/>
<text x="228" y="406" dominant-baseline="central" text-anchor="start" style="fill:rgb(0,0,0);font-family:Arial;font-size:19px;">Start</text>
<rect x="223" y="428" width="102" height="33" style="fill:rgb(225,225,225);"/>
<text x="228" y="444" dominant-baseline="central" text-anchor="start" style="fill:rgb(0,0,0);font-family:Arial;font-size:19px;">Step</text>
<rect x="223" y="466" width="102" height="33" style="fill:rgb(225,225,225);"/>
<text x="228" y="482" dominant-baseline="central" text-anchor="start" style="fill:rgb(0,0,0);font-family:Arial;font-size:19px;">Count</text>
<rect x="335" y="389" width="84" height="33" style="fill:rgb(225,225,225);"/>
<text x="413" y="406" dominant-baseline="central" text-anchor="end" style="fill:rgb(0,0,0);font-family:Arial;font-size:19px;">List</text>
<rect x="223" y="345" width="197" height="159" style="fill:none;stroke-width:2px;stroke:rgb(0,0,0);"/>
<rect x="543" y="24" width="233" height="39" style="fill:rgb(100,100,100);"/>
<text x="659" y="43" dominant-baseline="central" text-anchor="middle" style="fill:rgb(255,255,255);font-family:Arial;font-size:19px;">Viewer</text>
<rect x="543" y="62" width="233" height="44" style="fill:rgb(200,200,200);"/>
<rect x="543" y="68" width="102" height="33" style="fill:rgb(225,225,225);"/>
<text x="548" y="84" dominant-baseline="central" text-anchor="start" style="fill:rgb(0,0,0);font-family:Arial;font-size:19px;">Input</text>
<rect x="655" y="68" width="120" height="33" style="fill:rgb(225,225,225);"/>
<text x="769" y="84" dominant-baseline="central" text-anchor="end" style="fill:rgb(0,0,0);font-family:Arial;font-size:19px;">Output</text>
<rect x="543" y="106" width="233" height="44" style="fill:rgb(255,255,100);"/>
<text x="659" y="128" dominant-baseline="central" text-anchor="middle" style="fill:rgb(0,0,0);font-family:Arial;font-size:19px;">20.00</text>
<rect x="543" y="24" width="233" height="127" style="fill:none;stroke-width:2px;stroke:rgb(0,0,0);"/>
<rect x="528" y="274" width="262" height="39" style="fill:rgb(100,100,100);"/>
<text x="659" y="294" dominant-baseline="central" text-anchor="middle" style="fill:rgb(255,255,255);font-family:Arial;font-size:19px;">Viewer 2</text>
<rect x="528" y="313" width="262" height="44" style="fill:rgb(200,200,200);"/>
<rect x="528" y="318" width="102" height="33" style="fill:rgb(225,225,225);"/>
<text x="534" y="335" dominant-baseline="central" text-anchor="start" style="fill:rgb(0,0,0);font-family:Arial;font-size:19px;">Input</text>
<rect x="670" y="318" width="120" height="33" style="fill:rgb(225,225,225);"/>
<text x="784" y="335" dominant-baseline="central" text-anchor="end" style="fill:rgb(0,0,0);font-family:Arial;font-size:19px;">Output</text>
<rect x="528" y="357" width="262" height="175" style="fill:rgb(255,255,100);"/>
<text x="659" y="379" dominant-baseline="central" text-anchor="middle" style="fill:rgb(0,0,0);font-family:Arial;font-size:19px;">20.00</text>
<text x="659" y="411" dominant-baseline="central" text-anchor="middle" style="fill:rgb(0,0,0);font-family:Arial;font-size:19px;">40.00</text>
<text x="659" y="444" dominant-baseline="central" text-anchor="middle" style="fill:rgb(0,0,0);font-family:Arial;font-size:19px;">60.00</text>
<text x="659" y="477" dominant-baseline="central" text-anchor="middle" style="fill:rgb(0,0,0);font-family:Arial;font-size:19px;">80.00</text>
<text x="659" y="509" dominant-baseline="central" text-anchor="middle" style="fill:rgb(0,0,0);font-family:Arial;font-size:19px;">100.00</text>
<rect x="528" y="531" width="262" height="44" style="fill:rgb(200,200,200);"/>
<text x="659" y="553" dominant-baseline="central" text-anchor="middle" style="fill:rgb(0,0,0);font-family:Arial;font-size:19px;">1 / 2 (10)</text>
<rect x="534" y="537" width="30" height="33" style="fill:rgb(150,175,200);"/>
<text x="548" y="553" dominant-baseline="central" text-anchor="middle" style="fill:rgb(0,0,0);font-family:Arial;font-size:19px;">&lt;</text>
<rect x="534" y="537" width="30" height="33" style="fill:none;stroke-width:2px;stroke:rgb(50,75,100);"/>
<rect x="755" y="537" width="30" height="33" style="fill:rgb(150,175,200);"/>
<text x="769" y="553" dominant-baseline="central" text-anchor="middle" style="fill:rgb(0,0,0);font-family:Arial;font-size:19px;">&gt;</text>
<rect x="755" y="537" width="30" height="33" style="fill:none;stroke-width:2px;stroke:rgb(50,75,100);"/>
<rect x="528" y="274" width="262" height="301" style="fill:none;stroke-width:2px;stroke:rgb(0,0,0);"/>
</svg>
