<svg version="1.1" xmlns="http://www.w3.org/2000/svg" width="800" height="600" shape-rendering="crispEdges">
<rect x="0" y="0" width="800" height="600" style="fill:rgb(240,240,240);"/>
<path d="M157,159 C176,159 176,344 194,344" style="fill:none;stroke-width:1px;stroke:rgb(0,0,0);"/>
<path d="M157,159 C176,159 176,378 194,378" style="fill:none;stroke-width:1px;stroke:rgb(0,0,0);"/>
<path d="M157,159 C318,159 318,59 478,59" style="fill:none;stroke-width:1px;stroke:rgb(0,0,0);"/>
<path d="M368,344 C417,344 417,281 465,281" style="fill:none;stroke-width:1px;stroke:rgb(0,0,0);"/>
<rect x="5" y="105" width="152" height="34" style="fill:rgb(100,100,100);"/>
<text x="81" y="122" dominant-baseline="central" text-anchor="middle" style="fill:rgb(255,255,255);font-family:Arial;font-size:16px;">Number</text>
<rect x="5" y="139" width="152" height="39" style="fill:rgb(200,200,200);"/>
<rect x="51" y="144" width="106" height="29" style="fill:rgb(225,225,225);"/>
<text x="152" y="158" dominant-baseline="central" text-anchor="end" style="fill:rgb(0,0,0);font-family:Arial;font-size:16px;">Output</text>
<rect x="5" y="178" width="152" height="39" style="fill:rgb(200,200,200);"/>
<text x="81" y="197" dominant-baseline="central" text-anchor="middle" style="fill:rgb(0,0,0);font-family:Arial;font-size:16px;">20.00</text>
<rect x="10" y="183" width="26" height="29" style="fill:rgb(150,175,200);"/>
<text x="23" y="197" dominant-baseline="central" text-anchor="middle" style="fill:rgb(0,0,0);font-family:Arial;font-size:16px;">&lt;</text>
<rect x="10" y="183" width="26" height="29" style="fill:none;stroke-width:1px;stroke:rgb(50,75,100);"/>
<rect x="126" y="183" width="26" height="29" style="fill:rgb(150,175,200);"/>
<text x="139" y="197" dominant-baseline="central" text-anchor="middle" style="fill:rgb(0,0,0);font-family:Arial;font-size:16px;">&gt;</text>
<rect x="126" y="183" width="26" height="29" style="fill:none;stroke-width:1px;stroke:rgb(50,75,100);"/>
<rect x="5" y="105" width="152" height="112" style="fill:none;stroke-width:1px;stroke:rgb(0,0,0);"/>
<rect x="194" y="290" width="174" height="34" style="fill:rgb(100,100,100);"/>
<text x="285" y="307" dominant-baseline="central" text-anchor="middle" style="fill:rgb(255,255,255);font-family:Arial;font-size:16px;">Range</text>
<rect x="198" y="294" width="4" height="26" style="fill:rgb(0,255,0);"/>
<rect x="194" y="324" width="174" height="107" style="fill:rgb(200,200,200);"/>
<rect x="194" y="329" width="90" height="29" style="fill:rgb(225,225,225);"/>
<text x="199" y="344" dominant-baseline="central" text-anchor="start" style="fill:rgb(0,0,0);font-family:Arial;font-size:16px;">Start</text>
<rect x="194" y="363" width="90" height="29" style="fill:rgb(225,225,225);"/>
<text x="199" y="378" dominant-baseline="central" text-anchor="start" style="fill:rgb(0,0,0);font-family:Arial;font-size:16px;">Step</text>
<rect x="194" y="397" width="90" height="29" style="fill:rgb(225,225,225);"/>
<text x="199" y="412" dominant-baseline="central" text-anchor="start" style="fill:rgb(0,0,0);font-family:Arial;font-size:16px;">Count</text>
<rect x="294" y="329" width="74" height="29" style="fill:rgb(225,225,225);"/>
<text x="363" y="344" dominant-baseline="central" text-anchor="end" style="fill:rgb(0,0,0);font-family:Arial;font-size:16px;">List</text>
<rect x="194" y="290" width="174" height="141" style="fill:none;stroke-width:1px;stroke:rgb(0,0,0);"/>
<rect x="478" y="5" width="206" height="34" style="fill:rgb(100,100,100);"/>
<text x="581" y="22" dominant-baseline="central" text-anchor="middle" style="fill:rgb(255,255,255);font-family:Arial;font-size:16px;">Viewer</text>
<rect x="478" y="39" width="206" height="39" style="fill:rgb(200,200,200);"/>
<rect x="478" y="44" width="90" height="29" style="fill:rgb(225,225,225);"/>
<text x="483" y="58" dominant-baseline="central" text-anchor="start" style="fill:rgb(0,0,0);font-family:Arial;font-size:16px;">Input</text>
<rect x="578" y="44" width="106" height="29" style="fill:rgb(225,225,225);"/>
<text x="679" y="58" dominant-baseline="central" text-anchor="end" style="fill:rgb(0,0,0);font-family:Arial;font-size:16px;">Output</text>
<rect x="478" y="78" width="206" height="39" style="fill:rgb(255,255,100);"/>
<text x="581" y="97" dominant-baseline="central" text-anchor="middle" style="fill:rgb(0,0,0);font-family:Arial;font-size:16px;">20.00</text>
<rect x="478" y="5" width="206" height="112" style="fill:none;stroke-width:1px;stroke:rgb(0,0,0);"/>
<rect x="465" y="227" width="232" height="34" style="fill:rgb(100,100,100);"/>
<text x="581" y="244" dominant-baseline="central" text-anchor="middle" style="fill:rgb(255,255,255);font-family:Arial;font-size:16px;">Viewer 2</text>
<rect x="465" y="261" width="232" height="39" style="fill:rgb(200,200,200);"/>
<rect x="465" y="266" width="90" height="29" style="fill:rgb(225,225,225);"/>
<text x="470" y="281" dominant-baseline="central" text-anchor="start" style="fill:rgb(0,0,0);font-family:Arial;font-size:16px;">Input</text>
<rect x="591" y="266" width="106" height="29" style="fill:rgb(225,225,225);"/>
<text x="692" y="281" dominant-baseline="central" text-anchor="end" style="fill:rgb(0,0,0);font-family:Arial;font-size:16px;">Output</text>
<rect x="465" y="300" width="232" height="155" style="fill:rgb(255,255,100);"/>
<text x="581" y="320" dominant-baseline="central" text-anchor="middle" style="fill:rgb(0,0,0);font-family:Arial;font-size:16px;">20.00</text>
<text x="581" y="349" dominant-baseline="central" text-anchor="middle" style="fill:rgb(0,0,0);font-family:Arial;font-size:16px;">40.00</text>
<text x="581" y="378" dominant-baseline="central" text-anchor="middle" style="fill:rgb(0,0,0);font-family:Arial;font-size:16px;">60.00</text>
<text x="581" y="407" dominant-baseline="central" text-anchor="middle" style="fill:rgb(0,0,0);font-family:Arial;font-size:16px;">80.00</text>
<text x="581" y="436" dominant-baseline="central" text-anchor="middle" style="fill:rgb(0,0,0);font-family:Arial;font-size:16px;">100.00</text>
<rect x="465" y="455" width="232" height="39" style="fill:rgb(200,200,200);"/>
<text x="581" y="475" dominant-baseline="central" text-anchor="middle" style="fill:rgb(0,0,0);font-family:Arial;font-size:16px;">1 / 2 (10)</text>
<rect x="470" y="460" width="26" height="29" style="fill:rgb(150,175,200);"/>
<text x="483" y="475" dominant-baseline="central" text-anchor="middle" style="fill:rgb(0,0,0);font-family:Arial;font-size:16px;">&lt;</text>
<rect x="470" y="460" width="26" height="29" style="fill:none;stroke-width:1px;stroke:rgb(50,75,100);"/>
<rect x="666" y="460" width="26" height="29" style="fill:rgb(150,175,200);"/>
<text x="679" y="475" dominant-baseline="central" text-anchor="middle" style="fill:rgb(0,0,0);font-family:Arial;font-size:16px;">&gt;</text>
<rect x="666" y="460" width="26" height="29" style="fill:none;stroke-width:1px;stroke:rgb(50,75,100);"/>
<rect x="465" y="227" width="232" height="267" style="fill:none;stroke-width:1px;stroke:rgb(0,0,0);"/>
</svg>
