<svg version="1.1" xmlns="http://www.w3.org/2000/svg" width="800" height="600" shape-rendering="crispEdges">
<rect x="0" y="0" width="800" height="600" style="fill:rgb(250,250,250);"/>
<path d="M143,157 C170,157 170,344 196,344" style="fill:none;stroke-width:1px;stroke:rgb(38,50,56);"/>
<path d="M143,157 C170,157 170,375 196,375" style="fill:none;stroke-width:1px;stroke:rgb(38,50,56);"/>
<path d="M143,157 C313,157 313,57 482,57" style="fill:none;stroke-width:1px;stroke:rgb(38,50,56);"/>
<path d="M352,344 C411,344 411,287 470,287" style="fill:none;stroke-width:1px;stroke:rgb(38,50,56);"/>
<rect x="5" y="105" width="138" height="34" style="fill:rgb(41,127,255);"/>
<text x="74" y="122" dominant-baseline="central" text-anchor="middle" style="fill:rgb(250,250,250);font-family:Arial;font-size:16px;">Number</text>
<rect x="5" y="139" width="138" height="36" style="fill:rgb(236,236,236);"/>
<rect x="49" y="144" width="94" height="26" style="fill:rgb(246,246,246);"/>
<text x="138" y="157" dominant-baseline="central" text-anchor="end" style="fill:rgb(0,0,0);font-family:Arial;font-size:14px;">Output</text>
<rect x="5" y="175" width="138" height="36" style="fill:rgb(236,236,236);"/>
<text x="74" y="193" dominant-baseline="central" text-anchor="middle" style="fill:rgb(0,0,0);font-family:Arial;font-size:14px;">20.00</text>
<rect x="10" y="180" width="24" height="26" style="fill:rgb(217,217,217);"/>
<text x="22" y="193" dominant-baseline="central" text-anchor="middle" style="fill:rgb(0,0,0);font-family:Arial;font-size:14px;">&lt;</text>
<rect x="10" y="180" width="24" height="26" style="fill:none;stroke-width:1px;stroke:rgb(146,152,155);"/>
<rect x="114" y="180" width="24" height="26" style="fill:rgb(217,217,217);"/>
<text x="126" y="193" dominant-baseline="central" text-anchor="middle" style="fill:rgb(0,0,0);font-family:Arial;font-size:14px;">&gt;</text>
<rect x="114" y="180" width="24" height="26" style="fill:none;stroke-width:1px;stroke:rgb(146,152,155);"/>
<rect x="5" y="105" width="138" height="106" style="fill:none;stroke-width:1px;stroke:rgb(38,50,56);"/>
<rect x="196" y="292" width="156" height="34" style="fill:rgb(41,127,255);"/>
<text x="274" y="309" dominant-baseline="central" text-anchor="middle" style="fill:rgb(250,250,250);font-family:Arial;font-size:16px;">Range</text>
<rect x="196" y="326" width="156" height="98" style="fill:rgb(236,236,236);"/>
<rect x="196" y="331" width="80" height="26" style="fill:rgb(246,246,246);"/>
<text x="201" y="344" dominant-baseline="central" text-anchor="start" style="fill:rgb(0,0,0);font-family:Arial;font-size:14px;">Start</text>
<rect x="196" y="362" width="80" height="26" style="fill:rgb(246,246,246);"/>
<text x="201" y="375" dominant-baseline="central" text-anchor="start" style="fill:rgb(0,0,0);font-family:Arial;font-size:14px;">Step</text>
<rect x="196" y="393" width="80" height="26" style="fill:rgb(246,246,246);"/>
<text x="201" y="406" dominant-baseline="central" text-anchor="start" style="fill:rgb(0,0,0);font-family:Arial;font-size:14px;">Count</text>
<rect x="286" y="331" width="66" height="26" style="fill:rgb(246,246,246);"/>
<text x="347" y="344" dominant-baseline="central" text-anchor="end" style="fill:rgb(0,0,0);font-family:Arial;font-size:14px;">List</text>
<rect x="196" y="292" width="156" height="132" style="fill:none;stroke-width:1px;stroke:rgb(38,50,56);"/>
<rect x="482" y="5" width="184" height="34" style="fill:rgb(41,127,255);"/>
<text x="574" y="22" dominant-baseline="central" text-anchor="middle" style="fill:rgb(250,250,250);font-family:Arial;font-size:16px;">Viewer</text>
<rect x="482" y="39" width="184" height="36" style="fill:rgb(236,236,236);"/>
<rect x="482" y="44" width="80" height="26" style="fill:rgb(246,246,246);"/>
<text x="487" y="57" dominant-baseline="central" text-anchor="start" style="fill:rgb(0,0,0);font-family:Arial;font-size:14px;">Input</text>
<rect x="572" y="44" width="94" height="26" style="fill:rgb(246,246,246);"/>
<text x="661" y="57" dominant-baseline="central" text-anchor="end" style="fill:rgb(0,0,0);font-family:Arial;font-size:14px;">Output</text>
<rect x="482" y="75" width="184" height="36" style="fill:rgb(236,236,236);"/>
<text x="574" y="93" dominant-baseline="central" text-anchor="middle" style="fill:rgb(0,0,0);font-family:Arial;font-size:14px;">20.00</text>
<rect x="482" y="5" width="184" height="106" style="fill:none;stroke-width:1px;stroke:rgb(38,50,56);"/>
<rect x="470" y="235" width="208" height="34" style="fill:rgb(41,127,255);"/>
<text x="574" y="252" dominant-baseline="central" text-anchor="middle" style="fill:rgb(250,250,250);font-family:Arial;font-size:16px;">Viewer 2</text>
<rect x="470" y="269" width="208" height="36" style="fill:rgb(236,236,236);"/>
<rect x="470" y="274" width="80" height="26" style="fill:rgb(246,246,246);"/>
<text x="475" y="287" dominant-baseline="central" text-anchor="start" style="fill:rgb(0,0,0);font-family:Arial;font-size:14px;">Input</text>
<rect x="584" y="274" width="94" height="26" style="fill:rgb(246,246,246);"/>
<text x="673" y="287" dominant-baseline="central" text-anchor="end" style="fill:rgb(0,0,0);font-family:Arial;font-size:14px;">Output</text>
<rect x="470" y="305" width="208" height="140" style="fill:rgb(236,236,236);"/>
<text x="574" y="323" dominant-baseline="central" text-anchor="middle" style="fill:rgb(0,0,0);font-family:Arial;font-size:14px;">20.00</text>
<text x="574" y="349" dominant-baseline="central" text-anchor="middle" style="fill:rgb(0,0,0);font-family:Arial;font-size:14px;">40.00</text>
<text x="574" y="375" dominant-baseline="central" text-anchor="middle" style="fill:rgb(0,0,0);font-family:Arial;font-size:14px;">60.00</text>
<text x="574" y="401" dominant-baseline="central" text-anchor="middle" style="fill:rgb(0,0,0);font-family:Arial;font-size:14px;">80.00</text>
<text x="574" y="427" dominant-baseline="central" text-anchor="middle" style="fill:rgb(0,0,0);font-family:Arial;font-size:14px;">100.00</text>
<rect x="470" y="445" width="208" height="36" style="fill:rgb(236,236,236);"/>
<text x="574" y="463" dominant-baseline="central" text-anchor="middle" style="fill:rgb(0,0,0);font-family:Arial;font-size:14px;">1 / 2 (10)</text>
<rect x="475" y="450" width="24" height="26" style="fill:rgb(217,217,217);"/>
<text x="487" y="463" dominant-baseline="central" text-anchor="middle" style="fill:rgb(0,0,0);font-family:Arial;font-size:14px;">&lt;</text>
<rect x="475" y="450" width="24" height="26" style="fill:none;stroke-width:1px;stroke:rgb(146,152,155);"/>
<rect x="649" y="450" width="24" height="26" style="fill:rgb(217,217,217);"/>
<text x="661" y="463" dominant-baseline="central" text-anchor="middle" style="fill:rgb(0,0,0);font-family:Arial;font-size:14px;">&gt;</text>
<rect x="649" y="450" width="24" height="26" style="fill:none;stroke-width:1px;stroke:rgb(146,152,155);"/>
<rect x="470" y="235" width="208" height="246" style="fill:none;stroke-width:1px;stroke:rgb(38,50,56);"/>
</svg>
