<svg version="1.1" xmlns="http://www.w3.org/2000/svg" width="800" height="600" shape-rendering="crispEdges">
<rect x="0" y="0" width="800" height="600" style="fill:rgb(240,240,240);"/>
<path d="M233,236 C261,236 261,514 289,514" style="fill:none;stroke-width:2px;stroke:rgb(0,0,0);"/>
<path d="M233,236 C261,236 261,565 289,565" style="fill:none;stroke-width:2px;stroke:rgb(0,0,0);"/>
<path d="M233,236 C474,236 474,86 715,86" style="fill:none;stroke-width:2px;stroke:rgb(0,0,0);"/>
<path d="M550,514 C623,514 623,419 695,419" style="fill:none;stroke-width:2px;stroke:rgb(0,0,0);"/>
<rect x="5" y="155" width="228" height="51" style="fill:rgb(100,100,100);"/>
<text x="119" y="180" dominant-baseline="central" text-anchor="middle" style="fill:rgb(255,255,255);font-family:Arial;font-size:24px;">Number</text>
<rect x="5" y="206" width="228" height="59" style="fill:rgb(200,200,200);"/>
<rect x="74" y="213" width="159" height="44" style="fill:rgb(225,225,225);"/>
<text x="225" y="235" dominant-baseline="central" text-anchor="end" style="fill:rgb(0,0,0);font-family:Arial;font-size:24px;">Output</text>
<rect x="5" y="264" width="228" height="59" style="fill:rgb(200,200,200);"/>
<text x="119" y="293" dominant-baseline="central" text-anchor="middle" style="fill:rgb(0,0,0);font-family:Arial;font-size:24px;">20.00</text>
<rect x="12" y="272" width="39" height="44" style="fill:rgb(150,175,200);"/>
<text x="32" y="293" dominant-baseline="central" text-anchor="middle" style="fill:rgb(0,0,0);font-family:Arial;font-size:24px;">&lt;</text>
<rect x="12" y="272" width="39" height="44" style="fill:none;stroke-width:2px;stroke:rgb(50,75,100);"/>
<rect x="186" y="272" width="39" height="44" style="fill:rgb(150,175,200);"/>
<text x="206" y="293" dominant-baseline="central" text-anchor="middle" style="fill:rgb(0,0,0);font-family:Arial;font-size:24px;">&gt;</text>
<rect x="186" y="272" width="39" height="44" style="fill:none;stroke-width:2px;stroke:rgb(50,75,100);"/>
<rect x="5" y="155" width="228" height="168" style="fill:none;stroke-width:2px;stroke:rgb(0,0,0);"/>
<rect x="288" y="433" width="261" height="51" style="fill:rgb(100,100,100);"/>
<text x="419" y="458" dominant-baseline="central" text-anchor="middle" style="fill:rgb(255,255,255);font-family:Arial;font-size:24px;">Range</text>
<rect x="288" y="484" width="261" height="161" style="fill:rgb(200,200,200);"/>
<rect x="288" y="491" width="135" height="44" style="fill:rgb(225,225,225);"/>
<text x="296" y="513" dominant-baseline="central" text-anchor="start" style="fill:rgb(0,0,0);font-family:Arial;font-size:24px;">Start</text>
<rect x="288" y="542" width="135" height="44" style="fill:rgb(225,225,225);"/>
<text x="296" y="564" dominant-baseline="central" text-anchor="start" style="fill:rgb(0,0,0);font-family:Arial;font-size:24px;">Step</text>
<rect x="288" y="593" width="135" height="44" style="fill:rgb(225,225,225);"/>
<text x="296" y="615" dominant-baseline="central" text-anchor="start" style="fill:rgb(0,0,0);font-family:Arial;font-size:24px;">Count</text>
<rect x="438" y="491" width="111" height="44" style="fill:rgb(225,225,225);"/>
<text x="542" y="513" dominant-baseline="central" text-anchor="end" style="fill:rgb(0,0,0);font-family:Arial;font-size:24px;">List</text>
<rect x="288" y="433" width="261" height="212" style="fill:none;stroke-width:2px;stroke:rgb(0,0,0);"/>
<rect x="714" y="5" width="309" height="51" style="fill:rgb(100,100,100);"/>
<text x="869" y="30" dominant-baseline="central" text-anchor="middle" style="fill:rgb(255,255,255);font-family:Arial;font-size:24px;">Viewer</text>
<rect x="714" y="56" width="309" height="59" style="fill:rgb(200,200,200);"/>
<rect x="714" y="63" width="135" height="44" style="fill:rgb(225,225,225);"/>
<text x="722" y="85" dominant-baseline="central" text-anchor="start" style="fill:rgb(0,0,0);font-family:Arial;font-size:24px;">Input</text>
<rect x="864" y="63" width="159" height="44" style="fill:rgb(225,225,225);"/>
<text x="1016" y="85" dominant-baseline="central" text-anchor="end" style="fill:rgb(0,0,0);font-family:Arial;font-size:24px;">Output</text>
<rect x="714" y="114" width="309" height="59" style="fill:rgb(255,255,100);"/>
<text x="869" y="143" dominant-baseline="central" text-anchor="middle" style="fill:rgb(0,0,0);font-family:Arial;font-size:24px;">20.00</text>
<rect x="714" y="5" width="309" height="168" style="fill:none;stroke-width:2px;stroke:rgb(0,0,0);"/>
<rect x="695" y="338" width="348" height="51" style="fill:rgb(100,100,100);"/>
<text x="869" y="364" dominant-baseline="central" text-anchor="middle" style="fill:rgb(255,255,255);font-family:Arial;font-size:24px;">Viewer 2</text>
<rect x="695" y="389" width="348" height="59" style="fill:rgb(200,200,200);"/>
<rect x="695" y="397" width="135" height="44" style="fill:rgb(225,225,225);"/>
<text x="702" y="419" dominant-baseline="central" text-anchor="start" style="fill:rgb(0,0,0);font-family:Arial;font-size:24px;">Input</text>
<rect x="884" y="397" width="159" height="44" style="fill:rgb(225,225,225);"/>
<text x="1035" y="419" dominant-baseline="central" text-anchor="end" style="fill:rgb(0,0,0);font-family:Arial;font-size:24px;">Output</text>
<rect x="695" y="448" width="348" height="233" style="fill:rgb(255,255,100);"/>
<text x="869" y="477" dominant-baseline="central" text-anchor="middle" style="fill:rgb(0,0,0);font-family:Arial;font-size:24px;">20.00</text>
<text x="869" y="521" dominant-baseline="central" text-anchor="middle" style="fill:rgb(0,0,0);font-family:Arial;font-size:24px;">40.00</text>
<text x="869" y="564" dominant-baseline="central" text-anchor="middle" style="fill:rgb(0,0,0);font-family:Arial;font-size:24px;">60.00</text>
<text x="869" y="608" dominant-baseline="central" text-anchor="middle" style="fill:rgb(0,0,0);font-family:Arial;font-size:24px;">80.00</text>
<text x="869" y="651" dominant-baseline="central" text-anchor="middle" style="fill:rgb(0,0,0);font-family:Arial;font-size:24px;">100.00</text>
<rect x="695" y="680" width="348" height="59" style="fill:rgb(200,200,200);"/>
<text x="869" y="710" dominant-baseline="central" text-anchor="middle" style="fill:rgb(0,0,0);font-family:Arial;font-size:24px;">1 / 2 (10)</text>
<rect x="702" y="688" width="39" height="44" style="fill:rgb(150,175,200);"/>
<text x="722" y="710" dominant-baseline="central" text-anchor="middle" style="fill:rgb(0,0,0);font-family:Arial;font-size:24px;">&lt;</text>
<rect x="702" y="688" width="39" height="44" style="fill:none;stroke-width:2px;stroke:rgb(50,75,100);"/>
<rect x="996" y="688" width="39" height="44" style="fill:rgb(150,175,200);"/>
<text x="1016" y="710" dominant-baseline="central" text-anchor="middle" style="fill:rgb(0,0,0);font-family:Arial;font-size:24px;">&gt;</text>
<rect x="996" y="688" width="39" height="44" style="fill:none;stroke-width:2px;stroke:rgb(50,75,100);"/>
<rect x="695" y="338" width="348" height="401" style="fill:none;stroke-width:2px;stroke:rgb(0,0,0);"/>
</svg>
