<svg version="1.1" xmlns="http://www.w3.org/2000/svg" width="800" height="600" shape-rendering="crispEdges">
<rect x="0" y="0" width="800" height="600" style="fill:rgb(250,250,250);"/>
<path d="M212,233 C251,233 251,513 291,513" style="fill:none;stroke-width:1px;stroke:rgb(38,50,56);"/>
<path d="M212,233 C251,233 251,560 291,560" style="fill:none;stroke-width:1px;stroke:rgb(38,50,56);"/>
<path d="M212,233 C466,233 466,83 720,83" style="fill:none;stroke-width:1px;stroke:rgb(38,50,56);"/>
<path d="M525,513 C614,513 614,428 702,428" style="fill:none;stroke-width:1px;stroke:rgb(38,50,56);"/>
<rect x="5" y="155" width="207" height="51" style="fill:rgb(41,127,255);"/>
<text x="108" y="180" dominant-baseline="central" text-anchor="middle" style="fill:rgb(250,250,250);font-family:Arial;font-size:24px;">Number</text>
<rect x="5" y="206" width="207" height="54" style="fill:rgb(236,236,236);"/>
<rect x="71" y="213" width="141" height="39" style="fill:rgb(246,246,246);"/>
<text x="204" y="233" dominant-baseline="central" text-anchor="end" style="fill:rgb(0,0,0);font-family:Arial;font-size:21px;">Output</text>
<rect x="5" y="260" width="207" height="54" style="fill:rgb(236,236,236);"/>
<text x="108" y="287" dominant-baseline="central" text-anchor="middle" style="fill:rgb(0,0,0);font-family:Arial;font-size:21px;">20.00</text>
<rect x="12" y="267" width="36" height="39" style="fill:rgb(217,217,217);"/>
<text x="30" y="287" dominant-baseline="central" text-anchor="middle" style="fill:rgb(0,0,0);font-family:Arial;font-size:21px;">&lt;</text>
<rect x="12" y="267" width="36" height="39" style="fill:none;stroke-width:1px;stroke:rgb(146,152,155);"/>
<rect x="168" y="267" width="36" height="39" style="fill:rgb(217,217,217);"/>
<text x="186" y="287" dominant-baseline="central" text-anchor="middle" style="fill:rgb(0,0,0);font-family:Arial;font-size:21px;">&gt;</text>
<rect x="168" y="267" width="36" height="39" style="fill:none;stroke-width:1px;stroke:rgb(146,152,155);"/>
<rect x="5" y="155" width="207" height="159" style="fill:none;stroke-width:1px;stroke:rgb(38,50,56);"/>
<rect x="291" y="435" width="234" height="51" style="fill:rgb(41,127,255);"/>
<text x="408" y="461" dominant-baseline="central" text-anchor="middle" style="fill:rgb(250,250,250);font-family:Arial;font-size:24px;">Range</text>
<rect x="291" y="486" width="234" height="147" style="fill:rgb(236,236,236);"/>
<rect x="291" y="494" width="120" height="39" style="fill:rgb(246,246,246);"/>
<text x="299" y="513" dominant-baseline="central" text-anchor="start" style="fill:rgb(0,0,0);font-family:Arial;font-size:21px;">Start</text>
<rect x="291" y="540" width="120" height="39" style="fill:rgb(246,246,246);"/>
<text x="299" y="560" dominant-baseline="central" text-anchor="start" style="fill:rgb(0,0,0);font-family:Arial;font-size:21px;">Step</text>
<rect x="291" y="587" width="120" height="39" style="fill:rgb(246,246,246);"/>
<text x="299" y="606" dominant-baseline="central" text-anchor="start" style="fill:rgb(0,0,0);font-family:Arial;font-size:21px;">Count</text>
<rect x="426" y="494" width="99" height="39" style="fill:rgb(246,246,246);"/>
<text x="518" y="513" dominant-baseline="central" text-anchor="end" style="fill:rgb(0,0,0);font-family:Arial;font-size:21px;">List</text>
<rect x="291" y="435" width="234" height="198" style="fill:none;stroke-width:1px;stroke:rgb(38,50,56);"/>
<rect x="720" y="5" width="276" height="51" style="fill:rgb(41,127,255);"/>
<text x="858" y="30" dominant-baseline="central" text-anchor="middle" style="fill:rgb(250,250,250);font-family:Arial;font-size:24px;">Viewer</text>
<rect x="720" y="56" width="276" height="54" style="fill:rgb(236,236,236);"/>
<rect x="720" y="63" width="120" height="39" style="fill:rgb(246,246,246);"/>
<text x="728" y="83" dominant-baseline="central" text-anchor="start" style="fill:rgb(0,0,0);font-family:Arial;font-size:21px;">Input</text>
<rect x="855" y="63" width="141" height="39" style="fill:rgb(246,246,246);"/>
<text x="989" y="83" dominant-baseline="central" text-anchor="end" style="fill:rgb(0,0,0);font-family:Arial;font-size:21px;">Output</text>
<rect x="720" y="110" width="276" height="54" style="fill:rgb(236,236,236);"/>
<text x="858" y="137" dominant-baseline="central" text-anchor="middle" style="fill:rgb(0,0,0);font-family:Arial;font-size:21px;">20.00</text>
<rect x="720" y="5" width="276" height="159" style="fill:none;stroke-width:1px;stroke:rgb(38,50,56);"/>
<rect x="702" y="350" width="312" height="51" style="fill:rgb(41,127,255);"/>
<text x="858" y="375" dominant-baseline="central" text-anchor="middle" style="fill:rgb(250,250,250);font-family:Arial;font-size:24px;">Viewer 2</text>
<rect x="702" y="401" width="312" height="54" style="fill:rgb(236,236,236);"/>
<rect x="702" y="408" width="120" height="39" style="fill:rgb(246,246,246);"/>
<text x="710" y="428" dominant-baseline="central" text-anchor="start" style="fill:rgb(0,0,0);font-family:Arial;font-size:21px;">Input</text>
<rect x="873" y="408" width="141" height="39" style="fill:rgb(246,246,246);"/>
<text x="1007" y="428" dominant-baseline="central" text-anchor="end" style="fill:rgb(0,0,0);font-family:Arial;font-size:21px;">Output</text>
<rect x="702" y="455" width="312" height="210" style="fill:rgb(236,236,236);"/>
<text x="858" y="482" dominant-baseline="central" text-anchor="middle" style="fill:rgb(0,0,0);font-family:Arial;font-size:21px;">20.00</text>
<text x="858" y="521" dominant-baseline="central" text-anchor="middle" style="fill:rgb(0,0,0);font-family:Arial;font-size:21px;">40.00</text>
<text x="858" y="560" dominant-baseline="central" text-anchor="middle" style="fill:rgb(0,0,0);font-family:Arial;font-size:21px;">60.00</text>
<text x="858" y="599" dominant-baseline="central" text-anchor="middle" style="fill:rgb(0,0,0);font-family:Arial;font-size:21px;">80.00</text>
<text x="858" y="638" dominant-baseline="central" text-anchor="middle" style="fill:rgb(0,0,0);font-family:Arial;font-size:21px;">100.00</text>
<rect x="702" y="665" width="312" height="54" style="fill:rgb(236,236,236);"/>
<text x="858" y="692" dominant-baseline="central" text-anchor="middle" style="fill:rgb(0,0,0);font-family:Arial;font-size:21px;">1 / 2 (10)</text>
<rect x="710" y="672" width="36" height="39" style="fill:rgb(217,217,217);"/>
<text x="728" y="692" dominant-baseline="central" text-anchor="middle" style="fill:rgb(0,0,0);font-family:Arial;font-size:21px;">&lt;</text>
<rect x="710" y="672" width="36" height="39" style="fill:none;stroke-width:1px;stroke:rgb(146,152,155);"/>
<rect x="971" y="672" width="36" height="39" style="fill:rgb(217,217,217);"/>
<text x="989" y="692" dominant-baseline="central" text-anchor="middle" style="fill:rgb(0,0,0);font-family:Arial;font-size:21px;">&gt;</text>
<rect x="971" y="672" width="36" height="39" style="fill:none;stroke-width:1px;stroke:rgb(146,152,155);"/>
<rect x="702" y="350" width="312" height="369" style="fill:none;stroke-width:1px;stroke:rgb(38,50,56);"/>
</svg>
