<svg version="1.1" xmlns="http://www.w3.org/2000/svg" width="800" height="600" shape-rendering="crispEdges">
<rect x="0" y="0" width="800" height="600" style="fill:rgb(240,240,240);"/>
<path d="M109,164 C137,164 137,442 165,442" style="fill:none;stroke-width:2px;stroke:rgb(0,0,0);"/>
<path d="M109,164 C137,164 137,493 165,493" style="fill:none;stroke-width:2px;stroke:rgb(0,0,0);"/>
<path d="M109,164 C350,164 350,14 591,14" style="fill:none;stroke-width:2px;stroke:rgb(0,0,0);"/>
<path d="M426,442 C499,442 499,347 571,347" style="fill:none;stroke-width:2px;stroke:rgb(0,0,0);"/>
<rect x="-119" y="82" width="228" height="51" style="fill:rgb(100,100,100);"/>
<text x="-5" y="108" dominant-baseline="central" text-anchor="middle" style="fill:rgb(255,255,255);font-family:Arial;font-size:24px;">Number</text>
<rect x="-119" y="133" width="228" height="59" style="fill:rgb(200,200,200);"/>
<rect x="-50" y="141" width="159" height="44" style="fill:rgb(225,225,225);"/>
<text x="101" y="163" dominant-baseline="central" text-anchor="end" style="fill:rgb(0,0,0);font-family:Arial;font-size:24px;">Output</text>
<rect x="-119" y="192" width="228" height="59" style="fill:rgb(200,200,200);"/>
<text x="-5" y="221" dominant-baseline="central" text-anchor="middle" style="fill:rgb(0,0,0);font-family:Arial;font-size:24px;">20.00</text>
<rect x="-112" y="199" width="39" height="44" style="fill:rgb(150,175,200);"/>
<text x="-92" y="221" dominant-baseline="central" text-anchor="middle" style="fill:rgb(0,0,0);font-family:Arial;font-size:24px;">&lt;</text>
<rect x="-112" y="199" width="39" height="44" style="fill:none;stroke-width:2px;stroke:rgb(50,75,100);"/>
<rect x="62" y="199" width="39" height="44" style="fill:rgb(150,175,200);"/>
<text x="82" y="221" dominant-baseline="central" text-anchor="middle" style="fill:rgb(0,0,0);font-family:Arial;font-size:24px;">&gt;</text>
<rect x="62" y="199" width="39" height="44" style="fill:none;stroke-width:2px;stroke:rgb(50,75,100);"/>
<rect x="-119" y="82" width="228" height="168" style="fill:none;stroke-width:2px;stroke:rgb(0,0,0);"/>
<rect x="164" y="361" width="261" height="51" style="fill:rgb(100,100,100);"/>
<text x="295" y="386" dominant-baseline="central" text-anchor="middle" style="fill:rgb(255,255,255);font-family:Arial;font-size:24px;">Range</text>
<rect x="164" y="412" width="261" height="161" style="fill:rgb(200,200,200);"/>
<rect x="164" y="419" width="135" height="44" style="fill:rgb(225,225,225);"/>
<text x="172" y="441" dominant-baseline="central" text-anchor="start" style="fill:rgb(0,0,0);font-family:Arial;font-size:24px;">Start</text>
<rect x="164" y="470" width="135" height="44" style="fill:rgb(225,225,225);"/>
<text x="172" y="492" dominant-baseline="central" text-anchor="start" style="fill:rgb(0,0,0);font-family:Arial;font-size:24px;">Step</text>
<rect x="164" y="521" width="135" height="44" style="fill:rgb(225,225,225);"/>
<text x="172" y="543" dominant-baseline="central" text-anchor="start" style="fill:rgb(0,0,0);font-family:Arial;font-size:24px;">Count</text>
<rect x="314" y="419" width="111" height="44" style="fill:rgb(225,225,225);"/>
<text x="418" y="441" dominant-baseline="central" text-anchor="end" style="fill:rgb(0,0,0);font-family:Arial;font-size:24px;">List</text>
<rect x="164" y="361" width="261" height="212" style="fill:none;stroke-width:2px;stroke:rgb(0,0,0);"/>
<rect x="590" y="-68" width="309" height="51" style="fill:rgb(100,100,100);"/>
<text x="745" y="-42" dominant-baseline="central" text-anchor="middle" style="fill:rgb(255,255,255);font-family:Arial;font-size:24px;">Viewer</text>
<rect x="590" y="-17" width="309" height="59" style="fill:rgb(200,200,200);"/>
<rect x="590" y="-9" width="135" height="44" style="fill:rgb(225,225,225);"/>
<text x="598" y="13" dominant-baseline="central" text-anchor="start" style="fill:rgb(0,0,0);font-family:Arial;font-size:24px;">Input</text>
<rect x="740" y="-9" width="159" height="44" style="fill:rgb(225,225,225);"/>
<text x="892" y="13" dominant-baseline="central" text-anchor="end" style="fill:rgb(0,0,0);font-family:Arial;font-size:24px;">Output</text>
<rect x="590" y="42" width="309" height="59" style="fill:rgb(255,255,100);"/>
<text x="745" y="71" dominant-baseline="central" text-anchor="middle" style="fill:rgb(0,0,0);font-family:Arial;font-size:24px;">20.00</text>
<rect x="590" y="-68" width="309" height="168" style="fill:none;stroke-width:2px;stroke:rgb(0,0,0);"/>
<rect x="571" y="266" width="348" height="51" style="fill:rgb(100,100,100);"/>
<text x="745" y="292" dominant-baseline="central" text-anchor="middle" style="fill:rgb(255,255,255);font-family:Arial;font-size:24px;">Viewer 2</text>
<rect x="571" y="317" width="348" height="59" style="fill:rgb(200,200,200);"/>
<rect x="571" y="325" width="135" height="44" style="fill:rgb(225,225,225);"/>
<text x="578" y="346" dominant-baseline="central" text-anchor="start" style="fill:rgb(0,0,0);font-family:Arial;font-size:24px;">Input</text>
<rect x="760" y="325" width="159" height="44" style="fill:rgb(225,225,225);"/>
<text x="911" y="346" dominant-baseline="central" text-anchor="end" style="fill:rgb(0,0,0);font-family:Arial;font-size:24px;">Output</text>
<rect x="571" y="376" width="348" height="233" style="fill:rgb(255,255,100);"/>
<text x="745" y="405" dominant-baseline="central" text-anchor="middle" style="fill:rgb(0,0,0);font-family:Arial;font-size:24px;">20.00</text>
<text x="745" y="448" dominant-baseline="central" text-anchor="middle" style="fill:rgb(0,0,0);font-family:Arial;font-size:24px;">40.00</text>
<text x="745" y="492" dominant-baseline="central" text-anchor="middle" style="fill:rgb(0,0,0);font-family:Arial;font-size:24px;">60.00</text>
<text x="745" y="535" dominant-baseline="central" text-anchor="middle" style="fill:rgb(0,0,0);font-family:Arial;font-size:24px;">80.00</text>
<text x="745" y="579" dominant-baseline="central" text-anchor="middle" style="fill:rgb(0,0,0);font-family:Arial;font-size:24px;">100.00</text>
<rect x="571" y="608" width="348" height="59" style="fill:rgb(200,200,200);"/>
<text x="745" y="637" dominant-baseline="central" text-anchor="middle" style="fill:rgb(0,0,0);font-family:Arial;font-size:24px;">1 / 2 (10)</text>
<rect x="578" y="616" width="39" height="44" style="fill:rgb(150,175,200);"/>
<text x="598" y="637" dominant-baseline="central" text-anchor="middle" style="fill:rgb(0,0,0);font-family:Arial;font-size:24px;">&lt;</text>
<rect x="578" y="616" width="39" height="44" style="fill:none;stroke-width:2px;stroke:rgb(50,75,100);"/>
<rect x="872" y="616" width="39" height="44" style="fill:rgb(150,175,200);"/>
<text x="892" y="637" dominant-baseline="central" text-anchor="middle" style="fill:rgb(0,0,0);font-family:Arial;font-size:24px;">&gt;</text>
<rect x="872" y="616" width="39" height="44" style="fill:none;stroke-width:2px;stroke:rgb(50,75,100);"/>
<rect x="571" y="266" width="348" height="401" style="fill:none;stroke-width:2px;stroke:rgb(0,0,0);"/>
</svg>
