<svg version="1.1" xmlns="http://www.w3.org/2000/svg" width="800" height="600" shape-rendering="crispEdges">
<rect x="0" y="0" width="800" height="600" style="fill:rgb(240,240,240);"/>
<path d="M206,209 C225,209 225,395 243,395" style="fill:none;stroke-width:1px;stroke:rgb(0,0,0);"/>
<path d="M206,209 C225,209 225,429 243,429" style="fill:none;stroke-width:1px;stroke:rgb(0,0,0);"/>
<path d="M206,209 C367,209 367,109 527,109" style="fill:none;stroke-width:1px;stroke:rgb(0,0,0);"/>
<path d="M417,395 C466,395 466,332 514,332" style="fill:none;stroke-width:1px;stroke:rgb(0,0,0);"/>
<rect x="54" y="155" width="152" height="34" style="fill:rgb(100,100,100);"/>
<text x="130" y="172" dominant-baseline="central" text-anchor="middle" style="fill:rgb(255,255,255);font-family:Arial;font-size:16px;">Number</text>
<rect x="54" y="189" width="152" height="39" style="fill:rgb(200,200,200);"/>
<rect x="100" y="194" width="106" height="29" style="fill:rgb(225,225,225);"/>
<text x="201" y="208" dominant-baseline="central" text-anchor="end" style="fill:rgb(0,0,0);font-family:Arial;font-size:16px;">Output</text>
<rect x="54" y="228" width="152" height="39" style="fill:rgb(200,200,200);"/>
<text x="130" y="247" dominant-baseline="central" text-anchor="middle" style="fill:rgb(0,0,0);font-family:Arial;font-size:16px;">20.00</text>
<rect x="59" y="233" width="26" height="29" style="fill:rgb(150,175,200);"/>
<text x="72" y="247" dominant-baseline="central" text-anchor="middle" style="fill:rgb(0,0,0);font-family:Arial;font-size:16px;">&lt;</text>
<rect x="59" y="233" width="26" height="29" style="fill:none;stroke-width:1px;stroke:rgb(50,75,100);"/>
<rect x="175" y="233" width="26" height="29" style="fill:rgb(150,175,200);"/>
<text x="188" y="247" dominant-baseline="central" text-anchor="middle" style="fill:rgb(0,0,0);font-family:Arial;font-size:16px;">&gt;</text>
<rect x="175" y="233" width="26" height="29" style="fill:none;stroke-width:1px;stroke:rgb(50,75,100);"/>
<rect x="54" y="155" width="152" height="112" style="fill:none;stroke-width:1px;stroke:rgb(0,0,0);"/>
<rect x="243" y="340" width="174" height="34" style="fill:rgb(100,100,100);"/>
<text x="330" y="357" dominant-baseline="central" text-anchor="middle" style="fill:rgb(255,255,255);font-family:Arial;font-size:16px;">Range</text>
<rect x="243" y="374" width="174" height="107" style="fill:rgb(200,200,200);"/>
<rect x="243" y="379" width="90" height="29" style="fill:rgb(225,225,225);"/>
<text x="248" y="394" dominant-baseline="central" text-anchor="start" style="fill:rgb(0,0,0);font-family:Arial;font-size:16px;">Start</text>
<rect x="243" y="413" width="90" height="29" style="fill:rgb(225,225,225);"/>
<text x="248" y="428" dominant-baseline="central" text-anchor="start" style="fill:rgb(0,0,0);font-family:Arial;font-size:16px;">Step</text>
<rect x="243" y="447" width="90" height="29" style="fill:rgb(225,225,225);"/>
<text x="248" y="462" dominant-baseline="central" text-anchor="start" style="fill:rgb(0,0,0);font-family:Arial;font-size:16px;">Count</text>
<rect x="343" y="379" width="74" height="29" style="fill:rgb(225,225,225);"/>
<text x="412" y="394" dominant-baseline="central" text-anchor="end" style="fill:rgb(0,0,0);font-family:Arial;font-size:16px;">List</text>
<rect x="243" y="340" width="174" height="141" style="fill:none;stroke-width:1px;stroke:rgb(0,0,0);"/>
<rect x="527" y="55" width="206" height="34" style="fill:rgb(100,100,100);"/>
<text x="630" y="72" dominant-baseline="central" text-anchor="middle" style="fill:rgb(255,255,255);font-family:Arial;font-size:16px;">Viewer</text>
<rect x="527" y="89" width="206" height="39" style="fill:rgb(200,200,200);"/>
<rect x="527" y="94" width="90" height="29" style="fill:rgb(225,225,225);"/>
<text x="532" y="108" dominant-baseline="central" text-anchor="start" style="fill:rgb(0,0,0);font-family:Arial;font-size:16px;">Input</text>
<rect x="627" y="94" width="106" height="29" style="fill:rgb(225,225,225);"/>
<text x="728" y="108" dominant-baseline="central" text-anchor="end" style="fill:rgb(0,0,0);font-family:Arial;font-size:16px;">Output</text>
<rect x="527" y="128" width="206" height="39" style="fill:rgb(255,255,100);"/>
<text x="630" y="147" dominant-baseline="central" text-anchor="middle" style="fill:rgb(0,0,0);font-family:Arial;font-size:16px;">20.00</text>
<rect x="527" y="55" width="206" height="112" style="fill:none;stroke-width:1px;stroke:rgb(0,0,0);"/>
<rect x="514" y="277" width="232" height="34" style="fill:rgb(100,100,100);"/>
<text x="630" y="294" dominant-baseline="central" text-anchor="middle" style="fill:rgb(255,255,255);font-family:Arial;font-size:16px;">Viewer 2</text>
<rect x="514" y="311" width="232" height="39" style="fill:rgb(200,200,200);"/>
<rect x="514" y="316" width="90" height="29" style="fill:rgb(225,225,225);"/>
<text x="519" y="331" dominant-baseline="central" text-anchor="start" style="fill:rgb(0,0,0);font-family:Arial;font-size:16px;">Input</text>
<rect x="640" y="316" width="106" height="29" style="fill:rgb(225,225,225);"/>
<text x="741" y="331" dominant-baseline="central" text-anchor="end" style="fill:rgb(0,0,0);font-family:Arial;font-size:16px;">Output</text>
<rect x="514" y="350" width="232" height="155" style="fill:rgb(255,255,100);"/>
<text x="630" y="370" dominant-baseline="central" text-anchor="middle" style="fill:rgb(0,0,0);font-family:Arial;font-size:16px;">20.00</text>
<text x="630" y="399" dominant-baseline="central" text-anchor="middle" style="fill:rgb(0,0,0);font-family:Arial;font-size:16px;">40.00</text>
<text x="630" y="428" dominant-baseline="central" text-anchor="middle" style="fill:rgb(0,0,0);font-family:Arial;font-size:16px;">60.00</text>
<text x="630" y="457" dominant-baseline="central" text-anchor="middle" style="fill:rgb(0,0,0);font-family:Arial;font-size:16px;">80.00</text>
<text x="630" y="486" dominant-baseline="central" text-anchor="middle" style="fill:rgb(0,0,0);font-family:Arial;font-size:16px;">100.00</text>
<rect x="514" y="505" width="232" height="39" style="fill:rgb(200,200,200);"/>
<text x="630" y="525" dominant-baseline="central" text-anchor="middle" style="fill:rgb(0,0,0);font-family:Arial;font-size:16px;">1 / 2 (10)</text>
<rect x="519" y="510" width="26" height="29" style="fill:rgb(150,175,200);"/>
<text x="532" y="525" dominant-baseline="central" text-anchor="middle" style="fill:rgb(0,0,0);font-family:Arial;font-size:16px;">&lt;</text>
<rect x="519" y="510" width="26" height="29" style="fill:none;stroke-width:1px;stroke:rgb(50,75,100);"/>
<rect x="715" y="510" width="26" height="29" style="fill:rgb(150,175,200);"/>
<text x="728" y="525" dominant-baseline="central" text-anchor="middle" style="fill:rgb(0,0,0);font-family:Arial;font-size:16px;">&gt;</text>
<rect x="715" y="510" width="26" height="29" style="fill:none;stroke-width:1px;stroke:rgb(50,75,100);"/>
<rect x="514" y="277" width="232" height="267" style="fill:none;stroke-width:1px;stroke:rgb(0,0,0);"/>
</svg>
