<svg version="1.1" xmlns="http://www.w3.org/2000/svg" width="800" height="600" shape-rendering="crispEdges">
<rect x="0" y="0" width="800" height="600" style="fill:rgb(250,250,250);"/>
<path d="M202,214 C228,214 228,401 255,401" style="fill:none;stroke-width:1px;stroke:rgb(38,50,56);"/>
<path d="M202,214 C228,214 228,432 255,432" style="fill:none;stroke-width:1px;stroke:rgb(38,50,56);"/>
<path d="M202,214 C371,214 371,114 541,114" style="fill:none;stroke-width:1px;stroke:rgb(38,50,56);"/>
<path d="M411,401 C470,401 470,344 529,344" style="fill:none;stroke-width:1px;stroke:rgb(38,50,56);"/>
<rect x="63" y="162" width="138" height="34" style="fill:rgb(41,127,255);"/>
<text x="132" y="179" dominant-baseline="central" text-anchor="middle" style="fill:rgb(250,250,250);font-family:Arial;font-size:16px;">Number</text>
<rect x="63" y="196" width="138" height="36" style="fill:rgb(236,236,236);"/>
<rect x="107" y="201" width="94" height="26" style="fill:rgb(246,246,246);"/>
<text x="196" y="214" dominant-baseline="central" text-anchor="end" style="fill:rgb(0,0,0);font-family:Arial;font-size:14px;">Output</text>
<rect x="63" y="232" width="138" height="36" style="fill:rgb(236,236,236);"/>
<text x="132" y="250" dominant-baseline="central" text-anchor="middle" style="fill:rgb(0,0,0);font-family:Arial;font-size:14px;">20.00</text>
<rect x="68" y="237" width="24" height="26" style="fill:rgb(217,217,217);"/>
<text x="80" y="250" dominant-baseline="central" text-anchor="middle" style="fill:rgb(0,0,0);font-family:Arial;font-size:14px;">&lt;</text>
<rect x="68" y="237" width="24" height="26" style="fill:none;stroke-width:1px;stroke:rgb(146,152,155);"/>
<rect x="172" y="237" width="24" height="26" style="fill:rgb(217,217,217);"/>
<text x="184" y="250" dominant-baseline="central" text-anchor="middle" style="fill:rgb(0,0,0);font-family:Arial;font-size:14px;">&gt;</text>
<rect x="172" y="237" width="24" height="26" style="fill:none;stroke-width:1px;stroke:rgb(146,152,155);"/>
<rect x="63" y="162" width="138" height="106" style="fill:none;stroke-width:1px;stroke:rgb(38,50,56);"/>
<rect x="254" y="349" width="156" height="34" style="fill:rgb(41,127,255);"/>
<text x="332" y="366" dominant-baseline="central" text-anchor="middle" style="fill:rgb(250,250,250);font-family:Arial;font-size:16px;">Range</text>
<rect x="254" y="383" width="156" height="98" style="fill:rgb(236,236,236);"/>
<rect x="254" y="388" width="80" height="26" style="fill:rgb(246,246,246);"/>
<text x="259" y="401" dominant-baseline="central" text-anchor="start" style="fill:rgb(0,0,0);font-family:Arial;font-size:14px;">Start</text>
<rect x="254" y="419" width="80" height="26" style="fill:rgb(246,246,246);"/>
<text x="259" y="432" dominant-baseline="central" text-anchor="start" style="fill:rgb(0,0,0);font-family:Arial;font-size:14px;">Step</text>
<rect x="254" y="450" width="80" height="26" style="fill:rgb(246,246,246);"/>
<text x="259" y="463" dominant-baseline="central" text-anchor="start" style="fill:rgb(0,0,0);font-family:Arial;font-size:14px;">Count</text>
<rect x="344" y="388" width="66" height="26" style="fill:rgb(246,246,246);"/>
<text x="405" y="401" dominant-baseline="central" text-anchor="end" style="fill:rgb(0,0,0);font-family:Arial;font-size:14px;">List</text>
<rect x="254" y="349" width="156" height="132" style="fill:none;stroke-width:1px;stroke:rgb(38,50,56);"/>
<rect x="540" y="62" width="184" height="34" style="fill:rgb(41,127,255);"/>
<text x="632" y="79" dominant-baseline="central" text-anchor="middle" style="fill:rgb(250,250,250);font-family:Arial;font-size:16px;">Viewer</text>
<rect x="540" y="96" width="184" height="36" style="fill:rgb(236,236,236);"/>
<rect x="540" y="101" width="80" height="26" style="fill:rgb(246,246,246);"/>
<text x="545" y="114" dominant-baseline="central" text-anchor="start" style="fill:rgb(0,0,0);font-family:Arial;font-size:14px;">Input</text>
<rect x="630" y="101" width="94" height="26" style="fill:rgb(246,246,246);"/>
<text x="719" y="114" dominant-baseline="central" text-anchor="end" style="fill:rgb(0,0,0);font-family:Arial;font-size:14px;">Output</text>
<rect x="540" y="132" width="184" height="36" style="fill:rgb(236,236,236);"/>
<text x="632" y="150" dominant-baseline="central" text-anchor="middle" style="fill:rgb(0,0,0);font-family:Arial;font-size:14px;">20.00</text>
<rect x="540" y="62" width="184" height="106" style="fill:none;stroke-width:1px;stroke:rgb(38,50,56);"/>
<rect x="528" y="292" width="208" height="34" style="fill:rgb(41,127,255);"/>
<text x="632" y="309" dominant-baseline="central" text-anchor="middle" style="fill:rgb(250,250,250);font-family:Arial;font-size:16px;">Viewer 2</text>
<rect x="528" y="326" width="208" height="36" style="fill:rgb(236,236,236);"/>
<rect x="528" y="331" width="80" height="26" style="fill:rgb(246,246,246);"/>
<text x="533" y="344" dominant-baseline="central" text-anchor="start" style="fill:rgb(0,0,0);font-family:Arial;font-size:14px;">Input</text>
<rect x="642" y="331" width="94" height="26" style="fill:rgb(246,246,246);"/>
<text x="731" y="344" dominant-baseline="central" text-anchor="end" style="fill:rgb(0,0,0);font-family:Arial;font-size:14px;">Output</text>
<rect x="528" y="362" width="208" height="140" style="fill:rgb(236,236,236);"/>
<text x="632" y="380" dominant-baseline="central" text-anchor="middle" style="fill:rgb(0,0,0);font-family:Arial;font-size:14px;">20.00</text>
<text x="632" y="406" dominant-baseline="central" text-anchor="middle" style="fill:rgb(0,0,0);font-family:Arial;font-size:14px;">40.00</text>
<text x="632" y="432" dominant-baseline="central" text-anchor="middle" style="fill:rgb(0,0,0);font-family:Arial;font-size:14px;">60.00</text>
<text x="632" y="458" dominant-baseline="central" text-anchor="middle" style="fill:rgb(0,0,0);font-family:Arial;font-size:14px;">80.00</text>
<text x="632" y="484" dominant-baseline="central" text-anchor="middle" style="fill:rgb(0,0,0);font-family:Arial;font-size:14px;">100.00</text>
<rect x="528" y="502" width="208" height="36" style="fill:rgb(236,236,236);"/>
<text x="632" y="520" dominant-baseline="central" text-anchor="middle" style="fill:rgb(0,0,0);font-family:Arial;font-size:14px;">1 / 2 (10)</text>
<rect x="533" y="507" width="24" height="26" style="fill:rgb(217,217,217);"/>
<text x="545" y="520" dominant-baseline="central" text-anchor="middle" style="fill:rgb(0,0,0);font-family:Arial;font-size:14px;">&lt;</text>
<rect x="533" y="507" width="24" height="26" style="fill:none;stroke-width:1px;stroke:rgb(146,152,155);"/>
<rect x="707" y="507" width="24" height="26" style="fill:rgb(217,217,217);"/>
<text x="719" y="520" dominant-baseline="central" text-anchor="middle" style="fill:rgb(0,0,0);font-family:Arial;font-size:14px;">&gt;</text>
<rect x="707" y="507" width="24" height="26" style="fill:none;stroke-width:1px;stroke:rgb(146,152,155);"/>
<rect x="528" y="292" width="208" height="246" style="fill:none;stroke-width:1px;stroke:rgb(38,50,56);"/>
</svg>
