<svg version="1.1" xmlns="http://www.w3.org/2000/svg" width="800" height="600" shape-rendering="crispEdges">
<rect x="0" y="0" width="800" height="600" style="fill:rgb(250,250,250);"/>
<path d="M177,99 C393,99 393,102 608,102" style="fill:none;stroke-width:1px;stroke:rgb(38,50,56);"/>
<path d="M161,219 C184,219 184,86 207,86" style="fill:none;stroke-width:1px;stroke:rgb(38,50,56);"/>
<path d="M162,339 C189,339 189,226 215,226" style="fill:none;stroke-width:1px;stroke:rgb(38,50,56);"/>
<path d="M162,339 C181,339 181,537 199,537" style="fill:none;stroke-width:1px;stroke:rgb(38,50,56);"/>
<path d="M162,339 C299,339 299,493 436,493" style="fill:none;stroke-width:1px;stroke:rgb(38,50,56);"/>
<path d="M393,86 C415,86 415,222 436,222" style="fill:none;stroke-width:1px;stroke:rgb(38,50,56);"/>
<path d="M393,86 C415,86 415,102 436,102" style="fill:none;stroke-width:1px;stroke:rgb(38,50,56);"/>
<path d="M385,226 C411,226 411,253 436,253" style="fill:none;stroke-width:1px;stroke:rgb(38,50,56);"/>
<path d="M393,366 C415,366 415,342 436,342" style="fill:none;stroke-width:1px;stroke:rgb(38,50,56);"/>
<path d="M393,366 C415,366 415,373 436,373" style="fill:none;stroke-width:1px;stroke:rgb(38,50,56);"/>
<path d="M401,537 C419,537 419,462 436,462" style="fill:none;stroke-width:1px;stroke:rgb(38,50,56);"/>
<path d="M564,342 C575,342 575,229 586,229" style="fill:none;stroke-width:1px;stroke:rgb(38,50,56);"/>
<rect x="23" y="47" width="154" height="34" style="fill:rgb(41,127,255);"/>
<text x="100" y="64" dominant-baseline="central" text-anchor="middle" style="fill:rgb(250,250,250);font-family:Arial;font-size:16px;">Boolean π</text>
<rect x="23" y="81" width="154" height="36" style="fill:rgb(236,236,236);"/>
<rect x="83" y="86" width="94" height="26" style="fill:rgb(246,246,246);"/>
<text x="172" y="99" dominant-baseline="central" text-anchor="end" style="fill:rgb(0,0,0);font-family:Arial;font-size:14px;">Output</text>
<rect x="23" y="117" width="154" height="36" style="fill:rgb(236,236,236);"/>
<rect x="28" y="122" width="144" height="26" style="fill:rgb(217,217,217);"/>
<text x="100" y="135" dominant-baseline="central" text-anchor="middle" style="fill:rgb(0,0,0);font-family:Arial;font-size:14px;">false</text>
<rect x="28" y="122" width="144" height="26" style="fill:none;stroke-width:1px;stroke:rgb(146,152,155);"/>
<rect x="23" y="47" width="154" height="106" style="fill:none;stroke-width:1px;stroke:rgb(38,50,56);"/>
<rect x="39" y="167" width="122" height="34" style="fill:rgb(41,127,255);"/>
<text x="100" y="184" dominant-baseline="central" text-anchor="middle" style="fill:rgb(250,250,250);font-family:Arial;font-size:16px;">Integer</text>
<rect x="39" y="201" width="122" height="36" style="fill:rgb(236,236,236);"/>
<rect x="67" y="206" width="94" height="26" style="fill:rgb(246,246,246);"/>
<text x="156" y="219" dominant-baseline="central" text-anchor="end" style="fill:rgb(0,0,0);font-family:Arial;font-size:14px;">Output</text>
<rect x="39" y="237" width="122" height="36" style="fill:rgb(236,236,236);"/>
<text x="100" y="255" dominant-baseline="central" text-anchor="middle" style="fill:rgb(0,0,0);font-family:Arial;font-size:14px;">1</text>
<rect x="44" y="242" width="24" height="26" style="fill:rgb(217,217,217);"/>
<text x="56" y="255" dominant-baseline="central" text-anchor="middle" style="fill:rgb(0,0,0);font-family:Arial;font-size:14px;">&lt;</text>
<rect x="44" y="242" width="24" height="26" style="fill:none;stroke-width:1px;stroke:rgb(146,152,155);"/>
<rect x="132" y="242" width="24" height="26" style="fill:rgb(217,217,217);"/>
<text x="144" y="255" dominant-baseline="central" text-anchor="middle" style="fill:rgb(0,0,0);font-family:Arial;font-size:14px;">&gt;</text>
<rect x="132" y="242" width="24" height="26" style="fill:none;stroke-width:1px;stroke:rgb(146,152,155);"/>
<rect x="39" y="167" width="122" height="106" style="fill:none;stroke-width:1px;stroke:rgb(38,50,56);"/>
<rect x="38" y="287" width="124" height="34" style="fill:rgb(41,127,255);"/>
<text x="100" y="304" dominant-baseline="central" text-anchor="middle" style="fill:rgb(250,250,250);font-family:Arial;font-size:16px;">Double</text>
<rect x="38" y="321" width="124" height="36" style="fill:rgb(236,236,236);"/>
<rect x="68" y="326" width="94" height="26" style="fill:rgb(246,246,246);"/>
<text x="157" y="339" dominant-baseline="central" text-anchor="end" style="fill:rgb(0,0,0);font-family:Arial;font-size:14px;">Output</text>
<rect x="38" y="357" width="124" height="36" style="fill:rgb(236,236,236);"/>
<text x="100" y="375" dominant-baseline="central" text-anchor="middle" style="fill:rgb(0,0,0);font-family:Arial;font-size:14px;">1.00</text>
<rect x="43" y="362" width="24" height="26" style="fill:rgb(217,217,217);"/>
<text x="55" y="375" dominant-baseline="central" text-anchor="middle" style="fill:rgb(0,0,0);font-family:Arial;font-size:14px;">&lt;</text>
<rect x="43" y="362" width="24" height="26" style="fill:none;stroke-width:1px;stroke:rgb(146,152,155);"/>
<rect x="133" y="362" width="24" height="26" style="fill:rgb(217,217,217);"/>
<text x="145" y="375" dominant-baseline="central" text-anchor="middle" style="fill:rgb(0,0,0);font-family:Arial;font-size:14px;">&gt;</text>
<rect x="133" y="362" width="24" height="26" style="fill:none;stroke-width:1px;stroke:rgb(146,152,155);"/>
<rect x="38" y="287" width="124" height="106" style="fill:none;stroke-width:1px;stroke:rgb(38,50,56);"/>
<rect x="207" y="34" width="186" height="34" style="fill:rgb(41,127,255);"/>
<text x="300" y="51" dominant-baseline="central" text-anchor="middle" style="fill:rgb(250,250,250);font-family:Arial;font-size:16px;">Integer Inc</text>
<rect x="207" y="68" width="186" height="98" style="fill:rgb(236,236,236);"/>
<rect x="207" y="73" width="80" height="26" style="fill:rgb(246,246,246);"/>
<text x="212" y="86" dominant-baseline="central" text-anchor="start" style="fill:rgb(0,0,0);font-family:Arial;font-size:14px;">Start</text>
<rect x="207" y="104" width="80" height="26" style="fill:rgb(246,246,246);"/>
<text x="212" y="117" dominant-baseline="central" text-anchor="start" style="fill:rgb(0,0,0);font-family:Arial;font-size:14px;">Step</text>
<rect x="207" y="135" width="80" height="26" style="fill:rgb(246,246,246);"/>
<text x="212" y="148" dominant-baseline="central" text-anchor="start" style="fill:rgb(0,0,0);font-family:Arial;font-size:14px;">Count</text>
<rect x="327" y="73" width="66" height="26" style="fill:rgb(246,246,246);"/>
<text x="388" y="86" dominant-baseline="central" text-anchor="end" style="fill:rgb(0,0,0);font-family:Arial;font-size:14px;">List</text>
<rect x="207" y="34" width="186" height="132" style="fill:none;stroke-width:1px;stroke:rgb(38,50,56);"/>
<rect x="215" y="174" width="170" height="34" style="fill:rgb(41,127,255);"/>
<text x="300" y="191" dominant-baseline="central" text-anchor="middle" style="fill:rgb(250,250,250);font-family:Arial;font-size:16px;">Double Inc</text>
<rect x="215" y="208" width="170" height="98" style="fill:rgb(236,236,236);"/>
<rect x="215" y="213" width="80" height="26" style="fill:rgb(246,246,246);"/>
<text x="220" y="226" dominant-baseline="central" text-anchor="start" style="fill:rgb(0,0,0);font-family:Arial;font-size:14px;">Start</text>
<rect x="215" y="244" width="80" height="26" style="fill:rgb(246,246,246);"/>
<text x="220" y="257" dominant-baseline="central" text-anchor="start" style="fill:rgb(0,0,0);font-family:Arial;font-size:14px;">Step</text>
<rect x="215" y="275" width="80" height="26" style="fill:rgb(246,246,246);"/>
<text x="220" y="288" dominant-baseline="central" text-anchor="start" style="fill:rgb(0,0,0);font-family:Arial;font-size:14px;">Count</text>
<rect x="319" y="213" width="66" height="26" style="fill:rgb(246,246,246);"/>
<text x="380" y="226" dominant-baseline="central" text-anchor="end" style="fill:rgb(0,0,0);font-family:Arial;font-size:14px;">List</text>
<rect x="215" y="174" width="170" height="132" style="fill:none;stroke-width:1px;stroke:rgb(38,50,56);"/>
<rect x="207" y="314" width="186" height="34" style="fill:rgb(41,127,255);"/>
<text x="300" y="331" dominant-baseline="central" text-anchor="middle" style="fill:rgb(250,250,250);font-family:Arial;font-size:16px;">Double Dist</text>
<rect x="207" y="348" width="186" height="98" style="fill:rgb(236,236,236);"/>
<rect x="207" y="353" width="80" height="26" style="fill:rgb(246,246,246);"/>
<text x="212" y="366" dominant-baseline="central" text-anchor="start" style="fill:rgb(0,0,0);font-family:Arial;font-size:14px;">Start</text>
<rect x="207" y="384" width="80" height="26" style="fill:rgb(246,246,246);"/>
<text x="212" y="397" dominant-baseline="central" text-anchor="start" style="fill:rgb(0,0,0);font-family:Arial;font-size:14px;">End</text>
<rect x="207" y="415" width="80" height="26" style="fill:rgb(246,246,246);"/>
<text x="212" y="428" dominant-baseline="central" text-anchor="start" style="fill:rgb(0,0,0);font-family:Arial;font-size:14px;">Count</text>
<rect x="327" y="353" width="66" height="26" style="fill:rgb(246,246,246);"/>
<text x="388" y="366" dominant-baseline="central" text-anchor="end" style="fill:rgb(0,0,0);font-family:Arial;font-size:14px;">List</text>
<rect x="207" y="314" width="186" height="132" style="fill:none;stroke-width:1px;stroke:rgb(38,50,56);"/>
<rect x="199" y="485" width="202" height="34" style="fill:rgb(41,127,255);"/>
<text x="300" y="502" dominant-baseline="central" text-anchor="middle" style="fill:rgb(250,250,250);font-family:Arial;font-size:16px;">List Builder</text>
<rect x="199" y="519" width="202" height="36" style="fill:rgb(236,236,236);"/>
<rect x="199" y="524" width="80" height="26" style="fill:rgb(246,246,246);"/>
<text x="204" y="537" dominant-baseline="central" text-anchor="start" style="fill:rgb(0,0,0);font-family:Arial;font-size:14px;">Input</text>
<rect x="307" y="524" width="94" height="26" style="fill:rgb(246,246,246);"/>
<text x="396" y="537" dominant-baseline="central" text-anchor="end" style="fill:rgb(0,0,0);font-family:Arial;font-size:14px;">Output</text>
<rect x="199" y="485" width="202" height="70" style="fill:none;stroke-width:1px;stroke:rgb(38,50,56);"/>
<rect x="436" y="169" width="128" height="34" style="fill:rgb(41,127,255);"/>
<text x="500" y="186" dominant-baseline="central" text-anchor="middle" style="fill:rgb(250,250,250);font-family:Arial;font-size:16px;">Sub</text>
<rect x="436" y="203" width="128" height="67" style="fill:rgb(236,236,236);"/>
<rect x="436" y="208" width="24" height="26" style="fill:rgb(246,246,246);"/>
<text x="441" y="221" dominant-baseline="central" text-anchor="start" style="fill:rgb(0,0,0);font-family:Arial;font-size:14px;">A</text>
<rect x="436" y="239" width="24" height="26" style="fill:rgb(246,246,246);"/>
<text x="441" y="252" dominant-baseline="central" text-anchor="start" style="fill:rgb(0,0,0);font-family:Arial;font-size:14px;">B</text>
<rect x="470" y="208" width="94" height="26" style="fill:rgb(246,246,246);"/>
<text x="559" y="221" dominant-baseline="central" text-anchor="end" style="fill:rgb(0,0,0);font-family:Arial;font-size:14px;">Result</text>
<rect x="436" y="169" width="128" height="101" style="fill:none;stroke-width:1px;stroke:rgb(38,50,56);"/>
<rect x="436" y="289" width="128" height="34" style="fill:rgb(41,127,255);"/>
<text x="500" y="306" dominant-baseline="central" text-anchor="middle" style="fill:rgb(250,250,250);font-family:Arial;font-size:16px;">Mul</text>
<rect x="436" y="323" width="128" height="67" style="fill:rgb(236,236,236);"/>
<rect x="436" y="328" width="24" height="26" style="fill:rgb(246,246,246);"/>
<text x="441" y="341" dominant-baseline="central" text-anchor="start" style="fill:rgb(0,0,0);font-family:Arial;font-size:14px;">A</text>
<rect x="436" y="359" width="24" height="26" style="fill:rgb(246,246,246);"/>
<text x="441" y="372" dominant-baseline="central" text-anchor="start" style="fill:rgb(0,0,0);font-family:Arial;font-size:14px;">B</text>
<rect x="470" y="328" width="94" height="26" style="fill:rgb(246,246,246);"/>
<text x="559" y="341" dominant-baseline="central" text-anchor="end" style="fill:rgb(0,0,0);font-family:Arial;font-size:14px;">Result</text>
<rect x="436" y="289" width="128" height="101" style="fill:none;stroke-width:1px;stroke:rgb(38,50,56);"/>
<rect x="436" y="409" width="128" height="34" style="fill:rgb(41,127,255);"/>
<text x="500" y="426" dominant-baseline="central" text-anchor="middle" style="fill:rgb(250,250,250);font-family:Arial;font-size:16px;">Div</text>
<rect x="436" y="443" width="128" height="67" style="fill:rgb(236,236,236);"/>
<rect x="436" y="448" width="24" height="26" style="fill:rgb(246,246,246);"/>
<text x="441" y="461" dominant-baseline="central" text-anchor="start" style="fill:rgb(0,0,0);font-family:Arial;font-size:14px;">A</text>
<rect x="436" y="479" width="24" height="26" style="fill:rgb(246,246,246);"/>
<text x="441" y="492" dominant-baseline="central" text-anchor="start" style="fill:rgb(0,0,0);font-family:Arial;font-size:14px;">B</text>
<rect x="470" y="448" width="94" height="26" style="fill:rgb(246,246,246);"/>
<text x="559" y="461" dominant-baseline="central" text-anchor="end" style="fill:rgb(0,0,0);font-family:Arial;font-size:14px;">Result</text>
<rect x="436" y="409" width="128" height="101" style="fill:none;stroke-width:1px;stroke:rgb(38,50,56);"/>
<rect x="436" y="49" width="128" height="34" style="fill:rgb(41,127,255);"/>
<text x="500" y="66" dominant-baseline="central" text-anchor="middle" style="fill:rgb(250,250,250);font-family:Arial;font-size:16px;">Add</text>
<rect x="436" y="83" width="128" height="67" style="fill:rgb(236,236,236);"/>
<rect x="436" y="88" width="24" height="26" style="fill:rgb(246,246,246);"/>
<text x="441" y="101" dominant-baseline="central" text-anchor="start" style="fill:rgb(0,0,0);font-family:Arial;font-size:14px;">A</text>
<rect x="436" y="119" width="24" height="26" style="fill:rgb(246,246,246);"/>
<text x="441" y="132" dominant-baseline="central" text-anchor="start" style="fill:rgb(0,0,0);font-family:Arial;font-size:14px;">B</text>
<rect x="470" y="88" width="94" height="26" style="fill:rgb(246,246,246);"/>
<text x="559" y="101" dominant-baseline="central" text-anchor="end" style="fill:rgb(0,0,0);font-family:Arial;font-size:14px;">Result</text>
<rect x="436" y="49" width="128" height="101" style="fill:none;stroke-width:1px;stroke:rgb(38,50,56);"/>
<rect x="608" y="49" width="184" height="34" style="fill:rgb(41,127,255);"/>
<text x="700" y="66" dominant-baseline="central" text-anchor="middle" style="fill:rgb(250,250,250);font-family:Arial;font-size:16px;">Viewer</text>
<rect x="608" y="83" width="184" height="36" style="fill:rgb(236,236,236);"/>
<rect x="608" y="88" width="80" height="26" style="fill:rgb(246,246,246);"/>
<text x="613" y="101" dominant-baseline="central" text-anchor="start" style="fill:rgb(0,0,0);font-family:Arial;font-size:14px;">Input</text>
<rect x="698" y="88" width="94" height="26" style="fill:rgb(246,246,246);"/>
<text x="787" y="101" dominant-baseline="central" text-anchor="end" style="fill:rgb(0,0,0);font-family:Arial;font-size:14px;">Output</text>
<rect x="608" y="119" width="184" height="31" style="fill:rgb(236,236,236);"/>
<text x="700" y="135" dominant-baseline="central" text-anchor="middle" style="fill:rgb(0,0,0);font-family:Arial;font-size:14px;">false</text>
<rect x="608" y="49" width="184" height="101" style="fill:none;stroke-width:1px;stroke:rgb(38,50,56);"/>
<rect x="586" y="177" width="208" height="34" style="fill:rgb(41,127,255);"/>
<text x="690" y="194" dominant-baseline="central" text-anchor="middle" style="fill:rgb(250,250,250);font-family:Arial;font-size:16px;">Viewer</text>
<rect x="586" y="211" width="208" height="36" style="fill:rgb(236,236,236);"/>
<rect x="586" y="216" width="80" height="26" style="fill:rgb(246,246,246);"/>
<text x="591" y="229" dominant-baseline="central" text-anchor="start" style="fill:rgb(0,0,0);font-family:Arial;font-size:14px;">Input</text>
<rect x="700" y="216" width="94" height="26" style="fill:rgb(246,246,246);"/>
<text x="789" y="229" dominant-baseline="central" text-anchor="end" style="fill:rgb(0,0,0);font-family:Arial;font-size:14px;">Output</text>
<rect x="586" y="247" width="208" height="140" style="fill:rgb(236,236,236);"/>
<text x="690" y="265" dominant-baseline="central" text-anchor="middle" style="fill:rgb(0,0,0);font-family:Arial;font-size:14px;">0.00</text>
<text x="690" y="291" dominant-baseline="central" text-anchor="middle" style="fill:rgb(0,0,0);font-family:Arial;font-size:14px;">0.01</text>
<text x="690" y="317" dominant-baseline="central" text-anchor="middle" style="fill:rgb(0,0,0);font-family:Arial;font-size:14px;">0.05</text>
<text x="690" y="343" dominant-baseline="central" text-anchor="middle" style="fill:rgb(0,0,0);font-family:Arial;font-size:14px;">0.11</text>
<text x="690" y="369" dominant-baseline="central" text-anchor="middle" style="fill:rgb(0,0,0);font-family:Arial;font-size:14px;">0.20</text>
<rect x="586" y="387" width="208" height="36" style="fill:rgb(236,236,236);"/>
<text x="690" y="405" dominant-baseline="central" text-anchor="middle" style="fill:rgb(0,0,0);font-family:Arial;font-size:14px;">1 / 2 (10)</text>
<rect x="591" y="392" width="24" height="26" style="fill:rgb(217,217,217);"/>
<text x="603" y="405" dominant-baseline="central" text-anchor="middle" style="fill:rgb(0,0,0);font-family:Arial;font-size:14px;">&lt;</text>
<rect x="591" y="392" width="24" height="26" style="fill:none;stroke-width:1px;stroke:rgb(146,152,155);"/>
<rect x="765" y="392" width="24" height="26" style="fill:rgb(217,217,217);"/>
<text x="777" y="405" dominant-baseline="central" text-anchor="middle" style="fill:rgb(0,0,0);font-family:Arial;font-size:14px;">&gt;</text>
<rect x="765" y="392" width="24" height="26" style="fill:none;stroke-width:1px;stroke:rgb(146,152,155);"/>
<rect x="586" y="177" width="208" height="246" style="fill:none;stroke-width:1px;stroke:rgb(38,50,56);"/>
</svg>
