<svg version="1.1" xmlns="http://www.w3.org/2000/svg" width="800" height="600" shape-rendering="crispEdges">
<rect x="0" y="0" width="800" height="600" style="fill:rgb(250,250,250);"/>
<path d="M166,199 C198,199 198,418 229,418" style="fill:none;stroke-width:1px;stroke:rgb(38,50,56);"/>
<path d="M166,199 C198,199 198,454 229,454" style="fill:none;stroke-width:1px;stroke:rgb(38,50,56);"/>
<path d="M166,199 C365,199 365,81 564,81" style="fill:none;stroke-width:1px;stroke:rgb(38,50,56);"/>
<path d="M412,418 C481,418 481,351 550,351" style="fill:none;stroke-width:1px;stroke:rgb(38,50,56);"/>
<rect x="5" y="138" width="161" height="39" style="fill:rgb(41,127,255);"/>
<text x="85" y="157" dominant-baseline="central" text-anchor="middle" style="fill:rgb(250,250,250);font-family:Arial;font-size:18px;">Number</text>
<rect x="5" y="177" width="161" height="43" style="fill:rgb(236,236,236);"/>
<rect x="56" y="183" width="110" height="31" style="fill:rgb(246,246,246);"/>
<text x="161" y="199" dominant-baseline="central" text-anchor="end" style="fill:rgb(0,0,0);font-family:Arial;font-size:16px;">Output</text>
<rect x="5" y="220" width="161" height="42" style="fill:rgb(236,236,236);"/>
<text x="85" y="241" dominant-baseline="central" text-anchor="middle" style="fill:rgb(0,0,0);font-family:Arial;font-size:16px;">20.00</text>
<rect x="10" y="226" width="29" height="30" style="fill:rgb(217,217,217);"/>
<text x="24" y="241" dominant-baseline="central" text-anchor="middle" style="fill:rgb(0,0,0);font-family:Arial;font-size:16px;">&lt;</text>
<rect x="10" y="226" width="29" height="30" style="fill:none;stroke-width:1px;stroke:rgb(146,152,155);"/>
<rect x="132" y="226" width="29" height="30" style="fill:rgb(217,217,217);"/>
<text x="147" y="241" dominant-baseline="central" text-anchor="middle" style="fill:rgb(0,0,0);font-family:Arial;font-size:16px;">&gt;</text>
<rect x="132" y="226" width="29" height="30" style="fill:none;stroke-width:1px;stroke:rgb(146,152,155);"/>
<rect x="5" y="138" width="161" height="124" style="fill:none;stroke-width:1px;stroke:rgb(38,50,56);"/>
<rect x="229" y="357" width="183" height="40" style="fill:rgb(41,127,255);"/>
<text x="320" y="377" dominant-baseline="central" text-anchor="middle" style="fill:rgb(250,250,250);font-family:Arial;font-size:18px;">Range</text>
<rect x="229" y="397" width="183" height="115" style="fill:rgb(236,236,236);"/>
<rect x="229" y="403" width="94" height="30" style="fill:rgb(246,246,246);"/>
<text x="235" y="418" dominant-baseline="central" text-anchor="start" style="fill:rgb(0,0,0);font-family:Arial;font-size:16px;">Start</text>
<rect x="229" y="439" width="94" height="31" style="fill:rgb(246,246,246);"/>
<text x="235" y="454" dominant-baseline="central" text-anchor="start" style="fill:rgb(0,0,0);font-family:Arial;font-size:16px;">Step</text>
<rect x="229" y="476" width="94" height="30" style="fill:rgb(246,246,246);"/>
<text x="235" y="491" dominant-baseline="central" text-anchor="start" style="fill:rgb(0,0,0);font-family:Arial;font-size:16px;">Count</text>
<rect x="334" y="403" width="78" height="30" style="fill:rgb(246,246,246);"/>
<text x="406" y="418" dominant-baseline="central" text-anchor="end" style="fill:rgb(0,0,0);font-family:Arial;font-size:16px;">List</text>
<rect x="229" y="357" width="183" height="155" style="fill:none;stroke-width:1px;stroke:rgb(38,50,56);"/>
<rect x="564" y="20" width="216" height="40" style="fill:rgb(41,127,255);"/>
<text x="672" y="40" dominant-baseline="central" text-anchor="middle" style="fill:rgb(250,250,250);font-family:Arial;font-size:18px;">Viewer</text>
<rect x="564" y="60" width="216" height="42" style="fill:rgb(236,236,236);"/>
<rect x="564" y="66" width="94" height="30" style="fill:rgb(246,246,246);"/>
<text x="570" y="81" dominant-baseline="central" text-anchor="start" style="fill:rgb(0,0,0);font-family:Arial;font-size:16px;">Input</text>
<rect x="670" y="66" width="110" height="30" style="fill:rgb(246,246,246);"/>
<text x="775" y="81" dominant-baseline="central" text-anchor="end" style="fill:rgb(0,0,0);font-family:Arial;font-size:16px;">Output</text>
<rect x="564" y="102" width="216" height="43" style="fill:rgb(236,236,236);"/>
<text x="672" y="123" dominant-baseline="central" text-anchor="middle" style="fill:rgb(0,0,0);font-family:Arial;font-size:16px;">20.00</text>
<rect x="564" y="20" width="216" height="125" style="fill:none;stroke-width:1px;stroke:rgb(38,50,56);"/>
<rect x="550" y="290" width="245" height="40" style="fill:rgb(41,127,255);"/>
<text x="672" y="310" dominant-baseline="central" text-anchor="middle" style="fill:rgb(250,250,250);font-family:Arial;font-size:18px;">Viewer 2</text>
<rect x="550" y="330" width="245" height="42" style="fill:rgb(236,236,236);"/>
<rect x="550" y="336" width="94" height="30" style="fill:rgb(246,246,246);"/>
<text x="556" y="351" dominant-baseline="central" text-anchor="start" style="fill:rgb(0,0,0);font-family:Arial;font-size:16px;">Input</text>
<rect x="684" y="336" width="111" height="30" style="fill:rgb(246,246,246);"/>
<text x="789" y="351" dominant-baseline="central" text-anchor="end" style="fill:rgb(0,0,0);font-family:Arial;font-size:16px;">Output</text>
<rect x="550" y="372" width="245" height="165" style="fill:rgb(236,236,236);"/>
<text x="672" y="393" dominant-baseline="central" text-anchor="middle" style="fill:rgb(0,0,0);font-family:Arial;font-size:16px;">20.00</text>
<text x="672" y="424" dominant-baseline="central" text-anchor="middle" style="fill:rgb(0,0,0);font-family:Arial;font-size:16px;">40.00</text>
<text x="672" y="454" dominant-baseline="central" text-anchor="middle" style="fill:rgb(0,0,0);font-family:Arial;font-size:16px;">60.00</text>
<text x="672" y="485" dominant-baseline="central" text-anchor="middle" style="fill:rgb(0,0,0);font-family:Arial;font-size:16px;">80.00</text>
<text x="672" y="515" dominant-baseline="central" text-anchor="middle" style="fill:rgb(0,0,0);font-family:Arial;font-size:16px;">100.00</text>
<rect x="550" y="537" width="245" height="42" style="fill:rgb(236,236,236);"/>
<text x="672" y="558" dominant-baseline="central" text-anchor="middle" style="fill:rgb(0,0,0);font-family:Arial;font-size:16px;">1 / 2 (10)</text>
<rect x="556" y="542" width="28" height="31" style="fill:rgb(217,217,217);"/>
<text x="570" y="558" dominant-baseline="central" text-anchor="middle" style="fill:rgb(0,0,0);font-family:Arial;font-size:16px;">&lt;</text>
<rect x="556" y="542" width="28" height="31" style="fill:none;stroke-width:1px;stroke:rgb(146,152,155);"/>
<rect x="760" y="542" width="29" height="31" style="fill:rgb(217,217,217);"/>
<text x="775" y="558" dominant-baseline="central" text-anchor="middle" style="fill:rgb(0,0,0);font-family:Arial;font-size:16px;">&gt;</text>
<rect x="760" y="542" width="29" height="31" style="fill:none;stroke-width:1px;stroke:rgb(146,152,155);"/>
<rect x="550" y="290" width="245" height="289" style="fill:none;stroke-width:1px;stroke:rgb(38,50,56);"/>
</svg>
