<svg version="1.1" xmlns="http://www.w3.org/2000/svg" width="800" height="600" shape-rendering="crispEdges">
<rect x="0" y="0" width="800" height="600" style="fill:rgb(250,250,250);"/>
<rect x="19" y="99" width="162" height="166" style="fill:rgb(160,200,240);"/>
<text x="31" y="123" dominant-baseline="central" text-anchor="start" style="fill:rgb(0,0,0);font-family:Arial;font-size:16px;">Group</text>
<rect x="210" y="286" width="180" height="192" style="fill:rgb(160,200,240);"/>
<text x="222" y="310" dominant-baseline="central" text-anchor="start" style="fill:rgb(0,0,0);font-family:Arial;font-size:16px;">Group</text>
<path d="M169,199 C195,199 195,386 222,386" style="fill:none;stroke-width:3px;stroke:rgb(41,127,255);"/>
<path d="M169,199 C195,199 195,417 222,417" style="fill:none;stroke-width:3px;stroke:rgb(41,127,255);"/>
<path d="M169,199 C338,199 338,99 508,99" style="fill:none;stroke-width:1px;stroke:rgb(38,50,56);"/>
<path d="M378,386 C437,386 437,329 496,329" style="fill:none;stroke-width:3px;stroke:rgb(41,127,255);"/>
<rect x="31" y="147" width="138" height="34" style="fill:rgb(41,127,255);"/>
<text x="100" y="164" dominant-baseline="central" text-anchor="middle" style="fill:rgb(250,250,250);font-family:Arial;font-size:16px;">Number</text>
<rect x="31" y="181" width="138" height="36" style="fill:rgb(236,236,236);"/>
<rect x="75" y="186" width="94" height="26" style="fill:rgb(246,246,246);"/>
<text x="164" y="199" dominant-baseline="central" text-anchor="end" style="fill:rgb(0,0,0);font-family:Arial;font-size:14px;">Output</text>
<rect x="31" y="217" width="138" height="36" style="fill:rgb(236,236,236);"/>
<text x="100" y="235" dominant-baseline="central" text-anchor="middle" style="fill:rgb(0,0,0);font-family:Arial;font-size:14px;">20.00</text>
<rect x="36" y="222" width="24" height="26" style="fill:rgb(217,217,217);"/>
<text x="48" y="235" dominant-baseline="central" text-anchor="middle" style="fill:rgb(0,0,0);font-family:Arial;font-size:14px;">&lt;</text>
<rect x="36" y="222" width="24" height="26" style="fill:none;stroke-width:1px;stroke:rgb(146,152,155);"/>
<rect x="140" y="222" width="24" height="26" style="fill:rgb(217,217,217);"/>
<text x="152" y="235" dominant-baseline="central" text-anchor="middle" style="fill:rgb(0,0,0);font-family:Arial;font-size:14px;">&gt;</text>
<rect x="140" y="222" width="24" height="26" style="fill:none;stroke-width:1px;stroke:rgb(146,152,155);"/>
<rect x="31" y="147" width="138" height="106" style="fill:none;stroke-width:1px;stroke:rgb(38,50,56);"/>
<rect x="219" y="331" width="162" height="138" style="fill:rgb(41,127,255);"/>
<rect x="222" y="334" width="156" height="34" style="fill:rgb(32,129,240);"/>
<text x="300" y="351" dominant-baseline="central" text-anchor="middle" style="fill:rgb(200,227,236);font-family:Arial;font-size:16px;">Range</text>
<rect x="222" y="368" width="156" height="98" style="fill:rgb(188,216,225);"/>
<rect x="222" y="373" width="80" height="26" style="fill:rgb(196,224,233);"/>
<text x="227" y="386" dominant-baseline="central" text-anchor="start" style="fill:rgb(0,27,36);font-family:Arial;font-size:14px;">Start</text>
<rect x="222" y="404" width="80" height="26" style="fill:rgb(196,224,233);"/>
<text x="227" y="417" dominant-baseline="central" text-anchor="start" style="fill:rgb(0,27,36);font-family:Arial;font-size:14px;">Step</text>
<rect x="222" y="435" width="80" height="26" style="fill:rgb(196,224,233);"/>
<text x="227" y="448" dominant-baseline="central" text-anchor="start" style="fill:rgb(0,27,36);font-family:Arial;font-size:14px;">Count</text>
<rect x="312" y="373" width="66" height="26" style="fill:rgb(196,224,233);"/>
<text x="373" y="386" dominant-baseline="central" text-anchor="end" style="fill:rgb(0,27,36);font-family:Arial;font-size:14px;">List</text>
<rect x="222" y="334" width="156" height="132" style="fill:none;stroke-width:1px;stroke:rgb(30,67,81);"/>
<rect x="508" y="47" width="184" height="34" style="fill:rgb(41,127,255);"/>
<text x="600" y="64" dominant-baseline="central" text-anchor="middle" style="fill:rgb(250,250,250);font-family:Arial;font-size:16px;">Viewer</text>
<rect x="508" y="81" width="184" height="36" style="fill:rgb(236,236,236);"/>
<rect x="508" y="86" width="80" height="26" style="fill:rgb(246,246,246);"/>
<text x="513" y="99" dominant-baseline="central" text-anchor="start" style="fill:rgb(0,0,0);font-family:Arial;font-size:14px;">Input</text>
<rect x="598" y="86" width="94" height="26" style="fill:rgb(246,246,246);"/>
<text x="687" y="99" dominant-baseline="central" text-anchor="end" style="fill:rgb(0,0,0);font-family:Arial;font-size:14px;">Output</text>
<rect x="508" y="117" width="184" height="36" style="fill:rgb(236,236,236);"/>
<text x="600" y="135" dominant-baseline="central" text-anchor="middle" style="fill:rgb(0,0,0);font-family:Arial;font-size:14px;">20.00</text>
<rect x="508" y="47" width="184" height="106" style="fill:none;stroke-width:1px;stroke:rgb(38,50,56);"/>
<rect x="496" y="277" width="208" height="34" style="fill:rgb(41,127,255);"/>
<text x="600" y="294" dominant-baseline="central" text-anchor="middle" style="fill:rgb(250,250,250);font-family:Arial;font-size:16px;">Viewer 2</text>
<rect x="496" y="311" width="208" height="36" style="fill:rgb(236,236,236);"/>
<rect x="496" y="316" width="80" height="26" style="fill:rgb(246,246,246);"/>
<text x="501" y="329" dominant-baseline="central" text-anchor="start" style="fill:rgb(0,0,0);font-family:Arial;font-size:14px;">Input</text>
<rect x="610" y="316" width="94" height="26" style="fill:rgb(246,246,246);"/>
<text x="699" y="329" dominant-baseline="central" text-anchor="end" style="fill:rgb(0,0,0);font-family:Arial;font-size:14px;">Output</text>
<rect x="496" y="347" width="208" height="140" style="fill:rgb(236,236,236);"/>
<text x="600" y="365" dominant-baseline="central" text-anchor="middle" style="fill:rgb(0,0,0);font-family:Arial;font-size:14px;">20.00</text>
<text x="600" y="391" dominant-baseline="central" text-anchor="middle" style="fill:rgb(0,0,0);font-family:Arial;font-size:14px;">40.00</text>
<text x="600" y="417" dominant-baseline="central" text-anchor="middle" style="fill:rgb(0,0,0);font-family:Arial;font-size:14px;">60.00</text>
<text x="600" y="443" dominant-baseline="central" text-anchor="middle" style="fill:rgb(0,0,0);font-family:Arial;font-size:14px;">80.00</text>
<text x="600" y="469" dominant-baseline="central" text-anchor="middle" style="fill:rgb(0,0,0);font-family:Arial;font-size:14px;">100.00</text>
<rect x="496" y="487" width="208" height="36" style="fill:rgb(236,236,236);"/>
<text x="600" y="505" dominant-baseline="central" text-anchor="middle" style="fill:rgb(0,0,0);font-family:Arial;font-size:14px;">1 / 2 (10)</text>
<rect x="501" y="492" width="24" height="26" style="fill:rgb(217,217,217);"/>
<text x="513" y="505" dominant-baseline="central" text-anchor="middle" style="fill:rgb(0,0,0);font-family:Arial;font-size:14px;">&lt;</text>
<rect x="501" y="492" width="24" height="26" style="fill:none;stroke-width:1px;stroke:rgb(146,152,155);"/>
<rect x="675" y="492" width="24" height="26" style="fill:rgb(217,217,217);"/>
<text x="687" y="505" dominant-baseline="central" text-anchor="middle" style="fill:rgb(0,0,0);font-family:Arial;font-size:14px;">&gt;</text>
<rect x="675" y="492" width="24" height="26" style="fill:none;stroke-width:1px;stroke:rgb(146,152,155);"/>
<rect x="496" y="277" width="208" height="246" style="fill:none;stroke-width:1px;stroke:rgb(38,50,56);"/>
</svg>
