<svg version="1.1" xmlns="http://www.w3.org/2000/svg" width="800" height="600" shape-rendering="crispEdges">
<rect x="0" y="0" width="800" height="600" style="fill:rgb(250,250,250);"/>
<path d="M161,99 C196,99 196,217 231,217" style="fill:none;stroke-width:1px;stroke:rgb(38,50,56);"/>
<path d="M369,217 C439,217 439,299 508,299" style="fill:none;stroke-width:1px;stroke:rgb(38,50,56);"/>
<rect x="39" y="47" width="122" height="34" style="fill:rgb(41,127,255);"/>
<text x="100" y="64" dominant-baseline="central" text-anchor="middle" style="fill:rgb(250,250,250);font-family:Arial;font-size:16px;">Integer</text>
<rect x="39" y="81" width="122" height="36" style="fill:rgb(236,236,236);"/>
<rect x="67" y="86" width="94" height="26" style="fill:rgb(246,246,246);"/>
<text x="156" y="99" dominant-baseline="central" text-anchor="end" style="fill:rgb(0,0,0);font-family:Arial;font-size:14px;">Output</text>
<rect x="39" y="117" width="122" height="36" style="fill:rgb(236,236,236);"/>
<text x="100" y="135" dominant-baseline="central" text-anchor="middle" style="fill:rgb(0,0,0);font-family:Arial;font-size:14px;">0</text>
<rect x="44" y="122" width="24" height="26" style="fill:rgb(217,217,217);"/>
<text x="56" y="135" dominant-baseline="central" text-anchor="middle" style="fill:rgb(0,0,0);font-family:Arial;font-size:14px;">&lt;</text>
<rect x="44" y="122" width="24" height="26" style="fill:none;stroke-width:1px;stroke:rgb(146,152,155);"/>
<rect x="132" y="122" width="24" height="26" style="fill:rgb(217,217,217);"/>
<text x="144" y="135" dominant-baseline="central" text-anchor="middle" style="fill:rgb(0,0,0);font-family:Arial;font-size:14px;">&gt;</text>
<rect x="132" y="122" width="24" height="26" style="fill:none;stroke-width:1px;stroke:rgb(146,152,155);"/>
<rect x="39" y="47" width="122" height="106" style="fill:none;stroke-width:1px;stroke:rgb(38,50,56);"/>
<rect x="231" y="165" width="138" height="34" style="fill:rgb(41,127,255);"/>
<text x="300" y="182" dominant-baseline="central" text-anchor="middle" style="fill:rgb(250,250,250);font-family:Arial;font-size:16px;">Increase</text>
<rect x="231" y="199" width="138" height="36" style="fill:rgb(236,236,236);"/>
<rect x="231" y="204" width="38" height="26" style="fill:rgb(246,246,246);"/>
<text x="236" y="217" dominant-baseline="central" text-anchor="start" style="fill:rgb(0,0,0);font-family:Arial;font-size:14px;">In</text>
<rect x="317" y="204" width="52" height="26" style="fill:rgb(246,246,246);"/>
<text x="364" y="217" dominant-baseline="central" text-anchor="end" style="fill:rgb(0,0,0);font-family:Arial;font-size:14px;">Out</text>
<rect x="231" y="165" width="138" height="70" style="fill:none;stroke-width:1px;stroke:rgb(38,50,56);"/>
<rect x="508" y="247" width="184" height="34" style="fill:rgb(41,127,255);"/>
<text x="600" y="264" dominant-baseline="central" text-anchor="middle" style="fill:rgb(250,250,250);font-family:Arial;font-size:16px;">Viewer</text>
<rect x="508" y="281" width="184" height="36" style="fill:rgb(236,236,236);"/>
<rect x="508" y="286" width="80" height="26" style="fill:rgb(246,246,246);"/>
<text x="513" y="299" dominant-baseline="central" text-anchor="start" style="fill:rgb(0,0,0);font-family:Arial;font-size:14px;">Input</text>
<rect x="598" y="286" width="94" height="26" style="fill:rgb(246,246,246);"/>
<text x="687" y="299" dominant-baseline="central" text-anchor="end" style="fill:rgb(0,0,0);font-family:Arial;font-size:14px;">Output</text>
<rect x="508" y="317" width="184" height="36" style="fill:rgb(236,236,236);"/>
<text x="600" y="335" dominant-baseline="central" text-anchor="middle" style="fill:rgb(0,0,0);font-family:Arial;font-size:14px;">1</text>
<rect x="508" y="247" width="184" height="106" style="fill:none;stroke-width:1px;stroke:rgb(38,50,56);"/>
</svg>
