<svg version="1.1" xmlns="http://www.w3.org/2000/svg" width="800" height="600" shape-rendering="crispEdges">
<rect x="0" y="0" width="800" height="600" style="fill:rgb(250,250,250);"/>
<path d="M169,200 C200,200 200,417 231,417" style="fill:none;stroke-width:1px;stroke:rgb(38,50,56);"/>
<path d="M169,200 C200,200 200,453 231,453" style="fill:none;stroke-width:1px;stroke:rgb(38,50,56);"/>
<path d="M169,200 C366,200 366,84 562,84" style="fill:none;stroke-width:1px;stroke:rgb(38,50,56);"/>
<path d="M412,417 C480,417 480,351 549,351" style="fill:none;stroke-width:1px;stroke:rgb(38,50,56);"/>
<rect x="9" y="139" width="160" height="40" style="fill:rgb(41,127,255);"/>
<text x="89" y="159" dominant-baseline="central" text-anchor="middle" style="fill:rgb(250,250,250);font-family:Arial;font-size:18px;">Number</text>
<rect x="9" y="179" width="160" height="42" style="fill:rgb(236,236,236);"/>
<ellipse cx="169" cy="199" rx="4" ry="4" style="fill:rgb(246,246,246);"/>
<ellipse cx="169" cy="199" rx="4" ry="4" style="fill:none;stroke-width:1px;stroke:rgb(38,50,56);"/>
<rect x="60" y="185" width="109" height="30" style="fill:rgb(246,246,246);"/>
<text x="163" y="200" dominant-baseline="central" text-anchor="end" style="fill:rgb(0,0,0);font-family:Arial;font-size:16px;">Output</text>
<rect x="9" y="221" width="160" height="41" style="fill:rgb(236,236,236);"/>
<text x="89" y="241" dominant-baseline="central" text-anchor="middle" style="fill:rgb(0,0,0);font-family:Arial;font-size:16px;">20.00</text>
<rect x="15" y="226" width="28" height="31" style="fill:rgb(217,217,217);"/>
<text x="29" y="241" dominant-baseline="central" text-anchor="middle" style="fill:rgb(0,0,0);font-family:Arial;font-size:16px;">&lt;</text>
<rect x="15" y="226" width="28" height="31" style="fill:none;stroke-width:1px;stroke:rgb(146,152,155);"/>
<rect x="136" y="226" width="27" height="31" style="fill:rgb(217,217,217);"/>
<text x="150" y="241" dominant-baseline="central" text-anchor="middle" style="fill:rgb(0,0,0);font-family:Arial;font-size:16px;">&gt;</text>
<rect x="136" y="226" width="27" height="31" style="fill:none;stroke-width:1px;stroke:rgb(146,152,155);"/>
<rect x="9" y="139" width="160" height="123" style="fill:none;stroke-width:1px;stroke:rgb(38,50,56);"/>
<rect x="231" y="356" width="181" height="40" style="fill:rgb(41,127,255);"/>
<text x="321" y="376" dominant-baseline="central" text-anchor="middle" style="fill:rgb(250,250,250);font-family:Arial;font-size:18px;">Range</text>
<rect x="231" y="396" width="181" height="113" style="fill:rgb(236,236,236);"/>
<ellipse cx="230" cy="416" rx="4" ry="4" style="fill:rgb(246,246,246);"/>
<ellipse cx="230" cy="416" rx="4" ry="4" style="fill:none;stroke-width:1px;stroke:rgb(38,50,56);"/>
<rect x="231" y="402" width="93" height="30" style="fill:rgb(246,246,246);"/>
<text x="237" y="417" dominant-baseline="central" text-anchor="start" style="fill:rgb(0,0,0);font-family:Arial;font-size:16px;">Start</text>
<ellipse cx="230" cy="452" rx="4" ry="4" style="fill:rgb(246,246,246);"/>
<ellipse cx="230" cy="452" rx="4" ry="4" style="fill:none;stroke-width:1px;stroke:rgb(38,50,56);"/>
<rect x="231" y="438" width="93" height="30" style="fill:rgb(246,246,246);"/>
<text x="237" y="453" dominant-baseline="central" text-anchor="start" style="fill:rgb(0,0,0);font-family:Arial;font-size:16px;">Step</text>
<ellipse cx="230" cy="488" rx="4" ry="4" style="fill:rgb(246,246,246);"/>
<ellipse cx="230" cy="488" rx="4" ry="4" style="fill:none;stroke-width:1px;stroke:rgb(38,50,56);"/>
<rect x="231" y="474" width="93" height="30" style="fill:rgb(246,246,246);"/>
<text x="237" y="489" dominant-baseline="central" text-anchor="start" style="fill:rgb(0,0,0);font-family:Arial;font-size:16px;">Count</text>
<ellipse cx="411" cy="416" rx="4" ry="4" style="fill:rgb(246,246,246);"/>
<ellipse cx="411" cy="416" rx="4" ry="4" style="fill:none;stroke-width:1px;stroke:rgb(38,50,56);"/>
<rect x="335" y="402" width="77" height="30" style="fill:rgb(246,246,246);"/>
<text x="406" y="417" dominant-baseline="central" text-anchor="end" style="fill:rgb(0,0,0);font-family:Arial;font-size:16px;">List</text>
<rect x="231" y="356" width="181" height="153" style="fill:none;stroke-width:1px;stroke:rgb(38,50,56);"/>
<rect x="562" y="23" width="214" height="40" style="fill:rgb(41,127,255);"/>
<text x="669" y="43" dominant-baseline="central" text-anchor="middle" style="fill:rgb(250,250,250);font-family:Arial;font-size:18px;">Viewer</text>
<rect x="562" y="63" width="214" height="42" style="fill:rgb(236,236,236);"/>
<ellipse cx="562" cy="83" rx="4" ry="4" style="fill:rgb(246,246,246);"/>
<ellipse cx="562" cy="83" rx="4" ry="4" style="fill:none;stroke-width:1px;stroke:rgb(38,50,56);"/>
<rect x="562" y="69" width="93" height="30" style="fill:rgb(246,246,246);"/>
<text x="568" y="84" dominant-baseline="central" text-anchor="start" style="fill:rgb(0,0,0);font-family:Arial;font-size:16px;">Input</text>
<ellipse cx="776" cy="83" rx="5" ry="4" style="fill:rgb(246,246,246);"/>
<ellipse cx="776" cy="83" rx="5" ry="4" style="fill:none;stroke-width:1px;stroke:rgb(38,50,56);"/>
<rect x="667" y="69" width="109" height="30" style="fill:rgb(246,246,246);"/>
<text x="770" y="84" dominant-baseline="central" text-anchor="end" style="fill:rgb(0,0,0);font-family:Arial;font-size:16px;">Output</text>
<rect x="562" y="105" width="214" height="41" style="fill:rgb(236,236,236);"/>
<text x="669" y="125" dominant-baseline="central" text-anchor="middle" style="fill:rgb(0,0,0);font-family:Arial;font-size:16px;">20.00</text>
<rect x="562" y="23" width="214" height="123" style="fill:none;stroke-width:1px;stroke:rgb(38,50,56);"/>
<rect x="549" y="290" width="241" height="40" style="fill:rgb(41,127,255);"/>
<text x="669" y="310" dominant-baseline="central" text-anchor="middle" style="fill:rgb(250,250,250);font-family:Arial;font-size:18px;">Viewer 2</text>
<rect x="549" y="330" width="241" height="41" style="fill:rgb(236,236,236);"/>
<ellipse cx="548" cy="350" rx="4" ry="4" style="fill:rgb(246,246,246);"/>
<ellipse cx="548" cy="350" rx="4" ry="4" style="fill:none;stroke-width:1px;stroke:rgb(38,50,56);"/>
<rect x="549" y="335" width="92" height="31" style="fill:rgb(246,246,246);"/>
<text x="554" y="351" dominant-baseline="central" text-anchor="start" style="fill:rgb(0,0,0);font-family:Arial;font-size:16px;">Input</text>
<ellipse cx="790" cy="350" rx="5" ry="4" style="fill:rgb(246,246,246);"/>
<ellipse cx="790" cy="350" rx="5" ry="4" style="fill:none;stroke-width:1px;stroke:rgb(38,50,56);"/>
<rect x="681" y="335" width="109" height="31" style="fill:rgb(246,246,246);"/>
<text x="784" y="351" dominant-baseline="central" text-anchor="end" style="fill:rgb(0,0,0);font-family:Arial;font-size:16px;">Output</text>
<rect x="549" y="371" width="241" height="163" style="fill:rgb(236,236,236);"/>
<text x="669" y="392" dominant-baseline="central" text-anchor="middle" style="fill:rgb(0,0,0);font-family:Arial;font-size:16px;">20.00</text>
<text x="669" y="422" dominant-baseline="central" text-anchor="middle" style="fill:rgb(0,0,0);font-family:Arial;font-size:16px;">40.00</text>
<text x="669" y="453" dominant-baseline="central" text-anchor="middle" style="fill:rgb(0,0,0);font-family:Arial;font-size:16px;">60.00</text>
<text x="669" y="483" dominant-baseline="central" text-anchor="middle" style="fill:rgb(0,0,0);font-family:Arial;font-size:16px;">80.00</text>
<text x="669" y="513" dominant-baseline="central" text-anchor="middle" style="fill:rgb(0,0,0);font-family:Arial;font-size:16px;">100.00</text>
<rect x="549" y="534" width="241" height="42" style="fill:rgb(236,236,236);"/>
<text x="669" y="555" dominant-baseline="central" text-anchor="middle" style="fill:rgb(0,0,0);font-family:Arial;font-size:16px;">1 / 2 (10)</text>
<rect x="554" y="540" width="28" height="30" style="fill:rgb(217,217,217);"/>
<text x="568" y="555" dominant-baseline="central" text-anchor="middle" style="fill:rgb(0,0,0);font-family:Arial;font-size:16px;">&lt;</text>
<rect x="554" y="540" width="28" height="30" style="fill:none;stroke-width:1px;stroke:rgb(146,152,155);"/>
<rect x="756" y="540" width="28" height="30" style="fill:rgb(217,217,217);"/>
<text x="770" y="555" dominant-baseline="central" text-anchor="middle" style="fill:rgb(0,0,0);font-family:Arial;font-size:16px;">&gt;</text>
<rect x="756" y="540" width="28" height="30" style="fill:none;stroke-width:1px;stroke:rgb(146,152,155);"/>
<rect x="549" y="290" width="241" height="286" style="fill:none;stroke-width:1px;stroke:rgb(38,50,56);"/>
</svg>
