<svg version="1.1" xmlns="http://www.w3.org/2000/svg" width="800" height="600" shape-rendering="crispEdges">
<rect x="0" y="0" width="800" height="600" style="fill:rgb(250,250,250);"/>
<path d="M170,201 C201,201 201,418 232,418" style="fill:none;stroke-width:2px;stroke:rgb(38,50,56);"/>
<path d="M170,201 C201,201 201,454 232,454" style="fill:none;stroke-width:2px;stroke:rgb(38,50,56);"/>
<path d="M170,201 C367,201 367,85 563,85" style="fill:none;stroke-width:2px;stroke:rgb(38,50,56);"/>
<path d="M413,418 C481,418 481,352 550,352" style="fill:none;stroke-width:2px;stroke:rgb(38,50,56);"/>
<rect x="9" y="139" width="161" height="40" style="fill:rgb(41,127,255);"/>
<text x="89" y="159" dominant-baseline="central" text-anchor="middle" style="fill:rgb(250,250,250);font-family:Arial;font-size:19px;">Number</text>
<rect x="9" y="179" width="161" height="42" style="fill:rgb(236,236,236);"/>
<ellipse cx="169" cy="200" rx="5" ry="5" style="fill:rgb(246,246,246);"/>
<ellipse cx="169" cy="200" rx="5" ry="5" style="fill:none;stroke-width:2px;stroke:rgb(38,50,56);"/>
<rect x="60" y="185" width="110" height="31" style="fill:rgb(246,246,246);"/>
<text x="163" y="200" dominant-baseline="central" text-anchor="end" style="fill:rgb(0,0,0);font-family:Arial;font-size:17px;">Output</text>
<rect x="9" y="221" width="161" height="42" style="fill:rgb(236,236,236);"/>
<text x="89" y="241" dominant-baseline="central" text-anchor="middle" style="fill:rgb(0,0,0);font-family:Arial;font-size:17px;">20.00</text>
<rect x="15" y="226" width="28" height="31" style="fill:rgb(217,217,217);"/>
<text x="29" y="241" dominant-baseline="central" text-anchor="middle" style="fill:rgb(0,0,0);font-family:Arial;font-size:17px;">&lt;</text>
<rect x="15" y="226" width="28" height="31" style="fill:none;stroke-width:2px;stroke:rgb(146,152,155);"/>
<rect x="136" y="226" width="28" height="31" style="fill:rgb(217,217,217);"/>
<text x="150" y="241" dominant-baseline="central" text-anchor="middle" style="fill:rgb(0,0,0);font-family:Arial;font-size:17px;">&gt;</text>
<rect x="136" y="226" width="28" height="31" style="fill:none;stroke-width:2px;stroke:rgb(146,152,155);"/>
<rect x="9" y="139" width="161" height="123" style="fill:none;stroke-width:2px;stroke:rgb(38,50,56);"/>
<rect x="231" y="356" width="181" height="40" style="fill:rgb(41,127,255);"/>
<text x="321" y="376" dominant-baseline="central" text-anchor="middle" style="fill:rgb(250,250,250);font-family:Arial;font-size:19px;">Range</text>
<rect x="231" y="396" width="181" height="114" style="fill:rgb(236,236,236);"/>
<ellipse cx="231" cy="417" rx="5" ry="5" style="fill:rgb(246,246,246);"/>
<ellipse cx="231" cy="417" rx="5" ry="5" style="fill:none;stroke-width:2px;stroke:rgb(38,50,56);"/>
<rect x="231" y="402" width="93" height="31" style="fill:rgb(246,246,246);"/>
<text x="237" y="417" dominant-baseline="central" text-anchor="start" style="fill:rgb(0,0,0);font-family:Arial;font-size:17px;">Start</text>
<ellipse cx="231" cy="453" rx="5" ry="5" style="fill:rgb(246,246,246);"/>
<ellipse cx="231" cy="453" rx="5" ry="5" style="fill:none;stroke-width:2px;stroke:rgb(38,50,56);"/>
<rect x="231" y="438" width="93" height="31" style="fill:rgb(246,246,246);"/>
<text x="237" y="453" dominant-baseline="central" text-anchor="start" style="fill:rgb(0,0,0);font-family:Arial;font-size:17px;">Step</text>
<ellipse cx="231" cy="489" rx="5" ry="5" style="fill:rgb(246,246,246);"/>
<ellipse cx="231" cy="489" rx="5" ry="5" style="fill:none;stroke-width:2px;stroke:rgb(38,50,56);"/>
<rect x="231" y="474" width="93" height="31" style="fill:rgb(246,246,246);"/>
<text x="237" y="489" dominant-baseline="central" text-anchor="start" style="fill:rgb(0,0,0);font-family:Arial;font-size:17px;">Count</text>
<ellipse cx="412" cy="417" rx="5" ry="5" style="fill:rgb(246,246,246);"/>
<ellipse cx="412" cy="417" rx="5" ry="5" style="fill:none;stroke-width:2px;stroke:rgb(38,50,56);"/>
<rect x="335" y="402" width="77" height="31" style="fill:rgb(246,246,246);"/>
<text x="406" y="417" dominant-baseline="central" text-anchor="end" style="fill:rgb(0,0,0);font-family:Arial;font-size:17px;">List</text>
<rect x="231" y="356" width="181" height="154" style="fill:none;stroke-width:2px;stroke:rgb(38,50,56);"/>
<rect x="562" y="23" width="214" height="40" style="fill:rgb(41,127,255);"/>
<text x="669" y="43" dominant-baseline="central" text-anchor="middle" style="fill:rgb(250,250,250);font-family:Arial;font-size:19px;">Viewer</text>
<rect x="562" y="63" width="214" height="42" style="fill:rgb(236,236,236);"/>
<ellipse cx="562" cy="84" rx="5" ry="5" style="fill:rgb(246,246,246);"/>
<ellipse cx="562" cy="84" rx="5" ry="5" style="fill:none;stroke-width:2px;stroke:rgb(38,50,56);"/>
<rect x="562" y="69" width="93" height="31" style="fill:rgb(246,246,246);"/>
<text x="568" y="84" dominant-baseline="central" text-anchor="start" style="fill:rgb(0,0,0);font-family:Arial;font-size:17px;">Input</text>
<ellipse cx="776" cy="84" rx="5" ry="5" style="fill:rgb(246,246,246);"/>
<ellipse cx="776" cy="84" rx="5" ry="5" style="fill:none;stroke-width:2px;stroke:rgb(38,50,56);"/>
<rect x="667" y="69" width="110" height="31" style="fill:rgb(246,246,246);"/>
<text x="770" y="84" dominant-baseline="central" text-anchor="end" style="fill:rgb(0,0,0);font-family:Arial;font-size:17px;">Output</text>
<rect x="562" y="105" width="214" height="42" style="fill:rgb(236,236,236);"/>
<text x="669" y="125" dominant-baseline="central" text-anchor="middle" style="fill:rgb(0,0,0);font-family:Arial;font-size:17px;">20.00</text>
<rect x="562" y="23" width="214" height="123" style="fill:none;stroke-width:2px;stroke:rgb(38,50,56);"/>
<rect x="549" y="290" width="242" height="40" style="fill:rgb(41,127,255);"/>
<text x="669" y="310" dominant-baseline="central" text-anchor="middle" style="fill:rgb(250,250,250);font-family:Arial;font-size:19px;">Viewer 2</text>
<rect x="549" y="330" width="242" height="42" style="fill:rgb(236,236,236);"/>
<ellipse cx="549" cy="351" rx="5" ry="5" style="fill:rgb(246,246,246);"/>
<ellipse cx="549" cy="351" rx="5" ry="5" style="fill:none;stroke-width:2px;stroke:rgb(38,50,56);"/>
<rect x="549" y="335" width="93" height="31" style="fill:rgb(246,246,246);"/>
<text x="554" y="351" dominant-baseline="central" text-anchor="start" style="fill:rgb(0,0,0);font-family:Arial;font-size:17px;">Input</text>
<ellipse cx="790" cy="351" rx="5" ry="5" style="fill:rgb(246,246,246);"/>
<ellipse cx="790" cy="351" rx="5" ry="5" style="fill:none;stroke-width:2px;stroke:rgb(38,50,56);"/>
<rect x="681" y="335" width="110" height="31" style="fill:rgb(246,246,246);"/>
<text x="784" y="351" dominant-baseline="central" text-anchor="end" style="fill:rgb(0,0,0);font-family:Arial;font-size:17px;">Output</text>
<rect x="549" y="371" width="242" height="163" style="fill:rgb(236,236,236);"/>
<text x="669" y="392" dominant-baseline="central" text-anchor="middle" style="fill:rgb(0,0,0);font-family:Arial;font-size:17px;">20.00</text>
<text x="669" y="422" dominant-baseline="central" text-anchor="middle" style="fill:rgb(0,0,0);font-family:Arial;font-size:17px;">40.00</text>
<text x="669" y="453" dominant-baseline="central" text-anchor="middle" style="fill:rgb(0,0,0);font-family:Arial;font-size:17px;">60.00</text>
<text x="669" y="483" dominant-baseline="central" text-anchor="middle" style="fill:rgb(0,0,0);font-family:Arial;font-size:17px;">80.00</text>
<text x="669" y="513" dominant-baseline="central" text-anchor="middle" style="fill:rgb(0,0,0);font-family:Arial;font-size:17px;">100.00</text>
<rect x="549" y="534" width="242" height="42" style="fill:rgb(236,236,236);"/>
<text x="669" y="555" dominant-baseline="central" text-anchor="middle" style="fill:rgb(0,0,0);font-family:Arial;font-size:17px;">1 / 2 (10)</text>
<rect x="554" y="540" width="28" height="31" style="fill:rgb(217,217,217);"/>
<text x="568" y="555" dominant-baseline="central" text-anchor="middle" style="fill:rgb(0,0,0);font-family:Arial;font-size:17px;">&lt;</text>
<rect x="554" y="540" width="28" height="31" style="fill:none;stroke-width:2px;stroke:rgb(146,152,155);"/>
<rect x="756" y="540" width="28" height="31" style="fill:rgb(217,217,217);"/>
<text x="770" y="555" dominant-baseline="central" text-anchor="middle" style="fill:rgb(0,0,0);font-family:Arial;font-size:17px;">&gt;</text>
<rect x="756" y="540" width="28" height="31" style="fill:none;stroke-width:2px;stroke:rgb(146,152,155);"/>
<rect x="549" y="290" width="242" height="286" style="fill:none;stroke-width:2px;stroke:rgb(38,50,56);"/>
</svg>
