<svg version="1.1" xmlns="http://www.w3.org/2000/svg" width="800" height="600" shape-rendering="crispEdges">
<rect x="0" y="0" width="800" height="600" style="fill:rgb(250,250,250);"/>
<path d="M169,199 C196,199 196,386 222,386" style="fill:none;stroke-width:1px;stroke:rgb(38,50,56);"/>
<path d="M169,199 C196,199 196,417 222,417" style="fill:none;stroke-width:1px;stroke:rgb(38,50,56);"/>
<path d="M169,199 C339,199 339,99 508,99" style="fill:none;stroke-width:1px;stroke:rgb(38,50,56);"/>
<path d="M378,386 C437,386 437,329 496,329" style="fill:none;stroke-width:1px;stroke:rgb(38,50,56);"/>
<path d="M169,199 C246,199 246,99 322,99" style="fill:none;stroke-width:1px;stroke:rgb(38,50,56);"/>
<ellipse cx="322" cy="99" rx="4" ry="4" style="fill:rgb(38,50,56);"/>
<rect x="31" y="147" width="138" height="34" style="fill:rgb(41,127,255);"/>
<text x="100" y="164" dominant-baseline="central" text-anchor="middle" style="fill:rgb(250,250,250);font-family:Arial;font-size:16px;">Number</text>
<rect x="31" y="181" width="138" height="36" style="fill:rgb(236,236,236);"/>
<ellipse cx="169" cy="199" rx="4" ry="4" style="fill:rgb(246,246,246);"/>
<ellipse cx="169" cy="199" rx="4" ry="4" style="fill:none;stroke-width:1px;stroke:rgb(38,50,56);"/>
<rect x="75" y="186" width="94" height="26" style="fill:rgb(246,246,246);"/>
<text x="164" y="199" dominant-baseline="central" text-anchor="end" style="fill:rgb(0,0,0);font-family:Arial;font-size:14px;">Output</text>
<rect x="31" y="217" width="138" height="36" style="fill:rgb(236,236,236);"/>
<text x="100" y="235" dominant-baseline="central" text-anchor="middle" style="fill:rgb(0,0,0);font-family:Arial;font-size:14px;">20.00</text>
<rect x="36" y="222" width="24" height="26" style="fill:rgb(217,217,217);"/>
<text x="48" y="235" dominant-baseline="central" text-anchor="middle" style="fill:rgb(0,0,0);font-family:Arial;font-size:14px;">&lt;</text>
<rect x="36" y="222" width="24" height="26" style="fill:none;stroke-width:1px;stroke:rgb(146,152,155);"/>
<rect x="140" y="222" width="24" height="26" style="fill:rgb(217,217,217);"/>
<text x="152" y="235" dominant-baseline="central" text-anchor="middle" style="fill:rgb(0,0,0);font-family:Arial;font-size:14px;">&gt;</text>
<rect x="140" y="222" width="24" height="26" style="fill:none;stroke-width:1px;stroke:rgb(146,152,155);"/>
<rect x="31" y="147" width="138" height="106" style="fill:none;stroke-width:1px;stroke:rgb(38,50,56);"/>
<rect x="222" y="334" width="156" height="34" style="fill:rgb(41,127,255);"/>
<text x="300" y="351" dominant-baseline="central" text-anchor="middle" style="fill:rgb(250,250,250);font-family:Arial;font-size:16px;">Range</text>
<rect x="222" y="368" width="156" height="98" style="fill:rgb(236,236,236);"/>
<ellipse cx="222" cy="386" rx="4" ry="4" style="fill:rgb(246,246,246);"/>
<ellipse cx="222" cy="386" rx="4" ry="4" style="fill:none;stroke-width:1px;stroke:rgb(38,50,56);"/>
<rect x="222" y="373" width="80" height="26" style="fill:rgb(246,246,246);"/>
<text x="227" y="386" dominant-baseline="central" text-anchor="start" style="fill:rgb(0,0,0);font-family:Arial;font-size:14px;">Start</text>
<ellipse cx="222" cy="417" rx="4" ry="4" style="fill:rgb(246,246,246);"/>
<ellipse cx="222" cy="417" rx="4" ry="4" style="fill:none;stroke-width:1px;stroke:rgb(38,50,56);"/>
<rect x="222" y="404" width="80" height="26" style="fill:rgb(246,246,246);"/>
<text x="227" y="417" dominant-baseline="central" text-anchor="start" style="fill:rgb(0,0,0);font-family:Arial;font-size:14px;">Step</text>
<ellipse cx="222" cy="448" rx="4" ry="4" style="fill:rgb(246,246,246);"/>
<ellipse cx="222" cy="448" rx="4" ry="4" style="fill:none;stroke-width:1px;stroke:rgb(38,50,56);"/>
<rect x="222" y="435" width="80" height="26" style="fill:rgb(246,246,246);"/>
<text x="227" y="448" dominant-baseline="central" text-anchor="start" style="fill:rgb(0,0,0);font-family:Arial;font-size:14px;">Count</text>
<ellipse cx="378" cy="386" rx="4" ry="4" style="fill:rgb(246,246,246);"/>
<ellipse cx="378" cy="386" rx="4" ry="4" style="fill:none;stroke-width:1px;stroke:rgb(38,50,56);"/>
<rect x="312" y="373" width="66" height="26" style="fill:rgb(246,246,246);"/>
<text x="373" y="386" dominant-baseline="central" text-anchor="end" style="fill:rgb(0,0,0);font-family:Arial;font-size:14px;">List</text>
<rect x="222" y="334" width="156" height="132" style="fill:none;stroke-width:1px;stroke:rgb(38,50,56);"/>
<rect x="508" y="47" width="184" height="34" style="fill:rgb(41,127,255);"/>
<text x="600" y="64" dominant-baseline="central" text-anchor="middle" style="fill:rgb(250,250,250);font-family:Arial;font-size:16px;">Viewer</text>
<rect x="508" y="81" width="184" height="36" style="fill:rgb(236,236,236);"/>
<ellipse cx="508" cy="99" rx="4" ry="4" style="fill:rgb(246,246,246);"/>
<ellipse cx="508" cy="99" rx="4" ry="4" style="fill:none;stroke-width:1px;stroke:rgb(38,50,56);"/>
<rect x="508" y="86" width="80" height="26" style="fill:rgb(246,246,246);"/>
<text x="513" y="99" dominant-baseline="central" text-anchor="start" style="fill:rgb(0,0,0);font-family:Arial;font-size:14px;">Input</text>
<ellipse cx="692" cy="99" rx="4" ry="4" style="fill:rgb(246,246,246);"/>
<ellipse cx="692" cy="99" rx="4" ry="4" style="fill:none;stroke-width:1px;stroke:rgb(38,50,56);"/>
<rect x="598" y="86" width="94" height="26" style="fill:rgb(246,246,246);"/>
<text x="687" y="99" dominant-baseline="central" text-anchor="end" style="fill:rgb(0,0,0);font-family:Arial;font-size:14px;">Output</text>
<rect x="508" y="117" width="184" height="36" style="fill:rgb(236,236,236);"/>
<text x="600" y="135" dominant-baseline="central" text-anchor="middle" style="fill:rgb(0,0,0);font-family:Arial;font-size:14px;">20.00</text>
<rect x="508" y="47" width="184" height="106" style="fill:none;stroke-width:1px;stroke:rgb(38,50,56);"/>
<rect x="496" y="277" width="208" height="34" style="fill:rgb(41,127,255);"/>
<text x="600" y="294" dominant-baseline="central" text-anchor="middle" style="fill:rgb(250,250,250);font-family:Arial;font-size:16px;">Viewer 2</text>
<rect x="496" y="311" width="208" height="36" style="fill:rgb(236,236,236);"/>
<ellipse cx="496" cy="329" rx="4" ry="4" style="fill:rgb(246,246,246);"/>
<ellipse cx="496" cy="329" rx="4" ry="4" style="fill:none;stroke-width:1px;stroke:rgb(38,50,56);"/>
<rect x="496" y="316" width="80" height="26" style="fill:rgb(246,246,246);"/>
<text x="501" y="329" dominant-baseline="central" text-anchor="start" style="fill:rgb(0,0,0);font-family:Arial;font-size:14px;">Input</text>
<ellipse cx="704" cy="329" rx="4" ry="4" style="fill:rgb(246,246,246);"/>
<ellipse cx="704" cy="329" rx="4" ry="4" style="fill:none;stroke-width:1px;stroke:rgb(38,50,56);"/>
<rect x="610" y="316" width="94" height="26" style="fill:rgb(246,246,246);"/>
<text x="699" y="329" dominant-baseline="central" text-anchor="end" style="fill:rgb(0,0,0);font-family:Arial;font-size:14px;">Output</text>
<rect x="496" y="347" width="208" height="140" style="fill:rgb(236,236,236);"/>
<text x="600" y="365" dominant-baseline="central" text-anchor="middle" style="fill:rgb(0,0,0);font-family:Arial;font-size:14px;">20.00</text>
<text x="600" y="391" dominant-baseline="central" text-anchor="middle" style="fill:rgb(0,0,0);font-family:Arial;font-size:14px;">40.00</text>
<text x="600" y="417" dominant-baseline="central" text-anchor="middle" style="fill:rgb(0,0,0);font-family:Arial;font-size:14px;">60.00</text>
<text x="600" y="443" dominant-baseline="central" text-anchor="middle" style="fill:rgb(0,0,0);font-family:Arial;font-size:14px;">80.00</text>
<text x="600" y="469" dominant-baseline="central" text-anchor="middle" style="fill:rgb(0,0,0);font-family:Arial;font-size:14px;">100.00</text>
<rect x="496" y="487" width="208" height="36" style="fill:rgb(236,236,236);"/>
<text x="600" y="505" dominant-baseline="central" text-anchor="middle" style="fill:rgb(0,0,0);font-family:Arial;font-size:14px;">1 / 2 (10)</text>
<rect x="501" y="492" width="24" height="26" style="fill:rgb(217,217,217);"/>
<text x="513" y="505" dominant-baseline="central" text-anchor="middle" style="fill:rgb(0,0,0);font-family:Arial;font-size:14px;">&lt;</text>
<rect x="501" y="492" width="24" height="26" style="fill:none;stroke-width:1px;stroke:rgb(146,152,155);"/>
<rect x="675" y="492" width="24" height="26" style="fill:rgb(217,217,217);"/>
<text x="687" y="505" dominant-baseline="central" text-anchor="middle" style="fill:rgb(0,0,0);font-family:Arial;font-size:14px;">&gt;</text>
<rect x="675" y="492" width="24" height="26" style="fill:none;stroke-width:1px;stroke:rgb(146,152,155);"/>
<rect x="496" y="277" width="208" height="246" style="fill:none;stroke-width:1px;stroke:rgb(38,50,56);"/>
</svg>
