<svg version="1.1" xmlns="http://www.w3.org/2000/svg" width="800" height="600" shape-rendering="crispEdges">
<rect x="0" y="0" width="800" height="600" style="fill:rgb(250,250,250);"/>
<path d="M175,202 C205,202 205,414 235,414" style="fill:none;stroke-width:1px;stroke:rgb(38,50,56);"/>
<path d="M175,202 C205,202 205,449 235,449" style="fill:none;stroke-width:1px;stroke:rgb(38,50,56);"/>
<path d="M175,202 C367,202 367,89 559,89" style="fill:none;stroke-width:1px;stroke:rgb(38,50,56);"/>
<path d="M411,414 C478,414 478,349 545,349" style="fill:none;stroke-width:1px;stroke:rgb(38,50,56);"/>
<rect x="18" y="143" width="157" height="39" style="fill:rgb(41,127,255);"/>
<text x="96" y="162" dominant-baseline="central" text-anchor="middle" style="fill:rgb(250,250,250);font-family:Arial;font-size:18px;">Number</text>
<rect x="18" y="182" width="157" height="40" style="fill:rgb(236,236,236);"/>
<ellipse cx="174" cy="202" rx="4" ry="5" style="fill:rgb(246,246,246);"/>
<ellipse cx="174" cy="202" rx="4" ry="5" style="fill:none;stroke-width:1px;stroke:rgb(38,50,56);"/>
<rect x="68" y="187" width="107" height="30" style="fill:rgb(246,246,246);"/>
<text x="169" y="202" dominant-baseline="central" text-anchor="end" style="fill:rgb(0,0,0);font-family:Arial;font-size:15px;">Output</text>
<rect x="18" y="222" width="157" height="41" style="fill:rgb(236,236,236);"/>
<text x="96" y="243" dominant-baseline="central" text-anchor="middle" style="fill:rgb(0,0,0);font-family:Arial;font-size:15px;">20.00</text>
<rect x="24" y="228" width="27" height="30" style="fill:rgb(217,217,217);"/>
<text x="37" y="243" dominant-baseline="central" text-anchor="middle" style="fill:rgb(0,0,0);font-family:Arial;font-size:15px;">&lt;</text>
<rect x="24" y="228" width="27" height="30" style="fill:none;stroke-width:1px;stroke:rgb(146,152,155);"/>
<rect x="142" y="228" width="27" height="30" style="fill:rgb(217,217,217);"/>
<text x="155" y="243" dominant-baseline="central" text-anchor="middle" style="fill:rgb(0,0,0);font-family:Arial;font-size:15px;">&gt;</text>
<rect x="142" y="228" width="27" height="30" style="fill:none;stroke-width:1px;stroke:rgb(146,152,155);"/>
<rect x="18" y="143" width="157" height="120" style="fill:none;stroke-width:1px;stroke:rgb(38,50,56);"/>
<rect x="235" y="355" width="176" height="39" style="fill:rgb(41,127,255);"/>
<text x="323" y="374" dominant-baseline="central" text-anchor="middle" style="fill:rgb(250,250,250);font-family:Arial;font-size:18px;">Range</text>
<rect x="235" y="394" width="176" height="111" style="fill:rgb(236,236,236);"/>
<ellipse cx="234" cy="414" rx="4" ry="5" style="fill:rgb(246,246,246);"/>
<ellipse cx="234" cy="414" rx="4" ry="5" style="fill:none;stroke-width:1px;stroke:rgb(38,50,56);"/>
<rect x="235" y="399" width="90" height="30" style="fill:rgb(246,246,246);"/>
<text x="240" y="414" dominant-baseline="central" text-anchor="start" style="fill:rgb(0,0,0);font-family:Arial;font-size:15px;">Start</text>
<ellipse cx="234" cy="449" rx="4" ry="4" style="fill:rgb(246,246,246);"/>
<ellipse cx="234" cy="449" rx="4" ry="4" style="fill:none;stroke-width:1px;stroke:rgb(38,50,56);"/>
<rect x="235" y="434" width="90" height="30" style="fill:rgb(246,246,246);"/>
<text x="240" y="449" dominant-baseline="central" text-anchor="start" style="fill:rgb(0,0,0);font-family:Arial;font-size:15px;">Step</text>
<ellipse cx="234" cy="484" rx="4" ry="4" style="fill:rgb(246,246,246);"/>
<ellipse cx="234" cy="484" rx="4" ry="4" style="fill:none;stroke-width:1px;stroke:rgb(38,50,56);"/>
<rect x="235" y="470" width="90" height="29" style="fill:rgb(246,246,246);"/>
<text x="240" y="484" dominant-baseline="central" text-anchor="start" style="fill:rgb(0,0,0);font-family:Arial;font-size:15px;">Count</text>
<ellipse cx="411" cy="414" rx="4" ry="5" style="fill:rgb(246,246,246);"/>
<ellipse cx="411" cy="414" rx="4" ry="5" style="fill:none;stroke-width:1px;stroke:rgb(38,50,56);"/>
<rect x="337" y="399" width="74" height="30" style="fill:rgb(246,246,246);"/>
<text x="406" y="414" dominant-baseline="central" text-anchor="end" style="fill:rgb(0,0,0);font-family:Arial;font-size:15px;">List</text>
<rect x="235" y="355" width="176" height="150" style="fill:none;stroke-width:1px;stroke:rgb(38,50,56);"/>
<rect x="559" y="30" width="208" height="38" style="fill:rgb(41,127,255);"/>
<text x="663" y="49" dominant-baseline="central" text-anchor="middle" style="fill:rgb(250,250,250);font-family:Arial;font-size:18px;">Viewer</text>
<rect x="559" y="68" width="208" height="41" style="fill:rgb(236,236,236);"/>
<ellipse cx="558" cy="88" rx="4" ry="4" style="fill:rgb(246,246,246);"/>
<ellipse cx="558" cy="88" rx="4" ry="4" style="fill:none;stroke-width:1px;stroke:rgb(38,50,56);"/>
<rect x="559" y="74" width="90" height="29" style="fill:rgb(246,246,246);"/>
<text x="564" y="89" dominant-baseline="central" text-anchor="start" style="fill:rgb(0,0,0);font-family:Arial;font-size:15px;">Input</text>
<ellipse cx="767" cy="88" rx="4" ry="4" style="fill:rgb(246,246,246);"/>
<ellipse cx="767" cy="88" rx="4" ry="4" style="fill:none;stroke-width:1px;stroke:rgb(38,50,56);"/>
<rect x="661" y="74" width="106" height="29" style="fill:rgb(246,246,246);"/>
<text x="762" y="89" dominant-baseline="central" text-anchor="end" style="fill:rgb(0,0,0);font-family:Arial;font-size:15px;">Output</text>
<rect x="559" y="109" width="208" height="41" style="fill:rgb(236,236,236);"/>
<text x="663" y="129" dominant-baseline="central" text-anchor="middle" style="fill:rgb(0,0,0);font-family:Arial;font-size:15px;">20.00</text>
<rect x="559" y="30" width="208" height="120" style="fill:none;stroke-width:1px;stroke:rgb(38,50,56);"/>
<rect x="545" y="290" width="236" height="39" style="fill:rgb(41,127,255);"/>
<text x="663" y="310" dominant-baseline="central" text-anchor="middle" style="fill:rgb(250,250,250);font-family:Arial;font-size:18px;">Viewer 2</text>
<rect x="545" y="329" width="236" height="41" style="fill:rgb(236,236,236);"/>
<ellipse cx="545" cy="349" rx="4" ry="4" style="fill:rgb(246,246,246);"/>
<ellipse cx="545" cy="349" rx="4" ry="4" style="fill:none;stroke-width:1px;stroke:rgb(38,50,56);"/>
<rect x="545" y="335" width="91" height="29" style="fill:rgb(246,246,246);"/>
<text x="551" y="349" dominant-baseline="central" text-anchor="start" style="fill:rgb(0,0,0);font-family:Arial;font-size:15px;">Input</text>
<ellipse cx="780" cy="349" rx="4" ry="4" style="fill:rgb(246,246,246);"/>
<ellipse cx="780" cy="349" rx="4" ry="4" style="fill:none;stroke-width:1px;stroke:rgb(38,50,56);"/>
<rect x="674" y="335" width="107" height="29" style="fill:rgb(246,246,246);"/>
<text x="775" y="349" dominant-baseline="central" text-anchor="end" style="fill:rgb(0,0,0);font-family:Arial;font-size:15px;">Output</text>
<rect x="545" y="370" width="236" height="158" style="fill:rgb(236,236,236);"/>
<text x="663" y="390" dominant-baseline="central" text-anchor="middle" style="fill:rgb(0,0,0);font-family:Arial;font-size:15px;">20.00</text>
<text x="663" y="420" dominant-baseline="central" text-anchor="middle" style="fill:rgb(0,0,0);font-family:Arial;font-size:15px;">40.00</text>
<text x="663" y="449" dominant-baseline="central" text-anchor="middle" style="fill:rgb(0,0,0);font-family:Arial;font-size:15px;">60.00</text>
<text x="663" y="479" dominant-baseline="central" text-anchor="middle" style="fill:rgb(0,0,0);font-family:Arial;font-size:15px;">80.00</text>
<text x="663" y="508" dominant-baseline="central" text-anchor="middle" style="fill:rgb(0,0,0);font-family:Arial;font-size:15px;">100.00</text>
<rect x="545" y="528" width="236" height="41" style="fill:rgb(236,236,236);"/>
<text x="663" y="549" dominant-baseline="central" text-anchor="middle" style="fill:rgb(0,0,0);font-family:Arial;font-size:15px;">1 / 2 (10)</text>
<rect x="551" y="534" width="27" height="30" style="fill:rgb(217,217,217);"/>
<text x="564" y="549" dominant-baseline="central" text-anchor="middle" style="fill:rgb(0,0,0);font-family:Arial;font-size:15px;">&lt;</text>
<rect x="551" y="534" width="27" height="30" style="fill:none;stroke-width:1px;stroke:rgb(146,152,155);"/>
<rect x="748" y="534" width="27" height="30" style="fill:rgb(217,217,217);"/>
<text x="762" y="549" dominant-baseline="central" text-anchor="middle" style="fill:rgb(0,0,0);font-family:Arial;font-size:15px;">&gt;</text>
<rect x="748" y="534" width="27" height="30" style="fill:none;stroke-width:1px;stroke:rgb(146,152,155);"/>
<rect x="545" y="290" width="236" height="279" style="fill:none;stroke-width:1px;stroke:rgb(38,50,56);"/>
</svg>
