<svg version="1.1" xmlns="http://www.w3.org/2000/svg" width="800" height="600" shape-rendering="crispEdges">
<rect x="0" y="0" width="800" height="600" style="fill:rgb(250,250,250);"/>
<path d="M219,239 C246,239 246,426 272,426" style="fill:none;stroke-width:3px;stroke:rgb(41,127,255);"/>
<rect x="78" y="184" width="144" height="112" style="fill:rgb(41,127,255);"/>
<rect x="81" y="187" width="138" height="34" style="fill:rgb(32,129,240);"/>
<text x="150" y="204" dominant-baseline="central" text-anchor="middle" style="fill:rgb(200,227,236);font-family:Arial;font-size:16px;">Number</text>
<rect x="81" y="221" width="138" height="36" style="fill:rgb(188,216,225);"/>
<rect x="125" y="226" width="94" height="26" style="fill:rgb(196,224,233);"/>
<text x="214" y="239" dominant-baseline="central" text-anchor="end" style="fill:rgb(0,27,36);font-family:Arial;font-size:14px;">Output</text>
<rect x="81" y="257" width="138" height="36" style="fill:rgb(188,216,225);"/>
<text x="150" y="275" dominant-baseline="central" text-anchor="middle" style="fill:rgb(0,27,36);font-family:Arial;font-size:14px;">20.00</text>
<rect x="86" y="262" width="24" height="26" style="fill:rgb(173,201,210);"/>
<text x="98" y="275" dominant-baseline="central" text-anchor="middle" style="fill:rgb(0,27,36);font-family:Arial;font-size:14px;">&lt;</text>
<rect x="86" y="262" width="24" height="26" style="fill:none;stroke-width:1px;stroke:rgb(116,149,160);"/>
<rect x="190" y="262" width="24" height="26" style="fill:rgb(173,201,210);"/>
<text x="202" y="275" dominant-baseline="central" text-anchor="middle" style="fill:rgb(0,27,36);font-family:Arial;font-size:14px;">&gt;</text>
<rect x="190" y="262" width="24" height="26" style="fill:none;stroke-width:1px;stroke:rgb(116,149,160);"/>
<rect x="81" y="187" width="138" height="106" style="fill:none;stroke-width:1px;stroke:rgb(30,67,81);"/>
<rect x="269" y="371" width="162" height="138" style="fill:rgb(41,127,255);"/>
<rect x="272" y="374" width="156" height="34" style="fill:rgb(32,129,240);"/>
<text x="350" y="391" dominant-baseline="central" text-anchor="middle" style="fill:rgb(200,227,236);font-family:Arial;font-size:16px;">Range</text>
<rect x="272" y="408" width="156" height="98" style="fill:rgb(188,216,225);"/>
<rect x="272" y="413" width="80" height="26" style="fill:rgb(196,224,233);"/>
<text x="277" y="426" dominant-baseline="central" text-anchor="start" style="fill:rgb(0,27,36);font-family:Arial;font-size:14px;">Start</text>
<rect x="272" y="444" width="80" height="26" style="fill:rgb(196,224,233);"/>
<text x="277" y="457" dominant-baseline="central" text-anchor="start" style="fill:rgb(0,27,36);font-family:Arial;font-size:14px;">Step</text>
<rect x="272" y="475" width="80" height="26" style="fill:rgb(196,224,233);"/>
<text x="277" y="488" dominant-baseline="central" text-anchor="start" style="fill:rgb(0,27,36);font-family:Arial;font-size:14px;">Count</text>
<rect x="362" y="413" width="66" height="26" style="fill:rgb(196,224,233);"/>
<text x="423" y="426" dominant-baseline="central" text-anchor="end" style="fill:rgb(0,27,36);font-family:Arial;font-size:14px;">List</text>
<rect x="272" y="374" width="156" height="132" style="fill:none;stroke-width:1px;stroke:rgb(30,67,81);"/>
<rect x="508" y="47" width="184" height="34" style="fill:rgb(199,80,80);"/>
<text x="600" y="64" dominant-baseline="central" text-anchor="middle" style="fill:rgb(250,250,250);font-family:Arial;font-size:16px;">Viewer</text>
<rect x="508" y="81" width="184" height="36" style="fill:rgb(236,236,236);"/>
<rect x="508" y="86" width="80" height="26" style="fill:rgb(246,246,246);"/>
<text x="513" y="99" dominant-baseline="central" text-anchor="start" style="fill:rgb(0,0,0);font-family:Arial;font-size:14px;">Input</text>
<rect x="598" y="86" width="94" height="26" style="fill:rgb(246,246,246);"/>
<text x="687" y="99" dominant-baseline="central" text-anchor="end" style="fill:rgb(0,0,0);font-family:Arial;font-size:14px;">Output</text>
<rect x="508" y="117" width="184" height="36" style="fill:rgb(236,236,236);"/>
<text x="600" y="135" dominant-baseline="central" text-anchor="middle" style="fill:rgb(0,0,0);font-family:Arial;font-size:14px;">&lt;empty&gt;</text>
<rect x="508" y="47" width="184" height="106" style="fill:none;stroke-width:1px;stroke:rgb(38,50,56);"/>
<rect x="508" y="347" width="184" height="34" style="fill:rgb(199,80,80);"/>
<text x="600" y="364" dominant-baseline="central" text-anchor="middle" style="fill:rgb(250,250,250);font-family:Arial;font-size:16px;">Viewer 2</text>
<rect x="508" y="381" width="184" height="36" style="fill:rgb(236,236,236);"/>
<rect x="508" y="386" width="80" height="26" style="fill:rgb(246,246,246);"/>
<text x="513" y="399" dominant-baseline="central" text-anchor="start" style="fill:rgb(0,0,0);font-family:Arial;font-size:14px;">Input</text>
<rect x="598" y="386" width="94" height="26" style="fill:rgb(246,246,246);"/>
<text x="687" y="399" dominant-baseline="central" text-anchor="end" style="fill:rgb(0,0,0);font-family:Arial;font-size:14px;">Output</text>
<rect x="508" y="417" width="184" height="36" style="fill:rgb(236,236,236);"/>
<text x="600" y="435" dominant-baseline="central" text-anchor="middle" style="fill:rgb(0,0,0);font-family:Arial;font-size:14px;">&lt;empty&gt;</text>
<rect x="508" y="347" width="184" height="106" style="fill:none;stroke-width:1px;stroke:rgb(38,50,56);"/>
</svg>
