<svg version="1.1" xmlns="http://www.w3.org/2000/svg" width="800" height="600" shape-rendering="crispEdges">
<rect x="0" y="0" width="800" height="600" style="fill:rgb(250,250,250);"/>
<rect x="31" y="97" width="138" height="34" style="fill:rgb(41,127,255);"/>
<text x="100" y="114" dominant-baseline="central" text-anchor="middle" style="fill:rgb(250,250,250);font-family:Arial;font-size:16px;">Number 1</text>
<rect x="31" y="131" width="138" height="36" style="fill:rgb(236,236,236);"/>
<rect x="75" y="136" width="94" height="26" style="fill:rgb(246,246,246);"/>
<text x="164" y="149" dominant-baseline="central" text-anchor="end" style="fill:rgb(0,0,0);font-family:Arial;font-size:14px;">Output</text>
<rect x="31" y="167" width="138" height="36" style="fill:rgb(236,236,236);"/>
<text x="100" y="185" dominant-baseline="central" text-anchor="middle" style="fill:rgb(0,0,0);font-family:Arial;font-size:14px;">0.00</text>
<rect x="36" y="172" width="24" height="26" style="fill:rgb(217,217,217);"/>
<text x="48" y="185" dominant-baseline="central" text-anchor="middle" style="fill:rgb(0,0,0);font-family:Arial;font-size:14px;">&lt;</text>
<rect x="36" y="172" width="24" height="26" style="fill:none;stroke-width:1px;stroke:rgb(146,152,155);"/>
<rect x="140" y="172" width="24" height="26" style="fill:rgb(217,217,217);"/>
<text x="152" y="185" dominant-baseline="central" text-anchor="middle" style="fill:rgb(0,0,0);font-family:Arial;font-size:14px;">&gt;</text>
<rect x="140" y="172" width="24" height="26" style="fill:none;stroke-width:1px;stroke:rgb(146,152,155);"/>
<rect x="31" y="97" width="138" height="106" style="fill:none;stroke-width:1px;stroke:rgb(38,50,56);"/>
<rect x="281" y="247" width="138" height="34" style="fill:rgb(41,127,255);"/>
<text x="350" y="264" dominant-baseline="central" text-anchor="middle" style="fill:rgb(250,250,250);font-family:Arial;font-size:16px;">Number 2</text>
<rect x="281" y="281" width="138" height="36" style="fill:rgb(236,236,236);"/>
<rect x="325" y="286" width="94" height="26" style="fill:rgb(246,246,246);"/>
<text x="414" y="299" dominant-baseline="central" text-anchor="end" style="fill:rgb(0,0,0);font-family:Arial;font-size:14px;">Output</text>
<rect x="281" y="317" width="138" height="36" style="fill:rgb(236,236,236);"/>
<text x="350" y="335" dominant-baseline="central" text-anchor="middle" style="fill:rgb(0,0,0);font-family:Arial;font-size:14px;">0.00</text>
<rect x="286" y="322" width="24" height="26" style="fill:rgb(217,217,217);"/>
<text x="298" y="335" dominant-baseline="central" text-anchor="middle" style="fill:rgb(0,0,0);font-family:Arial;font-size:14px;">&lt;</text>
<rect x="286" y="322" width="24" height="26" style="fill:none;stroke-width:1px;stroke:rgb(146,152,155);"/>
<rect x="390" y="322" width="24" height="26" style="fill:rgb(217,217,217);"/>
<text x="402" y="335" dominant-baseline="central" text-anchor="middle" style="fill:rgb(0,0,0);font-family:Arial;font-size:14px;">&gt;</text>
<rect x="390" y="322" width="24" height="26" style="fill:none;stroke-width:1px;stroke:rgb(146,152,155);"/>
<rect x="281" y="247" width="138" height="106" style="fill:none;stroke-width:1px;stroke:rgb(38,50,56);"/>
</svg>
