<svg version="1.1" xmlns="http://www.w3.org/2000/svg" width="800" height="600" shape-rendering="crispEdges">
<rect x="0" y="0" width="800" height="600" style="fill:rgb(250,250,250);"/>
<rect x="29" y="109" width="381" height="389" style="fill:rgb(160,200,240);"/>
<text x="41" y="133" dominant-baseline="central" text-anchor="start" style="fill:rgb(0,0,0);font-family:Arial;font-size:16px;">Group</text>
<path d="M179,209 C210,209 210,406 242,406" style="fill:none;stroke-width:1px;stroke:rgb(38,50,56);"/>
<path d="M179,209 C210,209 210,437 242,437" style="fill:none;stroke-width:1px;stroke:rgb(38,50,56);"/>
<path d="M179,209 C343,209 343,99 508,99" style="fill:none;stroke-width:1px;stroke:rgb(38,50,56);"/>
<path d="M398,406 C447,406 447,329 496,329" style="fill:none;stroke-width:1px;stroke:rgb(38,50,56);"/>
<rect x="41" y="157" width="138" height="34" style="fill:rgb(41,127,255);"/>
<text x="110" y="174" dominant-baseline="central" text-anchor="middle" style="fill:rgb(250,250,250);font-family:Arial;font-size:16px;">Number</text>
<rect x="41" y="191" width="138" height="36" style="fill:rgb(236,236,236);"/>
<rect x="85" y="196" width="94" height="26" style="fill:rgb(246,246,246);"/>
<text x="174" y="209" dominant-baseline="central" text-anchor="end" style="fill:rgb(0,0,0);font-family:Arial;font-size:14px;">Output</text>
<rect x="41" y="227" width="138" height="36" style="fill:rgb(236,236,236);"/>
<text x="110" y="245" dominant-baseline="central" text-anchor="middle" style="fill:rgb(0,0,0);font-family:Arial;font-size:14px;">20.00</text>
<rect x="46" y="232" width="24" height="26" style="fill:rgb(217,217,217);"/>
<text x="58" y="245" dominant-baseline="central" text-anchor="middle" style="fill:rgb(0,0,0);font-family:Arial;font-size:14px;">&lt;</text>
<rect x="46" y="232" width="24" height="26" style="fill:none;stroke-width:1px;stroke:rgb(146,152,155);"/>
<rect x="150" y="232" width="24" height="26" style="fill:rgb(217,217,217);"/>
<text x="162" y="245" dominant-baseline="central" text-anchor="middle" style="fill:rgb(0,0,0);font-family:Arial;font-size:14px;">&gt;</text>
<rect x="150" y="232" width="24" height="26" style="fill:none;stroke-width:1px;stroke:rgb(146,152,155);"/>
<rect x="41" y="157" width="138" height="106" style="fill:none;stroke-width:1px;stroke:rgb(38,50,56);"/>
<rect x="242" y="354" width="156" height="34" style="fill:rgb(41,127,255);"/>
<text x="320" y="371" dominant-baseline="central" text-anchor="middle" style="fill:rgb(250,250,250);font-family:Arial;font-size:16px;">Range</text>
<rect x="242" y="388" width="156" height="98" style="fill:rgb(236,236,236);"/>
<rect x="242" y="393" width="80" height="26" style="fill:rgb(246,246,246);"/>
<text x="247" y="406" dominant-baseline="central" text-anchor="start" style="fill:rgb(0,0,0);font-family:Arial;font-size:14px;">Start</text>
<rect x="242" y="424" width="80" height="26" style="fill:rgb(246,246,246);"/>
<text x="247" y="437" dominant-baseline="central" text-anchor="start" style="fill:rgb(0,0,0);font-family:Arial;font-size:14px;">Step</text>
<rect x="242" y="455" width="80" height="26" style="fill:rgb(246,246,246);"/>
<text x="247" y="468" dominant-baseline="central" text-anchor="start" style="fill:rgb(0,0,0);font-family:Arial;font-size:14px;">Count</text>
<rect x="332" y="393" width="66" height="26" style="fill:rgb(246,246,246);"/>
<text x="393" y="406" dominant-baseline="central" text-anchor="end" style="fill:rgb(0,0,0);font-family:Arial;font-size:14px;">List</text>
<rect x="242" y="354" width="156" height="132" style="fill:none;stroke-width:1px;stroke:rgb(38,50,56);"/>
<rect x="508" y="47" width="184" height="34" style="fill:rgb(41,127,255);"/>
<text x="600" y="64" dominant-baseline="central" text-anchor="middle" style="fill:rgb(250,250,250);font-family:Arial;font-size:16px;">Viewer</text>
<rect x="508" y="81" width="184" height="36" style="fill:rgb(236,236,236);"/>
<rect x="508" y="86" width="80" height="26" style="fill:rgb(246,246,246);"/>
<text x="513" y="99" dominant-baseline="central" text-anchor="start" style="fill:rgb(0,0,0);font-family:Arial;font-size:14px;">Input</text>
<rect x="598" y="86" width="94" height="26" style="fill:rgb(246,246,246);"/>
<text x="687" y="99" dominant-baseline="central" text-anchor="end" style="fill:rgb(0,0,0);font-family:Arial;font-size:14px;">Output</text>
<rect x="508" y="117" width="184" height="36" style="fill:rgb(236,236,236);"/>
<text x="600" y="135" dominant-baseline="central" text-anchor="middle" style="fill:rgb(0,0,0);font-family:Arial;font-size:14px;">20.00</text>
<rect x="508" y="47" width="184" height="106" style="fill:none;stroke-width:1px;stroke:rgb(38,50,56);"/>
<rect x="496" y="277" width="208" height="34" style="fill:rgb(41,127,255);"/>
<text x="600" y="294" dominant-baseline="central" text-anchor="middle" style="fill:rgb(250,250,250);font-family:Arial;font-size:16px;">Viewer 2</text>
<rect x="496" y="311" width="208" height="36" style="fill:rgb(236,236,236);"/>
<rect x="496" y="316" width="80" height="26" style="fill:rgb(246,246,246);"/>
<text x="501" y="329" dominant-baseline="central" text-anchor="start" style="fill:rgb(0,0,0);font-family:Arial;font-size:14px;">Input</text>
<rect x="610" y="316" width="94" height="26" style="fill:rgb(246,246,246);"/>
<text x="699" y="329" dominant-baseline="central" text-anchor="end" style="fill:rgb(0,0,0);font-family:Arial;font-size:14px;">Output</text>
<rect x="496" y="347" width="208" height="140" style="fill:rgb(236,236,236);"/>
<text x="600" y="365" dominant-baseline="central" text-anchor="middle" style="fill:rgb(0,0,0);font-family:Arial;font-size:14px;">20.00</text>
<text x="600" y="391" dominant-baseline="central" text-anchor="middle" style="fill:rgb(0,0,0);font-family:Arial;font-size:14px;">40.00</text>
<text x="600" y="417" dominant-baseline="central" text-anchor="middle" style="fill:rgb(0,0,0);font-family:Arial;font-size:14px;">60.00</text>
<text x="600" y="443" dominant-baseline="central" text-anchor="middle" style="fill:rgb(0,0,0);font-family:Arial;font-size:14px;">80.00</text>
<text x="600" y="469" dominant-baseline="central" text-anchor="middle" style="fill:rgb(0,0,0);font-family:Arial;font-size:14px;">100.00</text>
<rect x="496" y="487" width="208" height="36" style="fill:rgb(236,236,236);"/>
<text x="600" y="505" dominant-baseline="central" text-anchor="middle" style="fill:rgb(0,0,0);font-family:Arial;font-size:14px;">1 / 2 (10)</text>
<rect x="501" y="492" width="24" height="26" style="fill:rgb(217,217,217);"/>
<text x="513" y="505" dominant-baseline="central" text-anchor="middle" style="fill:rgb(0,0,0);font-family:Arial;font-size:14px;">&lt;</text>
<rect x="501" y="492" width="24" height="26" style="fill:none;stroke-width:1px;stroke:rgb(146,152,155);"/>
<rect x="675" y="492" width="24" height="26" style="fill:rgb(217,217,217);"/>
<text x="687" y="505" dominant-baseline="central" text-anchor="middle" style="fill:rgb(0,0,0);font-family:Arial;font-size:14px;">&gt;</text>
<rect x="675" y="492" width="24" height="26" style="fill:none;stroke-width:1px;stroke:rgb(146,152,155);"/>
<rect x="496" y="277" width="208" height="246" style="fill:none;stroke-width:1px;stroke:rgb(38,50,56);"/>
</svg>
