<svg version="1.1" xmlns="http://www.w3.org/2000/svg" width="800" height="600" shape-rendering="crispEdges">
<rect x="0" y="0" width="800" height="600" style="fill:rgb(250,250,250);"/>
<path d="M187,67 C230,67 230,368 272,368" style="fill:none;stroke-width:2px;stroke:rgb(38,50,56);"/>
<path d="M524,368 C619,368 619,276 714,276" style="fill:none;stroke-width:2px;stroke:rgb(38,50,56);"/>
<rect x="-36" y="-18" width="223" height="55" style="fill:rgb(41,127,255);"/>
<text x="75" y="10" dominant-baseline="central" text-anchor="middle" style="fill:rgb(250,250,250);font-family:Arial;font-size:26px;">Number</text>
<rect x="-36" y="37" width="223" height="58" style="fill:rgb(236,236,236);"/>
<rect x="35" y="45" width="152" height="42" style="fill:rgb(246,246,246);"/>
<text x="178" y="66" dominant-baseline="central" text-anchor="end" style="fill:rgb(0,0,0);font-family:Arial;font-size:23px;">Output</text>
<rect x="-36" y="95" width="223" height="58" style="fill:rgb(236,236,236);"/>
<text x="75" y="124" dominant-baseline="central" text-anchor="middle" style="fill:rgb(0,0,0);font-family:Arial;font-size:23px;">20.00</text>
<rect x="-28" y="103" width="39" height="42" style="fill:rgb(217,217,217);"/>
<text x="-9" y="124" dominant-baseline="central" text-anchor="middle" style="fill:rgb(0,0,0);font-family:Arial;font-size:23px;">&lt;</text>
<rect x="-28" y="103" width="39" height="42" style="fill:none;stroke-width:2px;stroke:rgb(146,152,155);"/>
<rect x="139" y="103" width="39" height="42" style="fill:rgb(217,217,217);"/>
<text x="159" y="124" dominant-baseline="central" text-anchor="middle" style="fill:rgb(0,0,0);font-family:Arial;font-size:23px;">&gt;</text>
<rect x="139" y="103" width="39" height="42" style="fill:none;stroke-width:2px;stroke:rgb(146,152,155);"/>
<rect x="-36" y="-18" width="223" height="171" style="fill:none;stroke-width:2px;stroke:rgb(38,50,56);"/>
<rect x="271" y="284" width="252" height="55" style="fill:rgb(41,127,255);"/>
<text x="397" y="311" dominant-baseline="central" text-anchor="middle" style="fill:rgb(250,250,250);font-family:Arial;font-size:26px;">Range</text>
<rect x="271" y="338" width="252" height="158" style="fill:rgb(236,236,236);"/>
<rect x="271" y="346" width="129" height="42" style="fill:rgb(246,246,246);"/>
<text x="280" y="367" dominant-baseline="central" text-anchor="start" style="fill:rgb(0,0,0);font-family:Arial;font-size:23px;">Start</text>
<rect x="271" y="396" width="129" height="42" style="fill:rgb(246,246,246);"/>
<text x="280" y="417" dominant-baseline="central" text-anchor="start" style="fill:rgb(0,0,0);font-family:Arial;font-size:23px;">Step</text>
<rect x="271" y="446" width="129" height="42" style="fill:rgb(246,246,246);"/>
<text x="280" y="467" dominant-baseline="central" text-anchor="start" style="fill:rgb(0,0,0);font-family:Arial;font-size:23px;">Count</text>
<rect x="416" y="346" width="107" height="42" style="fill:rgb(246,246,246);"/>
<text x="515" y="367" dominant-baseline="central" text-anchor="end" style="fill:rgb(0,0,0);font-family:Arial;font-size:23px;">List</text>
<rect x="271" y="284" width="252" height="213" style="fill:none;stroke-width:2px;stroke:rgb(38,50,56);"/>
<rect x="713" y="192" width="335" height="55" style="fill:rgb(41,127,255);"/>
<text x="880" y="219" dominant-baseline="central" text-anchor="middle" style="fill:rgb(250,250,250);font-family:Arial;font-size:26px;">Viewer 2</text>
<rect x="713" y="246" width="335" height="58" style="fill:rgb(236,236,236);"/>
<rect x="713" y="255" width="129" height="42" style="fill:rgb(246,246,246);"/>
<text x="721" y="275" dominant-baseline="central" text-anchor="start" style="fill:rgb(0,0,0);font-family:Arial;font-size:23px;">Input</text>
<rect x="896" y="255" width="152" height="42" style="fill:rgb(246,246,246);"/>
<text x="1040" y="275" dominant-baseline="central" text-anchor="end" style="fill:rgb(0,0,0);font-family:Arial;font-size:23px;">Output</text>
<rect x="713" y="304" width="335" height="226" style="fill:rgb(236,236,236);"/>
<text x="880" y="333" dominant-baseline="central" text-anchor="middle" style="fill:rgb(0,0,0);font-family:Arial;font-size:23px;">20.00</text>
<text x="880" y="375" dominant-baseline="central" text-anchor="middle" style="fill:rgb(0,0,0);font-family:Arial;font-size:23px;">21.00</text>
<text x="880" y="417" dominant-baseline="central" text-anchor="middle" style="fill:rgb(0,0,0);font-family:Arial;font-size:23px;">22.00</text>
<text x="880" y="459" dominant-baseline="central" text-anchor="middle" style="fill:rgb(0,0,0);font-family:Arial;font-size:23px;">23.00</text>
<text x="880" y="501" dominant-baseline="central" text-anchor="middle" style="fill:rgb(0,0,0);font-family:Arial;font-size:23px;">24.00</text>
<rect x="713" y="530" width="335" height="58" style="fill:rgb(236,236,236);"/>
<text x="880" y="559" dominant-baseline="central" text-anchor="middle" style="fill:rgb(0,0,0);font-family:Arial;font-size:23px;">1 / 2 (10)</text>
<rect x="721" y="538" width="39" height="42" style="fill:rgb(217,217,217);"/>
<text x="740" y="559" dominant-baseline="central" text-anchor="middle" style="fill:rgb(0,0,0);font-family:Arial;font-size:23px;">&lt;</text>
<rect x="721" y="538" width="39" height="42" style="fill:none;stroke-width:2px;stroke:rgb(146,152,155);"/>
<rect x="1001" y="538" width="39" height="42" style="fill:rgb(217,217,217);"/>
<text x="1020" y="559" dominant-baseline="central" text-anchor="middle" style="fill:rgb(0,0,0);font-family:Arial;font-size:23px;">&gt;</text>
<rect x="1001" y="538" width="39" height="42" style="fill:none;stroke-width:2px;stroke:rgb(146,152,155);"/>
<rect x="713" y="192" width="335" height="397" style="fill:none;stroke-width:2px;stroke:rgb(38,50,56);"/>
</svg>
