<svg version="1.1" xmlns="http://www.w3.org/2000/svg" width="800" height="600" shape-rendering="crispEdges">
<rect x="0" y="0" width="800" height="600" style="fill:rgb(250,250,250);"/>
<path d="M219,149 C245,149 245,336 272,336" style="fill:none;stroke-width:1px;stroke:rgb(38,50,56);"/>
<path d="M428,336 C487,336 487,279 546,279" style="fill:none;stroke-width:1px;stroke:rgb(38,50,56);"/>
<rect x="81" y="97" width="138" height="34" style="fill:rgb(41,127,255);"/>
<text x="150" y="114" dominant-baseline="central" text-anchor="middle" style="fill:rgb(250,250,250);font-family:Arial;font-size:16px;">Number</text>
<rect x="81" y="131" width="138" height="36" style="fill:rgb(236,236,236);"/>
<rect x="125" y="136" width="94" height="26" style="fill:rgb(246,246,246);"/>
<text x="214" y="149" dominant-baseline="central" text-anchor="end" style="fill:rgb(0,0,0);font-family:Arial;font-size:14px;">Output</text>
<rect x="81" y="167" width="138" height="36" style="fill:rgb(236,236,236);"/>
<text x="150" y="185" dominant-baseline="central" text-anchor="middle" style="fill:rgb(0,0,0);font-family:Arial;font-size:14px;">20.00</text>
<rect x="86" y="172" width="24" height="26" style="fill:rgb(217,217,217);"/>
<text x="98" y="185" dominant-baseline="central" text-anchor="middle" style="fill:rgb(0,0,0);font-family:Arial;font-size:14px;">&lt;</text>
<rect x="86" y="172" width="24" height="26" style="fill:none;stroke-width:1px;stroke:rgb(146,152,155);"/>
<rect x="190" y="172" width="24" height="26" style="fill:rgb(217,217,217);"/>
<text x="202" y="185" dominant-baseline="central" text-anchor="middle" style="fill:rgb(0,0,0);font-family:Arial;font-size:14px;">&gt;</text>
<rect x="190" y="172" width="24" height="26" style="fill:none;stroke-width:1px;stroke:rgb(146,152,155);"/>
<rect x="81" y="97" width="138" height="106" style="fill:none;stroke-width:1px;stroke:rgb(38,50,56);"/>
<rect x="272" y="284" width="156" height="34" style="fill:rgb(41,127,255);"/>
<text x="350" y="301" dominant-baseline="central" text-anchor="middle" style="fill:rgb(250,250,250);font-family:Arial;font-size:16px;">Range</text>
<rect x="272" y="318" width="156" height="98" style="fill:rgb(236,236,236);"/>
<rect x="272" y="323" width="80" height="26" style="fill:rgb(246,246,246);"/>
<text x="277" y="336" dominant-baseline="central" text-anchor="start" style="fill:rgb(0,0,0);font-family:Arial;font-size:14px;">Start</text>
<rect x="272" y="354" width="80" height="26" style="fill:rgb(246,246,246);"/>
<text x="277" y="367" dominant-baseline="central" text-anchor="start" style="fill:rgb(0,0,0);font-family:Arial;font-size:14px;">Step</text>
<rect x="272" y="385" width="80" height="26" style="fill:rgb(246,246,246);"/>
<text x="277" y="398" dominant-baseline="central" text-anchor="start" style="fill:rgb(0,0,0);font-family:Arial;font-size:14px;">Count</text>
<rect x="362" y="323" width="66" height="26" style="fill:rgb(246,246,246);"/>
<text x="423" y="336" dominant-baseline="central" text-anchor="end" style="fill:rgb(0,0,0);font-family:Arial;font-size:14px;">List</text>
<rect x="272" y="284" width="156" height="132" style="fill:none;stroke-width:1px;stroke:rgb(38,50,56);"/>
<rect x="558" y="-3" width="184" height="34" style="fill:rgb(199,80,80);"/>
<text x="650" y="14" dominant-baseline="central" text-anchor="middle" style="fill:rgb(250,250,250);font-family:Arial;font-size:16px;">Viewer</text>
<rect x="558" y="31" width="184" height="36" style="fill:rgb(236,236,236);"/>
<rect x="558" y="36" width="80" height="26" style="fill:rgb(246,246,246);"/>
<text x="563" y="49" dominant-baseline="central" text-anchor="start" style="fill:rgb(0,0,0);font-family:Arial;font-size:14px;">Input</text>
<rect x="648" y="36" width="94" height="26" style="fill:rgb(246,246,246);"/>
<text x="737" y="49" dominant-baseline="central" text-anchor="end" style="fill:rgb(0,0,0);font-family:Arial;font-size:14px;">Output</text>
<rect x="558" y="67" width="184" height="36" style="fill:rgb(236,236,236);"/>
<text x="650" y="85" dominant-baseline="central" text-anchor="middle" style="fill:rgb(0,0,0);font-family:Arial;font-size:14px;">&lt;empty&gt;</text>
<rect x="558" y="-3" width="184" height="106" style="fill:none;stroke-width:1px;stroke:rgb(38,50,56);"/>
<rect x="546" y="227" width="208" height="34" style="fill:rgb(41,127,255);"/>
<text x="650" y="244" dominant-baseline="central" text-anchor="middle" style="fill:rgb(250,250,250);font-family:Arial;font-size:16px;">Viewer 2</text>
<rect x="546" y="261" width="208" height="36" style="fill:rgb(236,236,236);"/>
<rect x="546" y="266" width="80" height="26" style="fill:rgb(246,246,246);"/>
<text x="551" y="279" dominant-baseline="central" text-anchor="start" style="fill:rgb(0,0,0);font-family:Arial;font-size:14px;">Input</text>
<rect x="660" y="266" width="94" height="26" style="fill:rgb(246,246,246);"/>
<text x="749" y="279" dominant-baseline="central" text-anchor="end" style="fill:rgb(0,0,0);font-family:Arial;font-size:14px;">Output</text>
<rect x="546" y="297" width="208" height="140" style="fill:rgb(236,236,236);"/>
<text x="650" y="315" dominant-baseline="central" text-anchor="middle" style="fill:rgb(0,0,0);font-family:Arial;font-size:14px;">20.00</text>
<text x="650" y="341" dominant-baseline="central" text-anchor="middle" style="fill:rgb(0,0,0);font-family:Arial;font-size:14px;">21.00</text>
<text x="650" y="367" dominant-baseline="central" text-anchor="middle" style="fill:rgb(0,0,0);font-family:Arial;font-size:14px;">22.00</text>
<text x="650" y="393" dominant-baseline="central" text-anchor="middle" style="fill:rgb(0,0,0);font-family:Arial;font-size:14px;">23.00</text>
<text x="650" y="419" dominant-baseline="central" text-anchor="middle" style="fill:rgb(0,0,0);font-family:Arial;font-size:14px;">24.00</text>
<rect x="546" y="437" width="208" height="36" style="fill:rgb(236,236,236);"/>
<text x="650" y="455" dominant-baseline="central" text-anchor="middle" style="fill:rgb(0,0,0);font-family:Arial;font-size:14px;">1 / 2 (10)</text>
<rect x="551" y="442" width="24" height="26" style="fill:rgb(217,217,217);"/>
<text x="563" y="455" dominant-baseline="central" text-anchor="middle" style="fill:rgb(0,0,0);font-family:Arial;font-size:14px;">&lt;</text>
<rect x="551" y="442" width="24" height="26" style="fill:none;stroke-width:1px;stroke:rgb(146,152,155);"/>
<rect x="725" y="442" width="24" height="26" style="fill:rgb(217,217,217);"/>
<text x="737" y="455" dominant-baseline="central" text-anchor="middle" style="fill:rgb(0,0,0);font-family:Arial;font-size:14px;">&gt;</text>
<rect x="725" y="442" width="24" height="26" style="fill:none;stroke-width:1px;stroke:rgb(146,152,155);"/>
<rect x="546" y="227" width="208" height="246" style="fill:none;stroke-width:1px;stroke:rgb(38,50,56);"/>
</svg>
