<svg version="1.1" xmlns="http://www.w3.org/2000/svg" width="800" height="600" shape-rendering="crispEdges">
<rect x="0" y="0" width="800" height="600" style="fill:rgb(240,240,240);"/>
<path d="M257,256 C260,256 260,289 263,289" style="fill:none;stroke-width:1px;stroke:rgb(0,0,0);"/>
<path d="M294,289 C303,289 303,278 311,278" style="fill:none;stroke-width:1px;stroke:rgb(0,0,0);"/>
<rect x="229" y="246" width="27" height="7" style="fill:rgb(100,100,100);"/>
<rect x="229" y="252" width="27" height="7" style="fill:rgb(200,200,200);"/>
<rect x="237" y="253" width="19" height="6" style="fill:rgb(225,225,225);"/>
<rect x="229" y="259" width="27" height="7" style="fill:rgb(200,200,200);"/>
<rect x="230" y="260" width="5" height="6" style="fill:rgb(150,175,200);"/>
<rect x="230" y="260" width="5" height="6" style="fill:none;stroke-width:1px;stroke:rgb(50,75,100);"/>
<rect x="250" y="260" width="5" height="6" style="fill:rgb(150,175,200);"/>
<rect x="250" y="260" width="5" height="6" style="fill:none;stroke-width:1px;stroke:rgb(50,75,100);"/>
<rect x="229" y="246" width="27" height="20" style="fill:none;stroke-width:1px;stroke:rgb(0,0,0);"/>
<rect x="262" y="279" width="31" height="7" style="fill:rgb(100,100,100);"/>
<rect x="262" y="285" width="31" height="19" style="fill:rgb(200,200,200);"/>
<rect x="262" y="285" width="16" height="6" style="fill:rgb(225,225,225);"/>
<rect x="262" y="292" width="16" height="6" style="fill:rgb(225,225,225);"/>
<rect x="262" y="298" width="16" height="6" style="fill:rgb(225,225,225);"/>
<rect x="280" y="285" width="14" height="6" style="fill:rgb(225,225,225);"/>
<rect x="262" y="279" width="31" height="25" style="fill:none;stroke-width:1px;stroke:rgb(0,0,0);"/>
<rect x="313" y="228" width="37" height="7" style="fill:rgb(225,0,0);"/>
<rect x="313" y="234" width="37" height="7" style="fill:rgb(200,200,200);"/>
<rect x="313" y="235" width="16" height="6" style="fill:rgb(225,225,225);"/>
<rect x="330" y="235" width="19" height="6" style="fill:rgb(225,225,225);"/>
<rect x="313" y="241" width="37" height="7" style="fill:rgb(255,255,100);"/>
<rect x="313" y="228" width="37" height="20" style="fill:none;stroke-width:1px;stroke:rgb(0,0,0);"/>
<rect x="310" y="267" width="42" height="7" style="fill:rgb(100,100,100);"/>
<rect x="310" y="273" width="42" height="7" style="fill:rgb(200,200,200);"/>
<rect x="310" y="274" width="16" height="6" style="fill:rgb(225,225,225);"/>
<rect x="333" y="274" width="19" height="6" style="fill:rgb(225,225,225);"/>
<rect x="310" y="280" width="42" height="28" style="fill:rgb(255,255,100);"/>
<rect x="310" y="308" width="42" height="7" style="fill:rgb(200,200,200);"/>
<rect x="311" y="309" width="5" height="6" style="fill:rgb(150,175,200);"/>
<rect x="311" y="309" width="5" height="6" style="fill:none;stroke-width:1px;stroke:rgb(50,75,100);"/>
<rect x="346" y="309" width="5" height="6" style="fill:rgb(150,175,200);"/>
<rect x="346" y="309" width="5" height="6" style="fill:none;stroke-width:1px;stroke:rgb(50,75,100);"/>
<rect x="310" y="267" width="42" height="48" style="fill:none;stroke-width:1px;stroke:rgb(0,0,0);"/>
</svg>
