<svg version="1.1" xmlns="http://www.w3.org/2000/svg" width="800" height="600" shape-rendering="crispEdges">
<rect x="0" y="0" width="800" height="600" style="fill:rgb(250,250,250);"/>
<path d="M246,216 C259,216 259,311 272,311" style="fill:none;stroke-width:1px;stroke:rgb(38,50,56);"/>
<path d="M352,311 C382,311 382,282 412,282" style="fill:none;stroke-width:1px;stroke:rgb(38,50,56);"/>
<rect x="174" y="189" width="71" height="18" style="fill:rgb(41,127,255);"/>
<text x="210" y="197" dominant-baseline="central" text-anchor="middle" style="fill:rgb(250,250,250);font-family:Arial;font-size:9px;">Number</text>
<rect x="174" y="206" width="71" height="19" style="fill:rgb(236,236,236);"/>
<rect x="197" y="208" width="48" height="14" style="fill:rgb(246,246,246);"/>
<text x="242" y="215" dominant-baseline="central" text-anchor="end" style="fill:rgb(0,0,0);font-family:Arial;font-size:8px;">Output</text>
<rect x="174" y="224" width="71" height="19" style="fill:rgb(236,236,236);"/>
<text x="210" y="233" dominant-baseline="central" text-anchor="middle" style="fill:rgb(0,0,0);font-family:Arial;font-size:8px;">20.00</text>
<rect x="177" y="227" width="13" height="14" style="fill:rgb(217,217,217);"/>
<text x="183" y="233" dominant-baseline="central" text-anchor="middle" style="fill:rgb(0,0,0);font-family:Arial;font-size:8px;">&lt;</text>
<rect x="177" y="227" width="13" height="14" style="fill:none;stroke-width:1px;stroke:rgb(146,152,155);"/>
<rect x="230" y="227" width="13" height="14" style="fill:rgb(217,217,217);"/>
<text x="236" y="233" dominant-baseline="central" text-anchor="middle" style="fill:rgb(0,0,0);font-family:Arial;font-size:8px;">&gt;</text>
<rect x="230" y="227" width="13" height="14" style="fill:none;stroke-width:1px;stroke:rgb(146,152,155);"/>
<rect x="174" y="189" width="71" height="54" style="fill:none;stroke-width:1px;stroke:rgb(38,50,56);"/>
<rect x="271" y="284" width="80" height="18" style="fill:rgb(41,127,255);"/>
<text x="311" y="292" dominant-baseline="central" text-anchor="middle" style="fill:rgb(250,250,250);font-family:Arial;font-size:9px;">Range</text>
<rect x="271" y="301" width="80" height="50" style="fill:rgb(236,236,236);"/>
<rect x="271" y="303" width="41" height="14" style="fill:rgb(246,246,246);"/>
<text x="274" y="310" dominant-baseline="central" text-anchor="start" style="fill:rgb(0,0,0);font-family:Arial;font-size:8px;">Start</text>
<rect x="271" y="319" width="41" height="14" style="fill:rgb(246,246,246);"/>
<text x="274" y="326" dominant-baseline="central" text-anchor="start" style="fill:rgb(0,0,0);font-family:Arial;font-size:8px;">Step</text>
<rect x="271" y="335" width="41" height="14" style="fill:rgb(246,246,246);"/>
<text x="274" y="341" dominant-baseline="central" text-anchor="start" style="fill:rgb(0,0,0);font-family:Arial;font-size:8px;">Count</text>
<rect x="317" y="303" width="34" height="14" style="fill:rgb(246,246,246);"/>
<text x="348" y="310" dominant-baseline="central" text-anchor="end" style="fill:rgb(0,0,0);font-family:Arial;font-size:8px;">List</text>
<rect x="271" y="284" width="80" height="68" style="fill:none;stroke-width:1px;stroke:rgb(38,50,56);"/>
<rect x="417" y="138" width="94" height="18" style="fill:rgb(199,80,80);"/>
<text x="463" y="146" dominant-baseline="central" text-anchor="middle" style="fill:rgb(250,250,250);font-family:Arial;font-size:9px;">Viewer</text>
<rect x="417" y="155" width="94" height="19" style="fill:rgb(236,236,236);"/>
<rect x="417" y="158" width="41" height="14" style="fill:rgb(246,246,246);"/>
<text x="419" y="164" dominant-baseline="central" text-anchor="start" style="fill:rgb(0,0,0);font-family:Arial;font-size:8px;">Input</text>
<rect x="462" y="158" width="48" height="14" style="fill:rgb(246,246,246);"/>
<text x="508" y="164" dominant-baseline="central" text-anchor="end" style="fill:rgb(0,0,0);font-family:Arial;font-size:8px;">Output</text>
<rect x="417" y="173" width="94" height="19" style="fill:rgb(236,236,236);"/>
<text x="463" y="182" dominant-baseline="central" text-anchor="middle" style="fill:rgb(0,0,0);font-family:Arial;font-size:8px;">&lt;empty&gt;</text>
<rect x="417" y="138" width="94" height="54" style="fill:none;stroke-width:1px;stroke:rgb(38,50,56);"/>
<rect x="411" y="255" width="106" height="18" style="fill:rgb(41,127,255);"/>
<text x="463" y="263" dominant-baseline="central" text-anchor="middle" style="fill:rgb(250,250,250);font-family:Arial;font-size:9px;">Viewer 2</text>
<rect x="411" y="272" width="106" height="19" style="fill:rgb(236,236,236);"/>
<rect x="411" y="274" width="41" height="14" style="fill:rgb(246,246,246);"/>
<text x="413" y="281" dominant-baseline="central" text-anchor="start" style="fill:rgb(0,0,0);font-family:Arial;font-size:8px;">Input</text>
<rect x="469" y="274" width="48" height="14" style="fill:rgb(246,246,246);"/>
<text x="514" y="281" dominant-baseline="central" text-anchor="end" style="fill:rgb(0,0,0);font-family:Arial;font-size:8px;">Output</text>
<rect x="411" y="290" width="106" height="72" style="fill:rgb(236,236,236);"/>
<text x="463" y="299" dominant-baseline="central" text-anchor="middle" style="fill:rgb(0,0,0);font-family:Arial;font-size:8px;">20.00</text>
<text x="463" y="312" dominant-baseline="central" text-anchor="middle" style="fill:rgb(0,0,0);font-family:Arial;font-size:8px;">21.00</text>
<text x="463" y="326" dominant-baseline="central" text-anchor="middle" style="fill:rgb(0,0,0);font-family:Arial;font-size:8px;">22.00</text>
<text x="463" y="339" dominant-baseline="central" text-anchor="middle" style="fill:rgb(0,0,0);font-family:Arial;font-size:8px;">23.00</text>
<text x="463" y="352" dominant-baseline="central" text-anchor="middle" style="fill:rgb(0,0,0);font-family:Arial;font-size:8px;">24.00</text>
<rect x="411" y="361" width="106" height="19" style="fill:rgb(236,236,236);"/>
<text x="463" y="370" dominant-baseline="central" text-anchor="middle" style="fill:rgb(0,0,0);font-family:Arial;font-size:8px;">1 / 2 (10)</text>
<rect x="413" y="364" width="13" height="14" style="fill:rgb(217,217,217);"/>
<text x="419" y="370" dominant-baseline="central" text-anchor="middle" style="fill:rgb(0,0,0);font-family:Arial;font-size:8px;">&lt;</text>
<rect x="413" y="364" width="13" height="14" style="fill:none;stroke-width:1px;stroke:rgb(146,152,155);"/>
<rect x="502" y="364" width="13" height="14" style="fill:rgb(217,217,217);"/>
<text x="508" y="370" dominant-baseline="central" text-anchor="middle" style="fill:rgb(0,0,0);font-family:Arial;font-size:8px;">&gt;</text>
<rect x="502" y="364" width="13" height="14" style="fill:none;stroke-width:1px;stroke:rgb(146,152,155);"/>
<rect x="411" y="255" width="106" height="125" style="fill:none;stroke-width:1px;stroke:rgb(38,50,56);"/>
</svg>
