<svg version="1.1" xmlns="http://www.w3.org/2000/svg" width="800" height="600" shape-rendering="crispEdges">
<rect x="0" y="0" width="800" height="600" style="fill:rgb(250,250,250);"/>
<path d="M263,261 C268,261 268,294 272,294" style="fill:none;stroke-width:1px;stroke:rgb(38,50,56);"/>
<path d="M300,294 C311,294 311,284 321,284" style="fill:none;stroke-width:1px;stroke:rgb(38,50,56);"/>
<rect x="238" y="250" width="25" height="7" style="fill:rgb(41,127,255);"/>
<rect x="238" y="256" width="25" height="7" style="fill:rgb(236,236,236);"/>
<rect x="245" y="257" width="17" height="5" style="fill:rgb(246,246,246);"/>
<rect x="238" y="263" width="25" height="7" style="fill:rgb(236,236,236);"/>
<rect x="239" y="264" width="5" height="5" style="fill:rgb(217,217,217);"/>
<rect x="239" y="264" width="5" height="5" style="fill:none;stroke-width:1px;stroke:rgb(146,152,155);"/>
<rect x="257" y="264" width="5" height="5" style="fill:rgb(217,217,217);"/>
<rect x="257" y="264" width="5" height="5" style="fill:none;stroke-width:1px;stroke:rgb(146,152,155);"/>
<rect x="238" y="250" width="25" height="19" style="fill:none;stroke-width:1px;stroke:rgb(38,50,56);"/>
<rect x="271" y="284" width="28" height="7" style="fill:rgb(41,127,255);"/>
<rect x="271" y="290" width="28" height="18" style="fill:rgb(236,236,236);"/>
<rect x="271" y="290" width="15" height="5" style="fill:rgb(246,246,246);"/>
<rect x="271" y="296" width="15" height="5" style="fill:rgb(246,246,246);"/>
<rect x="271" y="301" width="15" height="5" style="fill:rgb(246,246,246);"/>
<rect x="287" y="290" width="12" height="5" style="fill:rgb(246,246,246);"/>
<rect x="271" y="284" width="28" height="24" style="fill:none;stroke-width:1px;stroke:rgb(38,50,56);"/>
<rect x="322" y="233" width="33" height="7" style="fill:rgb(199,80,80);"/>
<rect x="322" y="239" width="33" height="7" style="fill:rgb(236,236,236);"/>
<rect x="322" y="240" width="15" height="5" style="fill:rgb(246,246,246);"/>
<rect x="338" y="240" width="17" height="5" style="fill:rgb(246,246,246);"/>
<rect x="322" y="245" width="33" height="7" style="fill:rgb(236,236,236);"/>
<rect x="322" y="233" width="33" height="19" style="fill:none;stroke-width:1px;stroke:rgb(38,50,56);"/>
<rect x="320" y="273" width="37" height="7" style="fill:rgb(41,127,255);"/>
<rect x="320" y="279" width="37" height="7" style="fill:rgb(236,236,236);"/>
<rect x="320" y="280" width="15" height="5" style="fill:rgb(246,246,246);"/>
<rect x="340" y="280" width="17" height="5" style="fill:rgb(246,246,246);"/>
<rect x="320" y="286" width="37" height="25" style="fill:rgb(236,236,236);"/>
<rect x="320" y="311" width="37" height="7" style="fill:rgb(236,236,236);"/>
<rect x="321" y="311" width="5" height="5" style="fill:rgb(217,217,217);"/>
<rect x="321" y="311" width="5" height="5" style="fill:none;stroke-width:1px;stroke:rgb(146,152,155);"/>
<rect x="352" y="311" width="5" height="5" style="fill:rgb(217,217,217);"/>
<rect x="352" y="311" width="5" height="5" style="fill:none;stroke-width:1px;stroke:rgb(146,152,155);"/>
<rect x="320" y="273" width="37" height="44" style="fill:none;stroke-width:1px;stroke:rgb(38,50,56);"/>
</svg>
