<svg version="1.1" xmlns="http://www.w3.org/2000/svg" width="800" height="600" shape-rendering="crispEdges">
<rect x="0" y="0" width="800" height="600" style="fill:rgb(250,250,250);"/>
<path d="M292,217 C350,217 350,417 408,417" style="fill:none;stroke-width:1px;stroke:rgb(38,50,56);"/>
<rect x="108" y="165" width="184" height="34" style="fill:rgb(41,127,255);"/>
<text x="200" y="182" dominant-baseline="central" text-anchor="middle" style="fill:rgb(250,250,250);font-family:Arial;font-size:16px;">Test 1</text>
<rect x="108" y="199" width="184" height="36" style="fill:rgb(236,236,236);"/>
<rect x="108" y="204" width="80" height="26" style="fill:rgb(246,246,246);"/>
<text x="113" y="217" dominant-baseline="central" text-anchor="start" style="fill:rgb(0,0,0);font-family:Arial;font-size:14px;">Input</text>
<rect x="198" y="204" width="94" height="26" style="fill:rgb(246,246,246);"/>
<text x="287" y="217" dominant-baseline="central" text-anchor="end" style="fill:rgb(0,0,0);font-family:Arial;font-size:14px;">Output</text>
<rect x="108" y="165" width="184" height="70" style="fill:none;stroke-width:1px;stroke:rgb(38,50,56);"/>
<rect x="408" y="365" width="184" height="34" style="fill:rgb(41,127,255);"/>
<text x="500" y="382" dominant-baseline="central" text-anchor="middle" style="fill:rgb(250,250,250);font-family:Arial;font-size:16px;">Test 2</text>
<rect x="408" y="399" width="184" height="36" style="fill:rgb(236,236,236);"/>
<rect x="408" y="404" width="80" height="26" style="fill:rgb(246,246,246);"/>
<text x="413" y="417" dominant-baseline="central" text-anchor="start" style="fill:rgb(0,0,0);font-family:Arial;font-size:14px;">Input</text>
<rect x="498" y="404" width="94" height="26" style="fill:rgb(246,246,246);"/>
<text x="587" y="417" dominant-baseline="central" text-anchor="end" style="fill:rgb(0,0,0);font-family:Arial;font-size:14px;">Output</text>
<rect x="408" y="365" width="184" height="70" style="fill:none;stroke-width:1px;stroke:rgb(38,50,56);"/>
</svg>
