<svg version="1.1" xmlns="http://www.w3.org/2000/svg" width="800" height="600" shape-rendering="crispEdges">
<rect x="0" y="0" width="800" height="600" style="fill:rgb(240,240,240);"/>
<path d="M303,217 C350,217 350,417 397,417" style="fill:none;stroke-width:1px;stroke:rgb(0,0,0);"/>
<rect x="97" y="163" width="206" height="34" style="fill:rgb(100,100,100);"/>
<text x="200" y="180" dominant-baseline="central" text-anchor="middle" style="fill:rgb(255,255,255);font-family:Arial;font-size:16px;">Test 1</text>
<rect x="97" y="197" width="206" height="39" style="fill:rgb(200,200,200);"/>
<rect x="97" y="202" width="90" height="29" style="fill:rgb(225,225,225);"/>
<text x="102" y="217" dominant-baseline="central" text-anchor="start" style="fill:rgb(0,0,0);font-family:Arial;font-size:16px;">Input</text>
<rect x="197" y="202" width="106" height="29" style="fill:rgb(225,225,225);"/>
<text x="298" y="217" dominant-baseline="central" text-anchor="end" style="fill:rgb(0,0,0);font-family:Arial;font-size:16px;">Output</text>
<rect x="97" y="163" width="206" height="73" style="fill:none;stroke-width:1px;stroke:rgb(0,0,0);"/>
<rect x="397" y="363" width="206" height="34" style="fill:rgb(100,100,100);"/>
<text x="500" y="380" dominant-baseline="central" text-anchor="middle" style="fill:rgb(255,255,255);font-family:Arial;font-size:16px;">Test 2</text>
<rect x="397" y="397" width="206" height="39" style="fill:rgb(200,200,200);"/>
<rect x="397" y="402" width="90" height="29" style="fill:rgb(225,225,225);"/>
<text x="402" y="417" dominant-baseline="central" text-anchor="start" style="fill:rgb(0,0,0);font-family:Arial;font-size:16px;">Input</text>
<rect x="497" y="402" width="106" height="29" style="fill:rgb(225,225,225);"/>
<text x="598" y="417" dominant-baseline="central" text-anchor="end" style="fill:rgb(0,0,0);font-family:Arial;font-size:16px;">Output</text>
<rect x="397" y="363" width="206" height="73" style="fill:none;stroke-width:1px;stroke:rgb(0,0,0);"/>
</svg>
