<svg version="1.1" xmlns="http://www.w3.org/2000/svg" width="800" height="600" shape-rendering="crispEdges">
<rect x="0" y="0" width="800" height="600" style="fill:rgb(250,250,250);"/>
<path d="M442,217 C475,217 475,86 508,86" style="fill:none;stroke-width:1px;stroke:rgb(38,50,56);"/>
<path d="M442,217 C475,217 475,286 508,286" style="fill:none;stroke-width:1px;stroke:rgb(38,50,56);"/>
<path d="M442,417 C475,417 475,499 508,499" style="fill:none;stroke-width:1px;stroke:rgb(38,50,56);"/>
<path d="M161,99 C210,99 210,417 258,417" style="fill:none;stroke-width:1px;stroke:rgb(38,50,56);"/>
<path d="M162,299 C210,299 210,417 258,417" style="fill:none;stroke-width:1px;stroke:rgb(38,50,56);"/>
<rect x="39" y="47" width="122" height="34" style="fill:rgb(41,127,255);"/>
<text x="100" y="64" dominant-baseline="central" text-anchor="middle" style="fill:rgb(250,250,250);font-family:Arial;font-size:16px;">Integer</text>
<rect x="39" y="81" width="122" height="36" style="fill:rgb(236,236,236);"/>
<rect x="67" y="86" width="94" height="26" style="fill:rgb(246,246,246);"/>
<text x="156" y="99" dominant-baseline="central" text-anchor="end" style="fill:rgb(0,0,0);font-family:Arial;font-size:14px;">Output</text>
<rect x="39" y="117" width="122" height="36" style="fill:rgb(236,236,236);"/>
<text x="100" y="135" dominant-baseline="central" text-anchor="middle" style="fill:rgb(0,0,0);font-family:Arial;font-size:14px;">1</text>
<rect x="44" y="122" width="24" height="26" style="fill:rgb(217,217,217);"/>
<text x="56" y="135" dominant-baseline="central" text-anchor="middle" style="fill:rgb(0,0,0);font-family:Arial;font-size:14px;">&lt;</text>
<rect x="44" y="122" width="24" height="26" style="fill:none;stroke-width:1px;stroke:rgb(146,152,155);"/>
<rect x="132" y="122" width="24" height="26" style="fill:rgb(217,217,217);"/>
<text x="144" y="135" dominant-baseline="central" text-anchor="middle" style="fill:rgb(0,0,0);font-family:Arial;font-size:14px;">&gt;</text>
<rect x="132" y="122" width="24" height="26" style="fill:none;stroke-width:1px;stroke:rgb(146,152,155);"/>
<rect x="39" y="47" width="122" height="106" style="fill:none;stroke-width:1px;stroke:rgb(38,50,56);"/>
<rect x="38" y="247" width="124" height="34" style="fill:rgb(41,127,255);"/>
<text x="100" y="264" dominant-baseline="central" text-anchor="middle" style="fill:rgb(250,250,250);font-family:Arial;font-size:16px;">Number</text>
<rect x="38" y="281" width="124" height="36" style="fill:rgb(236,236,236);"/>
<rect x="68" y="286" width="94" height="26" style="fill:rgb(246,246,246);"/>
<text x="157" y="299" dominant-baseline="central" text-anchor="end" style="fill:rgb(0,0,0);font-family:Arial;font-size:14px;">Output</text>
<rect x="38" y="317" width="124" height="36" style="fill:rgb(236,236,236);"/>
<text x="100" y="335" dominant-baseline="central" text-anchor="middle" style="fill:rgb(0,0,0);font-family:Arial;font-size:14px;">2.00</text>
<rect x="43" y="322" width="24" height="26" style="fill:rgb(217,217,217);"/>
<text x="55" y="335" dominant-baseline="central" text-anchor="middle" style="fill:rgb(0,0,0);font-family:Arial;font-size:14px;">&lt;</text>
<rect x="43" y="322" width="24" height="26" style="fill:none;stroke-width:1px;stroke:rgb(146,152,155);"/>
<rect x="133" y="322" width="24" height="26" style="fill:rgb(217,217,217);"/>
<text x="145" y="335" dominant-baseline="central" text-anchor="middle" style="fill:rgb(0,0,0);font-family:Arial;font-size:14px;">&gt;</text>
<rect x="133" y="322" width="24" height="26" style="fill:none;stroke-width:1px;stroke:rgb(146,152,155);"/>
<rect x="38" y="247" width="124" height="106" style="fill:none;stroke-width:1px;stroke:rgb(38,50,56);"/>
<rect x="258" y="165" width="184" height="34" style="fill:rgb(41,127,255);"/>
<text x="350" y="182" dominant-baseline="central" text-anchor="middle" style="fill:rgb(250,250,250);font-family:Arial;font-size:16px;">List</text>
<rect x="258" y="199" width="184" height="36" style="fill:rgb(236,236,236);"/>
<rect x="258" y="204" width="80" height="26" style="fill:rgb(246,246,246);"/>
<text x="263" y="217" dominant-baseline="central" text-anchor="start" style="fill:rgb(0,0,0);font-family:Arial;font-size:14px;">Input</text>
<rect x="348" y="204" width="94" height="26" style="fill:rgb(246,246,246);"/>
<text x="437" y="217" dominant-baseline="central" text-anchor="end" style="fill:rgb(0,0,0);font-family:Arial;font-size:14px;">Output</text>
<rect x="258" y="165" width="184" height="70" style="fill:none;stroke-width:1px;stroke:rgb(38,50,56);"/>
<rect x="258" y="365" width="184" height="34" style="fill:rgb(199,80,80);"/>
<text x="350" y="382" dominant-baseline="central" text-anchor="middle" style="fill:rgb(250,250,250);font-family:Arial;font-size:16px;">List</text>
<rect x="258" y="399" width="184" height="36" style="fill:rgb(236,236,236);"/>
<rect x="258" y="404" width="80" height="26" style="fill:rgb(246,246,246);"/>
<text x="263" y="417" dominant-baseline="central" text-anchor="start" style="fill:rgb(0,0,0);font-family:Arial;font-size:14px;">Input</text>
<rect x="348" y="404" width="94" height="26" style="fill:rgb(246,246,246);"/>
<text x="437" y="417" dominant-baseline="central" text-anchor="end" style="fill:rgb(0,0,0);font-family:Arial;font-size:14px;">Output</text>
<rect x="258" y="365" width="184" height="70" style="fill:none;stroke-width:1px;stroke:rgb(38,50,56);"/>
<rect x="508" y="34" width="184" height="34" style="fill:rgb(41,127,255);"/>
<text x="600" y="51" dominant-baseline="central" text-anchor="middle" style="fill:rgb(250,250,250);font-family:Arial;font-size:16px;">Viewer</text>
<rect x="508" y="68" width="184" height="36" style="fill:rgb(236,236,236);"/>
<rect x="508" y="73" width="80" height="26" style="fill:rgb(246,246,246);"/>
<text x="513" y="86" dominant-baseline="central" text-anchor="start" style="fill:rgb(0,0,0);font-family:Arial;font-size:14px;">Input</text>
<rect x="598" y="73" width="94" height="26" style="fill:rgb(246,246,246);"/>
<text x="687" y="86" dominant-baseline="central" text-anchor="end" style="fill:rgb(0,0,0);font-family:Arial;font-size:14px;">Output</text>
<rect x="508" y="104" width="184" height="62" style="fill:rgb(236,236,236);"/>
<text x="600" y="122" dominant-baseline="central" text-anchor="middle" style="fill:rgb(0,0,0);font-family:Arial;font-size:14px;">1</text>
<text x="600" y="148" dominant-baseline="central" text-anchor="middle" style="fill:rgb(0,0,0);font-family:Arial;font-size:14px;">2.00</text>
<rect x="508" y="34" width="184" height="132" style="fill:none;stroke-width:1px;stroke:rgb(38,50,56);"/>
<rect x="508" y="234" width="184" height="34" style="fill:rgb(41,127,255);"/>
<text x="600" y="251" dominant-baseline="central" text-anchor="middle" style="fill:rgb(250,250,250);font-family:Arial;font-size:16px;">Viewer</text>
<rect x="508" y="268" width="184" height="36" style="fill:rgb(236,236,236);"/>
<rect x="508" y="273" width="80" height="26" style="fill:rgb(246,246,246);"/>
<text x="513" y="286" dominant-baseline="central" text-anchor="start" style="fill:rgb(0,0,0);font-family:Arial;font-size:14px;">Input</text>
<rect x="598" y="273" width="94" height="26" style="fill:rgb(246,246,246);"/>
<text x="687" y="286" dominant-baseline="central" text-anchor="end" style="fill:rgb(0,0,0);font-family:Arial;font-size:14px;">Output</text>
<rect x="508" y="304" width="184" height="62" style="fill:rgb(236,236,236);"/>
<text x="600" y="322" dominant-baseline="central" text-anchor="middle" style="fill:rgb(0,0,0);font-family:Arial;font-size:14px;">1</text>
<text x="600" y="348" dominant-baseline="central" text-anchor="middle" style="fill:rgb(0,0,0);font-family:Arial;font-size:14px;">2.00</text>
<rect x="508" y="234" width="184" height="132" style="fill:none;stroke-width:1px;stroke:rgb(38,50,56);"/>
<rect x="508" y="447" width="184" height="34" style="fill:rgb(199,80,80);"/>
<text x="600" y="464" dominant-baseline="central" text-anchor="middle" style="fill:rgb(250,250,250);font-family:Arial;font-size:16px;">Viewer</text>
<rect x="508" y="481" width="184" height="36" style="fill:rgb(236,236,236);"/>
<rect x="508" y="486" width="80" height="26" style="fill:rgb(246,246,246);"/>
<text x="513" y="499" dominant-baseline="central" text-anchor="start" style="fill:rgb(0,0,0);font-family:Arial;font-size:14px;">Input</text>
<rect x="598" y="486" width="94" height="26" style="fill:rgb(246,246,246);"/>
<text x="687" y="499" dominant-baseline="central" text-anchor="end" style="fill:rgb(0,0,0);font-family:Arial;font-size:14px;">Output</text>
<rect x="508" y="517" width="184" height="36" style="fill:rgb(236,236,236);"/>
<text x="600" y="535" dominant-baseline="central" text-anchor="middle" style="fill:rgb(0,0,0);font-family:Arial;font-size:14px;">&lt;empty&gt;</text>
<rect x="508" y="447" width="184" height="106" style="fill:none;stroke-width:1px;stroke:rgb(38,50,56);"/>
</svg>
