<svg version="1.1" xmlns="http://www.w3.org/2000/svg" width="500" height="500" shape-rendering="crispEdges">
<path d="M100,100 C500,0 -200,400 300,300" style="fill:none;stroke-width:10px;stroke:rgb(200,200,200);"/>
<line x1="100" y1="100" x2="152" y2="88" style="fill:none;stroke-width:3px;stroke:rgb(0,0,200);"/>
<line x1="152" y1="88" x2="189" y2="84" style="fill:none;stroke-width:3px;stroke:rgb(0,0,200);"/>
<line x1="189" y1="84" x2="213" y2="85" style="fill:none;stroke-width:3px;stroke:rgb(0,0,200);"/>
<line x1="213" y1="85" x2="226" y2="92" style="fill:none;stroke-width:3px;stroke:rgb(0,0,200);"/>
<line x1="226" y1="92" x2="229" y2="103" style="fill:none;stroke-width:3px;stroke:rgb(0,0,200);"/>
<line x1="229" y1="103" x2="225" y2="118" style="fill:none;stroke-width:3px;stroke:rgb(0,0,200);"/>
<line x1="225" y1="118" x2="214" y2="135" style="fill:none;stroke-width:3px;stroke:rgb(0,0,200);"/>
<line x1="214" y1="135" x2="199" y2="156" style="fill:none;stroke-width:3px;stroke:rgb(0,0,200);"/>
<line x1="199" y1="156" x2="181" y2="177" style="fill:none;stroke-width:3px;stroke:rgb(0,0,200);"/>
<line x1="181" y1="177" x2="162" y2="200" style="fill:none;stroke-width:3px;stroke:rgb(0,0,200);"/>
<line x1="162" y1="200" x2="144" y2="222" style="fill:none;stroke-width:3px;stroke:rgb(0,0,200);"/>
<line x1="144" y1="222" x2="128" y2="244" style="fill:none;stroke-width:3px;stroke:rgb(0,0,200);"/>
<line x1="128" y1="244" x2="117" y2="264" style="fill:none;stroke-width:3px;stroke:rgb(0,0,200);"/>
<line x1="117" y1="264" x2="111" y2="282" style="fill:none;stroke-width:3px;stroke:rgb(0,0,200);"/>
<line x1="111" y1="282" x2="114" y2="296" style="fill:none;stroke-width:3px;stroke:rgb(0,0,200);"/>
<line x1="114" y1="296" x2="125" y2="308" style="fill:none;stroke-width:3px;stroke:rgb(0,0,200);"/>
<line x1="125" y1="308" x2="148" y2="314" style="fill:none;stroke-width:3px;stroke:rgb(0,0,200);"/>
<line x1="148" y1="314" x2="183" y2="316" style="fill:none;stroke-width:3px;stroke:rgb(0,0,200);"/>
<line x1="183" y1="316" x2="233" y2="311" style="fill:none;stroke-width:3px;stroke:rgb(0,0,200);"/>
<line x1="233" y1="311" x2="300" y2="300" style="fill:none;stroke-width:3px;stroke:rgb(0,0,200);"/>
</svg>
