<svg version="1.1" xmlns="http://www.w3.org/2000/svg" width="500" height="500" shape-rendering="crispEdges">
<path d="M100,100 C500,100 0,300 300,300" style="fill:none;stroke-width:10px;stroke:rgb(200,200,200);"/>
<line x1="100" y1="100" x2="154" y2="102" style="fill:none;stroke-width:3px;stroke:rgb(0,0,200);"/>
<line x1="154" y1="102" x2="195" y2="106" style="fill:none;stroke-width:3px;stroke:rgb(0,0,200);"/>
<line x1="195" y1="106" x2="225" y2="113" style="fill:none;stroke-width:3px;stroke:rgb(0,0,200);"/>
<line x1="225" y1="113" x2="246" y2="121" style="fill:none;stroke-width:3px;stroke:rgb(0,0,200);"/>
<line x1="246" y1="121" x2="258" y2="132" style="fill:none;stroke-width:3px;stroke:rgb(0,0,200);"/>
<line x1="258" y1="132" x2="263" y2="144" style="fill:none;stroke-width:3px;stroke:rgb(0,0,200);"/>
<line x1="263" y1="144" x2="263" y2="157" style="fill:none;stroke-width:3px;stroke:rgb(0,0,200);"/>
<line x1="263" y1="157" x2="257" y2="171" style="fill:none;stroke-width:3px;stroke:rgb(0,0,200);"/>
<line x1="257" y1="171" x2="249" y2="186" style="fill:none;stroke-width:3px;stroke:rgb(0,0,200);"/>
<line x1="249" y1="186" x2="238" y2="200" style="fill:none;stroke-width:3px;stroke:rgb(0,0,200);"/>
<line x1="238" y1="200" x2="227" y2="215" style="fill:none;stroke-width:3px;stroke:rgb(0,0,200);"/>
<line x1="227" y1="215" x2="216" y2="230" style="fill:none;stroke-width:3px;stroke:rgb(0,0,200);"/>
<line x1="216" y1="230" x2="207" y2="244" style="fill:none;stroke-width:3px;stroke:rgb(0,0,200);"/>
<line x1="207" y1="244" x2="201" y2="257" style="fill:none;stroke-width:3px;stroke:rgb(0,0,200);"/>
<line x1="201" y1="257" x2="199" y2="269" style="fill:none;stroke-width:3px;stroke:rgb(0,0,200);"/>
<line x1="199" y1="269" x2="203" y2="280" style="fill:none;stroke-width:3px;stroke:rgb(0,0,200);"/>
<line x1="203" y1="280" x2="214" y2="288" style="fill:none;stroke-width:3px;stroke:rgb(0,0,200);"/>
<line x1="214" y1="288" x2="233" y2="295" style="fill:none;stroke-width:3px;stroke:rgb(0,0,200);"/>
<line x1="233" y1="295" x2="261" y2="299" style="fill:none;stroke-width:3px;stroke:rgb(0,0,200);"/>
<line x1="261" y1="299" x2="300" y2="300" style="fill:none;stroke-width:3px;stroke:rgb(0,0,200);"/>
</svg>
