<svg version="1.1" xmlns="http://www.w3.org/2000/svg" width="500" height="500" shape-rendering="crispEdges">
<path d="M100,100 C500,100 0,300 300,300" style="fill:none;stroke-width:10px;stroke:rgb(200,200,200);"/>
<line x1="100" y1="100" x2="153" y2="101" style="fill:none;stroke-width:3px;stroke:rgb(0,0,200);"/>
<line x1="153" y1="101" x2="194" y2="105" style="fill:none;stroke-width:3px;stroke:rgb(0,0,200);"/>
<line x1="194" y1="105" x2="224" y2="112" style="fill:none;stroke-width:3px;stroke:rgb(0,0,200);"/>
<line x1="224" y1="112" x2="245" y2="120" style="fill:none;stroke-width:3px;stroke:rgb(0,0,200);"/>
<line x1="245" y1="120" x2="257" y2="131" style="fill:none;stroke-width:3px;stroke:rgb(0,0,200);"/>
<line x1="257" y1="131" x2="262" y2="143" style="fill:none;stroke-width:3px;stroke:rgb(0,0,200);"/>
<line x1="262" y1="143" x2="262" y2="156" style="fill:none;stroke-width:3px;stroke:rgb(0,0,200);"/>
<line x1="262" y1="156" x2="256" y2="170" style="fill:none;stroke-width:3px;stroke:rgb(0,0,200);"/>
<line x1="256" y1="170" x2="248" y2="185" style="fill:none;stroke-width:3px;stroke:rgb(0,0,200);"/>
<line x1="248" y1="185" x2="237" y2="200" style="fill:none;stroke-width:3px;stroke:rgb(0,0,200);"/>
<line x1="237" y1="200" x2="226" y2="214" style="fill:none;stroke-width:3px;stroke:rgb(0,0,200);"/>
<line x1="226" y1="214" x2="215" y2="229" style="fill:none;stroke-width:3px;stroke:rgb(0,0,200);"/>
<line x1="215" y1="229" x2="206" y2="243" style="fill:none;stroke-width:3px;stroke:rgb(0,0,200);"/>
<line x1="206" y1="243" x2="200" y2="256" style="fill:none;stroke-width:3px;stroke:rgb(0,0,200);"/>
<line x1="200" y1="256" x2="198" y2="268" style="fill:none;stroke-width:3px;stroke:rgb(0,0,200);"/>
<line x1="198" y1="268" x2="202" y2="279" style="fill:none;stroke-width:3px;stroke:rgb(0,0,200);"/>
<line x1="202" y1="279" x2="213" y2="287" style="fill:none;stroke-width:3px;stroke:rgb(0,0,200);"/>
<line x1="213" y1="287" x2="232" y2="294" style="fill:none;stroke-width:3px;stroke:rgb(0,0,200);"/>
<line x1="232" y1="294" x2="260" y2="298" style="fill:none;stroke-width:3px;stroke:rgb(0,0,200);"/>
<line x1="260" y1="298" x2="300" y2="300" style="fill:none;stroke-width:3px;stroke:rgb(0,0,200);"/>
</svg>
