<svg version="1.1" xmlns="http://www.w3.org/2000/svg" width="500" height="500" shape-rendering="crispEdges">
<path d="M100,100 C200,100 200,300 300,300" style="fill:none;stroke-width:10px;stroke:rgb(200,200,200);"/>
<line x1="100" y1="100" x2="114" y2="101" style="fill:none;stroke-width:3px;stroke:rgb(0,0,200);"/>
<line x1="114" y1="101" x2="127" y2="105" style="fill:none;stroke-width:3px;stroke:rgb(0,0,200);"/>
<line x1="127" y1="105" x2="138" y2="112" style="fill:none;stroke-width:3px;stroke:rgb(0,0,200);"/>
<line x1="138" y1="112" x2="149" y2="120" style="fill:none;stroke-width:3px;stroke:rgb(0,0,200);"/>
<line x1="149" y1="120" x2="159" y2="131" style="fill:none;stroke-width:3px;stroke:rgb(0,0,200);"/>
<line x1="159" y1="131" x2="168" y2="143" style="fill:none;stroke-width:3px;stroke:rgb(0,0,200);"/>
<line x1="168" y1="143" x2="176" y2="156" style="fill:none;stroke-width:3px;stroke:rgb(0,0,200);"/>
<line x1="176" y1="156" x2="184" y2="170" style="fill:none;stroke-width:3px;stroke:rgb(0,0,200);"/>
<line x1="184" y1="170" x2="192" y2="185" style="fill:none;stroke-width:3px;stroke:rgb(0,0,200);"/>
<line x1="192" y1="185" x2="200" y2="200" style="fill:none;stroke-width:3px;stroke:rgb(0,0,200);"/>
<line x1="200" y1="200" x2="207" y2="214" style="fill:none;stroke-width:3px;stroke:rgb(0,0,200);"/>
<line x1="207" y1="214" x2="215" y2="229" style="fill:none;stroke-width:3px;stroke:rgb(0,0,200);"/>
<line x1="215" y1="229" x2="223" y2="243" style="fill:none;stroke-width:3px;stroke:rgb(0,0,200);"/>
<line x1="223" y1="243" x2="231" y2="256" style="fill:none;stroke-width:3px;stroke:rgb(0,0,200);"/>
<line x1="231" y1="256" x2="240" y2="268" style="fill:none;stroke-width:3px;stroke:rgb(0,0,200);"/>
<line x1="240" y1="268" x2="250" y2="279" style="fill:none;stroke-width:3px;stroke:rgb(0,0,200);"/>
<line x1="250" y1="279" x2="261" y2="287" style="fill:none;stroke-width:3px;stroke:rgb(0,0,200);"/>
<line x1="261" y1="287" x2="272" y2="294" style="fill:none;stroke-width:3px;stroke:rgb(0,0,200);"/>
<line x1="272" y1="294" x2="285" y2="298" style="fill:none;stroke-width:3px;stroke:rgb(0,0,200);"/>
<line x1="285" y1="298" x2="300" y2="300" style="fill:none;stroke-width:3px;stroke:rgb(0,0,200);"/>
</svg>
