<svg version="1.1" xmlns="http://www.w3.org/2000/svg" width="500" height="500" shape-rendering="crispEdges">
<path d="M100,100 C500,0 -200,400 300,300" style="fill:none;stroke-width:10px;stroke:rgb(200,200,200);"/>
<line x1="100" y1="100" x2="153" y2="89" style="fill:none;stroke-width:3px;stroke:rgb(0,0,200);"/>
<line x1="153" y1="89" x2="190" y2="84" style="fill:none;stroke-width:3px;stroke:rgb(0,0,200);"/>
<line x1="190" y1="84" x2="214" y2="86" style="fill:none;stroke-width:3px;stroke:rgb(0,0,200);"/>
<line x1="214" y1="86" x2="227" y2="93" style="fill:none;stroke-width:3px;stroke:rgb(0,0,200);"/>
<line x1="227" y1="93" x2="230" y2="104" style="fill:none;stroke-width:3px;stroke:rgb(0,0,200);"/>
<line x1="230" y1="104" x2="226" y2="119" style="fill:none;stroke-width:3px;stroke:rgb(0,0,200);"/>
<line x1="226" y1="119" x2="215" y2="136" style="fill:none;stroke-width:3px;stroke:rgb(0,0,200);"/>
<line x1="215" y1="136" x2="200" y2="156" style="fill:none;stroke-width:3px;stroke:rgb(0,0,200);"/>
<line x1="200" y1="156" x2="182" y2="178" style="fill:none;stroke-width:3px;stroke:rgb(0,0,200);"/>
<line x1="182" y1="178" x2="163" y2="200" style="fill:none;stroke-width:3px;stroke:rgb(0,0,200);"/>
<line x1="163" y1="200" x2="145" y2="223" style="fill:none;stroke-width:3px;stroke:rgb(0,0,200);"/>
<line x1="145" y1="223" x2="129" y2="245" style="fill:none;stroke-width:3px;stroke:rgb(0,0,200);"/>
<line x1="129" y1="245" x2="118" y2="265" style="fill:none;stroke-width:3px;stroke:rgb(0,0,200);"/>
<line x1="118" y1="265" x2="112" y2="282" style="fill:none;stroke-width:3px;stroke:rgb(0,0,200);"/>
<line x1="112" y1="282" x2="115" y2="297" style="fill:none;stroke-width:3px;stroke:rgb(0,0,200);"/>
<line x1="115" y1="297" x2="126" y2="308" style="fill:none;stroke-width:3px;stroke:rgb(0,0,200);"/>
<line x1="126" y1="308" x2="149" y2="315" style="fill:none;stroke-width:3px;stroke:rgb(0,0,200);"/>
<line x1="149" y1="315" x2="184" y2="316" style="fill:none;stroke-width:3px;stroke:rgb(0,0,200);"/>
<line x1="184" y1="316" x2="234" y2="312" style="fill:none;stroke-width:3px;stroke:rgb(0,0,200);"/>
<line x1="234" y1="312" x2="300" y2="300" style="fill:none;stroke-width:3px;stroke:rgb(0,0,200);"/>
</svg>
