<svg version="1.1" xmlns="http://www.w3.org/2000/svg" width="800" height="600" shape-rendering="crispEdges">
<rect x="0" y="0" width="800" height="600" style="fill:rgb(240,240,240);"/>
<rect x="69" y="209" width="162" height="122" style="fill:rgb(0,138,184);"/>
<rect x="74" y="214" width="152" height="34" style="fill:rgb(80,107,116);"/>
<text x="150" y="231" dominant-baseline="central" text-anchor="middle" style="fill:rgb(204,231,240);font-family:Arial;font-size:16px;">Number</text>
<rect x="74" y="248" width="152" height="39" style="fill:rgb(160,187,196);"/>
<rect x="120" y="253" width="106" height="29" style="fill:rgb(180,207,216);"/>
<text x="221" y="267" dominant-baseline="central" text-anchor="end" style="fill:rgb(0,27,36);font-family:Arial;font-size:16px;">Output</text>
<rect x="74" y="287" width="152" height="39" style="fill:rgb(160,187,196);"/>
<text x="150" y="306" dominant-baseline="central" text-anchor="middle" style="fill:rgb(0,27,36);font-family:Arial;font-size:16px;">20.00</text>
<rect x="79" y="292" width="26" height="29" style="fill:rgb(120,167,196);"/>
<text x="92" y="306" dominant-baseline="central" text-anchor="middle" style="fill:rgb(0,27,36);font-family:Arial;font-size:16px;">&lt;</text>
<rect x="79" y="292" width="26" height="29" style="fill:none;stroke-width:1px;stroke:rgb(40,87,116);"/>
<rect x="195" y="292" width="26" height="29" style="fill:rgb(120,167,196);"/>
<text x="208" y="306" dominant-baseline="central" text-anchor="middle" style="fill:rgb(0,27,36);font-family:Arial;font-size:16px;">&gt;</text>
<rect x="195" y="292" width="26" height="29" style="fill:none;stroke-width:1px;stroke:rgb(40,87,116);"/>
<rect x="74" y="214" width="152" height="112" style="fill:none;stroke-width:1px;stroke:rgb(0,27,36);"/>
<rect x="258" y="394" width="184" height="151" style="fill:rgb(0,138,184);"/>
<rect x="263" y="399" width="174" height="34" style="fill:rgb(80,107,116);"/>
<text x="350" y="416" dominant-baseline="central" text-anchor="middle" style="fill:rgb(204,231,240);font-family:Arial;font-size:16px;">Range</text>
<rect x="263" y="433" width="174" height="107" style="fill:rgb(160,187,196);"/>
<rect x="263" y="438" width="90" height="29" style="fill:rgb(180,207,216);"/>
<text x="268" y="453" dominant-baseline="central" text-anchor="start" style="fill:rgb(0,27,36);font-family:Arial;font-size:16px;">Start</text>
<rect x="263" y="472" width="90" height="29" style="fill:rgb(180,207,216);"/>
<text x="268" y="487" dominant-baseline="central" text-anchor="start" style="fill:rgb(0,27,36);font-family:Arial;font-size:16px;">Step</text>
<rect x="263" y="506" width="90" height="29" style="fill:rgb(180,207,216);"/>
<text x="268" y="521" dominant-baseline="central" text-anchor="start" style="fill:rgb(0,27,36);font-family:Arial;font-size:16px;">Count</text>
<rect x="363" y="438" width="74" height="29" style="fill:rgb(180,207,216);"/>
<text x="432" y="453" dominant-baseline="central" text-anchor="end" style="fill:rgb(0,27,36);font-family:Arial;font-size:16px;">List</text>
<rect x="263" y="399" width="174" height="141" style="fill:none;stroke-width:1px;stroke:rgb(0,27,36);"/>
<rect x="497" y="44" width="206" height="34" style="fill:rgb(100,100,100);"/>
<text x="600" y="61" dominant-baseline="central" text-anchor="middle" style="fill:rgb(255,255,255);font-family:Arial;font-size:16px;">Viewer</text>
<rect x="497" y="78" width="206" height="39" style="fill:rgb(200,200,200);"/>
<rect x="497" y="83" width="90" height="29" style="fill:rgb(225,225,225);"/>
<text x="502" y="97" dominant-baseline="central" text-anchor="start" style="fill:rgb(0,0,0);font-family:Arial;font-size:16px;">Input</text>
<rect x="597" y="83" width="106" height="29" style="fill:rgb(225,225,225);"/>
<text x="698" y="97" dominant-baseline="central" text-anchor="end" style="fill:rgb(0,0,0);font-family:Arial;font-size:16px;">Output</text>
<rect x="497" y="117" width="206" height="39" style="fill:rgb(255,255,100);"/>
<text x="600" y="136" dominant-baseline="central" text-anchor="middle" style="fill:rgb(0,0,0);font-family:Arial;font-size:16px;">&lt;empty&gt;</text>
<rect x="497" y="44" width="206" height="112" style="fill:none;stroke-width:1px;stroke:rgb(0,0,0);"/>
<rect x="542" y="409" width="216" height="122" style="fill:rgb(0,138,184);"/>
<rect x="547" y="414" width="206" height="34" style="fill:rgb(80,107,116);"/>
<text x="650" y="431" dominant-baseline="central" text-anchor="middle" style="fill:rgb(204,231,240);font-family:Arial;font-size:16px;">Viewer 2</text>
<rect x="547" y="448" width="206" height="39" style="fill:rgb(160,187,196);"/>
<rect x="547" y="453" width="90" height="29" style="fill:rgb(180,207,216);"/>
<text x="552" y="467" dominant-baseline="central" text-anchor="start" style="fill:rgb(0,27,36);font-family:Arial;font-size:16px;">Input</text>
<rect x="647" y="453" width="106" height="29" style="fill:rgb(180,207,216);"/>
<text x="748" y="467" dominant-baseline="central" text-anchor="end" style="fill:rgb(0,27,36);font-family:Arial;font-size:16px;">Output</text>
<rect x="547" y="487" width="206" height="39" style="fill:rgb(204,231,116);"/>
<text x="650" y="506" dominant-baseline="central" text-anchor="middle" style="fill:rgb(0,27,36);font-family:Arial;font-size:16px;">&lt;empty&gt;</text>
<rect x="547" y="414" width="206" height="112" style="fill:none;stroke-width:1px;stroke:rgb(0,27,36);"/>
<rect x="94" y="144" width="152" height="34" style="fill:rgb(100,100,100);"/>
<text x="170" y="161" dominant-baseline="central" text-anchor="middle" style="fill:rgb(255,255,255);font-family:Arial;font-size:16px;">Number</text>
<rect x="94" y="178" width="152" height="39" style="fill:rgb(200,200,200);"/>
<rect x="140" y="183" width="106" height="29" style="fill:rgb(225,225,225);"/>
<text x="241" y="197" dominant-baseline="central" text-anchor="end" style="fill:rgb(0,0,0);font-family:Arial;font-size:16px;">Output</text>
<rect x="94" y="217" width="152" height="39" style="fill:rgb(200,200,200);"/>
<text x="170" y="236" dominant-baseline="central" text-anchor="middle" style="fill:rgb(0,0,0);font-family:Arial;font-size:16px;">20.00</text>
<rect x="99" y="222" width="26" height="29" style="fill:rgb(150,175,200);"/>
<text x="112" y="236" dominant-baseline="central" text-anchor="middle" style="fill:rgb(0,0,0);font-family:Arial;font-size:16px;">&lt;</text>
<rect x="99" y="222" width="26" height="29" style="fill:none;stroke-width:1px;stroke:rgb(50,75,100);"/>
<rect x="215" y="222" width="26" height="29" style="fill:rgb(150,175,200);"/>
<text x="228" y="236" dominant-baseline="central" text-anchor="middle" style="fill:rgb(0,0,0);font-family:Arial;font-size:16px;">&gt;</text>
<rect x="215" y="222" width="26" height="29" style="fill:none;stroke-width:1px;stroke:rgb(50,75,100);"/>
<rect x="94" y="144" width="152" height="112" style="fill:none;stroke-width:1px;stroke:rgb(0,0,0);"/>
<rect x="283" y="329" width="174" height="34" style="fill:rgb(100,100,100);"/>
<text x="370" y="346" dominant-baseline="central" text-anchor="middle" style="fill:rgb(255,255,255);font-family:Arial;font-size:16px;">Range</text>
<rect x="283" y="363" width="174" height="107" style="fill:rgb(200,200,200);"/>
<rect x="283" y="368" width="90" height="29" style="fill:rgb(225,225,225);"/>
<text x="288" y="383" dominant-baseline="central" text-anchor="start" style="fill:rgb(0,0,0);font-family:Arial;font-size:16px;">Start</text>
<rect x="283" y="402" width="90" height="29" style="fill:rgb(225,225,225);"/>
<text x="288" y="417" dominant-baseline="central" text-anchor="start" style="fill:rgb(0,0,0);font-family:Arial;font-size:16px;">Step</text>
<rect x="283" y="436" width="90" height="29" style="fill:rgb(225,225,225);"/>
<text x="288" y="451" dominant-baseline="central" text-anchor="start" style="fill:rgb(0,0,0);font-family:Arial;font-size:16px;">Count</text>
<rect x="383" y="368" width="74" height="29" style="fill:rgb(225,225,225);"/>
<text x="452" y="383" dominant-baseline="central" text-anchor="end" style="fill:rgb(0,0,0);font-family:Arial;font-size:16px;">List</text>
<rect x="283" y="329" width="174" height="141" style="fill:none;stroke-width:1px;stroke:rgb(0,0,0);"/>
<rect x="567" y="344" width="206" height="34" style="fill:rgb(100,100,100);"/>
<text x="670" y="361" dominant-baseline="central" text-anchor="middle" style="fill:rgb(255,255,255);font-family:Arial;font-size:16px;">Viewer 2</text>
<rect x="567" y="378" width="206" height="39" style="fill:rgb(200,200,200);"/>
<rect x="567" y="383" width="90" height="29" style="fill:rgb(225,225,225);"/>
<text x="572" y="397" dominant-baseline="central" text-anchor="start" style="fill:rgb(0,0,0);font-family:Arial;font-size:16px;">Input</text>
<rect x="667" y="383" width="106" height="29" style="fill:rgb(225,225,225);"/>
<text x="768" y="397" dominant-baseline="central" text-anchor="end" style="fill:rgb(0,0,0);font-family:Arial;font-size:16px;">Output</text>
<rect x="567" y="417" width="206" height="39" style="fill:rgb(255,255,100);"/>
<text x="670" y="436" dominant-baseline="central" text-anchor="middle" style="fill:rgb(0,0,0);font-family:Arial;font-size:16px;">&lt;empty&gt;</text>
<rect x="567" y="344" width="206" height="112" style="fill:none;stroke-width:1px;stroke:rgb(0,0,0);"/>
</svg>
