<svg version="1.1" xmlns="http://www.w3.org/2000/svg" width="800" height="600" shape-rendering="crispEdges">
<rect x="0" y="0" width="800" height="600" style="fill:rgb(250,250,250);"/>
<path d="M189,196 C198,196 198,381 207,381" style="fill:none;stroke-width:8px;stroke:rgb(0,0,255);"/>
<path d="M189,196 C198,196 198,422 207,422" style="fill:none;stroke-width:8px;stroke:rgb(0,0,255);"/>
<path d="M189,196 C341,196 341,96 493,96" style="fill:none;stroke-width:5px;stroke:rgb(0,0,200);"/>
<path d="M393,381 C434,381 434,309 476,309" style="fill:none;stroke-width:8px;stroke:rgb(0,0,255);"/>
<rect x="11" y="127" width="178" height="44" style="fill:rgb(180,180,200);"/>
<text x="100" y="149" dominant-baseline="central" text-anchor="middle" style="fill:rgb(200,0,0);font-family:Arial;font-size:16px;">Number</text>
<rect x="11" y="171" width="178" height="51" style="fill:rgb(180,200,180);"/>
<ellipse cx="189" cy="196" rx="9" ry="9" style="fill:rgb(180,250,250);"/>
<ellipse cx="189" cy="196" rx="9" ry="9" style="fill:none;stroke-width:5px;stroke:rgb(0,0,200);"/>
<rect x="85" y="181" width="104" height="31" style="fill:rgb(180,250,250);"/>
<text x="179" y="196" dominant-baseline="central" text-anchor="end" style="fill:rgb(100,100,0);font-family:Arial;font-size:14px;">Output</text>
<rect x="11" y="222" width="178" height="51" style="fill:rgb(180,200,180);"/>
<text x="100" y="247" dominant-baseline="central" text-anchor="middle" style="fill:rgb(0,100,100);font-family:Arial;font-size:14px;">20.00</text>
<rect x="21" y="232" width="34" height="31" style="fill:rgb(250,250,180);"/>
<text x="38" y="247" dominant-baseline="central" text-anchor="middle" style="fill:rgb(0,100,100);font-family:Arial;font-size:14px;">&lt;</text>
<rect x="21" y="232" width="34" height="31" style="fill:none;stroke-width:3px;stroke:rgb(255,0,0);"/>
<rect x="145" y="232" width="34" height="31" style="fill:rgb(250,250,180);"/>
<text x="162" y="247" dominant-baseline="central" text-anchor="middle" style="fill:rgb(0,100,100);font-family:Arial;font-size:14px;">&gt;</text>
<rect x="145" y="232" width="34" height="31" style="fill:none;stroke-width:3px;stroke:rgb(255,0,0);"/>
<rect x="11" y="127" width="178" height="146" style="fill:none;stroke-width:5px;stroke:rgb(0,200,0);"/>
<rect x="199" y="303" width="202" height="193" style="fill:rgb(0,0,255);"/>
<rect x="207" y="311" width="186" height="44" style="fill:rgb(144,171,196);"/>
<text x="300" y="333" dominant-baseline="central" text-anchor="middle" style="fill:rgb(160,27,36);font-family:Arial;font-size:16px;">Range</text>
<rect x="207" y="355" width="186" height="133" style="fill:rgb(144,187,180);"/>
<ellipse cx="207" cy="381" rx="9" ry="9" style="fill:rgb(144,227,236);"/>
<ellipse cx="207" cy="381" rx="9" ry="9" style="fill:none;stroke-width:5px;stroke:rgb(0,27,196);"/>
<rect x="207" y="365" width="90" height="31" style="fill:rgb(144,227,236);"/>
<text x="217" y="381" dominant-baseline="central" text-anchor="start" style="fill:rgb(80,107,36);font-family:Arial;font-size:14px;">Start</text>
<ellipse cx="207" cy="422" rx="9" ry="9" style="fill:rgb(144,227,236);"/>
<ellipse cx="207" cy="422" rx="9" ry="9" style="fill:none;stroke-width:5px;stroke:rgb(0,27,196);"/>
<rect x="207" y="406" width="90" height="31" style="fill:rgb(144,227,236);"/>
<text x="217" y="422" dominant-baseline="central" text-anchor="start" style="fill:rgb(80,107,36);font-family:Arial;font-size:14px;">Step</text>
<ellipse cx="207" cy="463" rx="9" ry="9" style="fill:rgb(144,227,236);"/>
<ellipse cx="207" cy="463" rx="9" ry="9" style="fill:none;stroke-width:5px;stroke:rgb(0,27,196);"/>
<rect x="207" y="447" width="90" height="31" style="fill:rgb(144,227,236);"/>
<text x="217" y="463" dominant-baseline="central" text-anchor="start" style="fill:rgb(80,107,36);font-family:Arial;font-size:14px;">Count</text>
<ellipse cx="393" cy="381" rx="9" ry="9" style="fill:rgb(144,227,236);"/>
<ellipse cx="393" cy="381" rx="9" ry="9" style="fill:none;stroke-width:5px;stroke:rgb(0,27,196);"/>
<rect x="317" y="365" width="76" height="31" style="fill:rgb(144,227,236);"/>
<text x="383" y="381" dominant-baseline="central" text-anchor="end" style="fill:rgb(80,107,36);font-family:Arial;font-size:14px;">List</text>
<rect x="207" y="311" width="186" height="177" style="fill:none;stroke-width:5px;stroke:rgb(0,187,36);"/>
<rect x="493" y="27" width="214" height="44" style="fill:rgb(180,180,200);"/>
<text x="600" y="49" dominant-baseline="central" text-anchor="middle" style="fill:rgb(200,0,0);font-family:Arial;font-size:16px;">Viewer</text>
<rect x="493" y="71" width="214" height="51" style="fill:rgb(180,200,180);"/>
<ellipse cx="493" cy="96" rx="9" ry="9" style="fill:rgb(180,250,250);"/>
<ellipse cx="493" cy="96" rx="9" ry="9" style="fill:none;stroke-width:5px;stroke:rgb(0,0,200);"/>
<rect x="493" y="81" width="90" height="31" style="fill:rgb(180,250,250);"/>
<text x="503" y="96" dominant-baseline="central" text-anchor="start" style="fill:rgb(100,100,0);font-family:Arial;font-size:14px;">Input</text>
<ellipse cx="707" cy="96" rx="9" ry="9" style="fill:rgb(180,250,250);"/>
<ellipse cx="707" cy="96" rx="9" ry="9" style="fill:none;stroke-width:5px;stroke:rgb(0,0,200);"/>
<rect x="603" y="81" width="104" height="31" style="fill:rgb(180,250,250);"/>
<text x="697" y="96" dominant-baseline="central" text-anchor="end" style="fill:rgb(100,100,0);font-family:Arial;font-size:14px;">Output</text>
<rect x="493" y="122" width="214" height="51" style="fill:rgb(250,150,150);"/>
<text x="600" y="147" dominant-baseline="central" text-anchor="middle" style="fill:rgb(0,100,0);font-family:Arial;font-size:14px;">20.00</text>
<rect x="493" y="27" width="214" height="146" style="fill:none;stroke-width:5px;stroke:rgb(0,200,0);"/>
<rect x="476" y="239" width="248" height="44" style="fill:rgb(180,180,200);"/>
<text x="600" y="261" dominant-baseline="central" text-anchor="middle" style="fill:rgb(200,0,0);font-family:Arial;font-size:16px;">Viewer 2</text>
<rect x="476" y="283" width="248" height="51" style="fill:rgb(180,200,180);"/>
<ellipse cx="476" cy="309" rx="9" ry="9" style="fill:rgb(180,250,250);"/>
<ellipse cx="476" cy="309" rx="9" ry="9" style="fill:none;stroke-width:5px;stroke:rgb(0,0,200);"/>
<rect x="476" y="293" width="90" height="31" style="fill:rgb(180,250,250);"/>
<text x="486" y="309" dominant-baseline="central" text-anchor="start" style="fill:rgb(100,100,0);font-family:Arial;font-size:14px;">Input</text>
<ellipse cx="724" cy="309" rx="9" ry="9" style="fill:rgb(180,250,250);"/>
<ellipse cx="724" cy="309" rx="9" ry="9" style="fill:none;stroke-width:5px;stroke:rgb(0,0,200);"/>
<rect x="620" y="293" width="104" height="31" style="fill:rgb(180,250,250);"/>
<text x="714" y="309" dominant-baseline="central" text-anchor="end" style="fill:rgb(100,100,0);font-family:Arial;font-size:14px;">Output</text>
<rect x="476" y="334" width="248" height="175" style="fill:rgb(250,150,150);"/>
<text x="600" y="360" dominant-baseline="central" text-anchor="middle" style="fill:rgb(0,100,0);font-family:Arial;font-size:14px;">20.00</text>
<text x="600" y="391" dominant-baseline="central" text-anchor="middle" style="fill:rgb(0,100,0);font-family:Arial;font-size:14px;">40.00</text>
<text x="600" y="422" dominant-baseline="central" text-anchor="middle" style="fill:rgb(0,100,0);font-family:Arial;font-size:14px;">60.00</text>
<text x="600" y="453" dominant-baseline="central" text-anchor="middle" style="fill:rgb(0,100,0);font-family:Arial;font-size:14px;">80.00</text>
<text x="600" y="484" dominant-baseline="central" text-anchor="middle" style="fill:rgb(0,100,0);font-family:Arial;font-size:14px;">100.00</text>
<rect x="476" y="509" width="248" height="51" style="fill:rgb(180,200,180);"/>
<text x="600" y="535" dominant-baseline="central" text-anchor="middle" style="fill:rgb(0,100,100);font-family:Arial;font-size:14px;">1 / 2 (10)</text>
<rect x="486" y="519" width="34" height="31" style="fill:rgb(250,250,180);"/>
<text x="503" y="535" dominant-baseline="central" text-anchor="middle" style="fill:rgb(0,100,100);font-family:Arial;font-size:14px;">&lt;</text>
<rect x="486" y="519" width="34" height="31" style="fill:none;stroke-width:3px;stroke:rgb(255,0,0);"/>
<rect x="680" y="519" width="34" height="31" style="fill:rgb(250,250,180);"/>
<text x="697" y="535" dominant-baseline="central" text-anchor="middle" style="fill:rgb(0,100,100);font-family:Arial;font-size:14px;">&gt;</text>
<rect x="680" y="519" width="34" height="31" style="fill:none;stroke-width:3px;stroke:rgb(255,0,0);"/>
<rect x="476" y="239" width="248" height="321" style="fill:none;stroke-width:5px;stroke:rgb(0,200,0);"/>
</svg>
