<svg version="1.1" xmlns="http://www.w3.org/2000/svg" width="800" height="600" shape-rendering="crispEdges">
<rect x="0" y="0" width="800" height="600" style="fill:rgb(240,240,240);"/>
<path d="M183,198 C204,198 204,406 224,406" style="fill:none;stroke-width:2px;stroke:rgb(0,0,0);"/>
<path d="M183,198 C204,198 204,444 224,444" style="fill:none;stroke-width:2px;stroke:rgb(0,0,0);"/>
<path d="M183,198 C363,198 363,86 543,86" style="fill:none;stroke-width:2px;stroke:rgb(0,0,0);"/>
<path d="M420,406 C474,406 474,336 528,336" style="fill:none;stroke-width:2px;stroke:rgb(0,0,0);"/>
<rect x="11" y="137" width="171" height="39" style="fill:rgb(100,100,100);"/>
<text x="97" y="156" dominant-baseline="central" text-anchor="middle" style="fill:rgb(255,255,255);font-family:Arial;font-size:18px;">Number</text>
<rect x="11" y="175" width="171" height="44" style="fill:rgb(200,200,200);"/>
<ellipse cx="182" cy="197" rx="7" ry="7" style="fill:rgb(225,225,225);"/>
<ellipse cx="182" cy="197" rx="7" ry="7" style="fill:none;stroke-width:2px;stroke:rgb(0,0,0);"/>
<rect x="63" y="181" width="119" height="33" style="fill:rgb(225,225,225);"/>
<text x="176" y="197" dominant-baseline="central" text-anchor="end" style="fill:rgb(0,0,0);font-family:Arial;font-size:18px;">Output</text>
<rect x="11" y="219" width="171" height="44" style="fill:rgb(200,200,200);"/>
<text x="97" y="241" dominant-baseline="central" text-anchor="middle" style="fill:rgb(0,0,0);font-family:Arial;font-size:18px;">20.00</text>
<rect x="17" y="225" width="30" height="33" style="fill:rgb(150,175,200);"/>
<text x="31" y="241" dominant-baseline="central" text-anchor="middle" style="fill:rgb(0,0,0);font-family:Arial;font-size:18px;">&lt;</text>
<rect x="17" y="225" width="30" height="33" style="fill:none;stroke-width:2px;stroke:rgb(50,75,100);"/>
<rect x="147" y="225" width="30" height="33" style="fill:rgb(150,175,200);"/>
<text x="162" y="241" dominant-baseline="central" text-anchor="middle" style="fill:rgb(0,0,0);font-family:Arial;font-size:18px;">&gt;</text>
<rect x="147" y="225" width="30" height="33" style="fill:none;stroke-width:2px;stroke:rgb(50,75,100);"/>
<rect x="11" y="137" width="171" height="126" style="fill:none;stroke-width:2px;stroke:rgb(0,0,0);"/>
<rect x="223" y="345" width="196" height="39" style="fill:rgb(100,100,100);"/>
<text x="321" y="364" dominant-baseline="central" text-anchor="middle" style="fill:rgb(255,255,255);font-family:Arial;font-size:18px;">Range</text>
<rect x="223" y="383" width="196" height="121" style="fill:rgb(200,200,200);"/>
<ellipse cx="223" cy="405" rx="7" ry="7" style="fill:rgb(225,225,225);"/>
<ellipse cx="223" cy="405" rx="7" ry="7" style="fill:none;stroke-width:2px;stroke:rgb(0,0,0);"/>
<rect x="223" y="389" width="101" height="33" style="fill:rgb(225,225,225);"/>
<text x="229" y="405" dominant-baseline="central" text-anchor="start" style="fill:rgb(0,0,0);font-family:Arial;font-size:18px;">Start</text>
<ellipse cx="223" cy="443" rx="7" ry="7" style="fill:rgb(225,225,225);"/>
<ellipse cx="223" cy="443" rx="7" ry="7" style="fill:none;stroke-width:2px;stroke:rgb(0,0,0);"/>
<rect x="223" y="427" width="101" height="33" style="fill:rgb(225,225,225);"/>
<text x="229" y="443" dominant-baseline="central" text-anchor="start" style="fill:rgb(0,0,0);font-family:Arial;font-size:18px;">Step</text>
<ellipse cx="223" cy="482" rx="7" ry="7" style="fill:rgb(225,225,225);"/>
<ellipse cx="223" cy="482" rx="7" ry="7" style="fill:none;stroke-width:2px;stroke:rgb(0,0,0);"/>
<rect x="223" y="465" width="101" height="33" style="fill:rgb(225,225,225);"/>
<text x="229" y="482" dominant-baseline="central" text-anchor="start" style="fill:rgb(0,0,0);font-family:Arial;font-size:18px;">Count</text>
<ellipse cx="419" cy="405" rx="7" ry="7" style="fill:rgb(225,225,225);"/>
<ellipse cx="419" cy="405" rx="7" ry="7" style="fill:none;stroke-width:2px;stroke:rgb(0,0,0);"/>
<rect x="336" y="389" width="84" height="33" style="fill:rgb(225,225,225);"/>
<text x="413" y="405" dominant-baseline="central" text-anchor="end" style="fill:rgb(0,0,0);font-family:Arial;font-size:18px;">List</text>
<rect x="223" y="345" width="196" height="159" style="fill:none;stroke-width:2px;stroke:rgb(0,0,0);"/>
<rect x="542" y="25" width="232" height="39" style="fill:rgb(100,100,100);"/>
<text x="658" y="44" dominant-baseline="central" text-anchor="middle" style="fill:rgb(255,255,255);font-family:Arial;font-size:18px;">Viewer</text>
<rect x="542" y="63" width="232" height="44" style="fill:rgb(200,200,200);"/>
<ellipse cx="542" cy="85" rx="7" ry="7" style="fill:rgb(225,225,225);"/>
<ellipse cx="542" cy="85" rx="7" ry="7" style="fill:none;stroke-width:2px;stroke:rgb(0,0,0);"/>
<rect x="542" y="69" width="101" height="33" style="fill:rgb(225,225,225);"/>
<text x="548" y="85" dominant-baseline="central" text-anchor="start" style="fill:rgb(0,0,0);font-family:Arial;font-size:18px;">Input</text>
<ellipse cx="773" cy="85" rx="7" ry="7" style="fill:rgb(225,225,225);"/>
<ellipse cx="773" cy="85" rx="7" ry="7" style="fill:none;stroke-width:2px;stroke:rgb(0,0,0);"/>
<rect x="654" y="69" width="119" height="33" style="fill:rgb(225,225,225);"/>
<text x="768" y="85" dominant-baseline="central" text-anchor="end" style="fill:rgb(0,0,0);font-family:Arial;font-size:18px;">Output</text>
<rect x="542" y="107" width="232" height="44" style="fill:rgb(255,255,100);"/>
<text x="658" y="129" dominant-baseline="central" text-anchor="middle" style="fill:rgb(0,0,0);font-family:Arial;font-size:18px;">20.00</text>
<rect x="542" y="25" width="232" height="126" style="fill:none;stroke-width:2px;stroke:rgb(0,0,0);"/>
<rect x="527" y="275" width="261" height="39" style="fill:rgb(100,100,100);"/>
<text x="658" y="294" dominant-baseline="central" text-anchor="middle" style="fill:rgb(255,255,255);font-family:Arial;font-size:18px;">Viewer 2</text>
<rect x="527" y="313" width="261" height="44" style="fill:rgb(200,200,200);"/>
<ellipse cx="527" cy="335" rx="7" ry="7" style="fill:rgb(225,225,225);"/>
<ellipse cx="527" cy="335" rx="7" ry="7" style="fill:none;stroke-width:2px;stroke:rgb(0,0,0);"/>
<rect x="527" y="318" width="101" height="33" style="fill:rgb(225,225,225);"/>
<text x="533" y="335" dominant-baseline="central" text-anchor="start" style="fill:rgb(0,0,0);font-family:Arial;font-size:18px;">Input</text>
<ellipse cx="788" cy="335" rx="7" ry="7" style="fill:rgb(225,225,225);"/>
<ellipse cx="788" cy="335" rx="7" ry="7" style="fill:none;stroke-width:2px;stroke:rgb(0,0,0);"/>
<rect x="669" y="318" width="119" height="33" style="fill:rgb(225,225,225);"/>
<text x="782" y="335" dominant-baseline="central" text-anchor="end" style="fill:rgb(0,0,0);font-family:Arial;font-size:18px;">Output</text>
<rect x="527" y="356" width="261" height="174" style="fill:rgb(255,255,100);"/>
<text x="658" y="378" dominant-baseline="central" text-anchor="middle" style="fill:rgb(0,0,0);font-family:Arial;font-size:18px;">20.00</text>
<text x="658" y="411" dominant-baseline="central" text-anchor="middle" style="fill:rgb(0,0,0);font-family:Arial;font-size:18px;">40.00</text>
<text x="658" y="443" dominant-baseline="central" text-anchor="middle" style="fill:rgb(0,0,0);font-family:Arial;font-size:18px;">60.00</text>
<text x="658" y="476" dominant-baseline="central" text-anchor="middle" style="fill:rgb(0,0,0);font-family:Arial;font-size:18px;">80.00</text>
<text x="658" y="509" dominant-baseline="central" text-anchor="middle" style="fill:rgb(0,0,0);font-family:Arial;font-size:18px;">100.00</text>
<rect x="527" y="530" width="261" height="44" style="fill:rgb(200,200,200);"/>
<text x="658" y="552" dominant-baseline="central" text-anchor="middle" style="fill:rgb(0,0,0);font-family:Arial;font-size:18px;">1 / 2 (10)</text>
<rect x="533" y="536" width="30" height="33" style="fill:rgb(150,175,200);"/>
<text x="548" y="552" dominant-baseline="central" text-anchor="middle" style="fill:rgb(0,0,0);font-family:Arial;font-size:18px;">&lt;</text>
<rect x="533" y="536" width="30" height="33" style="fill:none;stroke-width:2px;stroke:rgb(50,75,100);"/>
<rect x="753" y="536" width="30" height="33" style="fill:rgb(150,175,200);"/>
<text x="768" y="552" dominant-baseline="central" text-anchor="middle" style="fill:rgb(0,0,0);font-family:Arial;font-size:18px;">&gt;</text>
<rect x="753" y="536" width="30" height="33" style="fill:none;stroke-width:2px;stroke:rgb(50,75,100);"/>
<rect x="527" y="275" width="261" height="300" style="fill:none;stroke-width:2px;stroke:rgb(0,0,0);"/>
</svg>
