<svg version="1.1" xmlns="http://www.w3.org/2000/svg" width="800" height="600" shape-rendering="crispEdges">
<rect x="0" y="0" width="800" height="600" style="fill:rgb(250,250,250);"/>
<rect x="41" y="247" width="138" height="34" style="fill:rgb(41,127,255);"/>
<text x="110" y="264" dominant-baseline="central" text-anchor="middle" style="fill:rgb(250,250,250);font-family:Arial;font-size:16px;">Number</text>
<rect x="41" y="281" width="138" height="36" style="fill:rgb(236,236,236);"/>
<rect x="85" y="286" width="94" height="26" style="fill:rgb(246,246,246);"/>
<text x="174" y="299" dominant-baseline="central" text-anchor="end" style="fill:rgb(0,0,0);font-family:Arial;font-size:14px;">Output</text>
<rect x="41" y="317" width="138" height="36" style="fill:rgb(236,236,236);"/>
<text x="110" y="335" dominant-baseline="central" text-anchor="middle" style="fill:rgb(0,0,0);font-family:Arial;font-size:14px;">20.00</text>
<rect x="46" y="322" width="24" height="26" style="fill:rgb(217,217,217);"/>
<text x="58" y="335" dominant-baseline="central" text-anchor="middle" style="fill:rgb(0,0,0);font-family:Arial;font-size:14px;">&lt;</text>
<rect x="46" y="322" width="24" height="26" style="fill:none;stroke-width:1px;stroke:rgb(146,152,155);"/>
<rect x="150" y="322" width="24" height="26" style="fill:rgb(217,217,217);"/>
<text x="162" y="335" dominant-baseline="central" text-anchor="middle" style="fill:rgb(0,0,0);font-family:Arial;font-size:14px;">&gt;</text>
<rect x="150" y="322" width="24" height="26" style="fill:none;stroke-width:1px;stroke:rgb(146,152,155);"/>
<rect x="41" y="247" width="138" height="106" style="fill:none;stroke-width:1px;stroke:rgb(38,50,56);"/>
<rect x="232" y="434" width="156" height="34" style="fill:rgb(41,127,255);"/>
<text x="310" y="451" dominant-baseline="central" text-anchor="middle" style="fill:rgb(250,250,250);font-family:Arial;font-size:16px;">Range</text>
<rect x="232" y="468" width="156" height="98" style="fill:rgb(236,236,236);"/>
<rect x="232" y="473" width="80" height="26" style="fill:rgb(246,246,246);"/>
<text x="237" y="486" dominant-baseline="central" text-anchor="start" style="fill:rgb(0,0,0);font-family:Arial;font-size:14px;">Start</text>
<rect x="232" y="504" width="80" height="26" style="fill:rgb(246,246,246);"/>
<text x="237" y="517" dominant-baseline="central" text-anchor="start" style="fill:rgb(0,0,0);font-family:Arial;font-size:14px;">Step</text>
<rect x="232" y="535" width="80" height="26" style="fill:rgb(246,246,246);"/>
<text x="237" y="548" dominant-baseline="central" text-anchor="start" style="fill:rgb(0,0,0);font-family:Arial;font-size:14px;">Count</text>
<rect x="322" y="473" width="66" height="26" style="fill:rgb(246,246,246);"/>
<text x="383" y="486" dominant-baseline="central" text-anchor="end" style="fill:rgb(0,0,0);font-family:Arial;font-size:14px;">List</text>
<rect x="232" y="434" width="156" height="132" style="fill:none;stroke-width:1px;stroke:rgb(38,50,56);"/>
<rect x="518" y="147" width="184" height="34" style="fill:rgb(199,80,80);"/>
<text x="610" y="164" dominant-baseline="central" text-anchor="middle" style="fill:rgb(250,250,250);font-family:Arial;font-size:16px;">Viewer</text>
<rect x="518" y="181" width="184" height="36" style="fill:rgb(236,236,236);"/>
<rect x="518" y="186" width="80" height="26" style="fill:rgb(246,246,246);"/>
<text x="523" y="199" dominant-baseline="central" text-anchor="start" style="fill:rgb(0,0,0);font-family:Arial;font-size:14px;">Input</text>
<rect x="608" y="186" width="94" height="26" style="fill:rgb(246,246,246);"/>
<text x="697" y="199" dominant-baseline="central" text-anchor="end" style="fill:rgb(0,0,0);font-family:Arial;font-size:14px;">Output</text>
<rect x="518" y="217" width="184" height="36" style="fill:rgb(236,236,236);"/>
<text x="610" y="235" dominant-baseline="central" text-anchor="middle" style="fill:rgb(0,0,0);font-family:Arial;font-size:14px;">&lt;empty&gt;</text>
<rect x="518" y="147" width="184" height="106" style="fill:none;stroke-width:1px;stroke:rgb(38,50,56);"/>
<rect x="518" y="447" width="184" height="34" style="fill:rgb(199,80,80);"/>
<text x="610" y="464" dominant-baseline="central" text-anchor="middle" style="fill:rgb(250,250,250);font-family:Arial;font-size:16px;">Viewer 2</text>
<rect x="518" y="481" width="184" height="36" style="fill:rgb(236,236,236);"/>
<rect x="518" y="486" width="80" height="26" style="fill:rgb(246,246,246);"/>
<text x="523" y="499" dominant-baseline="central" text-anchor="start" style="fill:rgb(0,0,0);font-family:Arial;font-size:14px;">Input</text>
<rect x="608" y="486" width="94" height="26" style="fill:rgb(246,246,246);"/>
<text x="697" y="499" dominant-baseline="central" text-anchor="end" style="fill:rgb(0,0,0);font-family:Arial;font-size:14px;">Output</text>
<rect x="518" y="517" width="184" height="36" style="fill:rgb(236,236,236);"/>
<text x="610" y="535" dominant-baseline="central" text-anchor="middle" style="fill:rgb(0,0,0);font-family:Arial;font-size:14px;">&lt;empty&gt;</text>
<rect x="518" y="447" width="184" height="106" style="fill:none;stroke-width:1px;stroke:rgb(38,50,56);"/>
</svg>
