<svg version="1.1" xmlns="http://www.w3.org/2000/svg" width="800" height="600" shape-rendering="crispEdges">
<rect x="0" y="0" width="800" height="600" style="fill:rgb(250,250,250);"/>
<rect x="241" y="123" width="481" height="160" style="fill:rgb(160,200,240);"/>
<text x="251" y="145" dominant-baseline="central" text-anchor="start" style="fill:rgb(0,0,0);font-family:Arial;font-size:16px;">Group</text>
<path d="M162,99 C207,99 207,222 251,222" style="fill:none;stroke-width:1px;stroke:rgb(38,50,56);"/>
<path d="M162,299 C207,299 207,253 251,253" style="fill:none;stroke-width:1px;stroke:rgb(38,50,56);"/>
<path d="M389,222 C459,222 459,219 528,219" style="fill:none;stroke-width:1px;stroke:rgb(38,50,56);"/>
<rect x="38" y="47" width="124" height="34" style="fill:rgb(41,127,255);"/>
<text x="100" y="64" dominant-baseline="central" text-anchor="middle" style="fill:rgb(250,250,250);font-family:Arial;font-size:16px;">Number</text>
<rect x="38" y="81" width="124" height="36" style="fill:rgb(236,236,236);"/>
<rect x="68" y="86" width="94" height="26" style="fill:rgb(246,246,246);"/>
<text x="157" y="99" dominant-baseline="central" text-anchor="end" style="fill:rgb(0,0,0);font-family:Arial;font-size:14px;">Output</text>
<rect x="38" y="117" width="124" height="36" style="fill:rgb(236,236,236);"/>
<text x="100" y="135" dominant-baseline="central" text-anchor="middle" style="fill:rgb(0,0,0);font-family:Arial;font-size:14px;">5.00</text>
<rect x="43" y="122" width="24" height="26" style="fill:rgb(217,217,217);"/>
<text x="55" y="135" dominant-baseline="central" text-anchor="middle" style="fill:rgb(0,0,0);font-family:Arial;font-size:14px;">&lt;</text>
<rect x="43" y="122" width="24" height="26" style="fill:none;stroke-width:1px;stroke:rgb(146,152,155);"/>
<rect x="133" y="122" width="24" height="26" style="fill:rgb(217,217,217);"/>
<text x="145" y="135" dominant-baseline="central" text-anchor="middle" style="fill:rgb(0,0,0);font-family:Arial;font-size:14px;">&gt;</text>
<rect x="133" y="122" width="24" height="26" style="fill:none;stroke-width:1px;stroke:rgb(146,152,155);"/>
<rect x="38" y="47" width="124" height="106" style="fill:none;stroke-width:1px;stroke:rgb(38,50,56);"/>
<rect x="38" y="247" width="124" height="34" style="fill:rgb(41,127,255);"/>
<text x="100" y="264" dominant-baseline="central" text-anchor="middle" style="fill:rgb(250,250,250);font-family:Arial;font-size:16px;">Number</text>
<rect x="38" y="281" width="124" height="36" style="fill:rgb(236,236,236);"/>
<rect x="68" y="286" width="94" height="26" style="fill:rgb(246,246,246);"/>
<text x="157" y="299" dominant-baseline="central" text-anchor="end" style="fill:rgb(0,0,0);font-family:Arial;font-size:14px;">Output</text>
<rect x="38" y="317" width="124" height="36" style="fill:rgb(236,236,236);"/>
<text x="100" y="335" dominant-baseline="central" text-anchor="middle" style="fill:rgb(0,0,0);font-family:Arial;font-size:14px;">0.00</text>
<rect x="43" y="322" width="24" height="26" style="fill:rgb(217,217,217);"/>
<text x="55" y="335" dominant-baseline="central" text-anchor="middle" style="fill:rgb(0,0,0);font-family:Arial;font-size:14px;">&lt;</text>
<rect x="43" y="322" width="24" height="26" style="fill:none;stroke-width:1px;stroke:rgb(146,152,155);"/>
<rect x="133" y="322" width="24" height="26" style="fill:rgb(217,217,217);"/>
<text x="145" y="335" dominant-baseline="central" text-anchor="middle" style="fill:rgb(0,0,0);font-family:Arial;font-size:14px;">&gt;</text>
<rect x="133" y="322" width="24" height="26" style="fill:none;stroke-width:1px;stroke:rgb(146,152,155);"/>
<rect x="38" y="247" width="124" height="106" style="fill:none;stroke-width:1px;stroke:rgb(38,50,56);"/>
<rect x="251" y="169" width="138" height="34" style="fill:rgb(41,127,255);"/>
<text x="320" y="186" dominant-baseline="central" text-anchor="middle" style="fill:rgb(250,250,250);font-family:Arial;font-size:16px;">Addition</text>
<rect x="251" y="203" width="138" height="67" style="fill:rgb(236,236,236);"/>
<rect x="251" y="208" width="24" height="26" style="fill:rgb(246,246,246);"/>
<text x="256" y="221" dominant-baseline="central" text-anchor="start" style="fill:rgb(0,0,0);font-family:Arial;font-size:14px;">A</text>
<rect x="251" y="239" width="24" height="26" style="fill:rgb(246,246,246);"/>
<text x="256" y="252" dominant-baseline="central" text-anchor="start" style="fill:rgb(0,0,0);font-family:Arial;font-size:14px;">B</text>
<rect x="295" y="208" width="94" height="26" style="fill:rgb(246,246,246);"/>
<text x="384" y="221" dominant-baseline="central" text-anchor="end" style="fill:rgb(0,0,0);font-family:Arial;font-size:14px;">Result</text>
<rect x="251" y="169" width="138" height="101" style="fill:none;stroke-width:1px;stroke:rgb(38,50,56);"/>
<rect x="528" y="167" width="184" height="34" style="fill:rgb(41,127,255);"/>
<text x="620" y="184" dominant-baseline="central" text-anchor="middle" style="fill:rgb(250,250,250);font-family:Arial;font-size:16px;">Viewer</text>
<rect x="528" y="201" width="184" height="36" style="fill:rgb(236,236,236);"/>
<rect x="528" y="206" width="80" height="26" style="fill:rgb(246,246,246);"/>
<text x="533" y="219" dominant-baseline="central" text-anchor="start" style="fill:rgb(0,0,0);font-family:Arial;font-size:14px;">Input</text>
<rect x="618" y="206" width="94" height="26" style="fill:rgb(246,246,246);"/>
<text x="707" y="219" dominant-baseline="central" text-anchor="end" style="fill:rgb(0,0,0);font-family:Arial;font-size:14px;">Output</text>
<rect x="528" y="237" width="184" height="36" style="fill:rgb(236,236,236);"/>
<text x="620" y="255" dominant-baseline="central" text-anchor="middle" style="fill:rgb(0,0,0);font-family:Arial;font-size:14px;">5.00</text>
<rect x="528" y="167" width="184" height="106" style="fill:none;stroke-width:1px;stroke:rgb(38,50,56);"/>
</svg>
