<svg version="1.1" xmlns="http://www.w3.org/2000/svg" width="800" height="600" shape-rendering="crispEdges">
<rect x="0" y="0" width="800" height="600" style="fill:rgb(240,240,240);"/>
<rect x="507" y="117" width="226" height="169" style="fill:rgb(160,200,240);"/>
<text x="517" y="140" dominant-baseline="central" text-anchor="start" style="fill:rgb(0,0,0);font-family:Arial;font-size:18px;">Group</text>
<rect x="32" y="44" width="136" height="34" style="fill:rgb(100,100,100);"/>
<text x="100" y="61" dominant-baseline="central" text-anchor="middle" style="fill:rgb(255,255,255);font-family:Arial;font-size:16px;">Number</text>
<rect x="32" y="78" width="136" height="39" style="fill:rgb(200,200,200);"/>
<rect x="62" y="83" width="106" height="29" style="fill:rgb(225,225,225);"/>
<text x="163" y="97" dominant-baseline="central" text-anchor="end" style="fill:rgb(0,0,0);font-family:Arial;font-size:16px;">Output</text>
<rect x="32" y="117" width="136" height="39" style="fill:rgb(200,200,200);"/>
<text x="100" y="136" dominant-baseline="central" text-anchor="middle" style="fill:rgb(0,0,0);font-family:Arial;font-size:16px;">5.00</text>
<rect x="37" y="122" width="26" height="29" style="fill:rgb(150,175,200);"/>
<text x="50" y="136" dominant-baseline="central" text-anchor="middle" style="fill:rgb(0,0,0);font-family:Arial;font-size:16px;">&lt;</text>
<rect x="37" y="122" width="26" height="29" style="fill:none;stroke-width:1px;stroke:rgb(50,75,100);"/>
<rect x="137" y="122" width="26" height="29" style="fill:rgb(150,175,200);"/>
<text x="150" y="136" dominant-baseline="central" text-anchor="middle" style="fill:rgb(0,0,0);font-family:Arial;font-size:16px;">&gt;</text>
<rect x="137" y="122" width="26" height="29" style="fill:none;stroke-width:1px;stroke:rgb(50,75,100);"/>
<rect x="32" y="44" width="136" height="112" style="fill:none;stroke-width:1px;stroke:rgb(0,0,0);"/>
<rect x="32" y="244" width="136" height="34" style="fill:rgb(100,100,100);"/>
<text x="100" y="261" dominant-baseline="central" text-anchor="middle" style="fill:rgb(255,255,255);font-family:Arial;font-size:16px;">Number</text>
<rect x="32" y="278" width="136" height="39" style="fill:rgb(200,200,200);"/>
<rect x="62" y="283" width="106" height="29" style="fill:rgb(225,225,225);"/>
<text x="163" y="297" dominant-baseline="central" text-anchor="end" style="fill:rgb(0,0,0);font-family:Arial;font-size:16px;">Output</text>
<rect x="32" y="317" width="136" height="39" style="fill:rgb(200,200,200);"/>
<text x="100" y="336" dominant-baseline="central" text-anchor="middle" style="fill:rgb(0,0,0);font-family:Arial;font-size:16px;">0.00</text>
<rect x="37" y="322" width="26" height="29" style="fill:rgb(150,175,200);"/>
<text x="50" y="336" dominant-baseline="central" text-anchor="middle" style="fill:rgb(0,0,0);font-family:Arial;font-size:16px;">&lt;</text>
<rect x="37" y="322" width="26" height="29" style="fill:none;stroke-width:1px;stroke:rgb(50,75,100);"/>
<rect x="137" y="322" width="26" height="29" style="fill:rgb(150,175,200);"/>
<text x="150" y="336" dominant-baseline="central" text-anchor="middle" style="fill:rgb(0,0,0);font-family:Arial;font-size:16px;">&gt;</text>
<rect x="137" y="322" width="26" height="29" style="fill:none;stroke-width:1px;stroke:rgb(50,75,100);"/>
<rect x="32" y="244" width="136" height="112" style="fill:none;stroke-width:1px;stroke:rgb(0,0,0);"/>
<rect x="517" y="164" width="206" height="34" style="fill:rgb(100,100,100);"/>
<text x="620" y="181" dominant-baseline="central" text-anchor="middle" style="fill:rgb(255,255,255);font-family:Arial;font-size:16px;">Viewer</text>
<rect x="517" y="198" width="206" height="39" style="fill:rgb(200,200,200);"/>
<rect x="517" y="203" width="90" height="29" style="fill:rgb(225,225,225);"/>
<text x="522" y="217" dominant-baseline="central" text-anchor="start" style="fill:rgb(0,0,0);font-family:Arial;font-size:16px;">Input</text>
<rect x="617" y="203" width="106" height="29" style="fill:rgb(225,225,225);"/>
<text x="718" y="217" dominant-baseline="central" text-anchor="end" style="fill:rgb(0,0,0);font-family:Arial;font-size:16px;">Output</text>
<rect x="517" y="237" width="206" height="39" style="fill:rgb(255,255,100);"/>
<text x="620" y="256" dominant-baseline="central" text-anchor="middle" style="fill:rgb(0,0,0);font-family:Arial;font-size:16px;">&lt;empty&gt;</text>
<rect x="517" y="164" width="206" height="112" style="fill:none;stroke-width:1px;stroke:rgb(0,0,0);"/>
</svg>
