<svg version="1.1" xmlns="http://www.w3.org/2000/svg" width="800" height="600" shape-rendering="crispEdges">
<rect x="0" y="0" width="800" height="600" style="fill:rgb(250,250,250);"/>
<rect x="78" y="203" width="144" height="160" style="fill:rgb(160,200,240);"/>
<text x="88" y="225" dominant-baseline="central" text-anchor="start" style="fill:rgb(0,0,0);font-family:Arial;font-size:16px;">Group</text>
<path d="M212,299 C247,299 247,183 281,183" style="fill:none;stroke-width:1px;stroke:rgb(38,50,56);"/>
<path d="M419,152 C464,152 464,149 508,149" style="fill:none;stroke-width:1px;stroke:rgb(38,50,56);"/>
<rect x="88" y="247" width="124" height="34" style="fill:rgb(41,127,255);"/>
<text x="150" y="264" dominant-baseline="central" text-anchor="middle" style="fill:rgb(250,250,250);font-family:Arial;font-size:16px;">Number</text>
<rect x="88" y="281" width="124" height="36" style="fill:rgb(236,236,236);"/>
<rect x="118" y="286" width="94" height="26" style="fill:rgb(246,246,246);"/>
<text x="207" y="299" dominant-baseline="central" text-anchor="end" style="fill:rgb(0,0,0);font-family:Arial;font-size:14px;">Output</text>
<rect x="88" y="317" width="124" height="36" style="fill:rgb(236,236,236);"/>
<text x="150" y="335" dominant-baseline="central" text-anchor="middle" style="fill:rgb(0,0,0);font-family:Arial;font-size:14px;">3.00</text>
<rect x="93" y="322" width="24" height="26" style="fill:rgb(217,217,217);"/>
<text x="105" y="335" dominant-baseline="central" text-anchor="middle" style="fill:rgb(0,0,0);font-family:Arial;font-size:14px;">&lt;</text>
<rect x="93" y="322" width="24" height="26" style="fill:none;stroke-width:1px;stroke:rgb(146,152,155);"/>
<rect x="183" y="322" width="24" height="26" style="fill:rgb(217,217,217);"/>
<text x="195" y="335" dominant-baseline="central" text-anchor="middle" style="fill:rgb(0,0,0);font-family:Arial;font-size:14px;">&gt;</text>
<rect x="183" y="322" width="24" height="26" style="fill:none;stroke-width:1px;stroke:rgb(146,152,155);"/>
<rect x="88" y="247" width="124" height="106" style="fill:none;stroke-width:1px;stroke:rgb(38,50,56);"/>
<rect x="281" y="99" width="138" height="34" style="fill:rgb(41,127,255);"/>
<text x="350" y="116" dominant-baseline="central" text-anchor="middle" style="fill:rgb(250,250,250);font-family:Arial;font-size:16px;">Division</text>
<rect x="281" y="133" width="138" height="67" style="fill:rgb(236,236,236);"/>
<rect x="281" y="138" width="24" height="26" style="fill:rgb(246,246,246);"/>
<text x="286" y="151" dominant-baseline="central" text-anchor="start" style="fill:rgb(0,0,0);font-family:Arial;font-size:14px;">A</text>
<rect x="281" y="169" width="24" height="26" style="fill:rgb(246,246,246);"/>
<text x="286" y="182" dominant-baseline="central" text-anchor="start" style="fill:rgb(0,0,0);font-family:Arial;font-size:14px;">B</text>
<rect x="325" y="138" width="94" height="26" style="fill:rgb(246,246,246);"/>
<text x="414" y="151" dominant-baseline="central" text-anchor="end" style="fill:rgb(0,0,0);font-family:Arial;font-size:14px;">Result</text>
<rect x="281" y="99" width="138" height="101" style="fill:none;stroke-width:1px;stroke:rgb(38,50,56);"/>
<rect x="508" y="97" width="184" height="34" style="fill:rgb(41,127,255);"/>
<text x="600" y="114" dominant-baseline="central" text-anchor="middle" style="fill:rgb(250,250,250);font-family:Arial;font-size:16px;">Viewer 1</text>
<rect x="508" y="131" width="184" height="36" style="fill:rgb(236,236,236);"/>
<rect x="508" y="136" width="80" height="26" style="fill:rgb(246,246,246);"/>
<text x="513" y="149" dominant-baseline="central" text-anchor="start" style="fill:rgb(0,0,0);font-family:Arial;font-size:14px;">Input</text>
<rect x="598" y="136" width="94" height="26" style="fill:rgb(246,246,246);"/>
<text x="687" y="149" dominant-baseline="central" text-anchor="end" style="fill:rgb(0,0,0);font-family:Arial;font-size:14px;">Output</text>
<rect x="508" y="167" width="184" height="36" style="fill:rgb(236,236,236);"/>
<text x="600" y="185" dominant-baseline="central" text-anchor="middle" style="fill:rgb(0,0,0);font-family:Arial;font-size:14px;">0.00</text>
<rect x="508" y="97" width="184" height="106" style="fill:none;stroke-width:1px;stroke:rgb(38,50,56);"/>
</svg>
