<svg version="1.1" xmlns="http://www.w3.org/2000/svg" width="1000" height="800" shape-rendering="crispEdges">
<rect x="0" y="0" width="1000" height="800" style="fill:rgb(250,250,250);"/>
<rect x="164" y="132" width="180" height="329" style="fill:rgb(160,200,240);"/>
<text x="176" y="156" dominant-baseline="central" text-anchor="start" style="fill:rgb(0,0,0);font-family:Arial;font-size:16px;">Group 1</text>
<rect x="604" y="388" width="232" height="280" style="fill:rgb(160,200,240);"/>
<text x="616" y="412" dominant-baseline="central" text-anchor="start" style="fill:rgb(0,0,0);font-family:Arial;font-size:16px;">Group</text>
<path d="M332,232 C366,232 366,247 401,247" style="fill:none;stroke-width:1px;stroke:rgb(38,50,56);"/>
<path d="M332,395 C366,395 366,278 401,278" style="fill:none;stroke-width:1px;stroke:rgb(38,50,56);"/>
<path d="M539,247 C577,247 577,488 616,488" style="fill:none;stroke-width:1px;stroke:rgb(38,50,56);"/>
<rect x="176" y="180" width="156" height="34" style="fill:rgb(41,127,255);"/>
<text x="254" y="197" dominant-baseline="central" text-anchor="middle" style="fill:rgb(250,250,250);font-family:Arial;font-size:16px;">Numbers</text>
<rect x="176" y="214" width="156" height="98" style="fill:rgb(236,236,236);"/>
<rect x="176" y="219" width="80" height="26" style="fill:rgb(246,246,246);"/>
<text x="181" y="232" dominant-baseline="central" text-anchor="start" style="fill:rgb(0,0,0);font-family:Arial;font-size:14px;">Start</text>
<rect x="176" y="250" width="80" height="26" style="fill:rgb(246,246,246);"/>
<text x="181" y="263" dominant-baseline="central" text-anchor="start" style="fill:rgb(0,0,0);font-family:Arial;font-size:14px;">Step</text>
<rect x="176" y="281" width="80" height="26" style="fill:rgb(246,246,246);"/>
<text x="181" y="294" dominant-baseline="central" text-anchor="start" style="fill:rgb(0,0,0);font-family:Arial;font-size:14px;">Count</text>
<rect x="266" y="219" width="66" height="26" style="fill:rgb(246,246,246);"/>
<text x="327" y="232" dominant-baseline="central" text-anchor="end" style="fill:rgb(0,0,0);font-family:Arial;font-size:14px;">List</text>
<rect x="176" y="180" width="156" height="132" style="fill:none;stroke-width:1px;stroke:rgb(38,50,56);"/>
<rect x="208" y="343" width="124" height="34" style="fill:rgb(41,127,255);"/>
<text x="270" y="360" dominant-baseline="central" text-anchor="middle" style="fill:rgb(250,250,250);font-family:Arial;font-size:16px;">Number</text>
<rect x="208" y="377" width="124" height="36" style="fill:rgb(236,236,236);"/>
<rect x="238" y="382" width="94" height="26" style="fill:rgb(246,246,246);"/>
<text x="327" y="395" dominant-baseline="central" text-anchor="end" style="fill:rgb(0,0,0);font-family:Arial;font-size:14px;">Output</text>
<rect x="208" y="413" width="124" height="36" style="fill:rgb(236,236,236);"/>
<text x="270" y="431" dominant-baseline="central" text-anchor="middle" style="fill:rgb(0,0,0);font-family:Arial;font-size:14px;">3.00</text>
<rect x="213" y="418" width="24" height="26" style="fill:rgb(217,217,217);"/>
<text x="225" y="431" dominant-baseline="central" text-anchor="middle" style="fill:rgb(0,0,0);font-family:Arial;font-size:14px;">&lt;</text>
<rect x="213" y="418" width="24" height="26" style="fill:none;stroke-width:1px;stroke:rgb(146,152,155);"/>
<rect x="303" y="418" width="24" height="26" style="fill:rgb(217,217,217);"/>
<text x="315" y="431" dominant-baseline="central" text-anchor="middle" style="fill:rgb(0,0,0);font-family:Arial;font-size:14px;">&gt;</text>
<rect x="303" y="418" width="24" height="26" style="fill:none;stroke-width:1px;stroke:rgb(146,152,155);"/>
<rect x="208" y="343" width="124" height="106" style="fill:none;stroke-width:1px;stroke:rgb(38,50,56);"/>
<rect x="401" y="195" width="138" height="34" style="fill:rgb(41,127,255);"/>
<text x="470" y="212" dominant-baseline="central" text-anchor="middle" style="fill:rgb(250,250,250);font-family:Arial;font-size:16px;">Division</text>
<rect x="401" y="229" width="138" height="67" style="fill:rgb(236,236,236);"/>
<rect x="401" y="234" width="24" height="26" style="fill:rgb(246,246,246);"/>
<text x="406" y="247" dominant-baseline="central" text-anchor="start" style="fill:rgb(0,0,0);font-family:Arial;font-size:14px;">A</text>
<rect x="401" y="265" width="24" height="26" style="fill:rgb(246,246,246);"/>
<text x="406" y="278" dominant-baseline="central" text-anchor="start" style="fill:rgb(0,0,0);font-family:Arial;font-size:14px;">B</text>
<rect x="445" y="234" width="94" height="26" style="fill:rgb(246,246,246);"/>
<text x="534" y="247" dominant-baseline="central" text-anchor="end" style="fill:rgb(0,0,0);font-family:Arial;font-size:14px;">Result</text>
<rect x="401" y="195" width="138" height="101" style="fill:none;stroke-width:1px;stroke:rgb(38,50,56);"/>
<rect x="628" y="193" width="184" height="34" style="fill:rgb(199,80,80);"/>
<text x="720" y="210" dominant-baseline="central" text-anchor="middle" style="fill:rgb(250,250,250);font-family:Arial;font-size:16px;">Renamed 1</text>
<rect x="628" y="227" width="184" height="36" style="fill:rgb(236,236,236);"/>
<rect x="628" y="232" width="80" height="26" style="fill:rgb(246,246,246);"/>
<text x="633" y="245" dominant-baseline="central" text-anchor="start" style="fill:rgb(0,0,0);font-family:Arial;font-size:14px;">Input</text>
<rect x="718" y="232" width="94" height="26" style="fill:rgb(246,246,246);"/>
<text x="807" y="245" dominant-baseline="central" text-anchor="end" style="fill:rgb(0,0,0);font-family:Arial;font-size:14px;">Output</text>
<rect x="628" y="263" width="184" height="36" style="fill:rgb(236,236,236);"/>
<text x="720" y="281" dominant-baseline="central" text-anchor="middle" style="fill:rgb(0,0,0);font-family:Arial;font-size:14px;">&lt;empty&gt;</text>
<rect x="628" y="193" width="184" height="106" style="fill:none;stroke-width:1px;stroke:rgb(38,50,56);"/>
<rect x="616" y="436" width="208" height="34" style="fill:rgb(41,127,255);"/>
<text x="720" y="453" dominant-baseline="central" text-anchor="middle" style="fill:rgb(250,250,250);font-family:Arial;font-size:16px;">Renamed 2</text>
<rect x="616" y="470" width="208" height="36" style="fill:rgb(236,236,236);"/>
<rect x="616" y="475" width="80" height="26" style="fill:rgb(246,246,246);"/>
<text x="621" y="488" dominant-baseline="central" text-anchor="start" style="fill:rgb(0,0,0);font-family:Arial;font-size:14px;">Input</text>
<rect x="730" y="475" width="94" height="26" style="fill:rgb(246,246,246);"/>
<text x="819" y="488" dominant-baseline="central" text-anchor="end" style="fill:rgb(0,0,0);font-family:Arial;font-size:14px;">Output</text>
<rect x="616" y="506" width="208" height="114" style="fill:rgb(236,236,236);"/>
<text x="720" y="524" dominant-baseline="central" text-anchor="middle" style="fill:rgb(0,0,0);font-family:Arial;font-size:14px;">0.00</text>
<text x="720" y="550" dominant-baseline="central" text-anchor="middle" style="fill:rgb(0,0,0);font-family:Arial;font-size:14px;">0.33</text>
<text x="720" y="576" dominant-baseline="central" text-anchor="middle" style="fill:rgb(0,0,0);font-family:Arial;font-size:14px;">0.67</text>
<text x="720" y="602" dominant-baseline="central" text-anchor="middle" style="fill:rgb(0,0,0);font-family:Arial;font-size:14px;">1.00</text>
<rect x="616" y="620" width="208" height="36" style="fill:rgb(236,236,236);"/>
<text x="720" y="638" dominant-baseline="central" text-anchor="middle" style="fill:rgb(0,0,0);font-family:Arial;font-size:14px;">1 / 3 (10)</text>
<rect x="621" y="625" width="24" height="26" style="fill:rgb(217,217,217);"/>
<text x="633" y="638" dominant-baseline="central" text-anchor="middle" style="fill:rgb(0,0,0);font-family:Arial;font-size:14px;">&lt;</text>
<rect x="621" y="625" width="24" height="26" style="fill:none;stroke-width:1px;stroke:rgb(146,152,155);"/>
<rect x="795" y="625" width="24" height="26" style="fill:rgb(217,217,217);"/>
<text x="807" y="638" dominant-baseline="central" text-anchor="middle" style="fill:rgb(0,0,0);font-family:Arial;font-size:14px;">&gt;</text>
<rect x="795" y="625" width="24" height="26" style="fill:none;stroke-width:1px;stroke:rgb(146,152,155);"/>
<rect x="616" y="436" width="208" height="220" style="fill:none;stroke-width:1px;stroke:rgb(38,50,56);"/>
</svg>
