<svg version="1.1" xmlns="http://www.w3.org/2000/svg" width="1000" height="800" shape-rendering="crispEdges">
<rect x="0" y="0" width="1000" height="800" style="fill:rgb(250,250,250);"/>
<rect x="166" y="135" width="176" height="323" style="fill:rgb(160,200,240);"/>
<text x="176" y="157" dominant-baseline="central" text-anchor="start" style="fill:rgb(0,0,0);font-family:Arial;font-size:16px;">Group 1</text>
<rect x="606" y="391" width="228" height="274" style="fill:rgb(160,200,240);"/>
<text x="616" y="413" dominant-baseline="central" text-anchor="start" style="fill:rgb(0,0,0);font-family:Arial;font-size:16px;">Group</text>
<path d="M332,231 C366,231 366,246 401,246" style="fill:none;stroke-width:1px;stroke:rgb(38,50,56);"/>
<path d="M332,394 C366,394 366,277 401,277" style="fill:none;stroke-width:1px;stroke:rgb(38,50,56);"/>
<path d="M539,246 C577,246 577,487 616,487" style="fill:none;stroke-width:1px;stroke:rgb(38,50,56);"/>
<rect x="176" y="179" width="156" height="34" style="fill:rgb(41,127,255);"/>
<text x="254" y="196" dominant-baseline="central" text-anchor="middle" style="fill:rgb(250,250,250);font-family:Arial;font-size:16px;">Numbers</text>
<rect x="176" y="213" width="156" height="98" style="fill:rgb(236,236,236);"/>
<rect x="176" y="218" width="80" height="26" style="fill:rgb(246,246,246);"/>
<text x="181" y="231" dominant-baseline="central" text-anchor="start" style="fill:rgb(0,0,0);font-family:Arial;font-size:14px;">Start</text>
<rect x="176" y="249" width="80" height="26" style="fill:rgb(246,246,246);"/>
<text x="181" y="262" dominant-baseline="central" text-anchor="start" style="fill:rgb(0,0,0);font-family:Arial;font-size:14px;">Step</text>
<rect x="176" y="280" width="80" height="26" style="fill:rgb(246,246,246);"/>
<text x="181" y="293" dominant-baseline="central" text-anchor="start" style="fill:rgb(0,0,0);font-family:Arial;font-size:14px;">Count</text>
<rect x="266" y="218" width="66" height="26" style="fill:rgb(246,246,246);"/>
<text x="327" y="231" dominant-baseline="central" text-anchor="end" style="fill:rgb(0,0,0);font-family:Arial;font-size:14px;">List</text>
<rect x="176" y="179" width="156" height="132" style="fill:none;stroke-width:1px;stroke:rgb(38,50,56);"/>
<rect x="208" y="342" width="124" height="34" style="fill:rgb(41,127,255);"/>
<text x="270" y="359" dominant-baseline="central" text-anchor="middle" style="fill:rgb(250,250,250);font-family:Arial;font-size:16px;">Number</text>
<rect x="208" y="376" width="124" height="36" style="fill:rgb(236,236,236);"/>
<rect x="238" y="381" width="94" height="26" style="fill:rgb(246,246,246);"/>
<text x="327" y="394" dominant-baseline="central" text-anchor="end" style="fill:rgb(0,0,0);font-family:Arial;font-size:14px;">Output</text>
<rect x="208" y="412" width="124" height="36" style="fill:rgb(236,236,236);"/>
<text x="270" y="430" dominant-baseline="central" text-anchor="middle" style="fill:rgb(0,0,0);font-family:Arial;font-size:14px;">3.00</text>
<rect x="213" y="417" width="24" height="26" style="fill:rgb(217,217,217);"/>
<text x="225" y="430" dominant-baseline="central" text-anchor="middle" style="fill:rgb(0,0,0);font-family:Arial;font-size:14px;">&lt;</text>
<rect x="213" y="417" width="24" height="26" style="fill:none;stroke-width:1px;stroke:rgb(146,152,155);"/>
<rect x="303" y="417" width="24" height="26" style="fill:rgb(217,217,217);"/>
<text x="315" y="430" dominant-baseline="central" text-anchor="middle" style="fill:rgb(0,0,0);font-family:Arial;font-size:14px;">&gt;</text>
<rect x="303" y="417" width="24" height="26" style="fill:none;stroke-width:1px;stroke:rgb(146,152,155);"/>
<rect x="208" y="342" width="124" height="106" style="fill:none;stroke-width:1px;stroke:rgb(38,50,56);"/>
<rect x="401" y="194" width="138" height="34" style="fill:rgb(41,127,255);"/>
<text x="470" y="211" dominant-baseline="central" text-anchor="middle" style="fill:rgb(250,250,250);font-family:Arial;font-size:16px;">Division</text>
<rect x="401" y="228" width="138" height="67" style="fill:rgb(236,236,236);"/>
<rect x="401" y="233" width="24" height="26" style="fill:rgb(246,246,246);"/>
<text x="406" y="246" dominant-baseline="central" text-anchor="start" style="fill:rgb(0,0,0);font-family:Arial;font-size:14px;">A</text>
<rect x="401" y="264" width="24" height="26" style="fill:rgb(246,246,246);"/>
<text x="406" y="277" dominant-baseline="central" text-anchor="start" style="fill:rgb(0,0,0);font-family:Arial;font-size:14px;">B</text>
<rect x="445" y="233" width="94" height="26" style="fill:rgb(246,246,246);"/>
<text x="534" y="246" dominant-baseline="central" text-anchor="end" style="fill:rgb(0,0,0);font-family:Arial;font-size:14px;">Result</text>
<rect x="401" y="194" width="138" height="101" style="fill:none;stroke-width:1px;stroke:rgb(38,50,56);"/>
<rect x="628" y="192" width="184" height="34" style="fill:rgb(199,80,80);"/>
<text x="720" y="209" dominant-baseline="central" text-anchor="middle" style="fill:rgb(250,250,250);font-family:Arial;font-size:16px;">Renamed 1</text>
<rect x="628" y="226" width="184" height="36" style="fill:rgb(236,236,236);"/>
<rect x="628" y="231" width="80" height="26" style="fill:rgb(246,246,246);"/>
<text x="633" y="244" dominant-baseline="central" text-anchor="start" style="fill:rgb(0,0,0);font-family:Arial;font-size:14px;">Input</text>
<rect x="718" y="231" width="94" height="26" style="fill:rgb(246,246,246);"/>
<text x="807" y="244" dominant-baseline="central" text-anchor="end" style="fill:rgb(0,0,0);font-family:Arial;font-size:14px;">Output</text>
<rect x="628" y="262" width="184" height="36" style="fill:rgb(236,236,236);"/>
<text x="720" y="280" dominant-baseline="central" text-anchor="middle" style="fill:rgb(0,0,0);font-family:Arial;font-size:14px;">&lt;empty&gt;</text>
<rect x="628" y="192" width="184" height="106" style="fill:none;stroke-width:1px;stroke:rgb(38,50,56);"/>
<rect x="616" y="435" width="208" height="34" style="fill:rgb(41,127,255);"/>
<text x="720" y="452" dominant-baseline="central" text-anchor="middle" style="fill:rgb(250,250,250);font-family:Arial;font-size:16px;">Renamed 2</text>
<rect x="616" y="469" width="208" height="36" style="fill:rgb(236,236,236);"/>
<rect x="616" y="474" width="80" height="26" style="fill:rgb(246,246,246);"/>
<text x="621" y="487" dominant-baseline="central" text-anchor="start" style="fill:rgb(0,0,0);font-family:Arial;font-size:14px;">Input</text>
<rect x="730" y="474" width="94" height="26" style="fill:rgb(246,246,246);"/>
<text x="819" y="487" dominant-baseline="central" text-anchor="end" style="fill:rgb(0,0,0);font-family:Arial;font-size:14px;">Output</text>
<rect x="616" y="505" width="208" height="114" style="fill:rgb(236,236,236);"/>
<text x="720" y="523" dominant-baseline="central" text-anchor="middle" style="fill:rgb(0,0,0);font-family:Arial;font-size:14px;">0.00</text>
<text x="720" y="549" dominant-baseline="central" text-anchor="middle" style="fill:rgb(0,0,0);font-family:Arial;font-size:14px;">0.33</text>
<text x="720" y="575" dominant-baseline="central" text-anchor="middle" style="fill:rgb(0,0,0);font-family:Arial;font-size:14px;">0.67</text>
<text x="720" y="601" dominant-baseline="central" text-anchor="middle" style="fill:rgb(0,0,0);font-family:Arial;font-size:14px;">1.00</text>
<rect x="616" y="619" width="208" height="36" style="fill:rgb(236,236,236);"/>
<text x="720" y="637" dominant-baseline="central" text-anchor="middle" style="fill:rgb(0,0,0);font-family:Arial;font-size:14px;">1 / 3 (10)</text>
<rect x="621" y="624" width="24" height="26" style="fill:rgb(217,217,217);"/>
<text x="633" y="637" dominant-baseline="central" text-anchor="middle" style="fill:rgb(0,0,0);font-family:Arial;font-size:14px;">&lt;</text>
<rect x="621" y="624" width="24" height="26" style="fill:none;stroke-width:1px;stroke:rgb(146,152,155);"/>
<rect x="795" y="624" width="24" height="26" style="fill:rgb(217,217,217);"/>
<text x="807" y="637" dominant-baseline="central" text-anchor="middle" style="fill:rgb(0,0,0);font-family:Arial;font-size:14px;">&gt;</text>
<rect x="795" y="624" width="24" height="26" style="fill:none;stroke-width:1px;stroke:rgb(146,152,155);"/>
<rect x="616" y="435" width="208" height="220" style="fill:none;stroke-width:1px;stroke:rgb(38,50,56);"/>
</svg>
