<svg version="1.1" xmlns="http://www.w3.org/2000/svg" width="800" height="600" shape-rendering="crispEdges">
<rect x="0" y="0" width="800" height="600" style="fill:rgb(250,250,250);"/>
<rect x="22" y="84" width="156" height="34" style="fill:rgb(41,127,255);"/>
<text x="100" y="101" dominant-baseline="central" text-anchor="middle" style="fill:rgb(250,250,250);font-family:Arial;font-size:16px;">Numbers</text>
<rect x="22" y="118" width="156" height="98" style="fill:rgb(236,236,236);"/>
<rect x="22" y="123" width="80" height="26" style="fill:rgb(246,246,246);"/>
<text x="27" y="136" dominant-baseline="central" text-anchor="start" style="fill:rgb(0,0,0);font-family:Arial;font-size:14px;">Start</text>
<rect x="22" y="154" width="80" height="26" style="fill:rgb(246,246,246);"/>
<text x="27" y="167" dominant-baseline="central" text-anchor="start" style="fill:rgb(0,0,0);font-family:Arial;font-size:14px;">Step</text>
<rect x="22" y="185" width="80" height="26" style="fill:rgb(246,246,246);"/>
<text x="27" y="198" dominant-baseline="central" text-anchor="start" style="fill:rgb(0,0,0);font-family:Arial;font-size:14px;">Count</text>
<rect x="112" y="123" width="66" height="26" style="fill:rgb(246,246,246);"/>
<text x="173" y="136" dominant-baseline="central" text-anchor="end" style="fill:rgb(0,0,0);font-family:Arial;font-size:14px;">List</text>
<rect x="22" y="84" width="156" height="132" style="fill:none;stroke-width:1px;stroke:rgb(38,50,56);"/>
<rect x="88" y="247" width="124" height="34" style="fill:rgb(41,127,255);"/>
<text x="150" y="264" dominant-baseline="central" text-anchor="middle" style="fill:rgb(250,250,250);font-family:Arial;font-size:16px;">Number</text>
<rect x="88" y="281" width="124" height="36" style="fill:rgb(236,236,236);"/>
<rect x="118" y="286" width="94" height="26" style="fill:rgb(246,246,246);"/>
<text x="207" y="299" dominant-baseline="central" text-anchor="end" style="fill:rgb(0,0,0);font-family:Arial;font-size:14px;">Output</text>
<rect x="88" y="317" width="124" height="36" style="fill:rgb(236,236,236);"/>
<text x="150" y="335" dominant-baseline="central" text-anchor="middle" style="fill:rgb(0,0,0);font-family:Arial;font-size:14px;">0.00</text>
<rect x="93" y="322" width="24" height="26" style="fill:rgb(217,217,217);"/>
<text x="105" y="335" dominant-baseline="central" text-anchor="middle" style="fill:rgb(0,0,0);font-family:Arial;font-size:14px;">&lt;</text>
<rect x="93" y="322" width="24" height="26" style="fill:none;stroke-width:1px;stroke:rgb(146,152,155);"/>
<rect x="183" y="322" width="24" height="26" style="fill:rgb(217,217,217);"/>
<text x="195" y="335" dominant-baseline="central" text-anchor="middle" style="fill:rgb(0,0,0);font-family:Arial;font-size:14px;">&gt;</text>
<rect x="183" y="322" width="24" height="26" style="fill:none;stroke-width:1px;stroke:rgb(146,152,155);"/>
<rect x="88" y="247" width="124" height="106" style="fill:none;stroke-width:1px;stroke:rgb(38,50,56);"/>
<rect x="281" y="99" width="138" height="34" style="fill:rgb(199,80,80);"/>
<text x="350" y="116" dominant-baseline="central" text-anchor="middle" style="fill:rgb(250,250,250);font-family:Arial;font-size:16px;">Division</text>
<rect x="281" y="133" width="138" height="67" style="fill:rgb(236,236,236);"/>
<rect x="281" y="138" width="24" height="26" style="fill:rgb(246,246,246);"/>
<text x="286" y="151" dominant-baseline="central" text-anchor="start" style="fill:rgb(0,0,0);font-family:Arial;font-size:14px;">A</text>
<rect x="281" y="169" width="24" height="26" style="fill:rgb(246,246,246);"/>
<text x="286" y="182" dominant-baseline="central" text-anchor="start" style="fill:rgb(0,0,0);font-family:Arial;font-size:14px;">B</text>
<rect x="325" y="138" width="94" height="26" style="fill:rgb(246,246,246);"/>
<text x="414" y="151" dominant-baseline="central" text-anchor="end" style="fill:rgb(0,0,0);font-family:Arial;font-size:14px;">Result</text>
<rect x="281" y="99" width="138" height="101" style="fill:none;stroke-width:1px;stroke:rgb(38,50,56);"/>
</svg>
