<svg version="1.1" xmlns="http://www.w3.org/2000/svg" width="800" height="600" shape-rendering="crispEdges">
<rect x="0" y="0" width="800" height="600" style="fill:rgb(250,250,250);"/>
<rect x="46" y="40" width="176" height="323" style="fill:rgb(160,200,240);"/>
<text x="56" y="62" dominant-baseline="central" text-anchor="start" style="fill:rgb(0,0,0);font-family:Arial;font-size:16px;">Group</text>
<rect x="486" y="283" width="228" height="300" style="fill:rgb(160,200,240);"/>
<text x="496" y="305" dominant-baseline="central" text-anchor="start" style="fill:rgb(0,0,0);font-family:Arial;font-size:16px;">Group</text>
<path d="M212,136 C246,136 246,151 281,151" style="fill:none;stroke-width:1px;stroke:rgb(38,50,56);"/>
<path d="M212,299 C246,299 246,182 281,182" style="fill:none;stroke-width:1px;stroke:rgb(38,50,56);"/>
<path d="M419,151 C457,151 457,79 496,79" style="fill:none;stroke-width:1px;stroke:rgb(38,50,56);"/>
<path d="M419,151 C457,151 457,379 496,379" style="fill:none;stroke-width:3px;stroke:rgb(41,127,255);"/>
<rect x="56" y="84" width="156" height="34" style="fill:rgb(41,127,255);"/>
<text x="134" y="101" dominant-baseline="central" text-anchor="middle" style="fill:rgb(250,250,250);font-family:Arial;font-size:16px;">Numbers</text>
<rect x="56" y="118" width="156" height="98" style="fill:rgb(236,236,236);"/>
<rect x="56" y="123" width="80" height="26" style="fill:rgb(246,246,246);"/>
<text x="61" y="136" dominant-baseline="central" text-anchor="start" style="fill:rgb(0,0,0);font-family:Arial;font-size:14px;">Start</text>
<rect x="56" y="154" width="80" height="26" style="fill:rgb(246,246,246);"/>
<text x="61" y="167" dominant-baseline="central" text-anchor="start" style="fill:rgb(0,0,0);font-family:Arial;font-size:14px;">Step</text>
<rect x="56" y="185" width="80" height="26" style="fill:rgb(246,246,246);"/>
<text x="61" y="198" dominant-baseline="central" text-anchor="start" style="fill:rgb(0,0,0);font-family:Arial;font-size:14px;">Count</text>
<rect x="146" y="123" width="66" height="26" style="fill:rgb(246,246,246);"/>
<text x="207" y="136" dominant-baseline="central" text-anchor="end" style="fill:rgb(0,0,0);font-family:Arial;font-size:14px;">List</text>
<rect x="56" y="84" width="156" height="132" style="fill:none;stroke-width:1px;stroke:rgb(38,50,56);"/>
<rect x="88" y="247" width="124" height="34" style="fill:rgb(41,127,255);"/>
<text x="150" y="264" dominant-baseline="central" text-anchor="middle" style="fill:rgb(250,250,250);font-family:Arial;font-size:16px;">Number</text>
<rect x="88" y="281" width="124" height="36" style="fill:rgb(236,236,236);"/>
<rect x="118" y="286" width="94" height="26" style="fill:rgb(246,246,246);"/>
<text x="207" y="299" dominant-baseline="central" text-anchor="end" style="fill:rgb(0,0,0);font-family:Arial;font-size:14px;">Output</text>
<rect x="88" y="317" width="124" height="36" style="fill:rgb(236,236,236);"/>
<text x="150" y="335" dominant-baseline="central" text-anchor="middle" style="fill:rgb(0,0,0);font-family:Arial;font-size:14px;">3.00</text>
<rect x="93" y="322" width="24" height="26" style="fill:rgb(217,217,217);"/>
<text x="105" y="335" dominant-baseline="central" text-anchor="middle" style="fill:rgb(0,0,0);font-family:Arial;font-size:14px;">&lt;</text>
<rect x="93" y="322" width="24" height="26" style="fill:none;stroke-width:1px;stroke:rgb(146,152,155);"/>
<rect x="183" y="322" width="24" height="26" style="fill:rgb(217,217,217);"/>
<text x="195" y="335" dominant-baseline="central" text-anchor="middle" style="fill:rgb(0,0,0);font-family:Arial;font-size:14px;">&gt;</text>
<rect x="183" y="322" width="24" height="26" style="fill:none;stroke-width:1px;stroke:rgb(146,152,155);"/>
<rect x="88" y="247" width="124" height="106" style="fill:none;stroke-width:1px;stroke:rgb(38,50,56);"/>
<rect x="281" y="99" width="138" height="34" style="fill:rgb(41,127,255);"/>
<text x="350" y="116" dominant-baseline="central" text-anchor="middle" style="fill:rgb(250,250,250);font-family:Arial;font-size:16px;">Division</text>
<rect x="281" y="133" width="138" height="67" style="fill:rgb(236,236,236);"/>
<rect x="281" y="138" width="24" height="26" style="fill:rgb(246,246,246);"/>
<text x="286" y="151" dominant-baseline="central" text-anchor="start" style="fill:rgb(0,0,0);font-family:Arial;font-size:14px;">A</text>
<rect x="281" y="169" width="24" height="26" style="fill:rgb(246,246,246);"/>
<text x="286" y="182" dominant-baseline="central" text-anchor="start" style="fill:rgb(0,0,0);font-family:Arial;font-size:14px;">B</text>
<rect x="325" y="138" width="94" height="26" style="fill:rgb(246,246,246);"/>
<text x="414" y="151" dominant-baseline="central" text-anchor="end" style="fill:rgb(0,0,0);font-family:Arial;font-size:14px;">Result</text>
<rect x="281" y="99" width="138" height="101" style="fill:none;stroke-width:1px;stroke:rgb(38,50,56);"/>
<rect x="496" y="27" width="208" height="34" style="fill:rgb(41,127,255);"/>
<text x="600" y="44" dominant-baseline="central" text-anchor="middle" style="fill:rgb(250,250,250);font-family:Arial;font-size:16px;">Viewer 1</text>
<rect x="496" y="61" width="208" height="36" style="fill:rgb(236,236,236);"/>
<rect x="496" y="66" width="80" height="26" style="fill:rgb(246,246,246);"/>
<text x="501" y="79" dominant-baseline="central" text-anchor="start" style="fill:rgb(0,0,0);font-family:Arial;font-size:14px;">Input</text>
<rect x="610" y="66" width="94" height="26" style="fill:rgb(246,246,246);"/>
<text x="699" y="79" dominant-baseline="central" text-anchor="end" style="fill:rgb(0,0,0);font-family:Arial;font-size:14px;">Output</text>
<rect x="496" y="97" width="208" height="140" style="fill:rgb(236,236,236);"/>
<text x="600" y="115" dominant-baseline="central" text-anchor="middle" style="fill:rgb(0,0,0);font-family:Arial;font-size:14px;">0.00</text>
<text x="600" y="141" dominant-baseline="central" text-anchor="middle" style="fill:rgb(0,0,0);font-family:Arial;font-size:14px;">0.33</text>
<text x="600" y="167" dominant-baseline="central" text-anchor="middle" style="fill:rgb(0,0,0);font-family:Arial;font-size:14px;">0.67</text>
<text x="600" y="193" dominant-baseline="central" text-anchor="middle" style="fill:rgb(0,0,0);font-family:Arial;font-size:14px;">1.00</text>
<text x="600" y="219" dominant-baseline="central" text-anchor="middle" style="fill:rgb(0,0,0);font-family:Arial;font-size:14px;">1.33</text>
<rect x="496" y="237" width="208" height="36" style="fill:rgb(236,236,236);"/>
<text x="600" y="255" dominant-baseline="central" text-anchor="middle" style="fill:rgb(0,0,0);font-family:Arial;font-size:14px;">1 / 2 (10)</text>
<rect x="501" y="242" width="24" height="26" style="fill:rgb(217,217,217);"/>
<text x="513" y="255" dominant-baseline="central" text-anchor="middle" style="fill:rgb(0,0,0);font-family:Arial;font-size:14px;">&lt;</text>
<rect x="501" y="242" width="24" height="26" style="fill:none;stroke-width:1px;stroke:rgb(146,152,155);"/>
<rect x="675" y="242" width="24" height="26" style="fill:rgb(217,217,217);"/>
<text x="687" y="255" dominant-baseline="central" text-anchor="middle" style="fill:rgb(0,0,0);font-family:Arial;font-size:14px;">&gt;</text>
<rect x="675" y="242" width="24" height="26" style="fill:none;stroke-width:1px;stroke:rgb(146,152,155);"/>
<rect x="496" y="27" width="208" height="246" style="fill:none;stroke-width:1px;stroke:rgb(38,50,56);"/>
<rect x="493" y="324" width="214" height="252" style="fill:rgb(41,127,255);"/>
<rect x="496" y="327" width="208" height="34" style="fill:rgb(32,129,240);"/>
<text x="600" y="344" dominant-baseline="central" text-anchor="middle" style="fill:rgb(200,227,236);font-family:Arial;font-size:16px;">Viewer 2</text>
<rect x="496" y="361" width="208" height="36" style="fill:rgb(188,216,225);"/>
<rect x="496" y="366" width="80" height="26" style="fill:rgb(196,224,233);"/>
<text x="501" y="379" dominant-baseline="central" text-anchor="start" style="fill:rgb(0,27,36);font-family:Arial;font-size:14px;">Input</text>
<rect x="610" y="366" width="94" height="26" style="fill:rgb(196,224,233);"/>
<text x="699" y="379" dominant-baseline="central" text-anchor="end" style="fill:rgb(0,27,36);font-family:Arial;font-size:14px;">Output</text>
<rect x="496" y="397" width="208" height="140" style="fill:rgb(188,216,225);"/>
<text x="600" y="415" dominant-baseline="central" text-anchor="middle" style="fill:rgb(0,27,36);font-family:Arial;font-size:14px;">0.00</text>
<text x="600" y="441" dominant-baseline="central" text-anchor="middle" style="fill:rgb(0,27,36);font-family:Arial;font-size:14px;">0.33</text>
<text x="600" y="467" dominant-baseline="central" text-anchor="middle" style="fill:rgb(0,27,36);font-family:Arial;font-size:14px;">0.67</text>
<text x="600" y="493" dominant-baseline="central" text-anchor="middle" style="fill:rgb(0,27,36);font-family:Arial;font-size:14px;">1.00</text>
<text x="600" y="519" dominant-baseline="central" text-anchor="middle" style="fill:rgb(0,27,36);font-family:Arial;font-size:14px;">1.33</text>
<rect x="496" y="537" width="208" height="36" style="fill:rgb(188,216,225);"/>
<text x="600" y="555" dominant-baseline="central" text-anchor="middle" style="fill:rgb(0,27,36);font-family:Arial;font-size:14px;">1 / 2 (10)</text>
<rect x="501" y="542" width="24" height="26" style="fill:rgb(173,201,210);"/>
<text x="513" y="555" dominant-baseline="central" text-anchor="middle" style="fill:rgb(0,27,36);font-family:Arial;font-size:14px;">&lt;</text>
<rect x="501" y="542" width="24" height="26" style="fill:none;stroke-width:1px;stroke:rgb(116,149,160);"/>
<rect x="675" y="542" width="24" height="26" style="fill:rgb(173,201,210);"/>
<text x="687" y="555" dominant-baseline="central" text-anchor="middle" style="fill:rgb(0,27,36);font-family:Arial;font-size:14px;">&gt;</text>
<rect x="675" y="542" width="24" height="26" style="fill:none;stroke-width:1px;stroke:rgb(116,149,160);"/>
<rect x="496" y="327" width="208" height="246" style="fill:none;stroke-width:1px;stroke:rgb(30,67,81);"/>
</svg>
