<?xml version="1.0" encoding="UTF-8" standalone="no"?>
<svg
   xmlns:dc="http://purl.org/dc/elements/1.1/"
   xmlns:cc="http://creativecommons.org/ns#"
   xmlns:rdf="http://www.w3.org/1999/02/22-rdf-syntax-ns#"
   xmlns:svg="http://www.w3.org/2000/svg"
   xmlns="http://www.w3.org/2000/svg"
   xmlns:xlink="http://www.w3.org/1999/xlink"
   xmlns:sodipodi="http://sodipodi.sourceforge.net/DTD/sodipodi-0.dtd"
   xmlns:inkscape="http://www.inkscape.org/namespaces/inkscape"
   id="svg8"
   version="1.1"
   viewBox="0 0 1280 640"
   height="640"
   width="1280"
   sodipodi:docname="vse_logo_text_dark_sm.svg"
   inkscape:version="0.92.4 (5da689c313, 2019-01-14)"
   inkscape:export-filename="C:\Users\kovacsv\Desktop\vse_logo_text_sm.png"
   inkscape:export-xdpi="96"
   inkscape:export-ydpi="96">
  <sodipodi:namedview
     pagecolor="#ffffff"
     bordercolor="#666666"
     borderopacity="1"
     objecttolerance="10"
     gridtolerance="10"
     guidetolerance="10"
     inkscape:pageopacity="0"
     inkscape:pageshadow="2"
     inkscape:window-width="1920"
     inkscape:window-height="1137"
     id="namedview32"
     showgrid="false"
     inkscape:zoom="0.75016775"
     inkscape:cx="614.88183"
     inkscape:cy="313.71854"
     inkscape:window-x="-8"
     inkscape:window-y="-8"
     inkscape:window-maximized="1"
     inkscape:current-layer="svg8" />
  <defs
     id="defs2">
    <linearGradient
       id="Gradient">
      <stop
         style="stop-color:#006680;stop-opacity:1"
         offset="0"
         id="stop1100" />
      <stop
         style="stop-color:#00aa00;stop-opacity:1"
         offset="1"
         id="stop1102" />
    </linearGradient>
    <linearGradient
       gradientUnits="userSpaceOnUse"
       y2="295.67706"
       x2="7.1437497"
       y1="289.85623"
       x1="1.3229164"
       id="linearGradient825"
       xlink:href="#Gradient"
       gradientTransform="matrix(3.7795277,0,0,3.7795277,2.5000011,-1089.0196)" />
    <linearGradient
       xlink:href="#Gradient"
       id="linearGradient826"
       gradientUnits="userSpaceOnUse"
       gradientTransform="matrix(3.7795277,0,0,3.7795277,6.4403054e-7,-1090.5196)"
       x1="1.3229164"
       y1="289.85623"
       x2="7.1437497"
       y2="295.67706" />
  </defs>
  <metadata
     id="metadata5">
    <rdf:RDF>
      <cc:Work
         rdf:about="">
        <dc:format>image/svg+xml</dc:format>
        <dc:type
           rdf:resource="http://purl.org/dc/dcmitype/StillImage" />
        <dc:title></dc:title>
      </cc:Work>
    </rdf:RDF>
  </metadata>
  <rect
     style="opacity:1;fill:#006688;fill-opacity:1;fill-rule:nonzero;stroke:none;stroke-width:10;stroke-linecap:butt;stroke-linejoin:round;stroke-miterlimit:4;stroke-dasharray:none;stroke-dashoffset:0;stroke-opacity:1;paint-order:markers stroke fill"
     id="rect845"
     width="1280"
     height="640"
     x="0"
     y="0" />
  <circle
     cy="311.49219"
     cx="199"
     id="path828"
     style="opacity:1;fill:none;fill-opacity:1;stroke:#ffffff;stroke-width:9.375;stroke-linecap:butt;stroke-linejoin:round;stroke-miterlimit:4;stroke-dasharray:none;stroke-dashoffset:0;stroke-opacity:1;paint-order:normal"
     r="45.3125" />
  <path
     id="path1279"
     d="m 188.25822,300.5547 v 28.125 c 18.75,0 28.125,-9.375 28.125,-28.125"
     style="fill:none;stroke:#ffffff;stroke-width:9.375;stroke-linecap:square;stroke-linejoin:miter;stroke-miterlimit:4;stroke-dasharray:none;stroke-opacity:1"
     inkscape:connector-curvature="0" />
  <g
     id="text894"
     style="font-style:normal;font-variant:normal;font-weight:bold;font-stretch:normal;font-size:22.66667175px;line-height:1.25;font-family:'Century Gothic';-inkscape-font-specification:'Century Gothic Bold';letter-spacing:0px;word-spacing:0px;fill:#ffffff;fill-opacity:1;stroke:none;stroke-opacity:1"
     aria-label="VSE"
     transform="matrix(3.125,0,0,3.125,150.3125,245)">
    <g
       transform="translate(1.5,-0.25)"
       id="text874"
       style="font-style:normal;font-variant:normal;font-weight:bold;font-stretch:normal;font-size:18.66666603px;line-height:1.25;font-family:Montserrat;-inkscape-font-specification:'Montserrat Bold';letter-spacing:0px;word-spacing:0px;fill:#ffffff;fill-opacity:1;stroke:none"
       aria-label="VISUAL SCRIPT ENGINE">
      <path
         id="path1006"
         style="font-style:normal;font-variant:normal;font-weight:500;font-stretch:normal;font-size:22.66666603px;font-family:Montserrat;-inkscape-font-specification:'Montserrat Medium';fill:#ffffff;fill-opacity:1"
         d="M 56.184,8.2020002 49.225333,24.068666 h -2.244 L 40,8.2020002 h 2.448 L 48.16,21.235333 53.917333,8.2020002 Z"
         inkscape:connector-curvature="0" />
      <path
         id="path1008"
         style="font-style:normal;font-variant:normal;font-weight:500;font-stretch:normal;font-size:22.66666603px;font-family:Montserrat;-inkscape-font-specification:'Montserrat Medium';fill:#ffffff;fill-opacity:1"
         d="m 58.207354,8.2020002 h 2.266667 V 24.068666 h -2.266667 z"
         inkscape:connector-curvature="0" />
      <path
         id="path1010"
         style="font-style:normal;font-variant:normal;font-weight:500;font-stretch:normal;font-size:22.66666603px;font-family:Montserrat;-inkscape-font-specification:'Montserrat Medium';fill:#ffffff;fill-opacity:1"
         d="m 69.870417,24.25 q -1.790667,0 -3.468,-0.544 -1.654667,-0.566667 -2.606667,-1.450667 l 0.838667,-1.768 q 0.906667,0.816 2.312,1.337334 1.428,0.498666 2.924,0.498666 1.972,0 2.946666,-0.657333 0.974667,-0.68 0.974667,-1.790667 0,-0.816 -0.544,-1.314666 -0.521333,-0.521334 -1.314667,-0.793334 -0.770666,-0.272 -2.198666,-0.612 Q 67.94375,16.724667 66.833083,16.294 65.745084,15.863333 64.95175,14.979333 64.181084,14.072667 64.181084,12.554 q 0,-1.269333 0.657333,-2.289333 0.68,-1.0200001 2.04,-1.6320001 1.36,-0.612 3.377333,-0.612 1.405333,0 2.765333,0.3626667 1.36,0.3626666 2.334667,1.0426666 l -0.748,1.8133328 Q 73.610417,10.604667 72.477083,10.287334 71.34375,9.9473335 70.25575,9.9473335 q -1.926667,0 -2.901333,0.7026665 -0.952,0.702667 -0.952,1.813333 0,0.816 0.544,1.337334 0.544,0.498666 1.337333,0.793333 0.816,0.272 2.198667,0.589333 1.790666,0.430667 2.878666,0.861334 1.088,0.430666 1.858667,1.314666 0.793333,0.884 0.793333,2.38 0,1.246667 -0.68,2.289334 -0.68,1.019999 -2.062666,1.631999 -1.382667,0.589334 -3.4,0.589334 z"
         inkscape:connector-curvature="0" />
      <path
         id="path1012"
         style="font-style:normal;font-variant:normal;font-weight:500;font-stretch:normal;font-size:22.66666603px;font-family:Montserrat;-inkscape-font-specification:'Montserrat Medium';fill:#ffffff;fill-opacity:1"
         d="m 85.897875,24.25 q -3.173333,0 -4.941333,-1.813333 -1.768,-1.813334 -1.768,-5.213334 V 8.2020002 h 2.266666 v 8.9306668 q 0,5.1 4.465334,5.1 2.176,0 3.332,-1.246667 1.156,-1.269333 1.156,-3.853333 V 8.2020002 h 2.198666 v 9.0213328 q 0,3.422667 -1.768,5.236 Q 89.071208,24.25 85.897875,24.25 Z"
         inkscape:connector-curvature="0" />
      <path
         id="path1014"
         style="font-style:normal;font-variant:normal;font-weight:500;font-stretch:normal;font-size:22.66666603px;font-family:Montserrat;-inkscape-font-specification:'Montserrat Medium';fill:#ffffff;fill-opacity:1"
         d="m 107.00939,20.102 h -8.431995 l -1.745334,3.966666 H 94.497395 L 101.68273,8.2020002 h 2.244 l 7.208,15.8666658 h -2.38 z m -0.79333,-1.813333 -3.42267,-7.774667 -3.422662,7.774667 z"
         inkscape:connector-curvature="0" />
      <path
         id="path1016"
         style="font-style:normal;font-variant:normal;font-weight:500;font-stretch:normal;font-size:22.66666603px;font-family:Montserrat;-inkscape-font-specification:'Montserrat Medium';fill:#ffffff;fill-opacity:1"
         d="m 113.50162,8.2020002 h 2.26667 V 22.096667 h 8.59066 v 1.971999 h -10.85733 z"
         inkscape:connector-curvature="0" />
      <path
         id="path1018"
         style="font-style:normal;font-variant:normal;font-weight:500;font-stretch:normal;font-size:22.66666603px;font-family:Montserrat;-inkscape-font-specification:'Montserrat Medium';fill:#ffffff;fill-opacity:1"
         d="m 137.69333,24.25 q -1.79067,0 -3.468,-0.544 -1.65467,-0.566667 -2.60667,-1.450667 l 0.83867,-1.768 q 0.90667,0.816 2.312,1.337334 1.428,0.498666 2.924,0.498666 1.972,0 2.94667,-0.657333 0.97466,-0.68 0.97466,-1.790667 0,-0.816 -0.544,-1.314666 -0.52133,-0.521334 -1.31466,-0.793334 -0.77067,-0.272 -2.19867,-0.612 Q 135.76666,16.724667 134.656,16.294 133.568,15.863333 132.77466,14.979333 132.004,14.072667 132.004,12.554 q 0,-1.269333 0.65733,-2.289333 0.68,-1.0200001 2.04,-1.6320001 1.36,-0.612 3.37733,-0.612 1.40534,0 2.76534,0.3626667 1.36,0.3626666 2.33466,1.0426666 l -0.748,1.8133328 q -0.99733,-0.634666 -2.13066,-0.951999 -1.13334,-0.3400005 -2.22134,-0.3400005 -1.92666,0 -2.90133,0.7026665 -0.952,0.702667 -0.952,1.813333 0,0.816 0.544,1.337334 0.544,0.498666 1.33733,0.793333 0.816,0.272 2.19867,0.589333 1.79067,0.430667 2.87867,0.861334 1.088,0.430666 1.85866,1.314666 0.79334,0.884 0.79334,2.38 0,1.246667 -0.68,2.289334 -0.68,1.019999 -2.06267,1.631999 -1.38267,0.589334 -3.4,0.589334 z"
         inkscape:connector-curvature="0" />
      <path
         id="path1020"
         style="font-style:normal;font-variant:normal;font-weight:500;font-stretch:normal;font-size:22.66666603px;font-family:Montserrat;-inkscape-font-specification:'Montserrat Medium';fill:#ffffff;fill-opacity:1"
         d="m 154.24212,24.25 q -2.38,0 -4.30666,-1.042667 -1.904,-1.065333 -2.992,-2.901333 -1.088,-1.858667 -1.088,-4.170667 0,-2.312 1.088,-4.148 1.088,-1.858666 3.01466,-2.9013328 1.92667,-1.0653333 4.30667,-1.0653333 1.85867,0 3.4,0.6346667 1.54133,0.6119999 2.62933,1.8360004 l -1.47333,1.427999 Q 157.03012,10.038 154.35546,10.038 q -1.768,0 -3.196,0.793333 -1.428,0.793334 -2.244,2.198667 -0.79334,1.382667 -0.79334,3.105333 0,1.722667 0.79334,3.128 0.816,1.382667 2.244,2.176 1.428,0.793334 3.196,0.793334 2.652,0 4.46533,-1.904 l 1.47333,1.428 q -1.088,1.223999 -2.652,1.858666 -1.54133,0.634667 -3.4,0.634667 z"
         inkscape:connector-curvature="0" />
      <path
         id="path1022"
         style="font-style:normal;font-variant:normal;font-weight:500;font-stretch:normal;font-size:22.66666603px;font-family:Montserrat;-inkscape-font-specification:'Montserrat Medium';fill:#ffffff;fill-opacity:1"
         d="M 174.13567,24.068666 170.713,19.195333 q -0.63467,0.04533 -0.99733,0.04533 h -3.92134 v 4.827999 h -2.26666 V 8.2020002 h 6.188 q 3.08266,0 4.85066,1.4733333 1.768,1.4733335 1.768,4.0573335 0,1.836 -0.90666,3.128 -0.90667,1.292 -2.584,1.881333 l 3.76266,5.326666 z m -4.488,-6.754666 q 2.15333,0 3.28666,-0.929333 1.13334,-0.929334 1.13334,-2.652 0,-1.722667 -1.13334,-2.629334 Q 171.801,10.174 169.64767,10.174 h -3.85334 v 7.14 z"
         inkscape:connector-curvature="0" />
      <path
         id="path1024"
         style="font-style:normal;font-variant:normal;font-weight:500;font-stretch:normal;font-size:22.66666603px;font-family:Montserrat;-inkscape-font-specification:'Montserrat Medium';fill:#ffffff;fill-opacity:1"
         d="m 179.99642,8.2020002 h 2.26666 V 24.068666 h -2.26666 z"
         inkscape:connector-curvature="0" />
      <path
         id="path1026"
         style="font-style:normal;font-variant:normal;font-weight:500;font-stretch:normal;font-size:22.66666603px;font-family:Montserrat;-inkscape-font-specification:'Montserrat Medium';fill:#ffffff;fill-opacity:1"
         d="m 193.22348,8.2020002 q 3.08267,0 4.85067,1.4733333 1.768,1.4733335 1.768,4.0573335 0,2.584 -1.768,4.057333 -1.768,1.473333 -4.85067,1.473333 h -3.92133 v 4.805333 h -2.26667 V 8.2020002 Z m -0.068,9.0893328 q 2.15333,0 3.28667,-0.906666 1.13333,-0.929334 1.13333,-2.652 0,-1.722667 -1.13333,-2.629334 Q 195.30881,10.174 193.15548,10.174 h -3.85333 v 7.117333 z"
         inkscape:connector-curvature="0" />
      <path
         id="path1028"
         style="font-style:normal;font-variant:normal;font-weight:500;font-stretch:normal;font-size:22.66666603px;font-family:Montserrat;-inkscape-font-specification:'Montserrat Medium';fill:#ffffff;fill-opacity:1"
         d="m 205.85802,10.174 h -5.44 V 8.2020002 h 13.124 V 10.174 h -5.44 v 13.894666 h -2.244 z"
         inkscape:connector-curvature="0" />
      <path
         id="path1030"
         style="font-style:normal;font-variant:normal;font-weight:500;font-stretch:normal;font-size:22.66666603px;font-family:Montserrat;-inkscape-font-specification:'Montserrat Medium';fill:#ffffff;fill-opacity:1"
         d="m 233.65691,22.096667 v 1.971999 H 222.14225 V 8.2020002 h 11.19733 V 10.174 h -8.93067 v 4.873333 h 7.956 V 16.974 h -7.956 v 5.122667 z"
         inkscape:connector-curvature="0" />
      <path
         id="path1032"
         style="font-style:normal;font-variant:normal;font-weight:500;font-stretch:normal;font-size:22.66666603px;font-family:Montserrat;-inkscape-font-specification:'Montserrat Medium';fill:#ffffff;fill-opacity:1"
         d="M 250.97247,8.2020002 V 24.068666 h -1.85867 l -9.52,-11.831999 v 11.831999 h -2.26666 V 8.2020002 h 1.85866 L 248.7058,20.034 V 8.2020002 Z"
         inkscape:connector-curvature="0" />
      <path
         id="path1034"
         style="font-style:normal;font-variant:normal;font-weight:500;font-stretch:normal;font-size:22.66666603px;font-family:Montserrat;-inkscape-font-specification:'Montserrat Medium';fill:#ffffff;fill-opacity:1"
         d="m 266.73714,16.044667 h 2.176 v 6.188 q -1.17867,0.974666 -2.74267,1.495999 -1.564,0.521334 -3.264,0.521334 -2.40266,0 -4.32933,-1.042667 -1.92667,-1.065333 -3.03733,-2.901333 -1.088,-1.858667 -1.088,-4.170667 0,-2.312 1.088,-4.170666 1.11066,-1.858667 3.03733,-2.9013335 1.94933,-1.0426666 4.37467,-1.0426666 1.904,0 3.44533,0.6346667 1.564,0.6119999 2.652,1.8133334 L 267.64381,11.874 q -1.904,-1.836 -4.60134,-1.836 -1.81333,0 -3.264,0.793333 -1.428,0.770667 -2.244,2.176 -0.816,1.382667 -0.816,3.128 0,1.722667 0.816,3.128 0.816,1.382667 2.244,2.176 1.45067,0.793334 3.24134,0.793334 2.13066,0 3.71733,-1.02 z"
         inkscape:connector-curvature="0" />
      <path
         id="path1036"
         style="font-style:normal;font-variant:normal;font-weight:500;font-stretch:normal;font-size:22.66666603px;font-family:Montserrat;-inkscape-font-specification:'Montserrat Medium';fill:#ffffff;fill-opacity:1"
         d="m 273.23079,8.2020002 h 2.26667 V 24.068666 h -2.26667 z"
         inkscape:connector-curvature="0" />
      <path
         id="path1038"
         style="font-style:normal;font-variant:normal;font-weight:500;font-stretch:normal;font-size:22.66666603px;font-family:Montserrat;-inkscape-font-specification:'Montserrat Medium';fill:#ffffff;fill-opacity:1"
         d="M 293.91519,8.2020002 V 24.068666 h -1.85867 l -9.52,-11.831999 v 11.831999 h -2.26667 V 8.2020002 h 1.85867 l 9.52,11.8319998 V 8.2020002 Z"
         inkscape:connector-curvature="0" />
      <path
         id="path1040"
         style="font-style:normal;font-variant:normal;font-weight:500;font-stretch:normal;font-size:22.66666603px;font-family:Montserrat;-inkscape-font-specification:'Montserrat Medium';fill:#ffffff;fill-opacity:1"
         d="m 310.20118,22.096667 v 1.971999 H 298.68651 V 8.2020002 h 11.19733 V 10.174 h -8.93066 v 4.873333 h 7.956 V 16.974 h -7.956 v 5.122667 z"
         inkscape:connector-curvature="0" />
    </g>
  </g>
  <text
     xml:space="preserve"
     style="font-style:normal;font-variant:normal;font-weight:normal;font-stretch:normal;font-size:29.87465477px;line-height:1.25;font-family:Montserrat;-inkscape-font-specification:Montserrat;letter-spacing:0px;word-spacing:0px;fill:#ffffff;fill-opacity:1;stroke:none;stroke-width:2.80074883"
     x="294.02988"
     y="354.02505"
     id="text841"><tspan
       sodipodi:role="line"
       id="tspan839"
       x="294.02988"
       y="354.02505"
       style="fill:#ffffff;fill-opacity:1;stroke-width:2.80074883">A visual scripting engine designed for embedding.</tspan></text>
</svg>
