<?xml version="1.0" encoding="UTF-8" standalone="no"?>
<svg
   xmlns:dc="http://purl.org/dc/elements/1.1/"
   xmlns:cc="http://creativecommons.org/ns#"
   xmlns:rdf="http://www.w3.org/1999/02/22-rdf-syntax-ns#"
   xmlns:svg="http://www.w3.org/2000/svg"
   xmlns="http://www.w3.org/2000/svg"
   xml:space="preserve"
   enable-background="new 0 0 18 18"
   viewBox="0 0 18 18"
   y="0px"
   x="0px"
   id="Layer_1"
   version="1.1"><metadata
   id="metadata33"><rdf:RDF><cc:Work
       rdf:about=""><dc:format>image/svg+xml</dc:format><dc:type
         rdf:resource="http://purl.org/dc/dcmitype/StillImage" /><dc:title></dc:title></cc:Work></rdf:RDF></metadata><defs
   id="defs31" />
<rect
   id="rect2"
   height="11"
   width="9"
   stroke-miterlimit="10"
   stroke-linejoin="round"
   stroke-linecap="round"
   stroke="#FAFAFA"
   fill="none"
   y="5.5"
   x="1.5" />
<polyline
   id="polyline4"
   points="13.5,10   13.5,14.5 12,14.5 "
   stroke-miterlimit="10"
   stroke-linejoin="round"
   stroke-linecap="round"
   stroke="#FAFAFA"
   fill="none" />
<polyline
   id="polyline6"
   points="4.5,4   4.5,3.5 13.5,3.5 13.5,11 "
   stroke-miterlimit="10"
   stroke-linejoin="round"
   stroke-linecap="round"
   stroke="#FAFAFA"
   fill="none" />
<polyline
   id="polyline8"
   points="16.5,8.1   16.5,12.5 15,12.5 "
   stroke-miterlimit="10"
   stroke-linejoin="round"
   stroke-linecap="round"
   stroke="#FAFAFA"
   fill="none" />
<polyline
   id="polyline10"
   points="7.5,2   7.5,1.5 16.5,1.5 16.5,9 "
   stroke-miterlimit="10"
   stroke-linejoin="round"
   stroke-linecap="round"
   stroke="#FAFAFA"
   fill="none" />
<path
   id="path12"
   d="M6,12.4  c0,0.6-0.6,1.1-1.3,1.1S3.5,13,3.5,12.4"
   stroke-miterlimit="10"
   stroke-linejoin="round"
   stroke-linecap="round"
   stroke="#FAFAFA"
   fill="none" />
<path
   id="path14"
   d="M3.5,9.6  c0-0.6,0.6-1.1,1.3-1.1S6,9,6,9.6"
   stroke-miterlimit="10"
   stroke-linejoin="round"
   stroke-linecap="round"
   stroke="#FAFAFA"
   fill="none" />
<line
   id="line16"
   y2="12.4"
   x2="3.5"
   y1="9.6"
   x1="3.5"
   stroke-miterlimit="10"
   stroke-linejoin="round"
   stroke-linecap="round"
   stroke="#FAFAFA"
   fill="none" />
<line
   id="line18"
   y2="12.4"
   x2="6"
   y1="9.6"
   x1="6"
   stroke-miterlimit="10"
   stroke-linejoin="round"
   stroke-linecap="round"
   stroke="#FAFAFA"
   fill="none" />
<path
   id="path20"
   d="M6.8,13.5L6.8,13.5  L6.8,13.5z"
   stroke-miterlimit="10"
   stroke-linejoin="round"
   stroke-linecap="round"
   stroke="#FAFAFA"
   fill="none" />
<g
   id="g26">
	
		<line
   id="line22"
   y2="8.5"
   x2="8.5"
   y1="9.1"
   x1="7.2"
   stroke-miterlimit="10"
   stroke-linejoin="round"
   stroke-linecap="round"
   stroke="#FAFAFA"
   fill="none" />
	
		<line
   id="line24"
   y2="8.5"
   x2="8.5"
   y1="13.5"
   x1="8.5"
   stroke-miterlimit="10"
   stroke-linejoin="round"
   stroke-linecap="round"
   stroke="#FAFAFA"
   fill="none" />
</g>
</svg>