<?xml version="1.0" encoding="UTF-8" standalone="no"?>
<svg
   xmlns:dc="http://purl.org/dc/elements/1.1/"
   xmlns:cc="http://creativecommons.org/ns#"
   xmlns:rdf="http://www.w3.org/1999/02/22-rdf-syntax-ns#"
   xmlns:svg="http://www.w3.org/2000/svg"
   xmlns="http://www.w3.org/2000/svg"
   version="1.1"
   id="Layer_1"
   x="0px"
   y="0px"
   viewBox="0 0 18 18"
   enable-background="new 0 0 18 18"
   xml:space="preserve"><metadata
   id="metadata29"><rdf:RDF><cc:Work
       rdf:about=""><dc:format>image/svg+xml</dc:format><dc:type
         rdf:resource="http://purl.org/dc/dcmitype/StillImage" /><dc:title></dc:title></cc:Work></rdf:RDF></metadata><defs
   id="defs27" />
<path
   style="fill:none;stroke:#FAFAFA;stroke-linecap:round;stroke-linejoin:round;stroke-miterlimit:10"
   stroke-miterlimit="10"
   d="m 6.5,6.5 v -4 c 0,-0.6 0.3,-1 0.8,-1 h 8.4 c 0.5,0 0.8,0.4 0.8,1 v 13 c 0,0.6 -0.3,1 -0.8,1 H 7.3 c -0.5,0 -0.8,-0.4 -0.8,-1 v -3"
   id="path2" />
<line
   fill="none"
   stroke="#FAFAFA"
   stroke-linecap="round"
   stroke-linejoin="round"
   stroke-miterlimit="10"
   x1="14.5"
   y1="5.5"
   x2="8.5"
   y2="5.5"
   id="line4" />
<line
   fill="none"
   stroke="#FAFAFA"
   stroke-linecap="round"
   stroke-linejoin="round"
   stroke-miterlimit="10"
   x1="14.5"
   y1="8.5"
   x2="12.5"
   y2="8.5"
   id="line6" />
<line
   fill="none"
   stroke="#FAFAFA"
   stroke-linecap="round"
   stroke-linejoin="round"
   stroke-miterlimit="10"
   x1="14.5"
   y1="11.5"
   x2="12"
   y2="11.5"
   id="line8" />
<line
   fill="none"
   stroke="#FAFAFA"
   stroke-linecap="round"
   stroke-linejoin="round"
   stroke-miterlimit="10"
   x1="14.5"
   y1="14.5"
   x2="8.5"
   y2="14.5"
   id="line10" />
<path
   fill="none"
   stroke="#FAFAFA"
   stroke-linecap="round"
   stroke-linejoin="round"
   stroke-miterlimit="10"
   d="M10,17.5"
   id="path12" />

<g
   id="g22">
	<polyline
   fill="none"
   stroke="#FAFAFA"
   stroke-linecap="round"
   stroke-linejoin="round"
   stroke-miterlimit="10"
   points="8.7,7.7    10.5,9.5 8.7,11.3  "
   id="polyline16" />
	<path
   fill="none"
   stroke="#FAFAFA"
   stroke-linecap="round"
   stroke-linejoin="round"
   stroke-miterlimit="10"
   d="M1.5,14   c0-2.5,2-4.5,4.5-4.5h3.2"
   id="path18" />
	<path
   fill="none"
   stroke="#FAFAFA"
   stroke-linecap="round"
   stroke-linejoin="round"
   stroke-miterlimit="10"
   d="M1.5,5   c0,2.5,2,4.5,4.5,4.5h4.1"
   id="path20" />
</g>
<rect
   y="2.4406779"
   x="7"
   height="0.55932206"
   width="6.4427967"
   id="rect825"
   style="opacity:1;fill:none;fill-opacity:1;stroke:none;stroke-width:3.9987402;stroke-linecap:square;stroke-linejoin:miter;stroke-miterlimit:4;stroke-dasharray:none;stroke-dashoffset:0;stroke-opacity:1;paint-order:normal" /><rect
   y="2"
   x="7"
   height="1"
   width="8.7118645"
   id="rect827"
   style="opacity:1;fill:none;fill-opacity:1;stroke:none;stroke-width:3.9987402;stroke-linecap:square;stroke-linejoin:miter;stroke-miterlimit:4;stroke-dasharray:none;stroke-dashoffset:0;stroke-opacity:1;paint-order:normal" /><rect
   y="1.6629258"
   x="6.6359596"
   height="2.3370743"
   width="9.6202164"
   id="rect829"
   style="opacity:1;fill:#FAFAFA;fill-opacity:1;stroke:none;stroke-width:5.28666353;stroke-linecap:square;stroke-linejoin:miter;stroke-miterlimit:4;stroke-dasharray:none;stroke-dashoffset:0;stroke-opacity:1;paint-order:normal" /></svg>